<?xml version="1.0" encoding="UTF-8"?>
<svg id="Capa_1" data-name="Capa 1" xmlns="http://www.w3.org/2000/svg" viewBox="0 0 10557.8 1024">
  <defs>
    <style>
      .cls-1 {
        fill: #fff;
      }

      .cls-2 {
        fill: #fbfbfb;
      }

      .cls-3 {
        fill: #e0e0e0;
      }

      .cls-4 {
        fill: none;
      }

      .cls-5 {
        fill: #ebebeb;
      }

      .cls-6 {
        fill: #f5f5f5;
      }
    </style>
  </defs>
  <g id="Background">
    <g>
      <rect class="cls-3" x="1396.16" y="113.44" width="124.63" height="129.92"/>
      <rect class="cls-2" x="1387.71" y="113.44" width="124.63" height="129.92"/>
      <path class="cls-3" d="M1512.39,243.4h-124.72V113.4h124.72v130ZM1387.75,243.4h124.55V113.48h-124.55v129.92Z"/>
      <rect class="cls-2" x="1404.46" y="130.89" width="91.13" height="95"/>
      <path class="cls-3" d="M1404.46,226.52c-.64.96-1.39,1.83-2.24,2.61-1.46,1.54-3.49,3.62-5.8,5.88s-4.4,4.25-5.96,5.69c-.79.83-1.68,1.56-2.63,2.2.64-.96,1.39-1.83,2.24-2.61,1.46-1.54,3.51-3.62,5.8-5.88s4.42-4.3,5.98-5.71c.78-.83,1.65-1.56,2.61-2.18Z"/>
      <path class="cls-3" d="M1495.59,226.28c.95.66,1.82,1.42,2.61,2.26,1.54,1.46,3.62,3.49,5.88,5.8s4.25,4.4,5.69,5.94c.82.8,1.56,1.68,2.2,2.63-.95-.63-1.83-1.38-2.61-2.22-1.54-1.46-3.62-3.51-5.88-5.82s-4.3-4.4-5.71-5.96c-.83-.79-1.56-1.67-2.18-2.63Z"/>
      <path class="cls-3" d="M1495.35,131.16c.63-.96,1.39-1.84,2.24-2.61,1.46-1.54,3.49-3.62,5.8-5.88s4.4-4.28,5.96-5.69c.78-.84,1.66-1.58,2.63-2.2-.65.95-1.4,1.83-2.24,2.61-1.46,1.52-3.51,3.62-5.82,5.88s-4.4,4.28-5.96,5.71c-.78.82-1.66,1.55-2.61,2.18Z"/>
      <path class="cls-3" d="M1404.21,131.36c-.95-.65-1.83-1.4-2.61-2.24-1.54-1.46-3.62-3.51-5.88-5.8s-4.25-4.3-5.69-5.94c-.84-.78-1.58-1.66-2.2-2.63.96.63,1.83,1.38,2.61,2.22,1.54,1.46,3.62,3.49,5.88,5.8s4.28,4.42,5.71,5.98c.82.78,1.55,1.66,2.18,2.61Z"/>
      <path class="cls-3" d="M1495.35,225.91c-.02-.15-.02-.3,0-.45v-25.81c0-16.65-.1-40.35-.16-68.73l.35.35h-90.87l.41-.41v95l-.35-.35,65.77.18h23.39-23.31l-66.02.18h-.35v.04-95.39h91.63v.35c0,28.49-.14,52.27-.19,68.96v25.61c-.31.31-.31.47-.31.47Z"/>
      <rect class="cls-5" x="1434.82" y="163.18" width="30.4" height="30.4"/>
    </g>
    <rect class="cls-3" x="1214.52" y="127.68" width="17.68" height="87.91" transform="translate(-.91 6.62) rotate(-.31)"/>
    <rect class="cls-5" x="1061.36" y="127.96" width="45.75" height="48.53" transform="translate(-.81 5.87) rotate(-.31)"/>
    <rect class="cls-6" x="1106.9" y="127.73" width="45.75" height="48.53" transform="translate(-.81 6.11) rotate(-.31)"/>
    <path class="cls-3" d="M1061.3,141.5c30.4.27,60.88,0,91.28-.41.27-.06.44-.32.38-.58-.04-.19-.19-.34-.38-.38-30.4-.16-60.88,0-91.28.55-.23,0-.41.18-.41.41s.18.41.41.41h0Z"/>
    <rect class="cls-5" x="1032.8" y="175.8" width="83.12" height="39.54" transform="translate(-1.04 5.82) rotate(-.31)"/>
    <rect class="cls-6" x="1115.54" y="175.33" width="83.12" height="39.54" transform="translate(-1.04 6.26) rotate(-.31)"/>
    <path class="cls-3" d="M1032.75,187.03c55.23.62,110.62,0,165.84-.82.27-.06.44-.32.38-.58-.04-.19-.19-.34-.38-.38-55.21-.29-110.62-.27-165.82.95-.23.05-.38.28-.33.51.04.16.16.29.33.33h-.02Z"/>
    <rect class="cls-3" x="1001.68" y="215.58" width="322.01" height="14.16"/>
    <rect class="cls-3" x="1054.4" y="222.38" width="13.07" height="48.34"/>
    <rect class="cls-3" x="1249.53" y="222.38" width="13.07" height="48.34"/>
    <rect class="cls-5" x="1232.64" y="93.26" width="17.66" height="120.9" transform="translate(-1.47 12.42) rotate(-.57)"/>
    <rect class="cls-6" x="1249.6" y="117.41" width="27.46" height="97.98" transform="translate(-.88 6.84) rotate(-.31)"/>
    <path class="cls-3" d="M1276.58,136.24c-4.55.48-9.13.63-13.71.47-4.58.16-9.17,0-13.73-.47,4.56-.48,9.15-.63,13.73-.47,4.58-.16,9.16,0,13.71.47Z"/>
    <path class="cls-3" d="M1276.58,132.13c-4.55.46-9.13.62-13.71.47-4.58.15-9.17,0-13.73-.47,4.56-.49,9.15-.65,13.73-.49,4.58-.16,9.16,0,13.71.49Z"/>
    <path class="cls-3" d="M1276.58,200.6c-4.55.48-9.13.63-13.71.47-4.58.16-9.17,0-13.73-.47,4.56-.48,9.15-.63,13.73-.47,4.58-.16,9.16,0,13.71.47Z"/>
    <path class="cls-3" d="M1276.58,196.48c-4.55.48-9.13.63-13.71.47-4.58.16-9.17,0-13.73-.47,4.56-.48,9.15-.63,13.73-.47,4.58-.16,9.16,0,13.71.47Z"/>
    <path class="cls-3" d="M1263.3,187.5c-.27,0-.47-9.89-.47-22.07s.21-22.07.47-22.07.47,9.89.47,22.07-.21,22.07-.47,22.07Z"/>
    <rect class="cls-5" x="1276.89" y="141.42" width="29.88" height="73.95"/>
    <circle class="cls-3" cx="1240.08" cy="115.5" r="5.08"/>
    <rect class="cls-3" x="1238.51" y="129.46" width="3.14" height="71.92"/>
    <g id="freepik--background-complete--inject-128">
      <g>
        <path class="cls-5" d="M748.43,531.23s-24.71-17.24-36.05-14.12-25.91,19.09-25.91,19.09c0,0,28.8-8.29,37.49-6.57,8.69,1.72,24.47,1.6,24.47,1.6Z"/>
        <path class="cls-6" d="M756.74,537.52c-3.6,8.15-9.81,14.94-13.28,23.13-3.96,9.48-4.03,20.15-.18,29.68,6.39-7.14,10.74-15.87,12.6-25.27,1.81-8.7,2.78-17.55,2.88-26.43l-2.02-1.1Z"/>
        <path class="cls-5" d="M752.95,535.32c1.12-3.32-26.86-1.86-35.77,8.93s-17.84,22.51-10.33,49.73c0,0,16.9-29.5,16.9-29.06s26.96-23.03,29.2-29.6Z"/>
        <path class="cls-5" d="M753.17,535c-2.6,1,22.81,8.73,34.55,9.69,6.43.73,12.94-.3,18.82-2.98,0,0-17.04-20.81-53.37-6.71Z"/>
        <path class="cls-5" d="M881.58,642.1s12.26-4.99,15.68-1.54,17.6,22.19,30.98,23.33c0,0-12.24-26.03-23.33-30.2-7.29-2.78-23.33,8.41-23.33,8.41Z"/>
        <path class="cls-5" d="M884.75,640.68s-.5-9.17-5.11-14.02c-4.61-4.85-21.27-8.13-21.27-8.13,0,0,6.01,9.61,12.16,14.3,4.41,3.17,9.18,5.81,14.22,7.85Z"/>
        <path class="cls-5" d="M884.73,640.16s-8.53-.12-14.56,10.53c-4.03,7.25-6.99,15.05-8.79,23.15.5-.88,16.02-7.71,20.17-16.32,2.48-5.43,3.58-11.4,3.18-17.36Z"/>
        <path class="cls-5" d="M886.67,640.16s1.52,20.29,4.97,23.73,8.41,16.02,8.41,16.02c0,0,7.65-18.34,3.44-27.16s-16.82-12.6-16.82-12.6Z"/>
        <path class="cls-5" d="M812.85,679.87c-.98,1.46-20.63,16.68-23.57,24.03-2.94,7.35-.48,18.64,0,22.03s17.68-4.43,20.63-17.66c1.86-9.35,2.85-18.86,2.94-28.4Z"/>
        <path class="cls-5" d="M816.68,668.47c0,2.44.28,26.5,6.61,34.89,6.33,8.39,18.02,17.32,18.02,17.32,0,0,4.17-30.4-4.61-39.79-5.52-5.76-12.41-10.03-20.03-12.42Z"/>
        <path class="cls-5" d="M813.75,672.6c-1.44-.34-19.21-2-27.66,8.01-5.34,6.58-9.77,13.85-13.18,21.61,0,0,26.88-13.34,31.78-19.23s9.05-10.39,9.05-10.39Z"/>
        <path class="cls-5" d="M825.99,661.69c4.55-3.12,10.51-3.27,15.22-.4,8.01,4.97,21.25,24.27,21.25,24.27,0,0-16.24-1.06-24.79-9.19-4.69-4.21-8.63-9.17-11.68-14.68Z"/>
        <path class="cls-5" d="M814.46,664.57s-10.31-8.75-18.16-10.69c-7.85-1.94-30.92,3.81-30.92,3.81,7.86,5.31,17.31,7.75,26.76,6.91,15.94-1.38,22.33-.02,22.33-.02Z"/>
        <path class="cls-5" d="M779.71,753.19s-7.37,14.24,0,22.03c7.37,7.79,11.33,23.57,11.33,23.57,0,0,12.72-12.28,6.33-26.03-3.78-8.15-9.94-14.97-17.66-19.57Z"/>
        <path class="cls-5" d="M767.93,753.51c-2,.98-14.72,18.16-15.7,30.44s-2,33.36,0,31.9,16.2-14.74,20.03-27.5-4.33-34.85-4.33-34.85Z"/>
        <path class="cls-5" d="M763.13,752.16c-2,.48-20.61-2.94-30.92,10.29-10.31,13.24-18.16,32.4-18.16,32.4,0,0,27-13.8,33.38-21.39,6.39-7.59,15.7-21.31,15.7-21.31Z"/>
        <path class="cls-5" d="M868.49,728.59s-5.61,16.7,0,31.42c3.21,8.54,7.23,16.76,12.02,24.53,0,0,8.29-29.44,2.92-37.29s-14.94-18.66-14.94-18.66Z"/>
        <path class="cls-5" d="M871.55,726.83c2,1.84,25.01,34.89,40.65,37.83,15.64,2.94,2.46-1.24,2.46-1.24,0,0-4.95-22.29-12.02-31.5-7.07-9.21-31.1-5.09-31.1-5.09Z"/>
        <path class="cls-5" d="M868.05,726.25s17-11.8,23.63-14.8c6.63-3,28.62.96,28.62.96,0,0-26.68,13.88-33.1,12.4-6.43-1.48-19.15,4.23-19.15,4.23"/>
        <path class="cls-5" d="M927.12,565.56s-14.74,15.6-12.78,27.78c1.4,8.13,3.51,16.12,6.29,23.89l6.49-21.45v-30.22Z"/>
        <path class="cls-5" d="M929.11,562.41s-3.4,23.89,3.4,33.62,16.02,28.28,17.06,26.82,15.12-14.14,4.89-32.16c-6.4-11.08-15.04-20.71-25.35-28.28Z"/>
        <path class="cls-5" d="M924.16,566.64s-23.51-6.83-26.9,4.39-6.31,20.97-6.31,20.97c4.98-5.2,10.55-9.8,16.6-13.7,5.76-3.55,11.3-7.45,16.6-11.66Z"/>
        <path class="cls-5" d="M818.7,572.97s.7-.64,2-1.68c5.55-4.73,21.77-17.76,30.04-15.76,8.1,2.28,16.03,5.16,23.71,8.61,0,0-35.69,18.46-55.75,8.83Z"/>
        <path class="cls-5" d="M823.47,573.13c0-1.78-10.69-4.63-20.03,5.13-9.33,9.75-10.91,15.72-10.91,15.72,0,0,30.28-4.03,30.94-20.85Z"/>
        <path class="cls-5" d="M822.31,575.57s-10.79,12.44-2.5,24.61,15.46,23.89,15.46,23.89c2.54-7.88,2.54-16.37,0-24.25-3-8.72-7.38-16.91-12.96-24.25Z"/>
        <path class="cls-5" d="M862.2,606.03c-.5-2.96,3.42-27.32-28.78-24.89h-2.94s15.4,24.85,18.93,32.64c2.12,5.33,5.57,10.03,10.01,13.66,3.74,3.4,3.26-18.44,2.78-21.41Z"/>
        <path class="cls-5" d="M868.43,727.59c.41-7.69-2.35-15.2-7.65-20.79-.48-.52-1.2-1.06-1.84-.76-.41.25-.7.67-.78,1.14-1.19,4.52-.55,9.33,1.78,13.38,2.33,4,5.27,7.62,8.71,10.71"/>
        <path class="cls-5" d="M777.71,750.04c-5.81-10.61-14.96-19-26.03-23.87-.66-.38-1.43-.54-2.18-.46-1.14.37-1.94,1.41-2,2.6-.03,2.41.86,4.73,2.48,6.51,7.1,9.27,17.49,15.48,29.02,17.34"/>
        <path class="cls-3" d="M906.7,714.09c0,.1-1.66.1-4.61.46-4.2.56-8.31,1.63-12.24,3.2-5.79,2.3-11.24,5.37-16.2,9.13-6.06,4.67-11.78,9.75-17.14,15.2-11.7,11.38-22.03,21.93-29.16,29.88-3.58,4.01-6.41,7.23-8.37,9.49l-2.26,2.6c-.24.32-.53.61-.84.86.18-.36.4-.69.66-1,.48-.64,1.16-1.58,2-2.74,1.84-2.36,4.59-5.71,8.01-9.75,7.01-8.01,17.26-18.8,28.96-30.18,5.4-5.49,11.19-10.58,17.32-15.24,5.07-3.77,10.63-6.81,16.54-9.03,3.99-1.49,8.16-2.43,12.4-2.8,1.15-.11,2.31-.15,3.46-.12.49-.07.98-.06,1.46.04Z"/>
        <path class="cls-3" d="M815.34,777.84c-.18.12-2-3.2-6.29-7.65-11.01-11.79-26.75-17.97-42.84-16.82-6.01.42-9.75,1.56-9.81,1.34.8-.41,1.66-.71,2.54-.88,2.36-.62,4.78-1.05,7.21-1.28,16.43-1.69,32.67,4.66,43.6,17.04,1.63,1.82,3.11,3.78,4.41,5.85.5.74.9,1.55,1.18,2.4Z"/>
        <path class="cls-3" d="M821.77,572.79c.03.23.03.47,0,.7,0,.52-.06,1.19-.18,2-.18,1.88-.44,4.53-.78,7.87-.68,6.83-1.68,16.7-2.78,28.92-2.16,24.43-4.73,58.28-4.67,95.69s2.74,71.27,4.65,95.73c.98,12.18,1.8,22.03,2.36,28.96.26,3.36.46,6.01.6,7.89,0,.84.1,1.52.14,2,.03.23.03.47,0,.7-.06-.22-.1-.45-.12-.68,0-.54-.16-1.2-.26-2-.2-1.88-.46-4.51-.82-7.87-.68-6.83-1.64-16.7-2.72-28.94-2.12-24.43-4.87-58.28-4.99-95.79-.12-37.51,2.62-71.33,5.01-95.75,1.2-12.22,2.32-22.03,3.16-28.9.42-3.34.76-6.01.98-7.85.12-.84.22-1.5.3-2,.02-.23.06-.46.12-.68Z"/>
        <path class="cls-3" d="M895.08,638.67c-1.12.27-2.27.45-3.42.52-2.22.24-5.41.66-9.33,1.3-20.47,3.25-40.19,10.15-58.22,20.39-3.46,2-6.23,3.6-8.01,4.81-.94.67-1.95,1.24-3,1.72.85-.78,1.77-1.48,2.74-2.1,1.8-1.32,4.51-3.08,8.01-5.15,17.88-10.68,37.73-17.65,58.36-20.51,4.01-.52,7.17-.84,9.41-.92,1.15-.12,2.31-.14,3.46-.06Z"/>
        <path class="cls-3" d="M815.6,627.8c-.15-.42-.25-.86-.3-1.3-.18-1-.4-2.24-.66-3.79-.29-2.02-.68-4.03-1.18-6.01-.6-2.28-1.04-4.95-2-7.75-.44-1.42-.92-2.9-1.4-4.45s-1.18-3.08-1.8-4.71c-1.18-3.3-2.9-6.61-4.59-10.15-3.98-7.53-8.68-14.66-14.02-21.29-9.91-11.92-21.46-22.38-34.31-31.06-2.4-1.76-4.73-3.12-6.71-4.43s-3.72-2.34-5.15-3.18l-3.28-2c-.4-.21-.78-.47-1.12-.76.43.14.84.33,1.22.56l3.4,1.8c1.46.78,3.26,1.76,5.29,3.02s4.37,2.56,6.81,4.29c13.06,8.56,24.77,19.01,34.75,31.02,5.37,6.69,10.07,13.91,14.02,21.53,1.68,3.58,3.36,6.97,4.53,10.29.6,1.66,1.3,3.2,1.76,4.79s.9,3.06,1.34,4.51c.94,2.84,1.34,5.53,1.88,7.83.45,1.98.78,3.99.98,6.01.18,1.56.32,2.82.44,3.83.1.46.13.93.1,1.4Z"/>
        <path class="cls-3" d="M930.79,564.42c-.39.22-.8.4-1.22.54l-3.6,1.36c-3.14,1.12-7.67,2.84-13.22,5.09-28.94,11.55-56.34,26.63-81.59,44.88-4.85,3.5-8.73,6.41-11.36,8.45l-3.08,2.32c-.34.3-.72.55-1.12.74.29-.35.62-.66.98-.92l2.92-2.5c2.56-2.16,6.37-5.17,11.17-8.75,12.52-9.32,25.66-17.78,39.33-25.31,13.69-7.51,27.86-14.09,42.44-19.69,5.59-2.12,10.17-3.74,13.36-4.75l3.68-1.14c.42-.16.86-.27,1.3-.32Z"/>
        <rect class="cls-3" x="756.4" y="823.96" width="139.3" height="19.37"/>
        <path class="cls-3" d="M764.35,839.1c0,2.12,23.81,100.65,23.81,100.65h75.8s22.79-100.65,23.79-100.65h-123.4Z"/>
        <path class="cls-5" d="M895.4,843.43c0,.3-31,.52-69.23.52s-69.23-.22-69.23-.52,30.98-.52,69.23-.52,69.23.24,69.23.52Z"/>
      </g>
    </g>
    <g>
      <path class="cls-3" d="M2890.11,354.15s-.02-.19-.04-.52c0-.39-.02-.87-.04-1.48-.02-1.37-.04-3.26-.08-5.69-.04-4.99-.12-12.16-.19-21.2l.35.35c-24.94.06-64.6.13-109.22.21.25-.25-.56.56.56-.56h0v28.88l-.54-.54c31.09.1,58.31.19,77.84.25,9.72.06,17.52.12,22.98.15,2.66.04,4.72.06,6.21.08.67,0,1.2.02,1.62.04.37,0,.56.02.58.04,0,0-.15.02-.5.04-.4,0-.93.02-1.56.04-1.47,0-3.49.04-6.09.08-5.42.04-13.19.1-22.84.15-19.62.06-46.96.15-78.22.25h-.54v-29.4h0c1.12-1.14.31-.33.56-.58,44.62.1,84.28.17,109.22.21h.35v.35c-.08,9.14-.15,16.37-.19,21.4-.04,2.39-.06,4.26-.08,5.61,0,.58-.02,1.06-.04,1.43,0,.31-.02.46-.04.46l-.04-.04Z"/>
      <path class="cls-3" d="M2904.91,325.26s-.02-.19-.04-.56c0-.42-.02-.93-.04-1.52-.02-1.43-.06-3.35-.1-5.8-.06-5.07-.12-12.22-.21-21.01l.4.4c-17,.04-40.13.1-65.62.15-.5.5.67-.67.56-.56h0v14.88c0,4.84,0,9.52-.02,14.01l-.52-.52c18.95.1,35.26.19,46.94.25,5.76.06,10.39.12,13.67.15,1.54.02,2.76.06,3.68.06.85.02,1.29.04,1.31.06s-.39.04-1.2.06c-.91,0-2.08.04-3.59.06-3.26.04-7.85.08-13.55.15-11.78.06-28.22.15-47.3.25h-.52v-.52c0-4.49,0-9.18-.02-14.01v-14.86h0c-.12.1,1.06-1.08.56-.58,25.48.06,48.62.12,65.62.15h.4v.4c-.1,8.91-.17,16.13-.21,21.26-.04,2.41-.08,4.3-.1,5.71-.04,1.29-.06,1.95-.08,1.93h-.04Z"/>
    </g>
    <g>
      <path class="cls-3" d="M3138.92,515.4s-.02-.19-.04-.52c0-.39-.02-.87-.04-1.48-.02-1.37-.04-3.26-.08-5.69-.04-4.99-.12-12.16-.19-21.2l.35.35c-24.94.06-64.6.13-109.22.21.25-.25-.56.56.56-.56h0v28.88l-.54-.54c31.09.1,58.31.19,77.84.25,9.72.06,17.52.12,22.98.15,2.66.04,4.72.06,6.21.08.67,0,1.2.02,1.62.04.37,0,.56.02.58.04,0,0-.15.02-.5.04-.4,0-.93.02-1.56.04-1.47,0-3.49.04-6.09.08-5.42.04-13.19.1-22.84.15-19.62.06-46.96.15-78.22.25h-.54v-29.4h0c1.12-1.14.31-.33.56-.58,44.62.1,84.28.17,109.22.21h.35v.35c-.08,9.14-.15,16.37-.19,21.4-.04,2.39-.06,4.26-.08,5.61,0,.58-.02,1.06-.04,1.43,0,.31-.02.46-.04.46l-.04-.04Z"/>
      <path class="cls-3" d="M3153.73,486.5s-.02-.19-.04-.56c0-.42-.02-.93-.04-1.52-.02-1.43-.06-3.35-.1-5.8-.06-5.07-.12-12.22-.21-21.01l.4.4c-17,.04-40.13.1-65.62.15-.5.5.67-.67.56-.56h0v14.88c0,4.84,0,9.52-.02,14.01l-.52-.52c18.95.1,35.26.19,46.94.25,5.76.06,10.39.12,13.67.15,1.54.02,2.76.06,3.68.06.85.02,1.29.04,1.31.06s-.39.04-1.2.06c-.91,0-2.08.04-3.59.06-3.26.04-7.85.08-13.55.15-11.78.06-28.22.15-47.3.25h-.52v-.54c0-4.49,0-9.18-.02-14.01v-14.86h0c-.12.1,1.06-1.08.56-.58,25.48.06,48.62.12,65.62.15h.4v.4c-.1,8.91-.17,16.13-.21,21.26-.04,2.41-.08,4.3-.1,5.71-.04,1.29-.06,1.95-.08,1.93l-.04.02Z"/>
    </g>
    <rect class="cls-5" x="3223.05" y="817.9" width="96.21" height="25.44"/>
    <g>
      <rect class="cls-5" x="3152.78" y="217.05" width="96.21" height="25.44"/>
      <path class="cls-3" d="M3208.3,269.3s-.02-.17-.04-.46c0-.35,0-.77-.04-1.31,0-1.2-.04-2.87-.08-5.01-.04-4.4-.1-10.72-.17-18.68l.29.29c-21.98.04-56.9.12-96.21.19.21-.21-.5.48.48-.48h0v25.43l-.48-.48c27.39.1,51.37.15,68.57.21,8.56.06,15.44.1,20.24.13,2.33.02,4.16.04,5.47.06.6,0,1.06.02,1.43.04.33,0,.5.02.5.04,0,0-.13.02-.44.04-.35,0-.81,0-1.37.04-1.29,0-3.08.04-5.36.06-4.78.04-11.6.08-20.12.13-17.27.06-41.37.13-68.89.21h-.48v-25.87h0v-.04h0c.98-.98.27-.27.5-.5,39.3.08,74.23.15,96.21.19h.31v.29c-.08,8.04-.13,14.42-.17,18.85-.04,2.12-.06,3.76-.08,4.93,0,.52-.02.93-.04,1.25,0,.27-.02.4-.04.4l.02.04Z"/>
    </g>
    <g>
      <path class="cls-3" d="M3231.63,746.44s-.02-.19-.04-.52c0-.39-.02-.87-.04-1.48-.02-1.37-.04-3.26-.08-5.69-.04-4.99-.12-12.16-.19-21.2l.35.35c-24.94.06-64.6.13-109.22.21.25-.25-.56.56.56-.56h0v28.88l-.54-.54c31.09.1,58.31.19,77.84.25,9.72.06,17.52.12,22.98.15,2.66.04,4.72.06,6.21.08.67,0,1.2.02,1.62.04.37,0,.56.02.58.04s-.15.02-.5.04c-.4,0-.93.02-1.56.04-1.47,0-3.49.04-6.09.08-5.42.04-13.19.1-22.84.15-19.62.06-46.96.15-78.22.25h-.54v-29.4h0c1.12-1.14.31-.33.56-.58,44.62.1,84.28.17,109.22.21h.35v.35c-.08,9.14-.15,16.37-.19,21.4-.04,2.39-.06,4.26-.08,5.61,0,.58-.02,1.06-.04,1.43,0,.31-.02.46-.04.46l-.04-.04Z"/>
      <path class="cls-3" d="M3246.45,717.55s-.02-.19-.04-.56c0-.42-.02-.93-.04-1.52-.02-1.43-.06-3.35-.1-5.8-.06-5.07-.12-12.22-.21-21.01l.4.4c-17,.04-40.13.1-65.62.15-.5.5.67-.67.56-.56h0v14.88c0,4.84,0,9.52-.02,14.01l-.52-.52c18.95.1,35.26.19,46.94.25,5.76.06,10.39.12,13.67.15,1.54.02,2.76.06,3.68.06.85.02,1.29.04,1.31.06s-.39.04-1.2.06c-.91,0-2.08.04-3.59.06-3.26.04-7.85.08-13.55.15-11.78.06-28.22.15-47.3.25h-.52v-.52c0-4.49,0-9.18-.02-14.01v-14.86h0c-.12.1,1.06-1.08.56-.58,25.48.06,48.62.12,65.62.15h.4v.4c-.1,8.91-.17,16.13-.21,21.26-.04,2.41-.08,4.3-.1,5.71-.04,1.29-.06,1.95-.08,1.93h-.04Z"/>
    </g>
    <path class="cls-3" d="M3348.08,934.45h-118.34v-.12c0-4.32,3.51-7.81,7.81-7.81h102.72c4.32,0,7.81,3.51,7.81,7.81v.12h0Z"/>
    <g>
      <rect class="cls-5" x="2780.42" y="95.66" width="96.21" height="25.44"/>
      <path class="cls-3" d="M2921.16,152.48s-.02-.17-.04-.46c0-.35,0-.77-.04-1.31,0-1.2-.04-2.87-.08-5.01-.04-4.4-.1-10.72-.17-18.68l.29.29c-21.98.04-56.9.12-96.21.19.21-.21-.5.48.48-.48h0v25.43l-.48-.48c27.39.1,51.37.15,68.57.21,8.56.06,15.44.1,20.24.13,2.33.02,4.16.04,5.47.06.6,0,1.06.02,1.43.04.33,0,.5.02.5.04,0,0-.13.02-.44.04-.35,0-.81,0-1.37.04-1.29,0-3.08.04-5.36.06-4.78.04-11.6.08-20.12.13-17.27.06-41.37.13-68.89.21h-.48v-25.87h0v-.04h0c.98-.98.27-.27.5-.5,39.3.08,74.23.15,96.21.19h.31v.29c-.08,8.04-.13,14.42-.17,18.85-.04,2.12-.06,3.76-.08,4.93,0,.52-.02.93-.04,1.25,0,.27-.02.4-.04.4l.02.04Z"/>
      <rect class="cls-5" x="3856.88" y="95.66" width="96.21" height="25.44"/>
      <path class="cls-3" d="M3997.62,152.48s-.02-.17-.04-.46c0-.35,0-.77-.04-1.31,0-1.2-.04-2.87-.08-5.01-.04-4.4-.1-10.72-.17-18.68l.29.29c-21.98.04-56.9.12-96.21.19.21-.21-.5.48.48-.48h0v25.43l-.48-.48c27.39.1,51.37.15,68.57.21,8.56.06,15.44.1,20.24.13,2.33.02,4.16.04,5.47.06.6,0,1.06.02,1.43.04.33,0,.5.02.5.04,0,0-.13.02-.44.04-.35,0-.81,0-1.37.04-1.29,0-3.08.04-5.36.06-4.78.04-11.6.08-20.12.13-17.27.06-41.37.13-68.89.21h-.48v-25.87h0v-.04h0c.98-.98.27-.27.5-.5,39.3.08,74.23.15,96.21.19h.31v.29c-.08,8.04-.13,14.42-.17,18.85-.04,2.12-.06,3.76-.08,4.93,0,.52-.02.93-.04,1.25,0,.27-.02.4-.04.4l.02.04Z"/>
    </g>
    <g id="freepik--background-complete--inject-2">
      <path class="cls-5" d="M4081.11,324.18l-30.41.65-15.44.25c-5.17.12-10.36,0-15.53.12h-1.02v-1.02l-.14-25.93v-1.16h1.16l30.69.14c10.24,0,20.47.25,30.69.39h.65v.63c0,4.4-.21,8.78-.32,13.09l-.32,12.84ZM4081.11,324.18l-.32-13.12c0-4.31-.25-8.58-.3-12.82l.63.63c-10.22.12-20.44.37-30.69.39l-30.69.14,1.16-1.16-.12,25.93-1.04-1.04c5.05,0,10.11,0,15.18.14l15.25.25,30.94.65Z"/>
      <path class="cls-5" d="M4047.02,291.38l-30.43.65-15.44.25c-5.15.12-10.34,0-15.51.12h-.93v-28.14h1.16l30.69.14c10.22,0,20.47.25,30.69.39h.63v.63c0,4.4-.19,8.78-.3,13.09l-.56,12.86ZM4047.02,291.38l-.32-13.12c-.12-4.31-.28-8.58-.3-12.82l.63.63c-10.22,0-20.47.37-30.69.39l-30.69.14,1.16-1.16-.14,25.93-1.02-1.04c5.05,0,10.11,0,15.16.14l15.25.25,30.96.65Z"/>
    </g>
    <rect class="cls-5" x="5095.63" y="432.74" width="96.21" height="25.44"/>
    <rect class="cls-5" x="4568.8" y="769.88" width="96.21" height="25.44"/>
    <g>
      <rect class="cls-5" x="5068.12" y="134.02" width="96.21" height="25.44"/>
      <path class="cls-3" d="M5123.64,186.28s-.02-.17-.04-.46c0-.35,0-.77-.04-1.31,0-1.2-.04-2.87-.08-5.01-.04-4.4-.1-10.72-.17-18.68l.29.29c-21.98.04-56.9.12-96.21.19.21-.21-.5.48.48-.48h0v25.43l-.48-.48c27.39.1,51.37.15,68.57.21,8.56.06,15.44.1,20.24.13,2.33.02,4.16.04,5.47.06.6,0,1.06.02,1.43.04.33,0,.5.02.5.04,0,0-.13.02-.44.04-.35,0-.81,0-1.37.04-1.29,0-3.08.04-5.36.06-4.78.04-11.6.08-20.12.13-17.27.06-41.37.13-68.89.21h-.48v-25.87h0v-.04h0c.98-.98.27-.27.5-.5,39.3.08,74.23.15,96.21.19h.31v.29c-.08,8.04-.13,14.42-.17,18.85-.04,2.12-.06,3.76-.08,4.93,0,.52-.02.93-.04,1.25,0,.27-.02.4-.04.4l.02.04Z"/>
    </g>
    <g>
      <g>
        <path class="cls-3" d="M4500.99,115.72s-.02-.19-.04-.52c0-.39-.02-.87-.04-1.48-.02-1.37-.04-3.26-.08-5.69-.04-4.99-.12-12.16-.19-21.2l.35.35c-24.94.06-64.6.13-109.22.21.25-.25-.56.56.56-.56h0v28.88l-.54-.54c31.09.1,58.31.19,77.84.25,9.72.06,17.52.12,22.98.15,2.66.04,4.72.06,6.21.08.67,0,1.2.02,1.62.04.37,0,.56.02.58.04,0,0-.15.02-.5.04-.4,0-.93.02-1.56.04-1.47,0-3.49.04-6.09.08-5.42.04-13.19.1-22.84.15-19.62.06-46.96.15-78.22.25h-.54v-29.4h0c1.12-1.14.31-.33.56-.58,44.62.1,84.28.17,109.22.21h.35v.35c-.08,9.14-.15,16.37-.19,21.4-.04,2.39-.06,4.26-.08,5.61,0,.58-.02,1.06-.04,1.43,0,.31-.02.46-.04.46l-.04-.04Z"/>
        <path class="cls-3" d="M4515.79,86.82s-.02-.19-.04-.56c0-.42-.02-.93-.04-1.52-.02-1.43-.06-3.35-.1-5.8-.06-5.07-.12-12.22-.21-21.01l.4.4c-17,.04-40.13.1-65.62.15-.5.5.67-.67.56-.56h0v14.88c0,4.84,0,9.52-.02,14.01l-.52-.52c18.95.1,35.26.19,46.94.25,5.76.06,10.39.12,13.67.15,1.54.02,2.76.06,3.68.06.85.02,1.29.04,1.31.06s-.39.04-1.2.06c-.91,0-2.08.04-3.59.06-3.26.04-7.85.08-13.55.15-11.78.06-28.22.15-47.3.25h-.52v-.54c0-4.49,0-9.18-.02-14.01v-14.86h0c-.12.1,1.06-1.08.56-.58,25.48.06,48.62.12,65.62.15h.4v.4c-.1,8.91-.17,16.13-.21,21.26-.04,2.41-.08,4.3-.1,5.71-.04,1.29-.06,1.95-.08,1.93l-.04.02Z"/>
      </g>
      <rect class="cls-5" x="4387.36" y="370.07" width="96.21" height="25.44"/>
      <path class="cls-3" d="M4442.87,422.33s-.02-.17-.04-.46c0-.35,0-.77-.04-1.31,0-1.2-.04-2.87-.08-5.01-.04-4.4-.1-10.72-.17-18.68l.29.29c-21.98.04-56.9.12-96.21.19.21-.21-.5.48.48-.48h0v25.43l-.48-.48c27.39.1,51.37.15,68.57.21,8.56.06,15.44.1,20.24.13,2.33.02,4.16.04,5.47.06.6,0,1.06.02,1.43.04.33,0,.5.02.5.04,0,0-.13.02-.44.04-.35,0-.81,0-1.37.04-1.29,0-3.08.04-5.36.06-4.78.04-11.6.08-20.12.13-17.27.06-41.37.13-68.89.21h-.48v-25.87h0v-.04h0c.98-.98.27-.27.5-.5,39.3.08,74.23.15,96.21.19h.31v.29c-.08,8.04-.13,14.42-.17,18.85-.04,2.12-.06,3.76-.08,4.93,0,.52-.02.93-.04,1.25,0,.27-.02.4-.04.4l.02.04Z"/>
      <rect class="cls-5" x="4272.59" y="75.19" width="347.91" height="625.01"/>
      <rect class="cls-2" x="4286.49" y="93.31" width="316.54" height="588.28"/>
      <polygon class="cls-3" points="4635.22 705.84 4620.5 700.18 4620.5 64.59 4635.22 64.59 4635.22 705.84"/>
      <rect class="cls-3" x="4286.49" y="262.53" width="323.39" height="6.26"/>
      <rect class="cls-3" x="4286.49" y="402.61" width="323.39" height="6.26"/>
      <rect class="cls-3" x="4286.49" y="542.7" width="323.39" height="6.26"/>
      <rect class="cls-3" x="4436.77" y="265.67" width="15.99" height="432.58"/>
      <rect class="cls-3" x="4347.45" y="93.31" width="7.24" height="172.35"/>
      <rect class="cls-3" x="4409.92" y="93.31" width="7.24" height="172.35"/>
      <rect class="cls-3" x="4472.4" y="93.31" width="7.24" height="172.35"/>
      <rect class="cls-3" x="4534.89" y="93.31" width="7.24" height="172.35"/>
      <rect class="cls-3" x="4257.88" y="64.59" width="14.72" height="639.48"/>
      <rect class="cls-3" x="4257.88" y="58.14" width="377.34" height="17.05"/>
      <rect class="cls-3" x="4247.43" y="707.93" width="397.76" height="15.9"/>
      <polygon class="cls-5" points="4620.5 700.18 4645.17 707.93 4247.43 707.93 4272.59 700.18 4620.5 700.18"/>
    </g>
    <g>
      <path class="cls-3" d="M6163.2,416.42s-.02-.19-.04-.52c0-.39-.02-.87-.04-1.48-.02-1.37-.04-3.26-.08-5.69-.04-4.99-.12-12.16-.19-21.2l.35.35c-24.94.06-64.6.13-109.22.21.25-.25-.56.56.56-.56h0v28.88l-.54-.54c31.09.1,58.31.19,77.84.25,9.72.06,17.52.12,22.98.15,2.66.04,4.72.06,6.21.08.67,0,1.2.02,1.62.04.37,0,.56.02.58.04,0,0-.15.02-.5.04-.4,0-.93.02-1.56.04-1.47,0-3.49.04-6.09.08-5.42.04-13.19.1-22.84.15-19.62.06-46.96.15-78.22.25h-.54v-29.4h0c1.12-1.14.31-.33.56-.58,44.62.1,84.28.17,109.22.21h.35v.35c-.08,9.14-.15,16.37-.19,21.4-.04,2.39-.06,4.26-.08,5.61,0,.58-.02,1.06-.04,1.43,0,.31-.02.46-.04.46l-.04-.04Z"/>
      <path class="cls-3" d="M6178.01,387.52s-.02-.19-.04-.56c0-.42-.02-.93-.04-1.52-.02-1.43-.06-3.35-.1-5.8-.06-5.07-.12-12.22-.21-21.01l.4.4c-17,.04-40.13.1-65.62.15-.5.5.67-.67.56-.56h0v14.88c0,4.84,0,9.52-.02,14.01l-.52-.52c18.95.1,35.26.19,46.94.25,5.76.06,10.39.12,13.67.15,1.54.02,2.76.06,3.68.06.85.02,1.29.04,1.31.06s-.39.04-1.2.06c-.91,0-2.08.04-3.59.06-3.26.04-7.85.08-13.55.15-11.78.06-28.22.15-47.3.25h-.52v-.54c0-4.49,0-9.18-.02-14.01v-14.86h0c-.12.1,1.06-1.08.56-.58,25.48.06,48.62.12,65.62.15h.4v.4c-.1,8.91-.17,16.13-.21,21.26-.04,2.41-.08,4.3-.1,5.71-.04,1.29-.06,1.95-.08,1.93l-.04.02Z"/>
    </g>
    <g>
      <rect class="cls-5" x="6219.62" y="807.29" width="96.21" height="25.44"/>
      <path class="cls-3" d="M6275.14,859.55s-.02-.17-.04-.46c0-.35,0-.77-.04-1.31,0-1.2-.04-2.87-.08-5.01-.04-4.4-.1-10.72-.17-18.68l.29.29c-21.98.04-56.9.12-96.21.19.21-.21-.5.48.48-.48h0v25.43l-.48-.48c27.39.1,51.37.15,68.57.21,8.56.06,15.44.1,20.24.13,2.33.02,4.16.04,5.47.06.6,0,1.06.02,1.43.04.33,0,.5.02.5.04,0,0-.13.02-.44.04-.35,0-.81,0-1.37.04-1.29,0-3.08.04-5.36.06-4.78.04-11.6.08-20.12.13-17.27.06-41.37.13-68.89.21h-.48v-25.87h0v-.04h0c.98-.98.27-.27.5-.5,39.3.08,74.23.15,96.21.19h.31v.29c-.08,8.04-.13,14.42-.17,18.85-.04,2.12-.06,3.76-.08,4.93,0,.52-.02.93-.04,1.25,0,.27-.02.4-.04.4l.02.04Z"/>
    </g>
    <g>
      <rect class="cls-5" x="7296.71" y="766.36" width="96.21" height="25.44"/>
      <path class="cls-3" d="M7352.23,818.62s-.02-.17-.04-.46c0-.35,0-.77-.04-1.31,0-1.2-.04-2.87-.08-5.01-.04-4.4-.1-10.72-.17-18.68l.29.29c-21.98.04-56.9.12-96.21.19.21-.21-.5.48.48-.48h0v25.43l-.48-.48c27.39.1,51.37.15,68.57.21,8.56.06,15.44.1,20.24.13,2.33.02,4.16.04,5.47.06.6,0,1.06.02,1.43.04.33,0,.5.02.5.04,0,0-.13.02-.44.04-.35,0-.81,0-1.37.04-1.29,0-3.08.04-5.36.06-4.78.04-11.6.08-20.12.13-17.27.06-41.37.13-68.89.21h-.48v-25.87h0v-.04h0c.98-.98.27-.27.5-.5,39.3.08,74.23.15,96.21.19h.31v.29c-.08,8.04-.13,14.42-.17,18.85-.04,2.12-.06,3.76-.08,4.93,0,.52-.02.93-.04,1.25,0,.27-.02.4-.04.4l.02.04Z"/>
    </g>
    <g>
      <rect class="cls-5" x="6178.43" y="107.15" width="96.21" height="25.44"/>
      <path class="cls-3" d="M6319.17,163.98s-.02-.17-.04-.46c0-.35,0-.77-.04-1.31,0-1.2-.04-2.87-.08-5.01-.04-4.4-.1-10.72-.17-18.68l.29.29c-21.98.04-56.9.12-96.21.19.21-.21-.5.48.48-.48h0v25.43l-.48-.48c27.39.1,51.37.15,68.57.21,8.56.06,15.44.1,20.24.13,2.33.02,4.16.04,5.47.06.6,0,1.06.02,1.43.04.33,0,.5.02.5.04,0,0-.13.02-.44.04-.35,0-.81,0-1.37.04-1.29,0-3.08.04-5.36.06-4.78.04-11.6.08-20.12.13-17.27.06-41.37.13-68.89.21h-.48v-25.87h0v-.04h0c.98-.98.27-.27.5-.5,39.3.08,74.23.15,96.21.19h.31v.29c-.08,8.04-.13,14.42-.17,18.85-.04,2.12-.06,3.76-.08,4.93,0,.52-.02.93-.04,1.25,0,.27-.02.4-.04.4l.02.04Z"/>
    </g>
    <g>
      <rect class="cls-5" x="6824.87" y="647.8" width="96.21" height="25.44"/>
      <path class="cls-3" d="M6965.61,704.63s-.02-.17-.04-.46c0-.35,0-.77-.04-1.31,0-1.2-.04-2.87-.08-5.01-.04-4.4-.1-10.72-.17-18.68l.29.29c-21.98.04-56.9.12-96.21.19.21-.21-.5.48.48-.48h0v25.43l-.48-.48c27.39.1,51.37.15,68.57.21,8.56.06,15.44.1,20.24.13,2.33.02,4.16.04,5.47.06.6,0,1.06.02,1.43.04.33,0,.5.02.5.04,0,0-.13.02-.44.04-.35,0-.81,0-1.37.04-1.29,0-3.08.04-5.36.06-4.78.04-11.6.08-20.12.13-17.27.06-41.37.13-68.89.21h-.48v-25.87h0v-.04h0c.98-.98.27-.27.5-.5,39.3.08,74.23.15,96.21.19h.31v.29c-.08,8.04-.13,14.42-.17,18.85-.04,2.12-.06,3.76-.08,4.93,0,.52-.02.93-.04,1.25,0,.27-.02.4-.04.4l.02.04Z"/>
    </g>
    <g>
      <polygon class="cls-6" points="7596.39 781.59 7596.39 828.67 7665.23 828.67 7741.2 828.67 7741.2 781.59 7596.39 781.59"/>
      <polygon class="cls-5" points="7590.31 768.43 7590.31 781.59 7746.26 781.59 7746.26 768.43 7665.23 768.43 7590.31 768.43"/>
      <polygon class="cls-3" points="7668.27 828.67 7741.2 828.67 7741.2 781.59 7746.26 781.59 7746.26 768.43 7665.23 768.43 7665.23 780.37 7668.27 828.67"/>
      <rect class="cls-3" x="7616.64" y="789.17" width="29.37" height="7.08"/>
      <rect class="cls-3" x="7612.85" y="805.13" width="37.7" height="14.96"/>
      <path class="cls-5" d="M7772.97,941.97l-3.45-732.89h-14.19v144.35h-36.66l-.68-144.33h-14.19v144.33h-126.11l-.68-144.33h-14.19v144.33h-36.54l-.68-144.33h-14.19v732.87h17.64l-.45-98.35h34.23v98.35h17.66l-.48-98.28h123.79v98.28h17.64l-.45-98.35h34.34v98.35h17.64ZM7544.8,746.5l-12.69-54.34h26.03l-13.35,54.34ZM7562.84,695.5v128.33l-15.37-65.82,15.37-62.51ZM7562.84,508.98l-15.37-65.82,15.37-62.49v128.31ZM7560.1,520.76h-31.78l16.25-66.12,15.52,66.12ZM7544.8,431.65l-14.53-62.33h29.82l-15.3,62.33ZM7541.99,443.13l-15,60.9-.59-127.63,15.59,66.73ZM7527.91,697.75l14.07,60.24-13.62,54.97-.45-115.21ZM7544.66,769.5l13.62,58.1h-27.89l14.28-58.1ZM7528.39,676.16l-.11-.5h-.45l-.66-138.97h35.68v139.38l-34.45.09ZM7578.57,536.78h125.24v139.38h-124.63l-.61-139.38ZM7736.16,454.64l15.43,66.12h-31.69l16.25-66.12ZM7719.36,500.51l-.57-120.29,14.73,62.89-14.16,57.4ZM7755.34,513.22l-16.36-70.07,16.36-66.55v136.61ZM7755.34,520.53v.23h-1l1-.23ZM7755.34,699.32v120.5l-14.44-61.8,14.44-58.69ZM7738.22,746.5l-12.69-54.34h26.15l-13.46,54.34ZM7736.3,431.65l-14.53-62.33h29.91l-15.39,62.33ZM7755.34,536.78v139.38h-33.52v-.5l-1.5.34-.66-139.22h35.68ZM7735.41,757.99l-14.55,59.13-.57-123.93,15.12,64.8ZM7738.09,769.5l13.62,58.1h-27.89l14.28-58.1ZM7703.82,369.32v151.34h-125.31l-.7-151.34h126.01ZM7582.23,827.6h-2.27l-.64-135.43h124.49v135.43h-121.59Z"/>
      <polygon class="cls-3" points="7582.2 521.48 7582.2 504.94 7699.03 504.94 7699.39 521.48 7582.2 521.48"/>
      <path class="cls-1" d="M7699.1,507.64s-103.61.77-110.33,2.27c-1.45.34-2.91,6.81,0,7.29s110.33,1.45,110.33,1.45v-11.01Z"/>
      <polygon class="cls-5" points="7595.78 504.28 7595.78 487.76 7688.31 487.76 7688.61 504.28 7595.78 504.28"/>
      <path class="cls-1" d="M7688.36,490.46s-82.07.75-87.38,2.27c-1.16.34-2.27,6.7,0,7.29s87.38,1.45,87.38,1.45v-11.01Z"/>
      <polygon class="cls-3" points="7595.37 487.94 7595.37 471.41 7687.91 471.41 7688.2 487.94 7595.37 487.94"/>
      <path class="cls-1" d="M7687.95,474.11s-82.07.75-87.38,2.27c-1.16.34-2.27,6.81,0,7.29s87.38,1.45,87.38,1.45v-11.01Z"/>
      <rect class="cls-3" x="7680.37" y="243.9" width="23.45" height="109.24"/>
      <path class="cls-1" d="M7697.21,326.92c0,2.51-2.03,4.54-4.54,4.54-2.51,0-4.54-2.03-4.54-4.54,0-2.46,1.96-4.48,4.43-4.54,2.53,0,4.59,2.01,4.65,4.54Z"/>
      <rect class="cls-1" x="7688.77" y="272.84" width="7.17" height="44.65"/>
      <rect class="cls-5" x="7656.56" y="243.9" width="23.45" height="109.24"/>
      <circle class="cls-1" cx="7668.75" cy="326.92" r="4.65"/>
      <rect class="cls-1" x="7664.96" y="272.84" width="7.17" height="44.65"/>
      <rect class="cls-6" x="7633.89" y="243.9" width="23.45" height="109.24"/>
      <path class="cls-1" d="M7650.73,326.92c0,2.51-2.03,4.54-4.54,4.54s-4.54-2.03-4.54-4.54,2.03-4.54,4.54-4.54c2.48.06,4.48,2.06,4.54,4.54Z"/>
      <rect class="cls-1" x="7642.28" y="272.84" width="7.17" height="44.65"/>
      <rect class="cls-3" x="7680.37" y="567.2" width="23.45" height="109.24"/>
      <path class="cls-1" d="M7697.21,650.24c0,2.51-2.03,4.54-4.54,4.54-2.51,0-4.54-2.03-4.54-4.54,0-2.46,1.96-4.48,4.43-4.54,2.51-.06,4.59,1.92,4.65,4.42,0,.04,0,.08,0,.11Z"/>
      <rect class="cls-1" x="7688.77" y="596.16" width="7.17" height="44.65"/>
      <rect class="cls-5" x="7656.56" y="567.2" width="23.45" height="109.24"/>
      <path class="cls-1" d="M7673.4,650.24c0,2.51-2.03,4.54-4.54,4.54-2.51,0-4.54-2.03-4.54-4.54,0-2.46,1.96-4.48,4.43-4.54,2.51-.06,4.59,1.92,4.65,4.42,0,.04,0,.08,0,.11Z"/>
      <rect class="cls-1" x="7664.96" y="596.16" width="7.17" height="44.65"/>
      <rect class="cls-6" x="7633.89" y="567.2" width="23.45" height="109.24"/>
      <path class="cls-1" d="M7650.73,650.24c0,2.51-2.03,4.54-4.54,4.54s-4.54-2.03-4.54-4.54,2.03-4.54,4.54-4.54,4.54,2.03,4.54,4.54Z"/>
      <rect class="cls-1" x="7642.28" y="596.16" width="7.17" height="44.65"/>
      <polygon class="cls-3" points="7604.9 351.46 7633.07 255.36 7623.35 251.12 7594.46 347.99 7604.9 351.46"/>
    </g>
    <g>
      <rect class="cls-6" x="9820.74" y="326.57" width="96.45" height="206.47"/>
      <rect class="cls-6" x="9921.2" y="326.57" width="118.52" height="206.47"/>
      <polygon class="cls-6" points="9917.19 323 9917.19 139.85 9921.2 139.85 9921.2 323 10039.71 323 10039.71 135.79 9820.74 135.79 9820.74 323 9917.19 323"/>
    </g>
    <g>
      <path class="cls-3" d="M8132.52,206.71s-.17,0-.48-.14l-1.39-.55-5.26-2.19-19.22-8.27-63.63-27.68-2.21-.96h.46l-62.26,26.62-18.84,7.91-5.12,2.09c-.59.26-1.2.49-1.83.67.55-.34,1.13-.63,1.73-.87l5.05-2.4,18.69-8.24,62.12-26.94h.46l2.21.96,63.41,27.99,19.22,8.6,5.19,2.4,1.35.65c.22.24.38.31.36.34Z"/>
      <rect class="cls-3" x="7823.55" y="197.58" width="408.09" height="305.56"/>
      <rect class="cls-2" x="7837.8" y="211.81" width="381.11" height="278.81"/>
      <path class="cls-3" d="M7922,333.61s.38,46.81,2.76,61.08l58.7-2.79s-5.17-45.99-3.17-58.3h-58.3Z"/>
      <path class="cls-1" d="M7950.91,340.22h.84c.8-.06,1.6-.06,2.4,0,1.29.19,2.55.57,3.72,1.13,1.57.76,2.96,1.85,4.06,3.2,1.36,1.65,2.32,3.59,2.81,5.67.45,2.41.24,4.9-.6,7.21-.44,1.26-.99,2.47-1.66,3.63-.7,1.19-1.32,2.42-1.87,3.68-1.18,2.65-1.99,5.44-2.4,8.31v.19h-12.28v-.24c-.28-2.86-1.25-5.61-2.84-8-.7-1.23-1.47-2.4-2.19-3.48-.76-1.08-1.45-2.2-2.07-3.36-1.09-2.24-1.41-4.77-.91-7.21.33-2.09,1.1-4.09,2.26-5.86,1-1.42,2.3-2.59,3.82-3.44,1.13-.62,2.35-1.09,3.6-1.39.79-.19,1.59-.31,2.4-.38h.84-.84c-.81.1-1.61.25-2.4.46-1.23.33-2.42.82-3.53,1.44-1.48.84-2.74,2.01-3.7,3.41-1.11,1.74-1.85,3.7-2.16,5.74-.45,2.35-.12,4.78.94,6.92.62,1.14,1.3,2.25,2.04,3.32.72,1.13,1.51,2.26,2.21,3.48,1.64,2.45,2.64,5.28,2.91,8.22l-.22-.22h11.87l-.22.22c.4-2.92,1.21-5.76,2.4-8.46.56-1.27,1.2-2.5,1.9-3.7.66-1.13,1.21-2.32,1.63-3.56.86-2.24,1.08-4.68.65-7.04-.48-2.03-1.4-3.92-2.69-5.55-1.07-1.22-2.37-2.22-3.82-2.93-1.16-.55-2.39-.93-3.65-1.15-.79-.13-1.6-.19-2.4-.19h-.67s-.19-.02-.19-.05Z"/>
      <path class="cls-1" d="M7953.91,372.85c-.01-.06-.01-.11,0-.17v-.55c0-.48-.19-1.2-.31-2.09-.26-1.83-.67-4.47-.94-7.74,0-.84-.12-1.68-.14-2.6s0-1.83,0-2.81c.04-1.01.27-2,.67-2.93.45-.99,1.24-1.78,2.23-2.23,1.09-.45,2.34-.21,3.2.6.43.43.68,1,.7,1.61-.03.61-.24,1.19-.6,1.68-.38.48-.86.87-1.42,1.13-.56.27-1.15.47-1.75.6-1.22.24-2.46.39-3.7.43-1.24.04-2.49-.02-3.72-.19-.61-.1-1.21-.27-1.78-.5-.55-.26-1.05-.62-1.47-1.06-.42-.44-.71-.98-.87-1.56-.12-.59-.05-1.21.22-1.75.25-.53.69-.95,1.23-1.18.53-.24,1.15-.24,1.68,0,.5.24.93.6,1.25,1.06.29.45.5.95.62,1.47.18.98.27,1.98.29,2.98,0,1.95.19,3.75.29,5.38.14,3.29.29,5.94.38,7.79v2.86c0-.06,0-.13,0-.19v-.55c0-.48,0-1.2-.12-2.11-.12-1.85-.26-4.49-.46-7.79,0-1.63-.19-3.44-.29-5.36-.02-1-.13-2-.31-2.98-.11-.5-.32-.97-.6-1.39-.29-.44-.7-.79-1.18-1.01-.49-.2-1.05-.2-1.54,0-.51.21-.91.6-1.13,1.11-.25.51-.32,1.08-.19,1.63.13.56.41,1.07.79,1.49.85.84,1.96,1.37,3.15,1.51,1.23.15,2.46.21,3.7.17,1.24-.03,2.47-.18,3.68-.43.58-.11,1.15-.3,1.68-.55.53-.25,1-.62,1.37-1.08.34-.46.53-1.01.55-1.59,0-.56-.22-1.1-.62-1.49-.8-.76-1.98-.99-3-.58-.96.43-1.73,1.2-2.16,2.16-.4.91-.62,1.89-.65,2.88-.05.93-.05,1.86,0,2.79,0,.89,0,1.75.14,2.57.24,3.29.6,5.91.87,7.74.12.91.22,1.61.26,2.11v.53c0,.06,0,.13,0,.19Z"/>
      <path class="cls-1" d="M7946.29,373.14c.11.64.16,1.29.17,1.95,0,1.42.17,3.12.26,5.09v-.12l3.94,4.54h-.19l4.57-.26h-.19l2.28-2.79,1.13-1.37v.17c0-2.67-.12-5.21-.17-7.52l.26.24h-11.89c.27-.03.55-.03.82,0l2.4-.12,8.67-.36h.24v.24c0,2.4.14,4.81.22,7.52h0l-1.13,1.39-2.28,2.76h-.12l-4.57.22h-.12l-4.3-4.4h0v-5.21c0-1.47-.14-1.99,0-1.97Z"/>
      <path class="cls-1" d="M7957.97,379.75l-.43-.17c-.38-.19-.77-.35-1.18-.48-1.33-.44-2.73-.65-4.13-.62-1.83.09-3.61.57-5.24,1.42l-.41.22s.12-.12.38-.29c.37-.21.74-.41,1.13-.58,1.3-.59,2.71-.92,4.13-.96,1.43-.03,2.84.2,4.18.7.4.15.78.33,1.15.53.14.07.28.15.41.24Z"/>
      <path class="cls-1" d="M7957.97,377.92l-.43-.17c-.38-.19-.77-.35-1.18-.48-1.33-.46-2.73-.67-4.13-.62-1.4.05-2.78.34-4.09.87l-1.15.55-.41.22s.12,0,.38-.29c.36-.22.74-.41,1.13-.58,1.3-.59,2.71-.92,4.13-.96,1.43-.03,2.84.2,4.18.7.4.15.78.33,1.15.53.14.07.28.15.41.24Z"/>
      <path class="cls-1" d="M7957.88,376.19l-.43-.19-1.2-.46c-1.32-.47-2.71-.68-4.11-.62-1.4.04-2.79.34-4.09.87-.5.22-.89.41-1.15.55s-.43.22-.43.19l.38-.26c.37-.23.75-.43,1.15-.6,1.3-.57,2.69-.89,4.11-.94,1.43-.04,2.84.2,4.18.7.4.15.8.33,1.18.53l.41.24Z"/>
      <path class="cls-5" d="M7856.62,257.1s.38,46.81,2.76,61.08l58.7-2.79s-5.14-45.99-3.17-58.3h-58.3Z"/>
      <path class="cls-1" d="M7906.07,276.74c-6.51.97-13.08,1.55-19.66,1.75-6.56.58-13.15.79-19.73.62,6.51-.98,13.07-1.58,19.66-1.78,6.56-.58,13.15-.78,19.73-.6Z"/>
      <path class="cls-1" d="M7906.09,286.68c-13.08,1.57-26.24,2.37-39.41,2.4,6.52-.96,13.09-1.55,19.68-1.75,6.56-.61,13.15-.83,19.73-.65Z"/>
      <path class="cls-1" d="M7896.1,296.42c-7.42,1.22-14.94,1.67-22.44,1.35,3.68-.8,7.43-1.22,11.2-1.25,3.73-.43,7.5-.47,11.25-.1Z"/>
      <path class="cls-5" d="M7853.83,394.79s.41,46.81,2.79,61.08l58.7-2.76s-5.17-46.02-3.17-58.32h-58.32Z"/>
      <path class="cls-1" d="M7903.28,414.45c-13.07,1.55-26.22,2.36-39.38,2.4,6.51-.96,13.08-1.55,19.66-1.75,6.56-.6,13.15-.82,19.73-.65Z"/>
      <path class="cls-1" d="M7903.31,424.37c-6.51.97-13.08,1.55-19.66,1.75-6.56.59-13.15.8-19.73.6,13.07-1.57,26.22-2.37,39.38-2.4v.05Z"/>
      <path class="cls-1" d="M7893.43,434.1c-7.42,1.22-14.94,1.67-22.44,1.35,7.42-1.22,14.94-1.67,22.44-1.35Z"/>
      <polygon class="cls-5" points="8014.25 269.5 8020.06 404.5 8188.58 406.52 8181.01 271.28 8014.25 269.5"/>
      <rect class="cls-6" x="8012.3" y="268.54" width="167.39" height="126.39"/>
      <path class="cls-3" d="M8179.69,394.94v-9.16c0-5.94,0-14.56-.12-25.59,0-22.03-.14-53.56-.24-91.72l.46.46h-167.37l.58-.58v126.39l-.53-.5,120.75.24,34.34.14h11.53-11.44l-34.22.14-121.08.26h-.53v-127.5h168.45v.48c0,38.28-.19,69.93-.24,92.03,0,10.96,0,19.56-.12,25.47v6.66c0,1.54-.22,2.76-.22,2.76Z"/>
      <rect class="cls-6" x="8032.49" y="295.31" width="67.86" height="85.4"/>
      <path class="cls-3" d="M8100.35,380.71v-23.96c0-15.02-.17-36.31-.26-61.56l.5.53h-67.84c-.14,0,1.08-1.08.55-.55h0v85.35l-.48-.48,49.14.26h18.72c-.39.04-.79.04-1.18,0h-3.56l-13.67.12-49.45.24h-.46v-85.83h0l.6-.6h68.36v.5c-.12,25.4-.19,46.79-.26,61.9,0,7.43,0,13.31-.14,17.42v5.72c-.55.84-.55.96-.58.94Z"/>
      <rect class="cls-6" x="8035.11" y="275.77" width="130.05" height="12.3"/>
      <path class="cls-3" d="M8165.15,288.08c-.03-.28-.03-.56,0-.84v-11.49l.24.24c-21.94.19-71.94.34-130.05.34h0c1.13-1.15.31-.31.55-.58h0v12.26l-.55-.58,92.18.24,27.66.17h10.21c-.21.02-.42.02-.62,0h-9.61l-27.54.17-92.42.74h-.58v-12.83h0c.24-.26-.58.58.58-.58h0c58.1,0,108.13.14,130.05.34h.22v11.85c0,.65-.31.58-.31.55Z"/>
      <rect class="cls-6" x="8108.66" y="295.31" width="56.47" height="51.47"/>
      <path class="cls-3" d="M8165.15,346.78c-.03-.33-.03-.66,0-.99v-13.29c0-9.06-.14-21.84-.26-37.2l.5.5h-56.49c-.12,0,1.08-1.08.58-.55h0v51.42l-.5-.5,40.85.26h15.74-3.99l-11.44.14-41.07.24h-.5v-51.93h0l.58-.6h56.97v.48c0,15.47-.19,28.38-.24,37.51,0,4.4,0,7.88-.14,10.38v2.69c0,.67-.58,1.44-.58,1.42Z"/>
      <rect class="cls-6" x="8108.66" y="354.86" width="56.47" height="25.86"/>
      <path class="cls-3" d="M8165.15,380.71c-.05-.62-.05-1.25,0-1.87v-5.19c0-4.57-.14-10.96-.24-18.79l.43.41-56.49.17.58-.58h0v25.81l-.55-.53,40.39.24,11.77.17h3.17c.38-.03.77-.03,1.15,0-.34.03-.69.03-1.03,0h-3.05l-11.65.14-40.85.26h-.55v-26.36h0l.58-.58,56.49.17h.41v.41c0,7.95-.17,14.42-.22,19.06v5.09c-.06.66-.18,1.32-.34,1.97Z"/>
      <path class="cls-1" d="M8098.67,295.45c-21,29.03-45.18,56.25-66.18,85.26"/>
      <path class="cls-3" d="M8032.49,380.71c.15-.33.34-.65.55-.94.48-.72,1.08-1.56,1.78-2.62,1.56-2.23,3.87-5.43,6.8-9.35,5.84-7.86,14.18-18.48,23.52-30.08,9.35-11.61,17.78-22.13,23.77-29.82l7.09-9.16,1.95-2.4c.21-.3.45-.57.72-.82,0,0-.14.36-.55.96l-1.75,2.6c-1.56,2.26-3.89,5.45-6.8,9.37-5.84,7.86-14.18,18.45-23.52,30.06-9.35,11.61-17.78,22.13-23.77,29.84l-7.06,9.06c-.77,1.01-1.42,1.8-1.95,2.4s-.72.91-.77.89Z"/>
      <line class="cls-4" x1="8032.49" y1="295.31" x2="8100.35" y2="380.71"/>
      <path class="cls-3" d="M8100.35,380.71c-.24.22-15.64-18.74-34.36-42.34-18.72-23.6-33.64-42.87-33.5-43.06s15.64,18.77,34.39,42.34c18.74,23.57,33.74,42.87,33.47,43.06Z"/>
      <path class="cls-3" d="M8020.06,295.5c0,5.87-4.76,10.62-10.62,10.62-5.87,0-10.62-4.76-10.62-10.62s4.76-10.62,10.62-10.62c5.87,0,10.62,4.76,10.62,10.62h0Z"/>
      <path class="cls-3" d="M8193.8,269.72c.01,5.87-4.73,10.63-10.6,10.65s-10.63-4.73-10.65-10.6c-.01-5.87,4.73-10.63,10.6-10.65,0,0,.02,0,.02,0,5.86,0,10.61,4.74,10.62,10.6Z"/>
    </g>
    <g>
      <rect class="cls-3" x="10072.58" y="135.83" width="124.63" height="129.92"/>
      <rect class="cls-2" x="10064.13" y="135.83" width="124.63" height="129.92"/>
      <path class="cls-3" d="M10188.81,265.78h-124.72v-130h124.72v130ZM10064.17,265.78h124.55v-129.92h-124.55v129.92Z"/>
      <rect class="cls-2" x="10080.88" y="153.28" width="91.13" height="95"/>
      <path class="cls-3" d="M10080.88,248.91c-.64.96-1.39,1.83-2.24,2.61-1.46,1.54-3.49,3.62-5.8,5.88-2.3,2.26-4.4,4.25-5.96,5.69-.79.83-1.68,1.56-2.63,2.2.64-.96,1.39-1.83,2.24-2.61,1.46-1.54,3.51-3.62,5.8-5.88s4.42-4.3,5.98-5.71c.78-.83,1.65-1.56,2.61-2.18Z"/>
      <path class="cls-3" d="M10172.02,248.66c.95.66,1.82,1.42,2.61,2.26,1.54,1.46,3.62,3.49,5.88,5.8s4.25,4.4,5.69,5.94c.82.8,1.56,1.68,2.2,2.63-.95-.63-1.83-1.38-2.61-2.22-1.54-1.46-3.62-3.51-5.88-5.82s-4.3-4.4-5.71-5.96c-.83-.79-1.56-1.67-2.18-2.63Z"/>
      <path class="cls-3" d="M10171.77,153.54c.63-.96,1.39-1.84,2.24-2.61,1.46-1.54,3.49-3.62,5.8-5.88s4.4-4.28,5.96-5.69c.78-.84,1.66-1.58,2.63-2.2-.65.95-1.4,1.83-2.24,2.61-1.46,1.52-3.51,3.62-5.82,5.88s-4.4,4.28-5.96,5.71c-.78.82-1.66,1.55-2.61,2.18Z"/>
      <path class="cls-3" d="M10080.64,153.75c-.95-.65-1.83-1.4-2.61-2.24-1.54-1.46-3.62-3.51-5.88-5.8s-4.25-4.3-5.69-5.94c-.84-.78-1.58-1.66-2.2-2.63.96.63,1.83,1.38,2.61,2.22,1.54,1.46,3.62,3.49,5.88,5.8s4.28,4.42,5.71,5.98c.82.78,1.55,1.66,2.18,2.61Z"/>
      <path class="cls-3" d="M10171.77,248.29c-.02-.15-.02-.3,0-.45v-25.81c0-16.65-.1-40.35-.16-68.73l.35.35h-90.87l.41-.41v95l-.35-.35,65.77.18h23.39-23.31l-66.02.18h-.35v.04-95.39h91.63v.35c0,28.49-.14,52.27-.19,68.96v25.61c-.31.31-.31.47-.31.47Z"/>
      <rect class="cls-5" x="10111.24" y="185.57" width="30.4" height="30.4"/>
    </g>
    <g>
      <rect class="cls-3" x="10221.05" y="212.75" width="124.63" height="129.92"/>
      <rect class="cls-2" x="10212.6" y="212.75" width="124.63" height="129.92"/>
      <path class="cls-3" d="M10337.28,342.7h-124.72v-130h124.72v130ZM10212.64,342.7h124.55v-129.92h-124.55v129.92Z"/>
      <rect class="cls-2" x="10229.35" y="230.2" width="91.13" height="95"/>
      <path class="cls-3" d="M10229.35,325.83c-.64.96-1.39,1.83-2.24,2.61-1.46,1.54-3.49,3.62-5.8,5.88-2.3,2.26-4.4,4.25-5.96,5.69-.79.83-1.68,1.56-2.63,2.2.64-.96,1.39-1.83,2.24-2.61,1.46-1.54,3.51-3.62,5.8-5.88s4.42-4.3,5.98-5.71c.78-.83,1.65-1.56,2.61-2.18Z"/>
      <path class="cls-3" d="M10320.49,325.58c.95.66,1.82,1.42,2.61,2.26,1.54,1.46,3.62,3.49,5.88,5.8s4.25,4.4,5.69,5.94c.82.8,1.56,1.68,2.2,2.63-.95-.63-1.83-1.38-2.61-2.22-1.54-1.46-3.62-3.51-5.88-5.82s-4.3-4.4-5.71-5.96c-.83-.79-1.56-1.67-2.18-2.63Z"/>
      <path class="cls-3" d="M10320.24,230.46c.63-.96,1.39-1.84,2.24-2.61,1.46-1.54,3.49-3.62,5.8-5.88s4.4-4.28,5.96-5.69c.78-.84,1.66-1.58,2.63-2.2-.65.95-1.4,1.83-2.24,2.61-1.46,1.52-3.51,3.62-5.82,5.88s-4.4,4.28-5.96,5.71c-.78.82-1.66,1.55-2.61,2.18Z"/>
      <path class="cls-3" d="M10229.11,230.67c-.95-.65-1.83-1.4-2.61-2.24-1.54-1.46-3.62-3.51-5.88-5.8s-4.25-4.3-5.69-5.94c-.84-.78-1.58-1.66-2.2-2.63.96.63,1.83,1.38,2.61,2.22,1.54,1.46,3.62,3.49,5.88,5.8s4.28,4.42,5.71,5.98c.82.78,1.55,1.66,2.18,2.61Z"/>
      <path class="cls-3" d="M10320.24,325.21c-.02-.15-.02-.3,0-.45v-25.81c0-16.65-.1-40.35-.16-68.73l.35.35h-90.87l.41-.41v95l-.35-.35,65.77.18h23.39-23.31l-66.02.18h-.35v.04-95.39h91.63v.35c0,28.49-.14,52.27-.19,68.96v25.61c-.31.31-.31.47-.31.47Z"/>
      <rect class="cls-5" x="10259.71" y="262.48" width="30.4" height="30.4"/>
    </g>
    <g>
      <rect class="cls-5" x="525.11" y="107.11" width="312.93" height="562.18"/>
      <rect class="cls-2" x="537.6" y="123.41" width="284.72" height="529.14"/>
      <polygon class="cls-3" points="851.28 674.36 838.04 669.28 838.04 97.58 851.28 97.58 851.28 674.36"/>
      <rect class="cls-3" x="537.6" y="275.62" width="290.88" height="5.63"/>
      <rect class="cls-3" x="537.6" y="401.62" width="290.88" height="5.63"/>
      <rect class="cls-3" x="537.6" y="527.63" width="290.88" height="5.63"/>
      <rect class="cls-3" x="672.78" y="278.44" width="14.38" height="389.09"/>
      <rect class="cls-3" x="592.43" y="123.41" width="6.51" height="155.02"/>
      <rect class="cls-3" x="648.63" y="123.41" width="6.51" height="155.02"/>
      <rect class="cls-3" x="704.82" y="123.41" width="6.51" height="155.02"/>
      <rect class="cls-3" x="761.04" y="123.41" width="6.51" height="155.02"/>
      <rect class="cls-3" x="511.87" y="97.58" width="13.24" height="575.2"/>
      <rect class="cls-3" x="511.87" y="91.77" width="339.41" height="15.34"/>
      <rect class="cls-3" x="502.48" y="676.25" width="357.77" height="14.3"/>
      <polygon class="cls-5" points="838.04 669.28 860.23 676.25 502.48 676.25 525.11 669.28 838.04 669.28"/>
    </g>
  </g>
</svg>