<?xml version="1.0" encoding="UTF-8"?>
<svg id="Capa_1" xmlns="http://www.w3.org/2000/svg" version="1.1" viewBox="0 0 512 512">
  <!-- Generator: Adobe Illustrator 29.6.1, SVG Export Plug-In . SVG Version: 2.1.1 Build 9)  -->
  <defs>
    <style>
      .st0 {
        fill: #e5097d;
      }
    </style>
  </defs>
  <path class="st0" d="M471,389.1c-11.3,0-20.5,9.2-20.5,20.5v61.4H61.4v-61.4c0-11.3-9.2-20.5-20.5-20.5s-20.5,9.2-20.5,20.5v61.4c0,22.6,18.4,41,41,41h389.1c22.6,0,41-18.4,41-41v-61.4c0-11.3-9.2-20.5-20.5-20.5Z"/>
  <path class="st0" d="M242,424.6c0,0,.2.2.3.3.3.3.7.6,1,.9.2.1.3.3.5.4.3.3.7.5,1.1.7.2.1.4.2.6.4.4.2.7.4,1.1.6.2.1.4.2.7.3.4.2.7.3,1.1.5.2,0,.5.2.7.3.4.1.7.3,1.1.4.3,0,.5.1.8.2.4,0,.7.2,1.1.2.3,0,.7.1,1,.2.3,0,.6,0,.9.1.7,0,1.3.1,2,.1s1.3,0,2,0c.3,0,.6,0,.9-.1.3,0,.7,0,1-.2.4,0,.8-.2,1.1-.3.2,0,.5-.1.7-.2.4-.1.8-.3,1.2-.4.2,0,.4-.1.6-.2.4-.2.8-.4,1.3-.6.2,0,.3-.2.5-.2.4-.2.8-.5,1.3-.7.1,0,.3-.2.4-.3.4-.3.8-.6,1.3-.9.1,0,.2-.2.3-.2.4-.3.8-.7,1.2-1,0,0,.1-.1.2-.2l.5-.4s0,0,0,0l153.1-142.9c8.3-7.7,8.7-20.7,1-29-7.7-8.3-20.7-8.7-29-1l-119.1,111.2V20.5C276.5,9.2,267.3,0,256,0s-20.5,9.2-20.5,20.5v342l-119.2-111.2c-8.3-7.7-21.2-7.3-28.9,1-7.7,8.3-7.3,21.2,1,29l153.6,143.4Z"/>
</svg>