<svg width="726" height="642" viewBox="0 0 726 642" fill="none" xmlns="http://www.w3.org/2000/svg">
<g clip-path="url(#clip0_219_426)">
<path d="M12.18 286.28H255.77V261.89H12.18C5.45001 261.9 1.37647e-05 267.35 1.37647e-05 274.08C-0.00998623 280.81 5.43001 286.27 12.15 286.29H12.18V286.28Z" fill="#263339"/>
<path d="M121.83 286.26H106.3V641.06H121.83V286.26Z" fill="#4C70B5"/>
<path d="M121.83 286.26H106.3V641.06H121.83V286.26Z" fill="#C2E0CA"/>
<path d="M44.7502 286.26H29.2202V641.06H44.7502V286.26Z" fill="#4C70B5"/>
<path d="M44.7502 286.26H29.2202V641.06H44.7502V286.26Z" fill="#C2E0CA"/>
<path d="M12.1798 282C16.5539 282 20.0998 278.454 20.0998 274.08C20.0998 269.706 16.5539 266.16 12.1798 266.16C7.80567 266.16 4.25977 269.706 4.25977 274.08C4.25977 278.454 7.80567 282 12.1798 282Z" fill="#4FB26B"/>
<path d="M39.0601 274.08C39.0601 278.38 42.5501 281.87 46.8501 281.87C51.1501 281.87 54.6401 278.38 54.6401 274.08C54.6401 269.83 51.2301 266.36 46.9801 266.29C42.6801 266.22 39.1301 269.65 39.0601 273.95C39.0601 273.99 39.0601 274.04 39.0601 274.08Z" fill="#4FB26B"/>
<path d="M81.7799 282C86.154 282 89.6999 278.454 89.6999 274.08C89.6999 269.706 86.154 266.16 81.7799 266.16C77.4058 266.16 73.8599 269.706 73.8599 274.08C73.8599 278.454 77.4058 282 81.7799 282Z" fill="#4FB26B"/>
<path d="M116.59 282C120.964 282 124.51 278.454 124.51 274.08C124.51 269.706 120.964 266.16 116.59 266.16C112.216 266.16 108.67 269.706 108.67 274.08C108.67 278.454 112.216 282 116.59 282Z" fill="#4FB26B"/>
<path d="M151.36 282C155.734 282 159.28 278.454 159.28 274.08C159.28 269.706 155.734 266.16 151.36 266.16C146.986 266.16 143.44 269.706 143.44 274.08C143.44 278.454 146.986 282 151.36 282Z" fill="#4FB26B"/>
<path d="M186.16 282C190.534 282 194.08 278.454 194.08 274.08C194.08 269.706 190.534 266.16 186.16 266.16C181.786 266.16 178.24 269.706 178.24 274.08C178.24 278.454 181.786 282 186.16 282Z" fill="#4C70B5"/>
<path d="M220.96 282C225.334 282 228.88 278.454 228.88 274.08C228.88 269.706 225.334 266.16 220.96 266.16C216.586 266.16 213.04 269.706 213.04 274.08C213.04 278.454 216.586 282 220.96 282Z" fill="#4C70B5"/>
<path d="M255.77 266.18V282C251.4 282 247.86 278.46 247.86 274.09C247.86 269.72 251.4 266.18 255.77 266.18Z" fill="#4C70B5"/>
<path d="M192.32 0H442.19C453.97 0 463.51 9.55 463.51 21.32V641.05H170.94V21.32C170.94 9.54 180.49 0 192.26 0C192.28 0 192.29 0 192.31 0H192.32Z" fill="#4FB26B"/>
<path opacity="0.2" d="M251.92 188.11H171V185.7H249.53V0H251.92V188.11Z" fill="white"/>
<path opacity="0.4" d="M396.53 0H442.19C453.97 0 463.51 9.55 463.51 21.32V641.05H375.21V21.32C375.21 9.55 384.76 0 396.53 0Z" fill="#263339"/>
<path d="M403.34 106.3H435.41C441.15 106.3 445.8 110.95 445.8 116.69V311.89H392.97V116.69C392.97 110.96 397.61 106.32 403.33 106.3H403.34Z" fill="#4FB26B"/>
<path d="M403.34 106.3H431.13C436.87 106.3 441.52 110.95 441.52 116.69V311.89H392.98V116.69C392.98 110.95 397.63 106.3 403.37 106.3H403.34Z" fill="#010101"/>
<path opacity="0.2" d="M375.21 606.12H284.67V313.4H375.21V315.79H287.06V603.73H375.21V606.12Z" fill="white"/>
<path opacity="0.2" d="M250 606.12C241.64 606.11 234.87 599.32 234.88 590.95C234.89 582.58 241.68 575.82 250.05 575.83C258.4 575.84 265.17 582.62 265.17 590.97C265.17 599.32 258.39 606.11 250.03 606.11H250V606.12ZM250 578.23C242.96 578.23 237.25 583.94 237.25 590.98C237.25 598.02 242.96 603.73 250 603.73C257.04 603.73 262.75 598.02 262.75 590.98C262.74 583.94 257.03 578.24 250 578.23Z" fill="white"/>
<path opacity="0.2" d="M209.51 606.12C201.15 606.12 194.37 599.34 194.37 590.98C194.37 582.62 201.15 575.84 209.51 575.84C217.87 575.84 224.65 582.62 224.65 590.98C224.65 599.34 217.87 606.12 209.51 606.12ZM209.51 578.23C202.47 578.23 196.76 583.94 196.76 590.98C196.76 598.02 202.47 603.73 209.51 603.73C216.55 603.73 222.26 598.02 222.26 590.98C222.25 583.94 216.54 578.24 209.51 578.23Z" fill="white"/>
<path d="M713.51 286.28H469.92V261.89H713.51C720.24 261.89 725.69 267.34 725.69 274.07C725.7 280.8 720.26 286.26 713.54 286.28H713.51Z" fill="#4FB26B"/>
<path d="M636.59 286.28H392.98V261.89H636.59C643.32 261.86 648.79 267.29 648.82 274.02C648.82 274.04 648.82 274.05 648.82 274.07C648.83 280.8 643.39 286.26 636.67 286.28C636.64 286.28 636.62 286.28 636.59 286.28Z" fill="#263339"/>
<path d="M619.39 286.28H603.86V641.08H619.39V286.28Z" fill="#4C70B5"/>
<path d="M619.39 286.28H603.86V641.08H619.39V286.28Z" fill="#C2E0CA"/>
<path d="M696.48 286.28H680.95V641.08H696.48V286.28Z" fill="#4C70B5"/>
<path d="M696.48 286.28H680.95V641.08H696.48V286.28Z" fill="#C2E0CA"/>
<path d="M636.59 282C640.964 282 644.51 278.454 644.51 274.08C644.51 269.706 640.964 266.16 636.59 266.16C632.216 266.16 628.67 269.706 628.67 274.08C628.67 278.454 632.216 282 636.59 282Z" fill="#4FB26B"/>
<path d="M601.78 282C606.154 282 609.7 278.454 609.7 274.08C609.7 269.706 606.154 266.16 601.78 266.16C597.406 266.16 593.86 269.706 593.86 274.08C593.86 278.454 597.406 282 601.78 282Z" fill="#4FB26B"/>
<path d="M566.98 282C571.354 282 574.9 278.454 574.9 274.08C574.9 269.706 571.354 266.16 566.98 266.16C562.606 266.16 559.06 269.706 559.06 274.08C559.06 278.454 562.606 282 566.98 282Z" fill="#4FB26B"/>
<path d="M532.18 282C536.554 282 540.1 278.454 540.1 274.08C540.1 269.706 536.554 266.16 532.18 266.16C527.806 266.16 524.26 269.706 524.26 274.08C524.26 278.454 527.806 282 532.18 282Z" fill="#4FB26B"/>
<path d="M497.38 282C501.754 282 505.3 278.454 505.3 274.08C505.3 269.706 501.754 266.16 497.38 266.16C493.006 266.16 489.46 269.706 489.46 274.08C489.46 278.454 493.006 282 497.38 282Z" fill="#4FB26B"/>
<path d="M462.58 282C466.954 282 470.5 278.454 470.5 274.08C470.5 269.706 466.954 266.16 462.58 266.16C458.206 266.16 454.66 269.706 454.66 274.08C454.66 278.454 458.206 282 462.58 282Z" fill="#4FB26B"/>
<path d="M427.78 282C432.154 282 435.7 278.454 435.7 274.08C435.7 269.706 432.154 266.16 427.78 266.16C423.406 266.16 419.86 269.706 419.86 274.08C419.86 278.454 423.406 282 427.78 282Z" fill="#4FB26B"/>
<path d="M392.97 266.18V282C397.34 282 400.88 278.46 400.88 274.09C400.88 269.72 397.34 266.18 392.97 266.18Z" fill="#4FB26B"/>
<path d="M347.14 64.02H199.06C197.127 64.02 195.56 65.587 195.56 67.52V349.45C195.56 351.383 197.127 352.95 199.06 352.95H347.14C349.073 352.95 350.64 351.383 350.64 349.45V67.52C350.64 65.587 349.073 64.02 347.14 64.02Z" fill="white"/>
<path d="M330.34 94.8701H215.86C213.8 94.8701 212.13 96.5401 212.13 98.6001V177.29C212.13 179.35 213.8 181.02 215.86 181.02H330.34C332.4 181.02 334.07 179.35 334.07 177.29V98.6001C334.07 96.5401 332.4 94.8701 330.34 94.8701Z" fill="#C6E1CE"/>
<path d="M330.53 193.36H215.67C213.715 193.36 212.13 194.945 212.13 196.9V249.14C212.13 251.095 213.715 252.68 215.67 252.68H330.53C332.485 252.68 334.07 251.095 334.07 249.14V196.9C334.07 194.945 332.485 193.36 330.53 193.36Z" fill="#C6E1CE"/>
<path d="M248.86 223.17L228.5 215.77C232.6 204.53 245.03 198.74 256.27 202.83C263.54 205.48 268.85 211.81 270.19 219.43L248.87 223.17H248.86Z" fill="#4FB26B"/>
<path d="M248.86 223.17L270.18 219.43C270.4 220.67 270.51 221.92 270.52 223.17C270.93 235.14 261.57 245.18 249.6 245.59C237.63 246 227.59 236.64 227.18 224.67C227.16 224.17 227.16 223.67 227.18 223.17C227.18 220.64 227.63 218.14 228.5 215.77L248.86 223.17Z" fill="white"/>
<path d="M308.05 220.21H299.84V244.68H308.05V220.21Z" fill="white"/>
<path d="M294.08 233.22H285.87V244.67H294.08V233.22Z" fill="white"/>
<path d="M294.08 226.24H285.87V233.23H294.08V226.24Z" fill="#4FB26B"/>
<path d="M308.05 205.3H299.84V220.21H308.05V205.3Z" fill="#4FB26B"/>
<path d="M322 224.65H313.79V244.65H322V224.65Z" fill="white"/>
<path d="M322 215.49H313.79V224.66H322V215.49Z" fill="#4FB26B"/>
<path d="M229.87 156.56H316.04C317.95 156.58 319.51 155.05 319.53 153.14C319.53 152.61 319.42 152.08 319.18 151.6C315.81 144.31 313.77 136.47 313.15 128.46C311.54 110.28 299.23 105.86 293.98 128.46C288.73 151.06 267.77 139.42 259.23 128.67C251.28 118.7 238.3 129.73 226.77 151.45C225.88 153.17 226.55 155.29 228.27 156.17C228.76 156.42 229.3 156.56 229.86 156.56H229.87Z" fill="#4FB26B"/>
<path d="M226.55 272.78C233.19 272.78 238.57 278.16 238.57 284.8C238.57 291.44 233.19 296.82 226.55 296.82C219.91 296.82 214.53 291.44 214.53 284.8C214.54 278.16 219.92 272.79 226.55 272.78ZM226.55 270.39C218.57 270.39 212.11 276.86 212.11 284.83C212.11 292.81 218.58 299.27 226.55 299.27C234.52 299.27 240.99 292.8 240.99 284.83C240.99 284.83 240.99 284.81 240.99 284.8C241 276.85 234.57 270.4 226.63 270.39C226.6 270.39 226.58 270.39 226.55 270.39Z" fill="#263339"/>
<path d="M265.74 272.78C272.38 272.78 277.76 278.16 277.76 284.8C277.76 291.44 272.38 296.82 265.74 296.82C259.1 296.82 253.72 291.44 253.72 284.8C253.73 278.16 259.11 272.79 265.74 272.78ZM265.74 270.39C257.76 270.38 251.29 276.83 251.27 284.8C251.25 292.77 257.71 299.25 265.68 299.27C273.65 299.29 280.13 292.83 280.15 284.86V284.81C280.16 276.86 273.73 270.41 265.79 270.4H265.74V270.39Z" fill="#4FB26B"/>
<path d="M334.07 323.14C334.07 326.58 331.28 329.37 327.84 329.37C324.4 329.37 321.61 326.58 321.61 323.14C321.61 319.7 324.4 316.91 327.84 316.91C327.84 316.91 327.86 316.91 327.87 316.91C331.3 316.92 334.08 319.71 334.08 323.14H334.07Z" fill="#4FB26B"/>
<path opacity="0.3" d="M306.7 323.14C306.7 326.58 303.91 329.37 300.47 329.37C297.03 329.37 294.24 326.58 294.24 323.14C294.24 319.7 297.03 316.91 300.47 316.91C300.47 316.91 300.49 316.91 300.5 316.91C303.93 316.92 306.71 319.71 306.71 323.14H306.7Z" fill="#4C70B5"/>
<path d="M279.32 323.14C279.32 326.58 276.53 329.37 273.09 329.37C269.65 329.37 266.86 326.58 266.86 323.14C266.86 319.7 269.65 316.91 273.09 316.91C276.53 316.91 279.32 319.7 279.32 323.14Z" fill="#4FB26B"/>
<path d="M251.95 323.14C251.95 326.58 249.16 329.37 245.72 329.37C242.28 329.37 239.49 326.58 239.49 323.14C239.49 319.7 242.28 316.91 245.72 316.91C249.16 316.91 251.95 319.7 251.95 323.14Z" fill="#4FB26B"/>
<path d="M224.58 323.14C224.58 326.58 221.79 329.37 218.35 329.37C214.91 329.37 212.12 326.58 212.12 323.14C212.12 319.7 214.91 316.91 218.35 316.91C221.79 316.91 224.58 319.7 224.58 323.14Z" fill="#4FB26B"/>
<path d="M636.56 167.41H499.56V261.92H636.56V167.41Z" fill="#4FB26B"/>
<path opacity="0.7" d="M559.06 167.41H534.57V202.13H559.06V167.41Z" fill="white"/>
<path opacity="0.2" d="M636.58 167.41H593.86V261.92H636.58V167.41Z" fill="#010101"/>
<path d="M622.04 167.41H608.38V202.13H622.04V167.41Z" fill="#4FB26B"/>
<path d="M525.92 235.56V250.99H510.49V235.56H525.92ZM528.31 233.15H508.08V253.38H528.31V233.15Z" fill="white"/>
<path opacity="0.4" d="M557.06 233.15H536.83V253.38H557.06V233.15Z" fill="#263339"/>
<path d="M130.02 183.02H87.32C86.8893 183.02 86.54 183.369 86.54 183.8V261.12C86.54 261.551 86.8893 261.9 87.32 261.9H130.02C130.451 261.9 130.8 261.551 130.8 261.12V183.8C130.8 183.369 130.451 183.02 130.02 183.02Z" fill="#263339"/>
<path d="M86.1999 183.02H126.38C127.5 183.02 128.41 183.93 128.41 185.05V259.85C128.41 260.97 127.5 261.88 126.38 261.88H86.1999C85.0699 261.88 84.1499 260.96 84.1499 259.83V185.03C84.1599 183.91 85.0799 183.02 86.1999 183.03V183.02Z" fill="#4FB26B"/>
<path d="M125.32 185.44H87.3098C86.9122 185.44 86.5898 185.762 86.5898 186.16V258.79C86.5898 259.188 86.9122 259.51 87.3098 259.51H125.32C125.717 259.51 126.04 259.188 126.04 258.79V186.16C126.04 185.762 125.717 185.44 125.32 185.44Z" fill="white"/>
<path d="M105.52 185.44H97.3702L91.2402 259.51H99.4202L105.52 185.44Z" fill="#4FB26B"/>
<path d="M113.7 185.44H108.4L102.3 259.51H107.57L113.7 185.44Z" fill="#4FB26B"/>
</g>
<defs>
<clipPath id="clip0_219_426">
<rect width="725.69" height="641.08" fill="white"/>
</clipPath>
</defs>
</svg>
