<svg width="526" height="797" viewBox="0 0 526 797" fill="none" xmlns="http://www.w3.org/2000/svg">
<g clip-path="url(#clip0_219_494)">
<path d="M210.07 408L234.24 536.09H311.56L332.1 408H210.07Z" fill="#EE7161"/>
<path d="M340.19 558.74H210.07V569.19H340.19V558.74Z" fill="#AE7462"/>
<path d="M216.23 542.46H201.79V796.39H216.23V542.46Z" fill="#AE7462"/>
<path d="M348.73 546.63H334.29V796.25H348.73V546.63Z" fill="#AE7462"/>
<path d="M340.19 734.38H210.07V751.54H340.19V734.38Z" fill="#AE7462"/>
<path d="M353.941 536.09H196.141V548.82H353.941V536.09Z" fill="#AE7462"/>
<path d="M354.65 548.59C354.65 548.94 318.95 549.19 274.93 549.19C230.91 549.19 195.21 548.94 195.21 548.59C195.21 548.24 230.88 547.99 274.93 547.99C318.98 547.99 354.65 548.27 354.65 548.59Z" fill="#70453A"/>
<path d="M216.44 789.28C216.12 789.28 215.84 735.62 215.84 669.37C215.84 603.12 216.12 549.46 216.44 549.46C216.76 549.46 217.04 603.12 217.04 669.37C217.04 735.62 216.79 789.28 216.44 789.28Z" fill="#70453A"/>
<path d="M334.29 789.28C333.97 789.28 333.69 735.62 333.69 669.37C333.69 603.12 333.97 549.46 334.29 549.46C334.61 549.46 334.91 603.12 334.91 669.37C334.91 735.62 334.63 789.28 334.29 789.28Z" fill="#70453A"/>
<g opacity="0.3">
<path d="M260.25 406.98C256.68 414.8 257.94 424.11 260.13 433.27C264.96 425.6 271.71 419.32 279.71 415.05C281.72 413.99 284.32 413.09 286.07 414.45C287.7 416.02 287.9 418.57 286.53 420.38C285.15 422.09 283.42 423.48 281.46 424.46C273.85 429.21 267.47 435.71 262.87 443.41C263.7 446.34 264.46 449.17 265.06 451.87C267.3 461.06 271.41 469.69 277.12 477.24C277.21 474.64 277.7 472.08 278.57 469.63C280.37 465.1 282.69 460.8 285.49 456.81C290.58 448.37 296.49 440.44 303.13 433.15C304.84 431.4 307.58 429.65 309.47 431.19C310.49 432.2 310.81 433.73 310.28 435.06C309.73 436.35 308.94 437.53 307.97 438.54C295.25 453.69 289.21 473.35 291.21 493.03C295.26 496.84 299.56 500.37 304.08 503.61C308.14 506.54 313.3 509.97 318.79 513.59C315.85 496.36 317.44 478.67 323.4 462.24L330.85 410.06L260.24 406.97L260.25 406.98Z" fill="#010101"/>
</g>
<path d="M435.73 251.35H435.15L433.42 251.47C431.9 251.61 429.64 251.47 426.78 252C418.66 252.84 410.68 254.68 403.01 257.47C391.63 261.58 380.89 267.3 371.14 274.46C365.39 278.7 359.94 283.32 354.81 288.3C349.35 293.68 344.3 299.46 339.71 305.59C334.96 311.86 330.74 318.32 326.87 324.66C323 331 319.47 337.27 316.22 343.29C309.76 355.35 304.46 366.46 300.24 375.92C296.02 385.37 292.81 393.12 290.72 398.52C289.71 401.15 288.9 403.13 288.3 404.72L287.65 406.33C287.59 406.52 287.51 406.7 287.4 406.86C287.41 406.66 287.46 406.47 287.54 406.28L288.09 404.62C288.57 403.19 289.27 401.05 290.4 398.32C292.36 392.88 295.45 385.06 299.62 375.56C303.79 366.06 308.98 354.81 315.39 342.75C318.64 336.71 322.12 330.41 326.04 324.05C330 317.43 334.3 311.01 338.93 304.84C347.84 292.86 358.54 282.32 370.66 273.59C380.54 266.41 391.42 260.72 402.94 256.69C410.69 253.96 418.76 252.24 426.94 251.57C429.15 251.35 431.38 251.25 433.6 251.27H435.91L435.73 251.34V251.35Z" fill="#263339"/>
<path d="M256.28 408C255.95 407.56 255.66 407.09 255.43 406.59C254.9 405.67 254.21 404.28 253.31 402.44C251.53 398.8 249.27 393.38 246.28 386.81C244.78 383.54 243.07 379.89 240.95 376.29C238.78 372.37 236.05 368.78 232.86 365.64C225.15 358.75 216.07 353.6 206.2 350.51C196.34 347.4 186.03 345.96 175.69 346.24C167.25 346.48 158.85 347.56 150.62 349.47C143.56 351.06 137.98 352.81 134.13 354.08L129.7 355.53C129.2 355.73 128.68 355.88 128.16 355.99C128.62 355.7 129.12 355.47 129.64 355.3C130.61 354.88 132.08 354.33 134 353.64C139.37 351.67 144.86 350.01 150.42 348.66C158.69 346.61 167.15 345.44 175.67 345.16C186.14 344.81 196.59 346.24 206.57 349.4C216.58 352.56 225.79 357.87 233.55 364.94C236.79 368.18 239.55 371.88 241.74 375.92C243.67 379.38 245.43 382.93 247 386.57C249.91 393.21 252.05 398.65 253.69 402.37C254.5 404.21 255.14 405.64 255.6 406.61C255.88 407.05 256.11 407.51 256.29 407.99L256.28 408Z" fill="#263339"/>
<path d="M254.62 408C254.17 407.73 253.75 407.42 253.35 407.08C252.54 406.46 251.37 405.51 249.89 404.24C246.94 401.75 242.79 397.94 237.32 393.77C234.35 391.49 231.15 389.52 227.77 387.91C223.94 386.04 219.68 385.24 215.43 385.6C210.77 386.4 206.31 388.11 202.31 390.63C197.98 393.36 193.9 396.44 190.09 399.85C188.1 401.5 186.21 403.27 184.42 405.13C182.69 407.02 181.12 408.98 179.58 410.94C176.56 414.86 173.84 418.83 171.28 422.61C166.25 430.24 162.06 437.32 158.69 443.36C155.32 449.4 152.9 454.45 151.4 458C149.9 461.55 149.37 463.65 149.23 463.6C149.28 463.08 149.4 462.57 149.58 462.08C149.95 460.64 150.41 459.22 150.96 457.84C152.96 452.75 155.27 447.78 157.88 442.97C161.13 436.84 165.28 429.69 170.29 422.01C172.85 418.18 175.52 414.19 178.59 410.2C180.13 408.24 181.73 406.23 183.48 404.32C185.29 402.41 187.21 400.62 189.24 398.95C193.1 395.53 197.25 392.44 201.65 389.73C205.79 387.13 210.41 385.4 215.23 384.63C219.67 384.26 224.13 385.12 228.12 387.12C231.54 388.79 234.77 390.83 237.76 393.18C243.23 397.52 247.26 401.41 250.14 403.99L253.44 406.99C253.86 407.28 254.26 407.61 254.62 407.98V408Z" fill="#263339"/>
<path d="M247.08 115.58C247.2 115.8 247.31 116.03 247.4 116.27L248.23 118.35C248.97 120.26 249.98 122.96 251.32 126.35C252.66 129.74 253.9 134.24 255.45 139.31C256.14 141.85 257.09 144.54 257.76 147.47C258.43 150.4 259.12 153.49 259.86 156.69C261.5 163.17 262.51 170.41 263.92 178.11C264.66 181.96 265 186.02 265.6 190.15C266.2 194.28 266.8 198.54 267.12 202.95C268.99 220.48 270 239.84 270.46 260.16C270.92 280.48 270.34 299.89 269.54 317.49C268.73 335.08 267.46 350.97 266.15 364.35C265.5 370.97 264.88 376.96 264.17 382.22C263.46 387.48 262.99 392 262.42 395.69C261.85 399.38 261.43 402.15 261.13 404.15C260.97 405.07 260.85 405.81 260.76 406.46C260.73 406.71 260.67 406.96 260.58 407.2V406.44L260.83 404.13C261.08 402.1 261.45 399.24 261.91 395.62C262.37 392 262.88 387.39 263.48 382.15C264.08 376.91 264.66 370.9 265.26 364.26C266.53 351.02 267.57 335.18 268.42 317.61C269.27 300.04 269.53 280.72 269.25 260.35C268.97 239.98 267.8 220.73 266.02 203.21C265.7 198.83 264.98 194.59 264.52 190.46C264.06 186.33 263.62 182.3 262.91 178.45C261.55 170.75 260.6 163.51 259.01 157.05C258.32 153.8 257.63 150.71 257 147.83C256.37 144.95 255.48 142.2 254.81 139.64C253.33 134.57 252.27 130.14 250.89 126.68C249.51 123.22 248.7 120.52 248.01 118.61L247.3 116.49C247.18 116.2 247.11 115.9 247.09 115.59L247.08 115.58Z" fill="#263339"/>
<path d="M277.68 406.98C277.68 406.98 277.54 406.68 277.29 406.06L276.25 403.27C276 402 275.63 400.41 275.33 398.52C275.08 396.34 274.95 394.14 274.94 391.95C274.73 382.01 277.25 367.81 281.3 350.6C283.26 341.98 285.75 332.61 287.36 322.38C287.82 319.81 288.28 317.21 288.74 314.56C289.27 311.93 289.82 309.26 290.38 306.54C291.44 301.1 292.69 295.56 293.93 289.85C298.91 267.02 304.72 241.98 310.86 215.71C323.2 163.23 334.33 115.7 342.43 81.2499C346.37 64.0199 349.56 50.0699 351.54 40.4099C352.6 35.5699 353.32 31.8099 353.85 29.2499C354.08 28.0299 354.27 26.9399 354.43 26.3399C354.49 25.9999 354.56 25.6699 354.66 25.3499C354.65 25.6899 354.61 26.0299 354.54 26.3599C354.42 27.0699 354.26 28.0399 354.08 29.2899C353.66 31.8499 353.04 35.6499 352.05 40.4999C350.21 50.2099 347.14 64.1799 343.31 81.4299C335.61 116.02 324.4 163.48 312.09 215.98C305.96 242.24 300.12 267.26 295.05 290.07C293.83 295.79 292.56 301.32 291.48 306.74C290.91 309.46 290.36 312.14 289.82 314.76C289.34 317.39 288.87 319.97 288.39 322.53C286.75 332.81 284.19 342.2 282.19 350.78C278.04 367.94 275.39 382.07 275.46 391.94C275.44 394.13 275.53 396.31 275.74 398.49C275.99 400.36 276.34 401.93 276.55 403.1C276.76 404.27 277.26 405.22 277.47 405.91C277.58 406.25 277.66 406.61 277.7 406.97L277.68 406.98Z" fill="#263339"/>
<path d="M281.83 406.98C281.76 406.39 281.76 405.79 281.83 405.2C281.83 404.05 281.83 402.34 282.04 400.13C282.32 395.73 282.89 389.38 283.79 381.68C285.52 366 288.79 344.49 290.92 320.6C292.03 309.38 292.31 298.1 291.77 286.84C291.46 281.95 290.69 277.1 289.46 272.36C288.49 268.23 286.57 264.39 283.86 261.13C281.51 258.55 278.27 256.97 274.8 256.7C272.16 256.52 269.51 256.77 266.96 257.46C262.74 258.61 260.55 259.77 260.48 259.6C260.98 259.28 261.52 259.01 262.07 258.79C262.71 258.47 263.38 258.2 264.05 257.96C264.96 257.59 265.89 257.28 266.84 257.01C269.43 256.2 272.15 255.87 274.86 256.02C278.54 256.27 281.98 257.92 284.48 260.63C287.35 263.94 289.38 267.9 290.41 272.16C291.67 276.96 292.44 281.87 292.72 286.83C293.33 298.14 293.09 309.48 291.98 320.75C289.86 344.71 286.42 366.22 284.49 381.83C283.5 389.62 282.78 395.97 282.39 400.28C282.21 402.38 282.04 404.06 281.95 405.33C281.86 406.6 281.86 406.97 281.83 406.97V406.98Z" fill="#263339"/>
<path d="M251.6 348.2C251.6 348.2 251.37 347.58 251 346.36L249.52 340.99C248.23 336.38 246.41 329.58 243.94 321.32C241.1 311.63 237.72 302.1 233.79 292.8C229.01 281.41 222.81 270.66 215.34 260.82C207.87 250.98 198.62 242.63 188.06 236.22C179.36 231.1 170.07 227.06 160.39 224.18C152.16 221.62 145.33 220.12 140.61 219.11L135.17 217.96C134.53 217.87 133.89 217.71 133.28 217.5C133.93 217.52 134.58 217.6 135.22 217.73C136.49 217.91 138.33 218.21 140.71 218.65C147.44 219.82 154.1 221.36 160.66 223.26C170.45 226.07 179.86 230.09 188.65 235.23C199.37 241.66 208.76 250.08 216.32 260.04C223.83 269.97 230.03 280.82 234.77 292.32C238.67 301.68 241.99 311.26 244.71 321.03C247.02 329.35 248.77 336.13 249.92 340.84C250.45 343.15 250.89 344.92 251.21 346.26C251.41 346.9 251.54 347.55 251.6 348.22V348.2Z" fill="#263339"/>
<path d="M152.51 63.17L146.63 66.19C137.47 70.92 129.01 76.87 121.47 83.9C130.88 84.06 140.19 85.82 149 89.11C161.59 93.42 173.49 97.71 184.42 105.25C187.33 107.26 190.58 110.14 189.84 113.6C189.17 116.69 185.37 118.21 182.25 117.59C179.21 116.69 176.41 115.11 174.06 112.98C156.19 99.53 134.13 92.84 111.8 94.12C106.38 100.53 101.87 107.65 98.3803 115.29C113.67 108.31 131.57 110.43 144.8 120.8C146.58 122.21 148.42 124.19 147.96 126.38C147.38 129.17 143.79 129.93 141.04 129.79C132.62 129.35 124.55 126.12 116.18 125.32C107.81 124.52 96.2103 126.1 92.4503 133.64C90.3303 140.05 91.5303 145.68 92.9803 152.09C97.2703 171.07 103.73 181.05 114.1 188.09C122.63 184.25 130.05 178.31 135.66 170.82C143.25 161.43 149.15 150.71 157.29 141.81C158.93 140.01 161.07 138.17 163.47 138.58C165.47 139.11 166.95 140.8 167.21 142.85C167.43 144.87 167.17 146.91 166.43 148.8C162.69 159.53 156.58 169.27 148.54 177.3C142.24 183.68 135.48 189.61 128.34 195.03C134.43 197.34 141.62 199.34 150.18 201.65C171.8 186.4 186.94 163.63 192.63 137.8C192.98 135.27 193.76 132.82 194.94 130.56C196.19 128.27 198.66 126.93 201.26 127.12C204.86 127.7 206.52 131.87 207.07 135.47C209.38 150.2 204.26 165.45 195.4 177.51C186.89 189.04 175.2 197.8 162.75 204.86C179.35 208.85 196.44 210.36 213.48 209.33C218.68 202.38 222.51 194.51 224.78 186.13C227.63 175.05 229.01 163.65 228.88 152.21C228.79 150.86 228.98 149.5 229.43 148.22C229.89 146.9 231.1 145.99 232.5 145.91C234.81 145.91 235.87 148.98 236.1 151.35C237.99 170.65 234.53 190.09 226.09 207.55C245.76 203.68 262.2 194.04 269.9 175.82C286.5 136.18 247.14 115.54 247.14 115.54C258.42 90.84 249.98 72.03 249.98 72.03C243.8 61.08 236.72 53.97 229.09 49.73C234.66 59.94 238.98 70.78 241.98 82.01C242.4 83.27 242.57 84.6 242.49 85.93C242.52 87.75 241.06 89.25 239.24 89.28C238.22 89.3 237.24 88.83 236.61 88.03C235.68 87.03 234.96 85.85 234.49 84.57C230.71 75.83 228.06 66.63 224 58.01C221.89 53.36 219.2 48.99 216 45C201.59 42.51 186.02 47.31 171.52 53.76C188.06 63.77 201.13 78.61 208.97 96.28C209.52 97.55 210.01 99.16 209.11 100.22C208.21 101.28 205.63 100.64 204.2 99.48C197.47 94.06 192.92 86.45 186.97 80.23C177.78 70.77 165.62 64.74 152.52 63.17H152.51ZM246.46 128.65C247.32 130.12 247.75 131.79 247.73 133.49C247.55 135.17 246.05 136.86 244.39 136.56C243.45 136.29 242.63 135.69 242.08 134.88C240.48 132.9 239.34 130.6 238.74 128.12C238.38 127 238.38 125.8 238.74 124.68C239.16 123.55 240.32 122.88 241.51 123.09C242.63 123.65 243.63 124.44 244.44 125.4C245.26 126.39 245.94 127.48 246.47 128.65H246.46Z" fill="#85BE54"/>
<path d="M94.4307 159.6C94.8307 159.24 95.2807 158.93 95.7707 158.68C96.6707 158.1 98.0807 157.3 99.7807 156.37C103.291 154.39 108.521 151.76 115.111 148.83C121.701 145.9 129.751 142.79 138.681 139.42C147.611 136.05 157.501 132.5 168.031 129.3C186.051 123.87 204.421 119.66 223.001 116.71C230.131 115.58 235.941 114.84 239.951 114.4L244.561 113.94C245.101 113.88 245.651 113.88 246.201 113.94C245.681 114.08 245.151 114.19 244.611 114.26L240.001 114.93C236.011 115.55 230.251 116.38 223.141 117.65C204.641 120.83 186.351 125.13 168.371 130.54C157.851 133.72 147.991 137.2 139.061 140.55C130.131 143.9 122.091 146.89 115.451 149.77C108.811 152.65 103.551 155.12 99.9807 156.96L95.8807 159.13C95.4107 159.33 94.9207 159.48 94.4307 159.59V159.6Z" fill="#263339"/>
<path d="M184.341 125.27C184.171 126.44 183.921 127.6 183.581 128.73C183.031 131.04 182.201 134.1 181.071 137.95C178.361 148.22 174.491 158.16 169.541 167.56C166.621 172.62 163.401 177.5 159.901 182.18C157.021 186.03 153.671 189.49 149.921 192.49C147.381 194.48 144.651 196.2 141.761 197.63C140.751 198.16 139.921 198.48 139.451 198.71C139.181 198.84 138.891 198.95 138.601 199.01C142.391 196.87 146.031 194.46 149.481 191.82C153.091 188.79 156.321 185.33 159.101 181.51C162.531 176.83 165.701 171.98 168.601 166.96C173.481 157.63 177.411 147.83 180.341 137.72C181.521 134.01 182.461 130.8 183.221 128.5C183.491 127.39 183.871 126.31 184.351 125.27H184.341Z" fill="#263339"/>
<path d="M153.16 111.34C157.99 112.96 162.6 115.19 166.88 117.96C171.35 120.38 175.56 123.26 179.42 126.56C174.91 124.27 170.52 121.74 166.28 118.97C159.13 114.73 153.16 111.64 153.16 111.34Z" fill="#263339"/>
<path d="M187.431 90.5798C188.881 91.6098 190.191 92.8298 191.331 94.1998C194.251 97.3198 196.991 100.62 199.521 104.07C202.041 107.53 204.351 111.13 206.441 114.86C207.411 116.36 208.191 117.98 208.751 119.68C208.431 119.86 204.461 112.76 198.581 104.78C192.701 96.7998 187.191 90.8298 187.441 90.5798H187.431Z" fill="#263339"/>
<path d="M215.42 118.39C215.93 119.29 216.33 120.24 216.62 121.23C217.59 123.88 218.36 126.6 218.93 129.37C220.64 138.53 220.47 147.95 218.42 157.04C216.45 166.15 212.68 174.77 207.33 182.41C205.73 184.71 203.96 186.9 202.05 188.96C201.37 189.76 200.6 190.48 199.74 191.1C199.58 190.94 202.67 187.8 206.66 181.88C211.72 174.22 215.32 165.69 217.27 156.72C219.27 147.76 219.55 138.5 218.1 129.44C216.85 122.57 215.24 118.46 215.43 118.39H215.42Z" fill="#263339"/>
<path d="M204.561 65.3999C205.111 65.8899 205.601 66.4599 205.991 67.0799C206.841 68.2099 208.001 69.8899 209.361 72.0099C212.881 77.5699 215.901 83.4399 218.381 89.5399C220.861 95.6399 222.801 101.96 224.171 108.4C224.681 110.89 225.021 113.01 225.211 114.3C225.361 115.06 225.411 115.83 225.371 116.61C225.161 116.61 224.591 113.59 223.341 108.72C221.761 102.32 219.731 96.0399 217.281 89.9299C214.811 83.8899 211.921 78.0199 208.631 72.3799C207.161 70.1199 205.811 67.7899 204.571 65.3899L204.561 65.3999Z" fill="#263339"/>
<path d="M259.83 176.02C259.62 176.02 260.54 172.31 261.03 166.29C262.26 150.45 257.5 134.73 247.7 122.22C245.97 119.91 244.54 118.02 243.36 116.48C242.78 115.77 242.28 115 241.88 114.17C242.56 114.74 243.17 115.38 243.7 116.08C244.83 117.35 246.42 119.24 248.31 121.59C258.69 134.04 263.59 150.16 261.89 166.28C261.64 168.68 261.21 171.06 260.62 173.41C260.48 174.31 260.2 175.19 259.81 176.02H259.83Z" fill="#263339"/>
<path d="M243.23 83.27C244.97 88.27 245.6 93.59 245.07 98.86C244.86 102.58 244.28 106.27 243.34 109.88C243.07 111.4 242.55 112.87 241.82 114.24C241.45 114.24 243.39 107.32 243.87 98.79C243.98 93.61 243.76 88.43 243.22 83.27H243.23Z" fill="#263339"/>
<g opacity="0.3">
<path d="M250.47 118.07C250.15 118.07 245.35 140.71 254 151.39C259.12 157.76 265.52 162.99 272.79 166.72C272.79 166.72 278.12 126.16 250.47 118.06V118.07Z" fill="#010101"/>
</g>
<path d="M216.74 465.11C209.89 460.25 201.99 457.09 193.68 455.89C191.61 455.79 189.59 455.24 187.75 454.28C185.89 453.25 185.1 450.99 185.91 449.02C186.95 447.2 189.48 446.99 191.58 447.15C200.05 447.78 208.2 450.61 215.24 455.36C212.93 441.94 208.32 429.1 191.83 427.37C167.8 424.83 164.02 432.1 164.02 432.1C164.02 432.1 154.54 420.41 127.68 423.57C111.26 425.51 96.5304 437.22 86.5904 448.5C98.4804 445.59 110.6 443.71 122.82 442.87C124.92 442.71 127.43 442.87 128.47 444.74C129.11 446.4 128.47 448.29 126.97 449.24C125.49 450.13 123.83 450.67 122.1 450.81L79.6904 457.27C77.5304 460.26 75.7104 463.49 74.2704 466.89C72.6904 471.35 71.3704 475.9 70.3304 480.52L71.2504 480.08C83.2804 474.46 95.8904 470.16 108.86 467.28C114.05 466.13 119.56 465.2 124.63 466.86C125.7 467.1 126.65 467.72 127.28 468.61C127.92 470.01 127.59 471.66 126.45 472.69C125.33 473.68 124 474.4 122.55 474.79C111.25 478.76 99.4904 481.38 88.5604 486.32C79.6204 490.06 71.8504 496.13 66.0504 503.89C64.6504 514.73 64.1804 525.67 64.6404 536.59C73.4204 521.92 86.0804 509.96 101.21 502C105.77 499.5 110.69 497.69 115.78 496.65C118.24 495.96 120.87 496.31 123.07 497.62C126.28 499.93 125.63 505.32 122.93 508.27C120.23 511.22 116.2 512.49 112.48 513.94C92.1604 522.06 75.9004 537.93 67.2804 558.05C68.5504 564.35 70.4004 570.53 72.7904 576.5C79.5204 565.35 88.3304 555.6 98.7304 547.77C100.13 546.57 101.8 545.73 103.6 545.33C105.45 544.97 107.3 545.92 108.07 547.64C108.69 549.55 107.33 551.47 106.06 553.01C98.9204 561.07 92.7304 569.92 87.6104 579.39C85.2504 584.12 83.4904 589.14 82.4004 594.31C97.6704 616.12 112.38 617.53 125.04 613.17L120.84 573.19C120.55 571.5 120.55 569.77 120.84 568.07C121.19 566.36 122.38 564.94 124 564.29C125.84 563.87 127.76 564.51 128.98 565.95C130.15 567.39 130.99 569.05 131.47 570.84C135.56 583.55 135.81 597.19 132.18 610.04C139.28 606.35 145.44 601.58 150.3 598.99L151.11 598.53C151.38 587.83 149.11 577.23 144.47 567.58C142 562.48 138.89 557.69 136.7 552.45C133.17 543.87 132.28 534.44 134.14 525.36C134.39 523.67 135.01 522.05 135.96 520.63C136.93 519.17 138.63 518.39 140.36 518.6C142.03 519.02 143.35 520.29 143.84 521.94C144.31 523.56 144.52 525.25 144.46 526.94C144.92 542.24 149.1 557.2 156.64 570.52C159.74 575.31 162.46 580.34 164.78 585.55C164.87 585.76 164.95 585.98 165.01 586.2C171.56 578.95 177.72 571.35 183.46 563.44C182.35 555.3 177.86 547.83 173.73 540.61C167.8 530.13 162.41 519.36 157.59 508.33C156.07 504.89 154.59 501.41 153.14 497.95C152.29 495.92 151.6 493.22 153.3 491.86C155 490.5 157.38 491.7 159.09 492.92C177.11 505.94 189.92 524.93 195.25 546.51C198.69 541.3 201.73 536.46 204.1 532.4C206.74 527.9 209.1 523.24 211.16 518.45C205.45 500.77 192.83 486.16 176.18 477.93C174.95 477.44 173.83 476.73 172.86 475.83C171.89 474.91 171.57 473.48 172.08 472.23C173.12 470.18 176.14 470.64 178.26 471.49C186.71 475.23 194.78 479.8 202.33 485.12C206.22 487.48 209.82 490.28 213.08 493.47C214.76 495.24 216.15 497.27 217.21 499.47C219.26 490.84 219.52 481.89 217.97 473.16C217.51 470.65 217.09 467.93 216.7 465.11H216.74ZM148.71 449.87C147.78 450.23 146.78 450.38 145.78 450.31C144.52 450.42 143.25 450.25 142.07 449.8C140.87 449.32 140.12 448.13 140.2 446.85C140.41 445.96 141.05 445.22 141.91 444.89C142.1 444.8 142.3 444.73 142.51 444.68C142.84 444.64 143.17 444.64 143.5 444.68C145.08 444.53 146.67 444.8 148.11 445.44C149.15 445.79 149.93 446.67 150.16 447.75C150.12 448.68 149.55 449.5 148.71 449.87Z" fill="#85BE54"/>
<path d="M164.69 432.39C164.49 433 164.23 433.6 163.93 434.17C163.31 435.42 162.5 437.08 161.49 439.17C159.32 443.48 156.28 449.78 152.61 457.62C145.25 473.23 135.71 495.11 126.76 519.88C117.81 544.65 111.29 567.61 106.98 584.33C104.74 592.63 103.15 599.55 102.07 604.16L100.76 609.56C100.62 610.19 100.44 610.81 100.23 611.43C100.26 610.78 100.36 610.14 100.53 609.52C100.78 608.16 101.15 606.34 101.61 604.05C102.56 599.32 104.1 592.52 106.22 584.1C116.92 540.33 132.24 497.81 151.92 457.27C155.68 449.5 158.84 443.25 161.14 439.01L163.77 434.1C164.04 433.51 164.35 432.94 164.69 432.39Z" fill="#263339"/>
<path d="M139.6 485.54C138.55 485.84 137.46 486.03 136.37 486.12C134.27 486.37 131.27 486.86 127.58 487.57C108.27 491.22 89.9198 498.85 73.7098 509.96C70.5998 512.08 68.1298 513.88 66.4698 515.17C65.6298 515.87 64.7398 516.51 63.7998 517.06C64.4898 516.22 65.2598 515.45 66.1098 514.75C68.3598 512.79 70.7098 510.94 73.1398 509.22C89.2198 497.62 107.77 489.91 127.33 486.69C131.07 486.09 134.11 485.72 136.23 485.61C137.35 485.46 138.48 485.44 139.6 485.54Z" fill="#263339"/>
<path d="M186.41 497.03C184.52 495.68 182.71 494.23 180.97 492.69C176.59 489.22 171.97 486.07 167.13 483.26C162.28 480.5 157.23 478.1 152.03 476.09C149.83 475.36 147.66 474.51 145.55 473.55C147.86 473.85 150.13 474.43 152.31 475.28C163.05 478.88 172.96 484.58 181.48 492.04C183.33 493.49 184.98 495.16 186.41 497.02V497.03Z" fill="#263339"/>
<path d="M128.14 434.19C129.73 433.72 131.39 433.48 133.05 433.48C137.04 433.25 141.05 433.36 145.02 433.83C148.99 434.3 152.91 435.12 156.73 436.3C158.35 436.69 159.9 437.31 161.34 438.14C161.22 438.49 154.05 436.09 144.85 435.03C135.65 433.97 128.16 434.57 128.13 434.2L128.14 434.19Z" fill="#263339"/>
<path d="M201.98 438.67C199.98 438.39 198.01 438 196.05 437.49C191.31 436.53 186.49 436.02 181.66 435.94C176.83 435.89 172.01 436.27 167.25 437.09C165.29 437.54 163.3 437.88 161.3 438.1C163.13 437.22 165.08 436.6 167.09 436.26C171.88 435.16 176.78 434.64 181.69 434.71C186.6 434.78 191.48 435.43 196.24 436.65C198.24 437.04 200.17 437.72 201.98 438.66V438.67Z" fill="#263339"/>
<path d="M169.83 562.66C169.16 561.9 168.57 561.06 168.08 560.17C166.61 557.82 165.28 555.39 164.09 552.88C160.35 544.57 157.08 536.05 154.29 527.38C151.47 518.76 147.75 510.47 143.18 502.64C139.54 496.71 136.49 493.6 136.68 493.42C137.48 494.05 138.21 494.77 138.85 495.56C140.71 497.62 142.4 499.83 143.9 502.15C148.73 509.93 152.6 518.26 155.43 526.96C158.94 537.04 161.98 546.17 164.88 552.51C166.29 555.69 167.55 558.21 168.48 559.91C169.02 560.78 169.48 561.7 169.84 562.65L169.83 562.66Z" fill="#263339"/>
<path d="M78.7007 551.13C78.6207 550.34 78.7707 549.54 79.1207 548.82C79.9607 546.9 81.2407 545.2 82.8607 543.86C88.0607 539.53 93.6307 535.68 99.5107 532.33C105.361 528.95 111.481 526.05 117.801 523.66C120.221 522.76 122.201 522.11 123.611 521.7C124.321 521.44 125.051 521.27 125.801 521.19C125.801 521.37 122.851 522.46 118.101 524.44C111.931 527.05 105.921 530.03 100.111 533.36C94.2907 536.68 88.7207 540.4 83.4207 544.5C81.8207 545.75 80.5107 547.32 79.5707 549.11C78.9207 550.31 78.8307 551.12 78.7207 551.12L78.7007 551.13Z" fill="#263339"/>
<path d="M265.07 440.88C267.31 450.07 271.42 458.7 277.13 466.25C277.22 463.65 277.71 461.09 278.58 458.64C280.37 454.11 282.7 449.81 285.5 445.82C290.6 437.37 296.51 429.44 303.14 422.14C304.85 420.39 307.59 418.66 309.48 420.2C310.51 421.21 310.83 422.74 310.29 424.07C309.74 425.35 308.96 426.53 307.98 427.53C295.28 442.67 289.23 462.29 291.19 481.95C295.25 485.74 299.55 489.27 304.06 492.51C308.12 495.46 313.28 498.9 318.77 502.52C314.77 479.16 319.17 455.13 331.2 434.7C332.35 432.76 334.22 430.6 336.41 431.17C338.6 431.74 339.15 434.7 339.18 437.05C339.18 441.06 339.32 445.07 339.32 449.11C339.3 461.95 338.63 474.78 337.31 487.55C336.39 496.38 335.21 505.63 337.61 514.02C346.56 519.31 355.8 524.09 365.28 528.36V527.65C365.32 521.56 365.82 515.48 366.76 509.46C368.39 493.21 366.01 476.8 359.84 461.68C359.1 460.06 358.61 458.35 358.39 456.58C358.17 454.76 358.93 452.96 360.37 451.83C361.96 450.88 363.94 450.88 365.54 451.83C367.08 452.81 368.38 454.12 369.37 455.66C375.14 463.75 378.35 473.39 378.59 483.33C378.73 489.37 377.74 495.39 377.53 501.43C377.16 512.85 379.53 524.19 384.45 534.5H385.44C391.27 534.94 399.28 536.94 407.88 537.5C398.82 526.51 393.21 513.09 391.74 498.92C391.44 496.97 391.56 494.98 392.09 493.09C392.66 491.16 394.26 489.7 396.24 489.33C398.07 489.28 399.8 490.14 400.85 491.64C401.9 493.16 402.68 494.84 403.16 496.62L416.05 537.6C430.23 536.45 444.04 528.7 449.56 500.84C446.27 496.25 442.39 492.1 438.03 488.5C428.98 481.45 419.16 475.46 408.74 470.65C406.83 469.68 404.66 468.34 404.45 466.27C404.47 464.26 405.86 462.52 407.82 462.05C409.75 461.67 411.74 461.78 413.61 462.37C427.14 465.53 439.94 471.26 451.31 479.25C451.08 472.41 450.23 465.6 448.77 458.91C431.71 443 409.03 434.53 385.73 435.37C381.46 435.55 376.99 436.04 373.07 434.31C369.15 432.58 366.27 427.72 368.34 423.98C369.93 421.76 372.35 420.29 375.05 419.9C380.48 418.73 386.05 418.38 391.58 418.86C409.76 420.09 427.24 426.3 442.13 436.8C437.89 425.94 432.73 415.47 426.7 405.49C417.7 400.4 407.5 397.81 397.16 398.02C384.39 397.88 371.79 400.33 359.02 401.39C357.47 401.6 355.9 401.47 354.41 401C352.86 400.48 351.83 399.01 351.85 397.38C352.09 396.24 352.74 395.22 353.67 394.52C357.91 390.74 363.7 389.26 369.28 388.13C383.17 385.38 397.32 384.15 411.48 384.46H412.61C409.58 380.44 406.34 376.59 402.88 372.93C399.99 370.24 396.82 367.88 393.43 365.87L349.18 377.75C347.44 378.35 345.59 378.55 343.76 378.33C341.88 378.03 340.46 376.47 340.35 374.57C340.35 372.26 342.93 371.07 344.96 370.3C357.26 365.87 369.91 362.5 382.78 360.22C368.21 353.49 348.77 348.39 331.93 353.56C304.26 362.02 300.11 377.52 300.11 377.52C300.11 377.52 293.19 372.05 270.92 384.85C255.59 393.64 256.65 408.16 260.08 422.28C264.92 414.61 271.66 408.34 279.66 404.06C281.67 403.02 284.27 402.12 286.02 403.46C287.61 405.06 287.8 407.58 286.48 409.41C285.1 411.12 283.37 412.51 281.41 413.49C273.8 418.24 267.43 424.73 262.82 432.42C263.72 435.35 264.48 438.14 265.08 440.88H265.07ZM320.2 386.71C319.99 385.58 320.38 384.43 321.24 383.67C322.39 382.39 323.85 381.44 325.48 380.9C325.8 380.76 326.13 380.65 326.47 380.58H327.14C328.12 380.53 329.06 380.97 329.65 381.76C330.3 382.98 330.07 384.48 329.1 385.45C328.14 386.38 326.98 387.09 325.71 387.53C324.76 388.03 323.71 388.32 322.64 388.38C321.56 388.38 320.6 387.72 320.2 386.72V386.71Z" fill="#85BE54"/>
<path d="M299.63 378.18C300.22 378.53 300.79 378.93 301.31 379.38L305.92 383.05C310 386.23 315.77 390.96 322.78 396.89C341.08 412.47 358.55 428.98 375.12 446.38C391.67 463.81 407.3 482.09 421.98 501.12C427.58 508.45 432.03 514.45 434.99 518.65L438.43 523.52C438.85 524.06 439.22 524.64 439.54 525.25C439.54 525.25 439.4 525.13 439.19 524.88L438.22 523.66L434.69 518.86C431.6 514.73 427.06 508.83 421.38 501.59C409.99 487.11 393.71 467.53 374.34 447.15C354.97 426.77 336.2 409.56 322.29 397.48C315.37 391.44 309.68 386.6 305.71 383.32L301.1 379.49L299.92 378.45C299.81 378.37 299.71 378.29 299.62 378.2L299.63 378.18Z" fill="#263339"/>
<path d="M346.971 419.2C348.011 418.69 349.091 418.26 350.201 417.93C352.281 417.15 355.371 416.2 359.221 415.19C379.411 409.94 400.561 409.5 420.951 413.9C424.851 414.75 427.871 415.56 430.171 416.21C431.301 416.49 432.391 416.88 433.441 417.36C432.291 417.22 431.161 416.99 430.051 416.67C427.911 416.12 424.771 415.42 420.831 414.69C400.511 410.78 379.601 411.22 359.471 415.98C355.621 416.88 352.551 417.71 350.381 418.29C349.281 418.72 348.141 419.03 346.971 419.21V419.2Z" fill="#263339"/>
<path d="M306.21 450.56C306.31 449.89 306.5 449.24 306.79 448.62C307.4 446.91 308.11 445.23 308.91 443.59C314.03 432.65 321.25 422.82 330.17 414.67C331.88 413.12 333.31 411.93 334.34 411.17C334.84 410.73 335.4 410.35 336 410.04C334.34 411.89 332.58 413.65 330.72 415.3C326.54 419.54 322.69 424.09 319.19 428.91C315.67 433.71 312.53 438.78 309.78 444.06C308.7 446.29 307.51 448.46 306.21 450.56Z" fill="#263339"/>
<path d="M336.09 364.14C336.23 364.49 328.57 367.07 320.09 372.12C311.61 377.17 305.63 382.54 305.38 382.27C306.42 380.84 307.68 379.57 309.09 378.51C312.33 375.73 315.81 373.25 319.49 371.08C323.16 368.91 327.02 367.06 331.02 365.57C332.63 364.84 334.34 364.35 336.09 364.14Z" fill="#263339"/>
<path d="M265.901 400.25C267.291 398.58 268.901 397.1 270.671 395.85C278.961 389.38 288.651 384.96 298.961 382.94C301.061 382.41 303.231 382.17 305.391 382.23C303.341 382.88 301.251 383.39 299.141 383.78C289.081 386.24 279.591 390.61 271.171 396.65C269.491 397.96 267.721 399.17 265.891 400.27L265.901 400.25Z" fill="#263339"/>
<path d="M350.59 507.43C350.55 506.34 350.61 505.25 350.77 504.18C350.93 502.13 351.09 499.11 351.12 495.39C351.12 487.96 350.27 477.73 349.37 466.38C348.39 456.67 348.57 446.88 349.92 437.21C350.4 434.29 351.09 431.41 352 428.59C352.29 427.54 352.7 426.52 353.22 425.57C353.05 426.64 352.8 427.7 352.46 428.73C351.73 431.56 351.17 434.43 350.78 437.33C349.68 446.95 349.61 456.66 350.57 466.29C351.57 475.97 352.03 485.69 351.95 495.41C351.87 498.36 351.64 501.31 351.24 504.24C351.13 505.32 350.91 506.38 350.59 507.42V507.43Z" fill="#263339"/>
<path d="M434.67 457.04C434.67 457.04 434.14 456.35 432.96 455.38C431.26 454.08 429.32 453.15 427.24 452.64C420.31 450.91 413.27 449.67 406.16 448.93C399.05 448.17 391.89 447.85 384.74 447.98C379.25 447.98 375.84 448.33 375.84 448.14C376.58 447.88 377.36 447.73 378.15 447.7C379.7 447.49 381.91 447.28 384.68 447.12C391.88 446.74 399.1 446.94 406.26 447.72C413.43 448.46 420.52 449.83 427.45 451.82C429.6 452.43 431.58 453.52 433.24 455.03C433.88 455.56 434.37 456.26 434.67 457.04Z" fill="#263339"/>
<g opacity="0.3">
<path d="M378.061 369.93L386.341 385.52L412.541 383.21C412.541 383.21 398.131 366.84 393.311 365.71L378.071 369.93H378.061Z" fill="#010101"/>
</g>
<g opacity="0.3">
<path d="M392.98 398.06C392.98 398.06 400.91 417.78 436.56 423.93C436.56 423.93 428.7 407.35 427.13 405.67C425.56 403.99 412.4 396.82 392.98 398.06Z" fill="#010101"/>
</g>
<path d="M170.45 239.69C167.16 235.24 162.66 231.83 157.49 229.87C156.12 229.47 154.85 228.76 153.8 227.79C153.04 226.82 153.41 225.35 155.11 224.61C156.86 224.04 158.76 224.11 160.46 224.82C165.91 226.49 170.73 229.77 174.3 234.23C179.47 226.62 182.65 218.85 170.89 214.42C153.76 207.96 147.05 210.98 147.05 210.98C147.05 210.98 145.85 202.79 123.55 198.74C109.92 196.25 92.4903 199.29 78.9503 203.14C89.3103 204.08 99.6003 205.67 109.76 207.89C111.44 208.26 113.36 208.88 113.13 210.08C112.9 211.28 111.22 211.9 109.62 212.13C108.08 212.3 106.53 212.23 105.01 211.92L69.0403 206.29C65.8803 207.38 62.8003 208.69 59.8203 210.21C57.9803 211.22 54.3303 213.44 49.7003 216.57H50.6503C62.5303 216.16 74.4103 216.59 86.2303 217.84C90.5203 218.01 94.7303 219.08 98.5903 220.98C99.1903 221.37 99.7703 221.88 99.7003 222.48C99.6303 223.08 98.2903 224.12 96.9603 224.46C95.6103 224.75 94.2303 224.84 92.8603 224.74C82.0903 224.44 71.6703 223.31 60.6903 223.59C51.6903 223.69 42.7703 225.21 34.2403 228.09C27.7803 233.27 21.7203 238.94 16.1403 245.06C30.8503 239.12 46.4203 235.6 62.2603 234.61C66.9303 234.27 71.6303 234.37 76.2803 234.91C78.4003 235.21 80.6203 235.74 81.3803 236.96C82.5803 238.92 79.3303 241.57 75.7103 242.56C72.1003 243.32 68.4003 243.59 64.7103 243.34C44.7003 243.34 24.9603 247.99 7.06027 256.95C4.85027 260.37 3.05027 264.03 1.69027 267.86C12.9703 263.35 24.7203 260.13 36.7203 258.27C38.3603 257.93 40.0503 257.84 41.7203 258.02C43.2403 258.25 44.4203 259.15 44.0303 260.33C43.6403 261.51 41.4703 262.2 39.6703 262.64C30.1503 265.33 20.8403 268.68 11.7903 272.67C7.67027 274.56 3.74027 276.82 0.0302734 279.43C0.380273 294.21 11.0103 298.13 23.0903 298.5L40.6803 276.48C41.4403 275.45 42.3503 274.54 43.3803 273.78C44.6803 272.91 46.2003 272.45 47.7603 272.47C49.0703 272.4 50.2703 273.19 50.7303 274.41C50.8703 275.49 50.6503 276.58 50.1103 277.52C46.6703 285.06 39.6403 292.42 30.2303 298.39C37.6103 297.95 44.8303 296.73 49.9203 296.41H50.7703C56.0503 291.65 59.8703 285.48 61.7903 278.63C62.5503 275.4 62.6403 272.22 63.7003 268.99C66.1003 262.89 70.3503 257.69 75.8503 254.12C77.0203 253.23 78.3203 252.52 79.7003 252.02C81.1303 251.47 82.6903 251.42 84.1503 251.88C85.0803 252.26 85.5403 253.32 85.1603 254.25C85.1403 254.3 85.1203 254.35 85.0903 254.39C84.5403 255.42 83.8303 256.36 82.9703 257.16C75.3603 265.3 70.7503 274.18 69.6203 282.78C69.4803 286.06 68.9503 289.31 68.0503 292.46C68.0503 292.6 68.0503 292.74 67.8903 292.85C75.8503 290.71 84.9303 287.8 93.8503 284.73C97.2203 280.12 97.6503 275.3 98.2503 270.59C99.1403 263.66 100.58 256.8 102.54 250.09C103.19 247.94 103.85 245.79 104.55 243.66C104.93 242.04 106.22 240.8 107.85 240.48C109.34 240.23 110.83 240.88 111.65 242.14C118.82 252.7 118.73 265.73 111.65 278.14C117.02 276.11 121.89 274.2 125.83 272.56C130.26 270.72 134.52 268.76 138.51 266.7C143.44 256.9 141.03 244.99 132.68 237.88C132.03 237.42 131.52 236.79 131.2 236.06C131.08 235.15 131.62 234.28 132.49 233.98C134.24 233.35 136.2 233.71 137.61 234.93C142.01 238.48 145.89 242.63 149.14 247.27C150.86 249.25 152.19 251.54 153.08 254C153.43 255.32 153.43 256.71 153.08 258.04C158.68 254.37 163.53 249.68 167.38 244.2C168.16 242.79 169.29 241.27 170.45 239.7V239.69ZM126.09 217.13C125.24 217.12 124.4 216.98 123.6 216.71C122.67 216.54 121.79 216.18 121.02 215.65C120.48 215.27 120.35 214.52 120.73 213.98C120.81 213.87 120.91 213.77 121.02 213.69C121.71 213.25 122.51 213.02 123.33 213.02H123.98L124.79 213.18C125.95 213.37 127.05 213.85 127.97 214.59C128.48 215.03 128.85 215.63 128.39 216.2C127.77 216.78 126.96 217.1 126.11 217.12L126.09 217.13Z" fill="#85BE54"/>
<path d="M147.46 211.28C147 211.61 146.51 211.88 145.98 212.09L141.69 214.19L125.83 221.85C112.46 228.38 94.1201 237.65 74.3601 248.78C54.6001 259.92 37.1401 270.8 24.6901 278.94C18.4601 283 13.4601 286.34 10.0201 288.65L6.01008 291.3C5.57008 291.64 5.09008 291.92 4.58008 292.15C4.98008 291.76 5.41008 291.42 5.87008 291.11L9.74008 288.27C13.1101 285.83 18.0401 282.37 24.2201 278.22C36.5601 269.9 53.9401 258.87 73.7501 247.74C93.5601 236.61 111.98 227.42 125.45 221.08C132.18 217.92 137.65 215.41 141.48 213.77L145.88 211.88C146.38 211.63 146.91 211.43 147.45 211.28H147.46Z" fill="#263339"/>
<path d="M100.491 234.04C99.5005 234.02 98.5105 233.91 97.5405 233.69C95.6705 233.41 92.9305 233 89.5805 232.63C80.8005 231.6 71.9705 231.14 63.1305 231.27C54.2905 231.39 45.4605 232 36.6805 233.11L28.7205 234.19C27.7505 234.4 26.7605 234.51 25.7705 234.49C26.6905 234.14 27.6505 233.9 28.6305 233.75C30.5005 233.31 33.2405 232.8 36.5605 232.27C45.3405 230.86 54.2105 230.09 63.1005 229.96C71.9905 229.81 80.8905 230.38 89.6905 231.67C93.0605 232.18 95.7505 232.71 97.6205 233.12C98.6105 233.3 99.5705 233.61 100.481 234.02L100.491 234.04Z" fill="#263339"/>
<path d="M130.49 250.09C128.26 245.83 125.52 241.87 122.33 238.28C116.86 232.52 111.1 229.31 111.33 229.06C112.71 229.48 114 230.12 115.16 230.97C118.1 232.81 120.79 235.01 123.18 237.52C125.6 240.04 127.61 242.93 129.13 246.08C129.85 247.31 130.31 248.68 130.49 250.09Z" fill="#263339"/>
<path d="M118.43 204.45C122.7 204.68 126.89 205.67 130.81 207.36C134.9 208.66 138.67 210.79 141.9 213.61C141.72 213.89 136.92 210.89 130.37 208.49C123.82 206.09 118.36 204.8 118.43 204.45Z" fill="#263339"/>
<path d="M172.9 222.55C171.39 222.02 169.93 221.37 168.54 220.59C165.06 219.02 161.46 217.74 157.77 216.76C149.15 214.45 141.84 213.97 141.86 213.58C143.45 213.36 145.07 213.36 146.66 213.58C150.56 213.9 154.41 214.57 158.19 215.59C161.94 216.58 165.56 218.01 168.98 219.83C170.43 220.51 171.76 221.43 172.9 222.55Z" fill="#263339"/>
<path d="M83.5906 281.19C83.4906 280.59 83.4906 279.97 83.5906 279.37C83.7106 277.73 83.9806 276.1 84.3706 274.5C85.8306 269.31 87.6906 264.25 89.9306 259.35C92.1606 254.52 93.6706 249.38 94.4006 244.11C94.5306 241.91 94.4606 239.7 94.2206 237.52C94.5506 238.04 94.7606 238.62 94.8406 239.23C95.1906 240.85 95.3306 242.51 95.2606 244.16C94.7706 249.58 93.3406 254.87 91.0406 259.79C88.8306 264.67 86.8806 269.65 85.1806 274.73C83.9806 278.63 83.8006 281.19 83.5906 281.19Z" fill="#263339"/>
<path d="M19.4199 255.69C19.4199 255.69 19.8799 255.04 21.0799 254.4C22.7799 253.53 24.5999 252.91 26.4799 252.56C32.5799 251.35 38.7299 250.49 44.9299 249.98C51.1199 249.45 57.3299 249.25 63.5399 249.38C66.1099 249.32 68.6799 249.51 71.2199 249.96C68.6699 250.2 66.0999 250.29 63.5399 250.21C58.7899 250.33 52.2399 250.56 45.0899 251.18C37.9399 251.8 31.3699 252.66 26.6399 253.49C24.8099 253.77 23.0099 254.25 21.2899 254.92C20.1399 255.34 19.5599 255.77 19.4199 255.7V255.69Z" fill="#263339"/>
<path d="M505.97 325.33C499.7 315.7 492.12 306.99 483.44 299.46C479.31 295.63 475.14 291.92 470.85 288.28C469.75 287.33 469.64 285.67 470.59 284.57C471.11 283.98 471.86 283.64 472.65 283.67C480.58 283.97 488.42 289 494.74 294.37C506.63 304.53 516.76 316.58 524.72 330.04C525.95 323.35 526.17 316.52 525.37 309.77C524.16 295.74 519.9 282.14 512.89 269.92L511.6 269.57C502.24 267.26 492.44 266.3 483.4 262.79C482.25 262.42 481.2 261.78 480.36 260.92C479.52 260.01 479.4 258.65 480.06 257.6C480.98 256.74 482.25 256.37 483.5 256.59C490.97 256.85 498.39 257.99 505.59 259.98C498.55 251.99 489.16 246.43 478.77 244.09C446.49 236.8 443.26 254.56 443.26 254.56C442.64 253.29 429.63 232.49 397.6 240.72C375.42 246.44 364.05 257.71 359.78 271.37C362.66 270.17 365.57 269.06 368.45 267.98C378.32 263.97 388.53 260.85 398.96 258.64C409.45 256.46 420.34 257.14 430.48 260.62C432.07 261.22 433.85 262.14 434.26 263.8C434.52 265.63 433.5 267.4 431.79 268.09C430.09 268.71 428.29 268.96 426.49 268.83C401.29 269.03 377.05 278.5 358.4 295.44C360.13 307.55 363.03 319.47 367.05 331.02C374.32 321.02 382.65 311.84 391.91 303.65C402.31 294.98 415.11 288.55 428.64 288.08C430.52 287.88 432.42 288.24 434.11 289.12C437.38 291.22 437.22 296.38 434.82 299.45C432.14 302.28 428.76 304.36 425.02 305.47C413.28 309.89 402.17 315.81 391.95 323.09C384.08 328.83 377.36 336.02 372.17 344.26C375.4 351.79 379.22 359.07 383.58 366C396.74 351.82 412.3 340.07 429.54 331.3C431.28 330.09 433.48 329.74 435.51 330.35C437.53 331.67 438.23 334.3 437.15 336.46C436.07 338.5 434.48 340.22 432.54 341.46C423.15 348.38 413.29 355 405.91 364.06C401.31 369.56 398.14 376.11 396.69 383.13C406.64 394.26 419.14 402.81 433.12 408.03C441.13 407.29 448.94 405.12 456.18 401.62C456.89 386.88 455.44 372.13 451.89 357.81C451.12 355.99 451.23 353.91 452.19 352.18C453.95 350.56 456.7 350.68 458.32 352.44C458.39 352.51 458.45 352.59 458.51 352.66C459.91 354.63 460.72 356.96 460.82 359.37L466.29 396.45C472.47 392.82 478.34 388.67 483.84 384.07C485.11 361.69 477.98 339.64 463.85 322.25C462.29 320.64 461.08 318.73 460.3 316.62C459.58 314.43 460.48 312.03 462.47 310.86C464.66 309.89 467.08 311.32 468.97 312.84C479.76 321.72 485.96 335.28 488.27 349.09C489.77 359.28 489.91 369.62 488.71 379.85L491.02 377.54C499.6 369.72 507.43 361.12 514.43 351.85C513.92 342.43 511.03 333.3 506.01 325.31L505.97 325.33Z" fill="#85BE54"/>
<path d="M433.011 408.16C433.081 407.62 433.191 407.09 433.361 406.57C433.661 405.44 434.071 403.94 434.561 402.1L439.171 385.7C441.431 377.6 443.181 369.37 444.401 361.05C445.051 356.44 445.411 351.37 446.131 346.22C446.851 341.07 447.631 335.77 448.441 330.36C450.181 320.21 451.331 309.97 451.901 299.69C452.291 291.3 451.701 282.9 450.151 274.65C449.061 269.09 447.331 263.67 445.011 258.51C443.331 254.87 442.131 252.98 442.241 252.91C442.581 253.34 442.891 253.79 443.161 254.27C443.741 255.15 444.501 256.58 445.471 258.31C447.991 263.44 449.851 268.86 451.031 274.45C452.721 282.75 453.411 291.23 453.061 299.7C452.551 310.03 451.431 320.33 449.691 330.53C448.861 335.95 448.031 341.25 447.381 346.37C446.731 351.49 446.251 356.45 445.581 361.2C444.291 369.55 442.451 377.81 440.071 385.92C438.091 392.84 436.311 398.4 435.091 402.22C434.491 404.04 434.031 405.49 433.661 406.62C433.501 407.15 433.281 407.67 433.011 408.16Z" fill="#263339"/>
<path d="M452.56 305.59C451.79 306.29 450.94 306.9 450.05 307.43C448.37 308.54 445.88 310.01 442.74 311.74C436.49 315.22 427.52 319.4 417.67 324.01C409.18 327.74 401.14 332.42 393.71 337.96C388.08 342.32 385.27 345.78 385.11 345.62C385.66 344.74 386.3 343.92 387.02 343.18C388.92 341.06 390.97 339.1 393.18 337.3C400.53 331.49 408.58 326.63 417.14 322.84C427.03 318.23 436 314.17 442.34 310.9C445.52 309.29 448.06 307.93 449.79 306.93C450.67 306.4 451.6 305.95 452.56 305.59Z" fill="#263339"/>
<path d="M497.991 329.87C497.781 329.87 496.581 326.5 493.791 321.41C492.141 318.43 490.271 315.57 488.211 312.85C483.111 306.21 476.861 300.53 469.761 296.09C466.871 294.29 463.861 292.7 460.741 291.32C455.391 289.01 451.861 288.14 451.911 287.91C452.761 287.97 453.611 288.13 454.421 288.39C455.411 288.59 456.381 288.86 457.331 289.2C458.441 289.57 459.641 289.94 461.071 290.54C464.271 291.81 467.361 293.36 470.291 295.15C473.911 297.37 477.311 299.92 480.461 302.76C483.571 305.63 486.421 308.78 488.971 312.17C491.031 314.95 492.851 317.91 494.411 321C495.121 322.29 495.611 323.54 496.091 324.6C496.511 325.52 496.871 326.46 497.171 327.41C497.561 328.19 497.831 329.02 497.981 329.88L497.991 329.87Z" fill="#263339"/>
<path d="M393.74 287.1C394.37 286.63 395.07 286.26 395.82 285.99C397.16 285.34 399.14 284.47 401.61 283.43C408.04 280.67 414.69 278.43 421.49 276.74C428.32 275.04 435.39 274.47 442.4 275.06C444.52 275.24 446.61 275.6 448.67 276.12C449.47 276.24 450.25 276.49 450.98 276.86C450.98 277.07 447.73 276.21 442.42 275.89C435.5 275.57 428.57 276.25 421.85 277.92C415.12 279.6 408.49 281.71 402.02 284.22C399.33 285.36 396.56 286.32 393.74 287.1Z" fill="#263339"/>
<path d="M488.42 271.74C488.3 272.16 479.93 268.58 468.93 267.64C457.93 266.69 449.1 268.72 449.03 268.29C450.88 267.59 452.81 267.13 454.77 266.93C459.49 266.2 464.28 266.04 469.04 266.45C473.79 266.87 478.48 267.86 482.99 269.4C484.89 269.94 486.71 270.73 488.41 271.75L488.42 271.74Z" fill="#263339"/>
<path d="M100.12 328.26C109.29 329.26 118.29 331.48 126.87 334.88C131.05 336.42 135.16 337.95 139.21 339.49C141.01 340.23 143.18 338.43 142.44 336.82C140.13 331.63 133.95 328.06 127.96 325.59C116.27 320.9 103.93 318.08 91.3601 317.22C96.4301 314.25 101.85 311.93 107.5 310.3C118.85 306.59 130.79 305.03 142.71 305.69L143.33 306.43C147.78 311.9 151.1 318.12 156.34 322.99C156.97 323.66 157.76 324.15 158.65 324.4C159.65 324.67 160.72 324.34 161.39 323.55C161.83 322.72 161.78 321.73 161.27 320.94C159.05 316.01 156.14 311.43 152.62 307.33C160.51 309.17 167.53 313.65 172.54 320.01C187.04 339.15 173.69 347.01 173.69 347.01C174.87 347.01 195 348.92 197 372.88C198.36 389.46 192.39 400.67 182.61 407.91C182.79 405.6 182.89 403.3 182.98 400.99C183.55 393.22 183.31 385.42 182.27 377.7C181.22 370.02 177.7 362.89 172.24 357.38C171.37 356.33 170.05 355.77 168.69 355.88C167.22 356.21 166.11 357.43 165.92 358.92C165.87 360.22 166.16 361.52 166.75 362.68C173.37 379.26 172.17 398.84 163.68 416.48C153.57 419.22 143.26 421.14 132.85 422.22C138.82 414.33 143.93 405.82 148.12 396.85C152.25 387.14 154 376.56 150.73 367.4C150.37 366.07 149.55 364.9 148.42 364.1C145.86 362.6 141.76 364.38 139.96 366.96C138.44 369.52 137.68 372.45 137.77 375.42C137.34 384.85 135.57 394.16 132.51 403.09C129.89 410.42 125.94 417.2 120.87 423.11C114.04 423.4 107.2 423.21 100.39 422.53C108.05 409.68 113.29 395.53 115.86 380.79C116.11 379.22 116.25 377.45 115.01 376.5C113.23 375.61 111.08 375.97 109.68 377.38C108.39 378.77 107.47 380.47 107.03 382.31C103.96 390.8 101.36 399.49 96.0801 407.31C92.7601 412.29 88.3901 416.49 83.2801 419.6C72.1601 416.85 61.9301 411.29 53.5801 403.46C52.0001 397.8 51.6401 391.88 52.5201 386.07C64.1001 380.86 76.2801 377.06 88.7701 374.77C90.4601 374.68 92.0501 373.96 93.2201 372.74C93.9201 371.37 93.3801 369.69 92.0101 368.98C91.7301 368.84 91.4301 368.74 91.1201 368.7C89.1001 368.4 87.0401 368.61 85.1201 369.3L53.9901 377.62C55.2401 372.25 56.9801 367 59.1801 361.94C76.2901 353.91 95.5301 351.58 114.06 355.28C115.83 355.79 117.69 355.97 119.53 355.81C121.4 355.49 123.38 354.15 123.54 352.51C123.7 350.87 121.93 349.56 120.22 348.82C110.21 344.53 97.6901 344.78 86.0201 347.71C77.4001 350.01 69.0601 353.26 61.1601 357.39C61.5301 356.63 61.9001 355.84 62.2901 355.08C66.3301 346.71 71.1101 338.72 76.5901 331.21C84.1201 328.51 92.1501 327.49 100.11 328.21L100.12 328.26Z" fill="#85BE54"/>
<path d="M53.5005 403.55C53.8105 403.21 54.1705 402.9 54.5605 402.65L57.7005 400.23C60.4705 398.15 64.4305 395.13 69.4805 391.56C75.3605 387.33 81.4705 383.43 87.7905 379.89C91.3905 377.91 95.2205 376.06 99.1105 373.92L111.1 367.28C118.76 362.83 126.64 358.78 134.71 355.13C141.37 352.12 148.33 349.8 155.46 348.21C160.25 347.17 165.13 346.66 170.03 346.66C171.76 346.66 173.1 346.78 174.02 346.89C174.48 346.9 174.94 346.97 175.38 347.1C175.38 347.22 173.47 347.1 170.03 347.1C165.18 347.27 160.36 347.91 155.64 349.01C148.64 350.65 141.81 352.97 135.26 355.93C127.83 359.2 119.97 363.49 111.76 368.08C107.66 370.39 103.64 372.69 99.7205 374.72L88.3705 380.62C82.0305 384.1 75.8705 387.9 69.9205 392.01L57.9305 400.36L54.6605 402.67C54.3005 403.01 53.9105 403.3 53.4805 403.55H53.5005Z" fill="#263339"/>
<path d="M130.29 357.43C130.47 357.43 129.62 360.7 128.77 366.03C127.92 371.36 127.04 378.78 125.96 386.99C125.19 394.06 123.43 400.98 120.75 407.56C119.88 409.53 118.88 411.44 117.75 413.28C117.37 413.98 116.89 414.62 116.32 415.17C116.14 415.17 117.98 412.24 119.96 407.24C122.37 400.66 123.99 393.8 124.76 386.83C125.84 378.64 126.79 371.2 127.92 365.89C128.47 363.22 129.03 361.09 129.46 359.64C129.63 358.87 129.91 358.12 130.29 357.43Z" fill="#263339"/>
<path d="M98.6699 335.01C99.2999 334.79 99.9599 334.67 100.63 334.64C102.45 334.41 104.28 334.3 106.12 334.32C112.2 334.32 118.24 335.35 123.99 337.34C129.76 339.29 135.09 342.36 139.67 346.38C140.49 347.1 141.26 347.87 141.98 348.69C142.54 349.25 143.06 349.85 143.52 350.49C144.33 351.5 144.74 352.1 144.67 352.15C144.6 352.2 142.71 350.05 139.18 347.15C134.54 343.41 129.28 340.52 123.64 338.59C118 336.66 112.12 335.55 106.16 335.29C101.53 334.97 98.6699 335.22 98.6699 335.01Z" fill="#263339"/>
<path d="M160.86 390.47C160.69 388.38 160.69 386.27 160.86 384.17C161.11 379.14 161.02 374.11 160.61 369.09C160.15 364.09 158.84 359.21 156.74 354.65C155.08 351.19 153.53 349.32 153.7 349.18C153.87 349.04 154.21 349.55 154.92 350.4C155.9 351.6 156.76 352.89 157.5 354.25C159.89 358.81 161.35 363.81 161.79 368.94C162.29 374.02 162.29 379.13 161.79 384.21C161.71 386.32 161.4 388.42 160.87 390.46L160.86 390.47Z" fill="#263339"/>
<path d="M147.761 322.61C149.021 323.3 150.151 324.22 151.081 325.31C153.521 327.77 155.601 330.58 157.241 333.63C158.871 336.69 160.051 339.98 160.721 343.38C161.111 344.77 161.231 346.21 161.091 347.65C159.871 343.03 158.231 338.53 156.181 334.21C153.711 330.11 150.891 326.23 147.761 322.61Z" fill="#263339"/>
<path d="M200.62 314.05C206.78 306.63 213.92 300.07 221.83 294.56C225.61 291.78 229.45 289.08 233.36 286.47C234.42 285.76 234.7 284.33 233.99 283.27C233.65 282.77 233.13 282.42 232.53 282.3C226.14 281.65 219.25 285.02 213.53 288.89C202.65 296.3 193.05 305.43 185.1 315.92C184.96 310.06 185.64 304.21 187.13 298.53C189.8 286.76 194.88 275.68 202.05 265.97L203.13 265.83C210.9 264.86 218.86 265.23 226.49 263.29C227.47 263.12 228.39 262.7 229.16 262.07C229.95 261.36 230.21 260.24 229.83 259.26C229.21 258.44 228.23 257.96 227.2 257.99C221.18 257.33 215.11 257.45 209.12 258.34C215.56 252.39 223.78 248.72 232.5 247.87C259.27 245.38 259.59 260.92 259.59 260.92C260.26 259.91 273.22 243.65 297.8 254.42C314.79 261.87 322.5 272.87 324.2 285C322.06 283.64 319.86 282.35 317.7 281.1C310.34 276.53 302.57 272.67 294.48 269.57C286.39 266.5 277.58 265.82 269.11 267.61C267.67 267.78 266.39 268.64 265.7 269.92C265.24 271.42 265.83 273.04 267.15 273.89C268.41 274.61 269.83 275.03 271.28 275.11C291.6 278.38 309.88 289.35 322.31 305.76C319.43 315.88 315.64 325.72 310.99 335.16C306.48 325.83 300.95 317.02 294.53 308.9C287.29 300.28 277.88 293.29 267.11 291.33C265.62 290.94 264.05 291.03 262.61 291.58C259.75 292.99 259.22 297.41 260.74 300.32C262.5 303.01 264.96 305.17 267.84 306.59C276.73 311.77 284.87 318.13 292.05 325.5C297.69 331.4 302.17 338.32 305.24 345.88C301.74 351.91 297.79 357.68 293.43 363.13C284.79 349.63 273.81 337.79 261.01 328.15C259.81 326.93 258.09 326.37 256.4 326.65C254.61 327.61 253.74 329.7 254.32 331.65C254.93 333.51 256.02 335.18 257.48 336.49C264.1 343.55 271.18 350.33 275.93 358.88C278.94 364.19 280.66 370.14 280.93 376.24C271.75 384.52 260.66 390.38 248.65 393.3C242.32 391.72 236.34 388.96 231.03 385.16C232.3 372.52 235.29 360.1 239.91 348.27C240.75 346.79 240.92 345.02 240.37 343.4C239.25 341.92 237.14 341.62 235.65 342.74C235.51 342.85 235.37 342.97 235.25 343.1C233.86 344.63 232.92 346.51 232.53 348.54C229.53 358.9 226.54 369.26 223.56 379.6C219.05 375.76 214.88 371.54 211.08 366.99C212.74 347.88 221.12 329.98 234.74 316.47C236.19 315.25 237.38 313.75 238.25 312.07C239.12 310.32 238.7 308.2 237.24 306.9C235.63 305.82 233.48 306.76 231.82 307.85C222.09 314.19 215.45 325.05 211.9 336.58C209.42 345.12 208.02 353.93 207.73 362.82L206.07 360.51C200.16 352.78 194.96 344.53 190.55 335.86C192.09 327.88 195.54 320.4 200.6 314.05H200.62Z" fill="#85BE54"/>
<path d="M248.651 393.22C248.501 392.77 248.401 392.31 248.351 391.84C248.191 390.83 247.981 389.53 247.751 387.9C247.221 384.49 246.481 379.53 245.741 373.37C244.841 366.15 244.391 358.88 244.401 351.6C244.401 347.47 244.721 343.18 244.791 338.76C244.861 334.34 244.791 329.7 244.791 324.92C244.671 316.01 245.061 307.1 245.941 298.24C246.711 290.98 248.301 283.83 250.691 276.93C252.321 272.28 254.491 267.85 257.171 263.72C258.161 262.29 258.951 261.18 259.481 260.49C260.011 259.8 260.381 259.41 260.431 259.45C260.481 259.49 259.321 261.02 257.521 264.06C255.021 268.24 252.991 272.68 251.461 277.3C249.201 284.16 247.701 291.25 246.991 298.45C246.191 307.28 245.851 316.15 245.951 325.01V338.85C245.951 343.35 245.531 347.61 245.491 351.67C245.421 358.91 245.781 366.15 246.571 373.35C247.241 379.37 247.771 384.33 248.181 387.92C248.341 389.53 248.461 390.85 248.571 391.89C248.641 392.33 248.671 392.78 248.641 393.23L248.651 393.22Z" fill="#263339"/>
<path d="M245.74 303.4C246.49 303.83 247.18 304.34 247.82 304.92C249.09 305.96 250.96 307.41 253.31 309.16C257.92 312.69 264.7 317.21 272.08 322.33C278.5 326.59 284.33 331.68 289.42 337.46C290.93 339.25 292.29 341.15 293.5 343.16C294 343.87 294.4 344.64 294.68 345.47C294.5 345.59 292.7 342.4 288.78 338.07C283.57 332.51 277.74 327.58 271.39 323.36C264.03 318.24 257.35 313.61 252.78 309.87C250.47 308.03 248.7 306.46 247.5 305.26C246.85 304.71 246.26 304.09 245.75 303.42L245.74 303.4Z" fill="#263339"/>
<path d="M206.431 318.87C206.601 318.17 206.871 317.51 207.241 316.89C208.081 315.14 209.041 313.45 210.121 311.84C213.681 306.49 218.141 301.81 223.311 298C226.171 295.92 229.211 294.11 232.401 292.58C235.021 291.36 237.741 290.37 240.541 289.63C241.741 289.28 242.851 289.08 243.791 288.89C244.731 288.7 245.591 288.59 246.261 288.52C246.971 288.4 247.691 288.4 248.401 288.52C248.401 288.73 245.431 289.07 240.791 290.5C238.081 291.35 235.441 292.4 232.881 293.64C229.781 295.19 226.821 297 224.031 299.04C218.961 302.81 214.501 307.35 210.821 312.48C208.011 316.26 206.651 318.98 206.441 318.87H206.431Z" fill="#263339"/>
<path d="M295.041 294.43C292.891 293.48 290.811 292.36 288.84 291.09C284.01 288.22 278.99 285.66 273.83 283.43C268.69 281.23 263.251 279.83 257.691 279.28C253.401 278.91 250.771 279.28 250.771 279.05C251.361 278.8 252.001 278.66 252.641 278.63C254.351 278.42 256.081 278.35 257.811 278.42C263.531 278.73 269.151 280.05 274.411 282.32C279.641 284.54 284.66 287.24 289.4 290.37C291.41 291.54 293.3 292.9 295.05 294.43H295.041Z" fill="#263339"/>
<path d="M221.3 270.31C222.75 269.59 224.31 269.11 225.91 268.88C229.7 268.08 233.57 267.76 237.44 267.93C241.31 268.13 245.14 268.84 248.83 270.03C250.39 270.43 251.87 271.07 253.23 271.92C253.23 272.34 246.31 269.61 237.39 269.13C228.47 268.65 221.36 270.72 221.29 270.31H221.3Z" fill="#263339"/>
<g opacity="0.3">
<path d="M117.9 425.87C116.89 426.19 130.4 437.4 146.31 433.87H154.93C154.93 433.87 167.75 438.8 178.5 434.56C189.25 430.32 191.83 427.37 191.83 427.37C191.83 427.37 170.64 424.51 164.02 432.1C164.02 432.1 150.09 415.98 117.9 425.87Z" fill="#010101"/>
</g>
<g opacity="0.3">
<path d="M246.411 65.73C246.411 65.73 240.781 93.61 243.091 99.17C246.341 106.46 251.671 100.99 251.671 100.99C251.671 100.99 257.641 68.89 246.411 65.73Z" fill="#010101"/>
</g>
<path d="M425.45 82.2599C414.75 77.9699 403.08 76.0999 393.05 70.4799C390.91 69.2799 388.55 66.9299 389.68 64.7399C390.53 63.0999 392.77 62.9199 394.64 62.9599C420.43 63.9299 445.31 72.7799 465.92 88.3299C466.7 67.0699 464.93 45.5099 454.69 28.8799C448.13 26.8799 441.34 25.6999 434.49 25.3799C421.81 24.6699 409.12 25.9299 396.37 25.5599C394.55 25.6199 392.74 25.3199 391.04 24.6599C388.71 23.9199 387.42 21.4299 388.16 19.0999C388.56 17.8399 389.5 16.8299 390.72 16.3299C392.33 15.5699 394.06 15.1199 395.84 14.9899C411.3 13.1599 426.92 13.1599 442.37 14.9899C433.4 7.51993 421.11 2.30993 404.51 -7.24867e-05C404.51 -7.24867e-05 377.02 -1.11007 352 25.1099C352 25.1099 306.92 -13.4201 266.06 26.8399C247.27 45.2899 243.51 70.4699 248.44 96.7599C265.87 77.6799 288.2 63.7599 313.01 56.5199C316.08 55.6199 320.3 55.3399 321.57 58.2699C322.16 60.0199 321.64 61.9599 320.26 63.1799C318.91 64.3599 317.34 65.2799 315.65 65.8799C301.46 71.4299 288.06 78.8099 275.78 87.8299C266.57 94.7599 258.75 103.37 252.72 113.2C259.9 134.84 270.25 155.29 283.44 173.89C286.02 154.94 291.1 136.1 301.13 119.86C311.62 102.91 327.99 89.0099 347.41 84.5299C352.14 83.4499 358.13 83.4199 360.62 87.5699C362.15 90.6999 361.71 94.4299 359.49 97.1199C357.23 99.7899 354.53 102.04 351.49 103.76C322.31 123.64 301.61 153.69 293.45 188.04C300.53 197.49 306.66 205.38 312.47 211.84C315.63 200.29 319.62 188.99 324.41 178.01C330.68 164.17 339.19 151.31 350.84 141.71C352.8 139.86 355.17 138.52 357.76 137.79C360.44 137.12 363.26 138.11 364.93 140.3C366.64 143.04 365.39 146.62 363.98 149.52C357.06 164.02 346.66 176.66 338.78 190.7C332.72 201.49 328.08 213.76 328.1 225.98C341.94 235.37 357.52 238.39 383.17 234.28C391.89 232.9 399.45 231.56 406.37 225.77C413.82 217.35 410.06 202.23 404.89 192.24C399.72 182.25 391.72 173.79 387.02 163.67C385.43 160.23 384.58 155.39 387.73 153.29C390.24 151.63 393.61 152.92 396.22 154.42C415.68 165.62 427.25 186.76 426.2 209.19C433.94 201.11 440.52 192.01 445.78 182.14C436.29 153.82 417.05 129.79 391.5 114.32C387.88 112.15 383.98 110.03 381.65 106.48C379.32 102.93 379.34 97.4599 382.83 95.1099C386.73 92.4799 391.92 95.1099 395.84 97.6899C410.67 107.47 421.87 120.08 433.45 133.55C443.85 145.63 449.85 155.57 453.6 165.07C458.54 152.24 461.72 138.8 463.03 125.11C463.28 122.25 463.56 119.32 463.86 116.35C455.35 100.91 441.8 88.8599 425.47 82.2199L425.45 82.2599ZM341.07 33.3999C342.67 33.9099 344.16 34.7399 345.43 35.8399C346.3 37.1999 346.04 38.9899 344.83 40.0599C343.63 41.0699 342.15 41.6699 340.59 41.7899C337.24 42.2699 333.82 41.9999 330.58 41.0099C329.28 40.7299 328.12 39.9899 327.31 38.9299C326.36 36.7699 327.31 34.2499 329.45 33.2599C331.55 32.3799 333.84 32.0999 336.09 32.4299C337.79 32.5099 339.47 32.8299 341.07 33.3999Z" fill="#85BE54"/>
<path d="M373.22 236.11C373.18 235.93 373.18 235.74 373.22 235.56C373.22 235.12 373.22 234.59 373.38 233.95C373.56 232.54 373.8 230.47 374.07 227.79C374.62 222.44 375.15 214.69 375.36 205.08C375.57 195.46 375.36 184 375.01 171.3C374.66 158.6 374.16 144.6 372.87 129.98C370.64 105.02 366.87 80.2199 361.59 55.7299C359.61 46.3199 357.76 38.7599 356.52 33.5199C355.9 30.9799 355.41 28.9099 355.07 27.4799C354.91 26.8599 354.79 26.3499 354.7 25.9099C354.67 25.7299 354.67 25.5399 354.7 25.3599C354.79 25.5299 354.85 25.6999 354.88 25.8899C355.02 26.3099 355.18 26.8099 355.36 27.4299L357.04 33.3999C358.42 38.5899 360.38 46.1299 362.48 55.5399C368.01 80.0299 371.9 104.87 374.12 129.88C375.41 144.52 375.94 158.54 376.17 171.25C376.4 183.96 376.56 195.46 376.17 205.1C375.78 214.74 375.18 222.51 374.49 227.86C374.14 230.53 373.84 232.59 373.59 233.99C373.47 234.61 373.36 235.14 373.29 235.58C373.29 235.76 373.25 235.94 373.2 236.11H373.22Z" fill="#263339"/>
<path d="M371.12 107.69C371.12 107.69 370.84 108.01 370.22 108.54L367.61 110.68L357.65 118.75C346.53 127.37 336.31 137.11 327.17 147.8C322.41 153.9 317.97 160.24 313.86 166.8C310.52 172.15 307.84 177.89 305.88 183.89C304.62 187.96 303.71 192.12 303.16 196.34C303.03 197.89 302.82 199.43 302.51 200.95C302.47 200.54 302.47 200.13 302.51 199.73C302.51 198.95 302.51 197.75 302.72 196.25C303.06 191.96 303.83 187.72 305.03 183.59C306.9 177.48 309.53 171.63 312.87 166.18C316.91 159.57 321.33 153.21 326.11 147.11C335.31 136.34 345.67 126.63 357.01 118.15C361.28 114.83 364.78 112.2 367.23 110.38L370.04 108.33C370.38 108.08 370.74 107.86 371.12 107.68V107.69Z" fill="#263339"/>
<path d="M403.82 139.31C402.18 138.24 400.63 137.02 399.21 135.67C396.4 133.36 392.48 130.14 388.05 126.72L376.64 118.07C374.99 116.97 373.44 115.71 372.03 114.31C373.83 115.16 375.53 116.19 377.13 117.38C380.2 119.41 384.35 122.34 388.8 125.75C393.25 129.16 397.1 132.51 399.78 134.97C401.28 136.27 402.64 137.72 403.84 139.31H403.82Z" fill="#263339"/>
<path d="M412.53 86.64C410.23 86.1 407.97 85.4 405.77 84.54C401.64 83.18 395.9 81.38 389.47 79.74C383.04 78.1 377.16 76.93 372.87 76.14C370.53 75.84 368.22 75.37 365.95 74.73C368.32 74.68 370.68 74.87 373.01 75.31C384.33 76.82 395.44 79.66 406.1 83.75C408.34 84.48 410.49 85.45 412.53 86.63V86.64Z" fill="#263339"/>
<path d="M364.18 65.7299C362.84 65.9699 361.48 66.1299 360.12 66.1899C356.42 66.5799 352.74 67.1599 349.1 67.9399C337.12 70.6199 325.77 75.5599 315.64 82.4899C305.48 89.3799 296.7 98.1099 289.74 108.22C287.63 111.24 285.68 114.37 283.91 117.61C283.32 118.85 282.64 120.04 281.88 121.18C281.97 120.84 282.09 120.5 282.25 120.19C282.53 119.54 282.9 118.58 283.5 117.4C285.13 114.03 286.97 110.77 289.03 107.65C295.86 97.2799 304.68 88.3599 314.97 81.4099C325.21 74.3799 336.76 69.4799 348.94 67.0199C352.62 66.2999 356.34 65.8399 360.08 65.6399H363.12C363.48 65.6099 363.83 65.6399 364.18 65.7299Z" fill="#263339"/>
<path d="M435.22 53.0399C434.25 53.0199 433.28 52.8799 432.34 52.6499C430.5 52.2999 427.73 51.8699 424.5 51.3599C407.23 48.7199 389.66 48.6199 372.36 51.0799C369.06 51.5399 366.36 51.9799 364.52 52.2999C363.57 52.5299 362.59 52.6399 361.61 52.6499C362.52 52.2899 363.46 52.0199 364.42 51.8399C366.24 51.3799 368.92 50.8299 372.24 50.2499C389.59 47.2999 407.32 47.3899 424.63 50.5299C427.93 51.1299 430.6 51.7299 432.42 52.1899C433.38 52.3799 434.31 52.6699 435.21 53.0399H435.22Z" fill="#263339"/>
<path d="M270.76 39.3699C271.61 38.5499 272.55 37.8099 273.55 37.1799C274.66 36.3499 275.82 35.5799 277.01 34.8699C278.37 33.9699 279.98 33.0899 281.78 32.1299C300.89 22.1099 323.22 20.1899 343.76 26.7999C347.66 27.9799 350.68 29.1099 352.98 29.7499C354.11 30.0699 355.22 30.4799 356.28 30.9999C355.11 30.8399 353.96 30.5699 352.84 30.1899L343.62 27.6099C323.24 21.5299 301.31 23.4199 282.28 32.9099C280.48 33.8099 278.84 34.6399 277.46 35.4699C276.08 36.2999 274.85 36.9499 273.91 37.5699C272.9 38.2399 271.84 38.8399 270.75 39.3699H270.76Z" fill="#263339"/>
<path d="M393.9 13.8398C391.96 14.4898 389.99 15.0298 388 15.4498C383.26 16.7698 378.63 18.4698 374.16 20.5498C369.74 22.6498 365.45 25.0398 361.34 27.6998C359.69 28.8998 357.95 29.9898 356.15 30.9498C357.52 29.4498 359.07 28.1298 360.76 27.0098C364.78 24.0998 369.07 21.5798 373.56 19.4698C378.05 17.3498 382.76 15.7298 387.6 14.6298C389.65 14.0698 391.77 13.8098 393.9 13.8498V13.8398Z" fill="#263339"/>
<g opacity="0.3">
<path d="M382.69 246.07C382.69 246.07 403.44 254.74 416.77 250.13C430.1 245.52 429.18 242.52 429.18 242.52C429.18 242.52 414.51 232.54 382.69 246.07Z" fill="#010101"/>
</g>
</g>
<defs>
<clipPath id="clip0_219_494">
<rect width="525.84" height="796.39" fill="white"/>
</clipPath>
</defs>
</svg>
