<svg width="90" height="126" viewBox="0 0 90 126" fill="none" xmlns="http://www.w3.org/2000/svg">
<path d="M68.9929 87.0894H22.4547V93.4812H68.9929V87.0894Z" fill="#263339"/>
<path d="M69.0762 93.5646H22.3772V87.0149H69.0762V93.5646ZM22.5381 93.3889H68.9452V87.1579H22.5381V93.3889Z" fill="#263339"/>
<path d="M26.7688 91.3545L33.4665 124.389H58.2581L64.7264 93.4812L26.7688 91.3545Z" fill="#263339"/>
<path d="M26.7688 121.268L30.3441 126.176H60.4748L64.7264 121.268H26.7688Z" fill="#465B65"/>
<path d="M43.9748 92.3226C43.8854 92.3226 43.7663 77.013 43.7186 58.1382C43.6709 39.2633 43.7186 23.9597 43.7871 23.9597C43.8556 23.9597 43.9957 39.2544 44.0434 58.1382C44.091 77.022 44.0701 92.3226 43.9748 92.3226Z" fill="#263339"/>
<path d="M54.3432 54.0188C54.3164 54.1439 54.2747 54.266 54.2181 54.3792C54.1078 54.6354 53.9678 54.969 53.8039 55.3681L53.5001 56.0591L53.1872 56.9258L52.8327 57.9236C52.7075 58.2781 52.6122 58.6653 52.487 59.0584C51.9328 60.929 51.4979 62.8322 51.1851 64.7563C50.8305 67.1183 50.5981 69.4952 50.4938 71.881C50.321 76.2207 50.4432 80.5693 50.8603 84.8911C51.0122 86.5531 51.1642 87.8905 51.2685 88.8168C51.3162 89.2517 51.3578 89.6061 51.3876 89.8891C51.4055 90.0142 51.4055 90.1393 51.3876 90.2644C51.3429 90.1452 51.3161 90.0231 51.3042 89.898C51.2565 89.621 51.1999 89.2666 51.1254 88.8377C50.9735 87.9173 50.7858 86.574 50.607 84.912C50.1184 80.5782 49.9635 76.2147 50.1423 71.8601C50.2614 69.4624 50.5147 67.0766 50.8961 64.7087C51.2238 62.7727 51.6886 60.8605 52.2815 58.9899C52.4066 58.5938 52.5168 58.2066 52.6479 57.8551L53.0293 56.8663L53.3689 55.9995C53.4881 55.7434 53.6043 55.5081 53.7026 55.3085L54.1734 54.3464C54.2211 54.2332 54.2806 54.123 54.3462 54.0218L54.3432 54.0188Z" fill="#263339"/>
<path d="M53.1455 41.6431C53.1097 41.8158 53.0621 41.9856 52.9995 42.1494C52.8744 42.5039 52.7165 42.9745 52.5139 43.5702C52.4036 43.8829 52.2845 44.2225 52.1594 44.5948C52.0342 44.9671 51.918 45.39 51.7839 45.8338C51.5069 46.7214 51.194 47.7252 50.9109 48.854C50.7649 49.4229 50.6071 50.0097 50.4462 50.6263C50.2853 51.2428 50.1631 51.8921 50.0111 52.5593C49.6864 53.8967 49.4511 55.3293 49.1531 56.8514C48.6407 59.8924 48.1848 63.2492 47.872 66.7937C47.5591 70.3381 47.4578 73.7187 47.4072 76.8134C47.3595 79.9081 47.4072 82.6781 47.5651 85.0132C47.6068 86.1778 47.6753 87.2293 47.7379 88.1556C47.8005 89.0819 47.8482 89.8742 47.9107 90.5235C47.9733 91.1728 47.9941 91.6523 48.0209 92.0247C48.0299 92.1974 48.0299 92.3702 48.0209 92.5429C47.9762 92.3761 47.9464 92.2034 47.9375 92.0306C47.8898 91.6553 47.8333 91.1579 47.7588 90.5354C47.6843 89.9129 47.6068 89.0879 47.5294 88.1675C47.4519 87.2471 47.3625 86.1868 47.3089 85.0162C47.151 82.69 47.0884 79.9051 47.0795 76.8104C47.0705 73.7157 47.2255 70.3232 47.5234 66.7639C47.8213 63.2045 48.298 59.8388 48.8254 56.7918C49.1382 55.2817 49.3795 53.8282 49.7192 52.4998L50.175 50.5607C50.3419 49.9442 50.5088 49.3544 50.6667 48.7885C50.9587 47.6597 51.2893 46.6559 51.5813 45.7772L51.9835 44.5441C52.1206 44.1688 52.2547 43.8531 52.3649 43.5255L52.9131 42.1405C52.9756 41.9677 53.0501 41.8009 53.1425 41.6431H53.1455Z" fill="#263339"/>
<path d="M41.0313 95.0301C41.0283 94.9706 41.0283 94.911 41.0313 94.8514C41.0313 94.7144 41.0313 94.5387 40.9836 94.3242C40.9836 93.8328 40.9061 93.1537 40.8525 92.2959C40.7333 90.5088 40.5754 87.9681 40.3818 84.8377C39.9796 78.55 39.3986 69.8527 38.3052 60.2917C37.7569 55.5142 37.1342 50.9719 36.4847 46.8526C36.1302 44.7766 35.7935 42.8436 35.4658 41.0296C35.138 39.2157 34.7745 37.512 34.4557 35.9691C34.1369 34.4263 33.8122 33.0413 33.5351 31.8141C33.2581 30.587 33.0078 29.5415 32.7873 28.6926C32.5668 27.8437 32.4208 27.1915 32.3106 26.7179C32.2629 26.5034 32.2212 26.3366 32.1914 26.1996C32.1616 26.0626 32.1556 26.0269 32.1556 26.0269C32.1556 26.0269 32.1556 26.0834 32.2182 26.1937L32.3701 26.7L32.9094 28.6599C33.1508 29.5117 33.4278 30.5512 33.7198 31.7694C34.0118 32.9876 34.3634 34.3727 34.6881 35.9245C35.0129 37.4763 35.3793 39.1591 35.7339 40.979C36.0884 42.7989 36.4251 44.7528 36.7797 46.808C37.4709 50.9272 38.0876 55.4784 38.6299 60.2619C39.6905 69.8319 40.2358 78.5351 40.5844 84.8287C40.7572 87.98 40.8763 90.5266 40.9449 92.2929C40.9449 93.1596 41.0015 93.8358 41.0223 94.3213V94.8485C41.0372 94.911 41.0432 94.9736 41.0372 95.0361L41.0313 95.0301Z" fill="#263339"/>
<path d="M43.6025 31.3136C43.3939 29.1453 41.2071 27.513 39.0232 27.4922C36.8125 27.5845 34.7656 28.6925 33.4815 30.4975C32.2242 32.2846 31.3155 34.2921 30.809 36.4188C29.3461 41.521 28.5446 46.8883 29.1673 52.1722C29.79 57.4561 31.9382 62.6416 35.7279 66.3737C36.3447 66.9754 37.1134 67.586 37.9864 67.4043C38.4422 67.2643 38.8534 67.0111 39.1781 66.6627C46.6832 59.7972 50.8573 50.0276 50.6279 39.859C50.5653 37.8515 50.3031 35.7665 49.1859 34.0896C48.0686 32.4127 45.4885 30.6286 43.5966 31.3196" fill="#85BE54"/>
<path d="M27.332 13.9459L24.2632 19.4859C24.1947 19.6169 24.0964 19.7629 23.9504 19.7778C23.8044 19.7927 23.6733 19.6408 23.5839 19.5008C20.8786 15.3457 18.1733 11.1907 15.474 7.03569L17.3451 5.97534L27.332 13.9459Z" fill="#85BE54"/>
<g opacity="0.2">
<path d="M27.332 13.9459L24.2632 19.4859C24.1947 19.6169 24.0964 19.7629 23.9504 19.7778C23.8044 19.7927 23.6733 19.6408 23.5839 19.5008C20.8786 15.3457 18.1733 11.1907 15.474 7.03569L17.3451 5.97534L27.332 13.9459Z" fill="#010101"/>
</g>
<path d="M43.7872 23.9597L16.1175 7.63147C15.8017 7.5034 15.5544 7.2532 15.4263 6.94045C15.3161 6.5324 15.6199 6.13625 15.9179 5.83244C19.7673 1.83825 25.166 -0.282449 30.7047 0.0302955C36.2583 0.426438 41.2606 3.53602 44.0732 8.34036C46.7397 13.1119 46.844 19.4204 43.7693 23.9478" fill="#85BE54"/>
<path d="M20.1069 2.42492C20.2231 2.39514 20.3453 2.38024 20.4674 2.38322C20.7088 2.38322 21.0574 2.32663 21.5132 2.32663C22.8003 2.31173 24.0844 2.41299 25.3506 2.63042C29.5694 3.34825 33.5023 5.24558 36.6902 8.10197C39.8514 10.9852 42.1306 14.7083 43.2628 18.8336C43.6084 20.0726 43.8408 21.3415 43.954 22.6222C44.0017 23.072 43.954 23.1911 43.9957 23.4264C43.9748 23.6409 43.9034 23.8494 43.7812 24.0281C43.8646 23.5724 43.8795 23.1047 43.8229 22.6431C42.6967 12.6918 35.1737 4.65582 25.3149 2.87466C24.0636 2.6334 22.7943 2.49639 21.5192 2.46661C20.5896 2.4398 20.1069 2.45173 20.1069 2.42492Z" fill="#263339"/>
<path d="M40.0421 12.6951C39.6041 12.9542 39.1393 13.1657 38.6567 13.3265C37.7778 13.681 36.58 14.1218 35.1946 14.5596C33.8092 14.9975 32.5549 15.343 31.6342 15.5693C31.1456 15.7242 30.6361 15.8195 30.1237 15.8523C30.5884 15.6349 31.0741 15.4651 31.5717 15.34L35.0963 14.2379L38.6001 13.1091C39.0649 12.9214 39.5475 12.7814 40.0421 12.6951Z" fill="#263339"/>
<path d="M35.6832 0.992432C35.9275 2.00215 36.0377 3.04167 36.0079 4.08117C36.0884 5.11471 36.0318 6.15718 35.8411 7.17583C35.7011 6.15122 35.6475 5.12066 35.6743 4.08711C35.5908 3.05655 35.5938 2.023 35.6802 0.992432H35.6832Z" fill="#263339"/>
<path d="M15.8733 7.32768C16.5228 7.04174 17.1932 6.80942 17.8814 6.63666C19.1417 6.24946 20.8935 5.75801 22.8421 5.28741C24.7906 4.8168 26.5812 4.4564 27.8773 4.22705C28.5596 4.07515 29.2567 3.97983 29.9539 3.94409C29.2746 4.16748 28.5804 4.33725 27.8773 4.45639C26.5961 4.74828 24.8294 5.14742 22.8838 5.60611C20.9383 6.0648 19.2072 6.5205 17.9529 6.8392C17.2736 7.05067 16.5794 7.2145 15.8763 7.33066L15.8733 7.32768Z" fill="#263339"/>
<path d="M32.1169 26.6107C29.7334 24.8027 27.2187 24.4512 24.2333 24.5674C21.245 24.764 18.3222 25.5205 15.611 26.7894C10.9423 28.8326 6.55959 31.8439 3.77385 36.1032C0.988117 40.3625 0.0138616 46.0127 2.1054 50.6443C2.26629 51.1298 2.60297 51.5408 3.0469 51.794C3.56531 51.94 4.11948 51.8983 4.61108 51.6749C9.91739 49.9444 15.2565 48.2138 20.1338 45.4855C25.011 42.7572 29.4562 39.0102 32.0751 34.0808C32.7515 32.9221 33.1775 31.6324 33.3295 30.301C33.4784 28.9518 33.0375 27.6025 32.1169 26.6047" fill="#85BE54"/>
<path d="M32.1645 26.0505C32.0394 26.1101 31.9083 26.1607 31.7772 26.2024L30.6689 26.5837L29.8645 26.8547C29.5665 26.959 29.2626 27.0901 28.923 27.2211C28.2318 27.4922 27.469 27.7691 26.6497 28.1623L25.3477 28.758C24.8978 28.9665 24.4479 29.2227 23.9623 29.449C22.9999 29.9196 22.0286 30.5213 20.9918 31.1319C18.7841 32.5258 16.6836 34.0836 14.7082 35.7933C12.7627 37.5446 10.9542 39.436 9.29171 41.4584C8.54984 42.4056 7.82884 43.2991 7.21508 44.1927C6.91118 44.6365 6.59836 45.0445 6.33617 45.4675L5.58238 46.6857C5.08482 47.4482 4.71535 48.1809 4.36378 48.8124C4.19097 49.1311 4.0182 49.4289 3.87817 49.7L3.53852 50.4625L3.0201 51.5139C2.96647 51.642 2.89495 51.7611 2.81152 51.8743C2.84728 51.7402 2.89792 51.6122 2.95751 51.4871C3.07669 51.2101 3.22865 50.8497 3.42231 50.4059C3.52659 50.1706 3.64279 49.9085 3.76197 49.6225C3.88115 49.3366 4.05989 49.0477 4.22674 48.723C4.56639 48.0796 4.91795 47.338 5.41253 46.5546L6.1544 45.3215C6.41063 44.8986 6.72347 44.4756 7.02141 44.0259C7.61133 43.1174 8.3234 42.2179 9.09804 41.2559C10.7546 39.2156 12.5721 37.3093 14.5355 35.558C16.5257 33.8394 18.6471 32.2786 20.8786 30.8906C21.9244 30.28 22.9075 29.6843 23.8848 29.2137C24.3615 28.9784 24.8204 28.7282 25.2703 28.5227L26.5871 27.9479C27.4184 27.5606 28.2079 27.3045 28.8932 27.0484C29.2328 26.9233 29.5456 26.8071 29.8406 26.7088L30.657 26.4675L31.7921 26.1429C31.9143 26.0982 32.0394 26.0684 32.1675 26.0535L32.1645 26.0505Z" fill="#263339"/>
<path d="M13.5761 36.1121C11.6812 36.8448 9.74755 37.4732 7.78412 37.9945C5.84752 38.6051 3.88111 39.1174 1.89087 39.5254C3.78279 38.7987 5.71344 38.1732 7.67389 37.6549C9.61049 37.0324 11.5799 36.5171 13.5761 36.1121Z" fill="#263339"/>
<path d="M13.3317 48.881C13.2334 48.2853 13.1917 47.6836 13.2066 47.082C13.1709 45.968 13.1709 44.4222 13.2066 42.7274C13.2424 41.0296 13.3436 39.4868 13.436 38.3728C13.4509 37.7801 13.5283 37.1903 13.6654 36.6155C13.716 37.2171 13.716 37.8218 13.6654 38.4234C13.6237 39.6476 13.582 41.1309 13.5283 42.7721C13.4717 44.4132 13.4509 45.8936 13.4241 47.1207C13.445 47.7105 13.4152 48.3002 13.3347 48.887L13.3317 48.881Z" fill="#263339"/>
<path d="M24.2751 43.3051C24.1857 43.3051 23.8938 40.1836 23.6226 36.3175C23.3515 32.4514 23.2144 29.3031 23.3038 29.2971C23.3932 29.2912 23.6852 32.4275 23.9563 36.2907C24.2274 40.1538 24.3645 43.3051 24.2751 43.3051Z" fill="#263339"/>
<path d="M10.6534 28.9933C11.2701 28.9129 11.8898 28.892 12.5095 28.9307C13.6596 28.9307 15.2387 28.9724 16.9756 29.035C18.7156 29.0975 20.3006 29.1601 21.4418 29.2286C22.0615 29.2286 22.6782 29.2911 23.283 29.4073C22.6692 29.4788 22.0495 29.4967 21.4328 29.4639C20.2887 29.4639 18.7096 29.4222 16.9667 29.3656C15.2208 29.309 13.6417 29.2345 12.5006 29.166C11.8809 29.1571 11.2612 29.1005 10.6504 28.9933H10.6534Z" fill="#263339"/>
<path d="M36.9166 67.0766C36.9077 66.9515 36.9077 66.8264 36.9166 66.7013C36.9166 66.4243 36.9167 66.0698 36.869 65.635C36.8273 64.7146 36.8124 63.3772 36.869 61.7242C36.9256 60.0681 37.015 58.1023 37.2146 55.922C37.4142 53.7418 37.7419 51.3589 38.1829 48.8659C38.6268 46.3729 39.1929 44.0199 39.762 41.9409C40.331 39.8619 40.9329 37.9377 41.4871 36.4008C42.0412 34.8639 42.5179 33.5891 42.8724 32.7313L43.2956 31.7544C43.3432 31.6382 43.3998 31.525 43.4624 31.4148C43.4475 31.5399 43.4118 31.662 43.3581 31.7752C43.2687 32.0373 43.1436 32.3709 42.9976 32.779C42.6729 33.6457 42.223 34.9056 41.7016 36.4753C41.1802 38.045 40.6141 39.9363 40.045 42.0153C39.4759 44.0943 38.9575 46.4742 38.5017 48.9404C38.0458 51.4066 37.7389 53.7864 37.5125 55.9697C37.2831 58.15 37.158 60.1247 37.0984 61.751C37.0388 63.3773 37.009 64.7355 37.009 65.6558V66.7221C36.9941 66.8442 36.9643 66.9604 36.9196 67.0766H36.9166Z" fill="#263339"/>
<path d="M38.3796 48.9851C38.0578 49.4289 37.6913 49.837 37.2772 50.1974C36.5859 50.8884 35.5461 51.8743 34.3812 52.884C33.2163 53.8937 32.1377 54.7873 31.3392 55.3979C30.9132 55.7612 30.4484 56.077 29.9539 56.3391C30.3144 55.928 30.7166 55.5527 31.1516 55.2162L34.131 52.6338L37.0806 50.0246C37.4768 49.6374 37.9118 49.2889 38.3766 48.9851H38.3796Z" fill="#263339"/>
<path d="M47.1331 56.0413C46.707 55.5261 46.3137 54.984 45.9622 54.4151C45.2084 53.3071 44.2639 51.937 43.227 50.4269L40.4563 46.4744C40.0213 45.9531 39.6309 45.3961 39.2913 44.8064C39.7769 45.2681 40.2208 45.7714 40.6201 46.3076C41.3887 47.2845 42.4137 48.6546 43.4952 50.2064C44.5767 51.7583 45.5123 53.2058 46.1558 54.2572C46.5401 54.8172 46.8679 55.4159 47.1331 56.0443V56.0413Z" fill="#263339"/>
<path d="M42.5477 33.8394C42.5954 33.9169 39.6875 35.8737 36.0496 38.2089C32.4118 40.5411 29.4204 42.3639 29.3728 42.3014C29.3251 42.2388 32.233 40.273 35.8709 37.9319C39.5087 35.5908 42.5001 33.7828 42.5477 33.8394Z" fill="#263339"/>
<path d="M50.75 42.7123C49.2126 41.4346 47.7468 40.0793 46.3525 38.6467C44.8896 37.2885 43.5041 35.8528 42.1962 34.3457C43.7425 35.6146 45.2113 36.9727 46.6027 38.4114C48.0686 39.7636 49.451 41.1993 50.753 42.7123H50.75Z" fill="#263339"/>
<path d="M52.8118 42.5307L55.3114 42.3222C57.0842 42.1762 58.8034 41.649 60.3526 40.7793C61.1094 40.3355 61.893 39.9424 62.7004 39.6028C65.79 38.3637 69.2312 38.5842 72.5562 38.4174C77.9966 38.1433 83.3267 36.7792 88.2308 34.4083C88.5198 34.2802 88.7612 34.0658 88.922 33.7917C89.4345 32.8565 88.4871 32.0255 87.6618 31.5191C83.4578 28.9308 79.1764 26.2978 74.4034 25.017C69.6305 23.7363 64.2139 23.9448 60.141 26.7475C55.3621 30.0358 53.6222 36.7881 52.8118 42.5277" fill="#85BE54"/>
<path d="M88.9757 33.482C88.8267 33.4344 88.6867 33.3688 88.5527 33.2884L87.3669 32.6719C86.3419 32.1328 84.8672 31.3345 82.9961 30.435C80.8212 29.3687 78.5568 28.496 76.2298 27.8318C73.3815 27.0187 70.4022 26.7833 67.4615 27.1408C64.5119 27.4773 61.7262 28.6836 59.4619 30.6018C57.6951 32.2489 56.2798 34.2356 55.3056 36.4456C54.6233 37.9319 54.0185 39.451 53.4971 41.0028C53.3094 41.521 53.1634 41.938 53.0472 42.2567C53.0025 42.4086 52.9459 42.5546 52.8744 42.6916C52.8982 42.5367 52.9369 42.3848 52.9846 42.2359L53.3719 40.9611C53.8516 39.3914 54.4266 37.8515 55.091 36.3503C56.0474 34.0926 57.4626 32.0583 59.2473 30.3754C61.5504 28.4096 64.3898 27.1795 67.3989 26.8429C70.3843 26.4855 73.4143 26.7387 76.2984 27.5846C78.6402 28.2726 80.9105 29.1751 83.0854 30.2771C84.9476 31.1975 86.4104 32.0285 87.4145 32.6034L88.5705 33.2944C88.7106 33.342 88.8446 33.4046 88.9727 33.482H88.9757Z" fill="#263339"/>
<path d="M82.9782 36.7078C82.9305 36.7852 79.6591 34.6734 75.6846 31.9868C71.7101 29.3002 68.5221 27.0693 68.5787 26.9948C68.6354 26.9204 71.8978 29.0292 75.8723 31.7158C79.8468 34.4024 83.0348 36.6125 82.9782 36.7078Z" fill="#263339"/>
<path d="M79.4655 26.8251C78.6998 27.0872 77.8983 27.2302 77.0909 27.2481C76.2865 27.3642 75.4701 27.3642 74.6656 27.2481C75.4552 27.0992 76.2567 27.0158 77.0611 26.9979C77.8566 26.8758 78.6611 26.8192 79.4655 26.8251Z" fill="#263339"/>
<path d="M65.1972 24.9634C64.932 25.574 64.5685 26.137 64.1246 26.6314C63.7492 27.2062 63.2933 27.7275 62.7749 28.1743C63.0371 27.5607 63.3976 26.9948 63.8415 26.4974C64.217 25.9225 64.6757 25.4042 65.2001 24.9604L65.1972 24.9634Z" fill="#263339"/>
<path d="M68.1288 38.6258C67.5746 38.4024 67.0473 38.1165 66.5557 37.774C65.6142 37.2051 64.333 36.389 62.9744 35.3792C61.6158 34.3695 60.4122 33.4551 59.5124 32.7701C59.0149 32.4275 58.55 32.0374 58.127 31.6055C58.6543 31.8825 59.1578 32.2101 59.6226 32.5824L63.0847 35.1112C64.4701 36.0941 65.6887 36.9608 66.5974 37.5834C67.1337 37.8931 67.6432 38.2446 68.1288 38.6288V38.6258Z" fill="#263339"/>
<path d="M56.4913 53.1402C54.1078 52.5087 51.2684 54.829 50.7768 57.2386C50.2852 59.6482 51.1909 62.0847 52.2516 64.3424C54.5219 69.3254 57.8886 73.7307 62.1015 77.2274C66.3531 80.7242 71.6624 82.6751 77.1654 82.7675C76.1553 78.0853 77.4275 73.2035 76.8674 68.4557C75.8485 59.8359 69.0077 53.0627 60.3764 52.1275C58.8599 51.9696 57.0991 51.7254 56.4913 53.1312" fill="#85BE54"/>
<path d="M77.1654 82.7765C77.0462 82.7348 76.933 82.6812 76.8257 82.6186C76.5099 82.4458 76.2119 82.2433 75.9319 82.0169C74.9308 81.1502 74.1294 80.0779 73.5841 78.8746C73.2028 78.1419 72.7797 77.3377 72.3655 76.4501L71.0844 73.6175C70.6196 72.578 70.0923 71.5653 69.5054 70.5914C68.8618 69.5548 68.1348 68.5719 67.3364 67.6486C65.7096 65.7304 63.9577 64.0744 62.4383 62.4898C61.0588 61.1078 59.8015 59.6096 58.6842 58.0101C57.9393 56.9349 57.3285 55.7703 56.8637 54.5491C56.7118 54.1142 56.6016 53.7657 56.545 53.5304C56.5033 53.4113 56.4765 53.2892 56.4675 53.1641C56.4675 53.1641 56.6344 53.6496 56.98 54.5074C57.4895 55.7018 58.127 56.8396 58.8778 57.8999C60.007 59.4696 61.2673 60.941 62.6378 62.3051C64.1603 63.8688 65.9212 65.5189 67.5688 67.458C68.3792 68.3932 69.112 69.394 69.7586 70.4484C70.3515 71.4372 70.8788 72.4619 71.3377 73.5163L72.592 76.3607C72.9882 77.2394 73.4024 78.0495 73.7688 78.7912C74.2872 79.9826 75.0441 81.0549 75.9915 81.9425C76.6917 82.5233 77.1833 82.7467 77.1624 82.7794L77.1654 82.7765Z" fill="#263339"/>
<path d="M64.8514 78.8836C64.8574 78.3445 64.9289 77.8054 65.0659 77.2842C65.2537 76.3013 65.5576 74.958 65.9747 73.4895C66.3918 72.0211 66.8268 70.7195 67.1813 69.7783C67.3393 69.263 67.5597 68.7686 67.8338 68.304C67.7415 68.8341 67.5985 69.3524 67.4048 69.8558C67.1128 70.8119 66.7136 72.1194 66.2965 73.5819C65.8794 75.0443 65.5427 76.3519 65.2983 77.3348C65.1971 77.865 65.0511 78.3832 64.8544 78.8866L64.8514 78.8836Z" fill="#263339"/>
<path d="M76.6946 67.4104C76.1226 67.327 75.5595 67.1989 75.0113 67.0232C73.9864 66.7521 72.5742 66.3917 70.9951 66.0343C69.416 65.6769 67.9829 65.4029 66.9371 65.2093C66.368 65.1318 65.805 65.0067 65.2538 64.834C65.8318 64.8191 66.4098 64.8667 66.9789 64.971C68.0306 65.108 69.4875 65.3522 71.0666 65.7037C72.6457 66.0552 74.0728 66.4662 75.0828 66.7968C75.64 66.9428 76.1822 67.1453 76.6976 67.4074L76.6946 67.4104Z" fill="#263339"/>
<path d="M56.0057 70.7403C56.0325 70.1178 56.1218 69.4983 56.2678 68.8906C56.4764 67.7469 56.8071 66.1891 57.251 64.4795C57.695 62.7698 58.1717 61.2448 58.5471 60.1517C58.7229 59.55 58.9553 58.9662 59.2383 58.4062C59.14 59.0228 58.9881 59.6304 58.7825 60.2202C58.4696 61.3282 58.0347 62.8651 57.5907 64.5629C57.1468 66.2606 56.7743 67.8184 56.5092 68.9383C56.393 69.5519 56.2232 70.1535 56.0027 70.7373L56.0057 70.7403Z" fill="#263339"/>
<path d="M71.2512 57.3845C69.0286 57.319 66.8119 57.1403 64.6101 56.8514C60.9544 56.4642 57.9959 56.077 58.0018 55.9846C60.2245 56.0472 62.4412 56.2259 64.6429 56.5178C68.2986 56.9258 71.2572 57.313 71.2512 57.3845Z" fill="#263339"/>
<path d="M69.0762 93.4603C69.0762 93.5496 58.6245 93.627 45.7357 93.627C32.8468 93.627 22.3861 93.5496 22.3861 93.4603C22.3861 93.3709 32.8379 93.2935 45.7357 93.2935C58.6335 93.2935 69.0762 93.3917 69.0762 93.4603Z" fill="#465B65"/>
<path d="M61.7976 106.905C61.7976 106.995 54.7543 107.072 46.0664 107.072C37.3784 107.072 30.3352 106.995 30.3352 106.905C30.3352 106.816 37.3784 106.739 46.0664 106.739C54.7543 106.739 61.7976 106.807 61.7976 106.905Z" fill="#465B65"/>
<path d="M61.5265 108.824C61.5265 108.922 54.5994 108.99 46.0724 108.99C37.5453 108.99 30.6123 108.922 30.6123 108.824C30.6123 108.725 37.5394 108.657 46.0724 108.657C54.6053 108.657 61.5265 108.734 61.5265 108.824Z" fill="#465B65"/>
<path d="M62.0747 105.321C62.0747 105.41 54.7871 105.488 45.8042 105.488C36.8213 105.488 29.5337 105.41 29.5337 105.321C29.5337 105.232 36.8124 105.163 45.8042 105.163C54.796 105.163 62.0747 105.232 62.0747 105.321Z" fill="#465B65"/>
</svg>
