<?xml version="1.0" encoding="UTF-8"?>
<svg id="Capa_1" xmlns="http://www.w3.org/2000/svg" version="1.1" viewBox="0 0 524.1 48.3">
  <!-- Generator: Adobe Illustrator 29.6.1, SVG Export Plug-In . SVG Version: 2.1.1 Build 9)  -->
  <defs>
    <style>
      .st0 {
        fill: #fff;
      }

      .st1 {
        fill: #4ab05e;
      }

      .st2 {
        fill: #575656;
      }

      .st3 {
        fill: none;
        stroke: #575656;
        stroke-miterlimit: 10;
      }
    </style>
  </defs>
  <g>
    <rect class="st1" width="85.6" height="48.3" rx="3.3" ry="3.3"/>
    <g>
      <path class="st0" d="M24.6,29c-.2,0-.4,0-.6-.2-.1-.1-.2-.3-.2-.6v-6.5h-2.3c-.2,0-.4,0-.5-.2-.1-.1-.2-.3-.2-.5s0-.4.2-.5c.1-.1.3-.2.5-.2h6.2c.2,0,.4,0,.5.2.1.1.2.3.2.5s0,.4-.2.5-.3.2-.5.2h-2.3v6.5c0,.2,0,.4-.2.6-.1.1-.3.2-.6.2Z"/>
      <path class="st0" d="M30,29c-.2,0-.4,0-.6-.2-.1-.1-.2-.3-.2-.6v-7.1c0-.3,0-.5.2-.6.1-.1.3-.2.6-.2s.4,0,.6.2c.1.1.2.3.2.6v2.8h4.4v-2.8c0-.3,0-.5.2-.6.1-.1.3-.2.6-.2s.4,0,.6.2c.1.1.2.3.2.6v7.1c0,.2,0,.4-.2.6-.1.1-.3.2-.6.2s-.4,0-.6-.2c-.1-.1-.2-.3-.2-.6v-3h-4.4v3c0,.2,0,.4-.2.6-.1.1-.3.2-.6.2Z"/>
      <path class="st0" d="M39.3,29c-.2,0-.4,0-.6-.2-.1-.1-.2-.3-.2-.6v-7.1c0-.3,0-.5.2-.6.1-.1.3-.2.6-.2s.4,0,.6.2c.1.1.2.3.2.6v7.1c0,.2,0,.4-.2.6-.1.1-.3.2-.6.2Z"/>
      <path class="st0" d="M42.6,29c-.2,0-.4,0-.5-.2-.1-.1-.2-.3-.2-.6v-7.1c0-.2,0-.4.2-.6.1-.1.3-.2.5-.2s.3,0,.4.1c0,0,.2.2.3.3l4.6,6h-.3v-5.7c0-.2,0-.4.2-.5s.3-.2.5-.2.4,0,.5.2.2.3.2.5v7.2c0,.2,0,.4-.2.5-.1.1-.3.2-.5.2s-.3,0-.4-.1c-.1,0-.2-.2-.4-.3l-4.6-6h.3v5.7c0,.2,0,.4-.2.6-.1.1-.3.2-.5.2Z"/>
      <path class="st0" d="M51.6,29c-.2,0-.4,0-.6-.2-.1-.1-.2-.3-.2-.6v-7.1c0-.3,0-.5.2-.6.1-.1.3-.2.6-.2s.4,0,.6.2.2.3.2.6v3.1h0l3.4-3.5c.1-.1.3-.2.4-.3s.3,0,.4,0c.2,0,.4,0,.5.2,0,.1.1.3.1.4,0,.2,0,.3-.2.4l-3.5,3.5v-.7s3.7,3.7,3.7,3.7c.2.2.3.3.3.5,0,.2,0,.3-.2.4s-.3.2-.5.2-.3,0-.5-.1c-.1,0-.2-.2-.4-.3l-3.5-3.5h0v3.2c0,.2,0,.4-.2.6-.1.1-.3.2-.6.2Z"/>
    </g>
  </g>
  <g>
    <rect class="st1" x="109.3" width="85.6" height="48.3" rx="3.3" ry="3.3"/>
    <g>
      <path class="st0" d="M134.8,29c-.2,0-.4,0-.5-.2-.1-.1-.2-.3-.2-.5v-7.2c0-.2,0-.4.2-.5.1-.1.3-.2.5-.2s.4,0,.5.1c.1,0,.2.2.3.4l3,5.5h-.4l3-5.5c0-.2.2-.3.3-.4s.3-.1.5-.1.4,0,.5.2c.1.1.2.3.2.5v7.2c0,.2,0,.4-.2.5-.1.1-.3.2-.5.2s-.4,0-.5-.2c-.1-.1-.2-.3-.2-.5v-5.6h.3l-2.5,4.6c0,.1-.2.2-.3.3,0,0-.2,0-.4,0s-.3,0-.4-.1c0,0-.2-.2-.3-.3l-2.5-4.6h.3v5.6c0,.2,0,.4-.2.5-.1.1-.3.2-.5.2Z"/>
      <path class="st0" d="M144.6,29c-.2,0-.3,0-.5-.1-.1,0-.2-.2-.2-.4,0-.1,0-.3,0-.5l3.2-7c.1-.2.2-.4.4-.5s.3-.2.5-.2.3,0,.5.2c.1.1.3.3.4.5l3.2,7c0,.2.1.4,0,.5s0,.3-.2.4c-.1,0-.3.1-.4.1s-.4,0-.5-.2-.2-.3-.3-.5l-.8-1.8.6.4h-5.1l.6-.4-.8,1.8c-.1.2-.2.4-.3.5-.1.1-.3.2-.5.2ZM148,22.1l-1.7,4-.3-.4h4l-.3.4-1.7-4h0Z"/>
      <path class="st0" d="M154.2,29c-.2,0-.4,0-.6-.2-.1-.1-.2-.3-.2-.6v-7.1c0-.3,0-.5.2-.6.1-.1.3-.2.6-.2s.4,0,.6.2.2.3.2.6v3.1h0l3.4-3.5c.1-.1.3-.2.4-.3s.3,0,.4,0c.2,0,.4,0,.5.2,0,.1.1.3.1.4,0,.2,0,.3-.2.4l-3.5,3.5v-.7s3.7,3.7,3.7,3.7c.2.2.3.3.3.5,0,.2,0,.3-.2.4s-.3.2-.5.2-.3,0-.5-.1c-.1,0-.2-.2-.4-.3l-3.5-3.5h0v3.2c0,.2,0,.4-.2.6-.1.1-.3.2-.6.2Z"/>
      <path class="st0" d="M162.2,28.9c-.3,0-.5,0-.6-.2-.1-.1-.2-.3-.2-.6v-6.8c0-.3,0-.5.2-.6.1-.1.3-.2.6-.2h4.3c.2,0,.4,0,.5.2.1.1.2.3.2.4s0,.4-.2.5c-.1.1-.3.2-.5.2h-3.6v2.3h3.4c.2,0,.4,0,.5.2s.2.3.2.5,0,.4-.2.5-.3.2-.5.2h-3.4v2.5h3.6c.2,0,.4,0,.5.2.1.1.2.3.2.5s0,.4-.2.5c-.1.1-.3.2-.5.2h-4.3Z"/>
    </g>
  </g>
  <g>
    <rect class="st1" x="218.6" width="85.6" height="48.3" rx="3.3" ry="3.3"/>
    <g>
      <path class="st0" d="M244.7,29c-.9,0-1.6-.2-2.3-.5-.6-.4-1.1-.9-1.4-1.5-.3-.7-.5-1.4-.5-2.3s0-1.3.3-1.8c.2-.5.5-1,.8-1.4.4-.4.8-.7,1.3-.9s1.1-.3,1.8-.3.9,0,1.3.2c.4.1.8.3,1.1.5.2.1.3.2.3.4,0,.1,0,.3,0,.4,0,.1,0,.3-.2.4-.1,0-.2.1-.4.2-.1,0-.3,0-.5-.1-.2-.2-.5-.3-.8-.3-.3,0-.6-.1-.9-.1-.6,0-1,.1-1.4.3-.4.2-.7.6-.9,1-.2.4-.3,1-.3,1.6s.1,1.2.3,1.6c.2.4.5.8.9,1,.4.2.9.3,1.4.3s.6,0,.9-.1c.3,0,.6-.2.8-.4.2-.1.3-.2.5-.1.1,0,.3,0,.4.1,0,0,.2.2.2.3,0,.1,0,.3,0,.4,0,.1-.1.3-.3.4-.3.2-.7.4-1.1.5s-.9.2-1.4.2Z"/>
      <path class="st0" d="M249.7,29c-.2,0-.4,0-.6-.2-.1-.1-.2-.3-.2-.6v-7.1c0-.3,0-.5.2-.6.1-.1.3-.2.6-.2s.4,0,.6.2c.1.1.2.3.2.6v2.8h4.4v-2.8c0-.3,0-.5.2-.6.1-.1.3-.2.6-.2s.4,0,.6.2c.1.1.2.3.2.6v7.1c0,.2,0,.4-.2.6-.1.1-.3.2-.6.2s-.4,0-.6-.2c-.1-.1-.2-.3-.2-.6v-3h-4.4v3c0,.2,0,.4-.2.6-.1.1-.3.2-.6.2Z"/>
      <path class="st0" d="M259,28.9c-.3,0-.5,0-.6-.2-.1-.1-.2-.3-.2-.6v-6.8c0-.3,0-.5.2-.6.1-.1.3-.2.6-.2h4.3c.2,0,.4,0,.5.2.1.1.2.3.2.4s0,.4-.2.5c-.1.1-.3.2-.5.2h-3.6v2.3h3.4c.2,0,.4,0,.5.2s.2.3.2.5,0,.4-.2.5-.3.2-.5.2h-3.4v2.5h3.6c.2,0,.4,0,.5.2.1.1.2.3.2.5s0,.4-.2.5c-.1.1-.3.2-.5.2h-4.3Z"/>
      <path class="st0" d="M269.3,29c-.9,0-1.6-.2-2.3-.5-.6-.4-1.1-.9-1.4-1.5-.3-.7-.5-1.4-.5-2.3s0-1.3.3-1.8c.2-.5.5-1,.8-1.4.4-.4.8-.7,1.3-.9s1.1-.3,1.8-.3.9,0,1.3.2c.4.1.8.3,1.1.5.2.1.3.2.3.4,0,.1,0,.3,0,.4,0,.1,0,.3-.2.4-.1,0-.2.1-.4.2-.1,0-.3,0-.5-.1-.2-.2-.5-.3-.8-.3-.3,0-.6-.1-.9-.1-.6,0-1,.1-1.4.3-.4.2-.7.6-.9,1-.2.4-.3,1-.3,1.6s.1,1.2.3,1.6c.2.4.5.8.9,1,.4.2.9.3,1.4.3s.6,0,.9-.1c.3,0,.6-.2.8-.4.2-.1.3-.2.5-.1.1,0,.3,0,.4.1,0,0,.2.2.2.3,0,.1,0,.3,0,.4,0,.1-.1.3-.3.4-.3.2-.7.4-1.1.5s-.9.2-1.4.2Z"/>
      <path class="st0" d="M274.3,29c-.2,0-.4,0-.6-.2-.1-.1-.2-.3-.2-.6v-7.1c0-.3,0-.5.2-.6.1-.1.3-.2.6-.2s.4,0,.6.2.2.3.2.6v3.1h0l3.4-3.5c.1-.1.3-.2.4-.3s.3,0,.4,0c.2,0,.4,0,.5.2,0,.1.1.3.1.4,0,.2,0,.3-.2.4l-3.5,3.5v-.7s3.7,3.7,3.7,3.7c.2.2.3.3.3.5,0,.2,0,.3-.2.4s-.3.2-.5.2-.3,0-.5-.1c-.1,0-.2-.2-.4-.3l-3.5-3.5h0v3.2c0,.2,0,.4-.2.6-.1.1-.3.2-.6.2Z"/>
    </g>
  </g>
  <g>
    <rect class="st1" x="328.6" width="85.6" height="48.3" rx="3.3" ry="3.3"/>
    <g>
      <path class="st0" d="M351.8,28.9c-.2,0-.4,0-.6-.2-.1-.1-.2-.3-.2-.6v-6.9c0-.3,0-.5.2-.6.1-.1.3-.2.6-.2s.4,0,.6.2c.1.1.2.3.2.6v6.4h3.5c.2,0,.4,0,.5.2.1.1.2.3.2.5s0,.4-.2.5c-.1.1-.3.2-.5.2h-4.2Z"/>
      <path class="st0" d="M358.5,28.9c-.3,0-.5,0-.6-.2s-.2-.3-.2-.6v-6.8c0-.3,0-.5.2-.6.1-.1.3-.2.6-.2h4.3c.2,0,.4,0,.5.2.1.1.2.3.2.4s0,.4-.2.5c-.1.1-.3.2-.5.2h-3.6v2.3h3.4c.2,0,.4,0,.5.2.1.1.2.3.2.5s0,.4-.2.5c-.1.1-.3.2-.5.2h-3.4v2.5h3.6c.2,0,.4,0,.5.2.1.1.2.3.2.5s0,.4-.2.5c-.1.1-.3.2-.5.2h-4.3Z"/>
      <path class="st0" d="M365,29c-.2,0-.3,0-.5-.1-.1,0-.2-.2-.2-.4,0-.1,0-.3,0-.5l3.2-7c.1-.2.2-.4.4-.5.1-.1.3-.2.5-.2s.3,0,.5.2c.1.1.3.3.4.5l3.2,7c0,.2.1.4,0,.5,0,.2,0,.3-.2.4-.1,0-.3.1-.4.1s-.4,0-.5-.2-.2-.3-.3-.5l-.8-1.8.6.4h-5.1l.6-.4-.8,1.8c-.1.2-.2.4-.3.5s-.3.2-.5.2ZM368.4,22.1l-1.7,4-.3-.4h4l-.3.4-1.7-4h0Z"/>
      <path class="st0" d="M374.6,29c-.2,0-.4,0-.6-.2-.1-.1-.2-.3-.2-.6v-7c0-.3,0-.4.2-.6.1-.1.3-.2.6-.2h2.9c.9,0,1.6.2,2.1.7s.8,1.1.8,1.9-.1,1-.3,1.3c-.2.4-.6.7-1,.9-.4.2-1,.3-1.6.3v-.2h.5c.3,0,.6,0,.9.2s.5.4.6.8l.9,1.7c0,.2.1.3.1.5s0,.3-.2.4c-.1.1-.3.2-.5.2s-.4,0-.5-.1c-.1,0-.3-.2-.4-.4l-1.2-2.2c-.1-.3-.3-.5-.5-.5-.2,0-.4-.1-.8-.1h-1.1v2.7c0,.2,0,.4-.2.6-.1.1-.3.2-.6.2ZM375.3,24.3h1.9c.6,0,1-.1,1.3-.3s.4-.6.4-1-.1-.8-.4-1c-.3-.2-.7-.3-1.3-.3h-1.9v2.7Z"/>
      <path class="st0" d="M382.8,29c-.2,0-.4,0-.5-.2-.1-.1-.2-.3-.2-.6v-7.1c0-.2,0-.4.2-.6.1-.1.3-.2.5-.2s.3,0,.4.1c0,0,.2.2.3.3l4.6,6h-.3v-5.7c0-.2,0-.4.2-.5s.3-.2.5-.2.4,0,.5.2.2.3.2.5v7.2c0,.2,0,.4-.2.5-.1.1-.3.2-.5.2s-.3,0-.4-.1c-.1,0-.2-.2-.4-.3l-4.6-6h.3v5.7c0,.2,0,.4-.2.6-.1.1-.3.2-.5.2Z"/>
    </g>
  </g>
  <g>
    <rect class="st1" x="438.5" width="85.6" height="48.3" rx="3.3" ry="3.3"/>
    <g>
      <path class="st0" d="M458.1,29c-.2,0-.4,0-.6-.2-.1-.1-.2-.3-.2-.6v-7c0-.3,0-.4.2-.6.1-.1.3-.2.6-.2h2.9c.9,0,1.6.2,2.1.7s.8,1.1.8,1.9-.1,1-.3,1.3c-.2.4-.6.7-1,.9-.4.2-1,.3-1.6.3v-.2h.5c.3,0,.6,0,.9.2s.5.4.6.8l.9,1.7c0,.2.1.3.1.5s0,.3-.2.4c-.1.1-.3.2-.5.2s-.4,0-.5-.1c-.1,0-.3-.2-.4-.4l-1.2-2.2c-.1-.3-.3-.5-.5-.5-.2,0-.4-.1-.8-.1h-1.1v2.7c0,.2,0,.4-.2.6-.1.1-.3.2-.6.2ZM458.9,24.3h1.9c.6,0,1-.1,1.3-.3.3-.2.4-.6.4-1s-.1-.8-.4-1c-.3-.2-.7-.3-1.3-.3h-1.9v2.7Z"/>
      <path class="st0" d="M466.4,28.9c-.3,0-.5,0-.6-.2-.1-.1-.2-.3-.2-.6v-6.8c0-.3,0-.5.2-.6.1-.1.3-.2.6-.2h4.3c.2,0,.4,0,.5.2.1.1.2.3.2.4s0,.4-.2.5c-.1.1-.3.2-.5.2h-3.6v2.3h3.4c.2,0,.4,0,.5.2.1.1.2.3.2.5s0,.4-.2.5c-.1.1-.3.2-.5.2h-3.4v2.5h3.6c.2,0,.4,0,.5.2.1.1.2.3.2.5s0,.4-.2.5c-.1.1-.3.2-.5.2h-4.3Z"/>
      <path class="st0" d="M473.5,29c-.2,0-.4,0-.6-.2-.1-.1-.2-.3-.2-.6v-7c0-.3,0-.4.2-.6.1-.1.3-.2.6-.2h2.9c.9,0,1.6.2,2.1.7.5.5.8,1.1.8,1.9s-.3,1.5-.8,1.9c-.5.5-1.2.7-2.1.7h-2.1v2.5c0,.2,0,.4-.2.6-.1.1-.3.2-.6.2ZM474.3,24.5h1.9c.5,0,1-.1,1.2-.4.3-.2.4-.6.4-1.1s-.1-.8-.4-1.1c-.3-.2-.7-.4-1.2-.4h-1.9v2.9Z"/>
      <path class="st0" d="M481.4,28.9c-.3,0-.5,0-.6-.2-.1-.1-.2-.3-.2-.6v-6.8c0-.3,0-.5.2-.6.1-.1.3-.2.6-.2h4.3c.2,0,.4,0,.5.2.1.1.2.3.2.4s0,.4-.2.5c-.1.1-.3.2-.5.2h-3.6v2.3h3.4c.2,0,.4,0,.5.2s.2.3.2.5,0,.4-.2.5-.3.2-.5.2h-3.4v2.5h3.6c.2,0,.4,0,.5.2.1.1.2.3.2.5s0,.4-.2.5c-.1.1-.3.2-.5.2h-4.3Z"/>
      <path class="st0" d="M487.8,29c-.2,0-.3,0-.5-.1s-.2-.2-.2-.4c0-.1,0-.3,0-.5l3.2-7c.1-.2.2-.4.4-.5s.3-.2.5-.2.3,0,.5.2c.1.1.3.3.4.5l3.2,7c0,.2.1.4,0,.5s0,.3-.2.4c-.1,0-.3.1-.4.1s-.4,0-.5-.2-.2-.3-.3-.5l-.8-1.8.6.4h-5.1l.6-.4-.8,1.8c-.1.2-.2.4-.3.5-.1.1-.3.2-.5.2ZM491.3,22.1l-1.7,4-.3-.4h4l-.3.4-1.7-4h0Z"/>
      <path class="st0" d="M499.5,29c-.2,0-.4,0-.6-.2-.1-.1-.2-.3-.2-.6v-6.5h-2.3c-.2,0-.4,0-.5-.2-.1-.1-.2-.3-.2-.5s0-.4.2-.5c.1-.1.3-.2.5-.2h6.2c.2,0,.4,0,.5.2.1.1.2.3.2.5s0,.4-.2.5c-.1.1-.3.2-.5.2h-2.3v6.5c0,.2,0,.4-.2.6-.1.1-.3.2-.6.2Z"/>
    </g>
  </g>
  <g>
    <line class="st3" x1="85.6" y1="24.1" x2="105.7" y2="24.1"/>
    <polygon class="st2" points="105 26.6 109.3 24.1 105 21.7 105 26.6"/>
  </g>
  <g>
    <line class="st3" x1="195.2" y1="24.1" x2="215.4" y2="24.1"/>
    <polygon class="st2" points="214.6 26.6 218.9 24.1 214.6 21.7 214.6 26.6"/>
  </g>
  <g>
    <line class="st3" x1="304.9" y1="24.1" x2="325" y2="24.1"/>
    <polygon class="st2" points="324.3 26.6 328.6 24.1 324.3 21.7 324.3 26.6"/>
  </g>
  <g>
    <line class="st3" x1="414.5" y1="24.1" x2="434.6" y2="24.1"/>
    <polygon class="st2" points="433.9 26.6 438.2 24.1 433.9 21.7 433.9 26.6"/>
  </g>
</svg>