<?xml version="1.0" encoding="UTF-8"?>
<svg id="Capa_1" xmlns="http://www.w3.org/2000/svg" version="1.1" viewBox="0 0 511.6 511.6">
  <!-- Generator: Adobe Illustrator 29.6.1, SVG Export Plug-In . SVG Version: 2.1.1 Build 9)  -->
  <defs>
    <style>
      .st0 {
        fill: #8e8e8e;
      }
    </style>
  </defs>
  <path class="st0" d="M49.1,178.7c6.5,4.6,26,18.1,58.5,40.7,32.5,22.6,57.5,39.9,74.8,52.1,1.9,1.3,5.9,4.2,12.1,8.7,6.2,4.5,11.3,8.1,15.4,10.9,4.1,2.8,9,5.9,14.8,9.3,5.8,3.4,11.3,6,16.4,7.7,5.1,1.7,9.9,2.6,14.3,2.6h.6c4.4,0,9.1-.9,14.3-2.6,5.1-1.7,10.6-4.3,16.4-7.7,5.8-3.4,10.8-6.5,14.8-9.3,4.1-2.8,9.2-6.4,15.4-10.9,6.2-4.5,10.2-7.4,12.1-8.7,17.5-12.2,62.1-43.1,133.6-92.8,13.9-9.7,25.5-21.4,34.8-35.1,9.3-13.7,14-28.1,14-43.1s-4.5-23.3-13.6-32.3c-9-8.9-19.7-13.4-32.1-13.4H45.7c-14.7,0-25.9,4.9-33.8,14.8C3.9,79.6,0,91.9,0,106.8s5.2,25,15.7,39c10.5,14,21.6,25,33.4,33Z"/>
  <path class="st0" d="M483.1,209.3c-62.4,42.3-109.8,75.1-142.2,98.5-10.8,8-19.6,14.2-26.4,18.7-6.8,4.5-15.7,9-27,13.7-11.2,4.7-21.7,7-31.4,7h-.6c-9.7,0-20.2-2.3-31.4-7-11.2-4.7-20.2-9.2-27-13.7-6.8-4.5-15.6-10.7-26.4-18.7-25.7-18.8-73-51.7-141.9-98.5-10.9-7.2-20.5-15.5-28.8-24.8v226.7c0,12.6,4.5,23.3,13.4,32.3,8.9,8.9,19.7,13.4,32.3,13.4h420.3c12.6,0,23.3-4.5,32.3-13.4,8.9-8.9,13.4-19.7,13.4-32.3v-226.7c-8.2,9.1-17.7,17.4-28.6,24.8Z"/>
</svg>