<svg width="534" height="840" viewBox="0 0 534 840" fill="none" xmlns="http://www.w3.org/2000/svg">
<g clip-path="url(#clip0_219_720)">
<path d="M266.99 839.08C414.444 839.08 533.98 820.791 533.98 798.23C533.98 775.669 414.444 757.38 266.99 757.38C119.535 757.38 0 775.669 0 798.23C0 820.791 119.535 839.08 266.99 839.08Z" fill="#F0F2FA"/>
<path d="M223.33 744C223.33 744 254.78 765.46 266.16 776.58C277.53 787.7 275.84 788.14 275.84 788.14C275.84 788.14 278.26 791.88 246.91 794.38C215.56 796.88 178.27 779.17 178.27 779.17L181.61 750.7C181.61 750.7 190.04 744.58 196.24 745.3C202.44 746.02 223.34 743.98 223.34 743.98L223.33 744Z" fill="white"/>
<path d="M184.96 731.67C185.89 740.79 181.22 752.95 192.11 756.02C205.3 759.74 207.36 747.17 218.08 744.55C219.64 744.17 222.24 744.73 223.34 744C224.33 743.34 224.68 730.11 224.8 728.35C213.06 731.46 197.05 732.71 184.97 731.67H184.96Z" fill="#F7B8A1"/>
<path d="M279.76 745.92L278.26 771.33C278.26 771.33 332.01 783.16 351.35 782.54C370.68 781.93 373.24 781.42 388.09 776.21C383.81 770.27 364.18 759.26 361.56 758.45C358.94 757.64 324.55 749.03 324.55 749.03L302.68 749.33L288.28 745.93H279.76V745.92Z" fill="white"/>
<path d="M334.8 793.41C316.15 791.77 297.97 786.88 279.74 782.92C278.41 781.93 278.2 780.33 278.03 778.82C277.44 773.75 277.72 764.57 278.04 759.29C278.28 755.31 279.1 748.35 280.13 744.32C280.51 742.83 279.99 741.36 282.19 741.86C280.26 751.05 279.65 760.62 279.74 770.05C310.9 775.9 341.57 786.37 373.64 779.8C376.94 779.12 382.03 777.76 384.87 776.08C385.38 775.78 386.48 776.05 385.91 774.66C385.19 772.9 379.45 769.29 377.56 768.07C376.28 767.25 372.84 766.1 372.65 765.91C372.24 765.49 372.25 763.91 373.81 764.34C376.05 764.96 383.86 769.94 385.55 771.7C389.68 775.99 390.05 784.86 384.56 788.23C375.81 793.59 346.64 794.96 336.14 794.16C335.99 794.15 335.49 793.45 334.82 793.39L334.8 793.41ZM281.07 781.59C311.03 788.25 339.33 796.17 370.32 790.61C378.13 789.21 388.97 788.03 386.74 777.57C351.36 790.85 314.95 778.45 279.7 771.75C280.15 774.56 278.42 780.01 281.07 781.59Z" fill="#B6C8E9"/>
<path d="M180.12 758.47C179.44 763.61 176.9 787 178.86 790.07C179.36 790.85 180.8 790.7 180.95 790.85C179.71 789.57 179.83 780.86 180.55 780.87C211.78 791.03 244.19 800.67 276.79 790.01C278.95 797.47 274.68 799.92 268.25 801.4C248.57 805.91 227.77 803.06 208.49 798.59C204.84 797.74 182.13 792.07 180.96 790.85C181.35 791.28 180.86 792.52 182.82 793.54C185.29 794.83 201.21 799.05 205.03 799.98C223.99 804.62 250.74 807.68 269.79 802.92C271.96 802.38 277.06 800.21 278.05 798.32C282.94 788.96 272.12 780.98 265.6 776.73C267.66 781.94 273.9 781.67 275.43 787.26C275.86 788.85 272.03 789.4 270.76 789.78C240.36 798.99 209.2 787.95 180.25 779.1C179.82 769.84 181.18 760.54 182.65 751.41C182.62 748.94 181.57 750.49 181.18 751.61C180.32 754.1 180.45 756.05 180.13 758.45L180.12 758.47Z" fill="#B6C8E9"/>
<path d="M215.81 759.29L224.57 755.19L238.19 753.06C238.07 750.59 226.73 752.11 224.56 752.69C221.63 753.47 216.25 755.8 215.8 759.28L215.81 759.29Z" fill="#1A1E30"/>
<path d="M251.48 765.11C245 763.02 233.88 765.6 229.9 771.33L243.81 766.99L251.48 766.78C251.34 766.35 251.6 765.61 251.48 765.12V765.11Z" fill="#1A1E30"/>
<path d="M222.45 765.11C223.36 765.93 227.51 763.25 228.9 762.85C232.78 761.73 237.35 761.35 241.27 760.24C242.67 759.84 243.59 760.86 243.19 758.47C238.4 758.3 233 759.19 228.44 760.73C227.7 760.98 220.69 763.52 222.45 765.11Z" fill="#1A1E30"/>
<path d="M338.8 758.63C335.59 763.6 344.49 757.91 345.65 757.62L357.69 754.74C355.04 750.86 340.23 756.4 338.8 758.62V758.63Z" fill="#1A1E30"/>
<path d="M323.68 749.33C326.63 748.57 328.2 745.92 331.29 744.91C334.36 743.91 338.03 744.18 341.1 743.11C339.3 739.96 333.65 741.66 330.69 742.65C327.77 743.62 323.32 745.65 323.69 749.33H323.68Z" fill="#1A1E30"/>
<path d="M331.15 754.31C331.72 754.83 343.32 748.88 345.78 749.45L348.57 747.68C346.2 745.02 328.5 751.88 331.15 754.31Z" fill="#1A1E30"/>
<path d="M285.51 730.23V726.72C295.85 727.69 305.64 725.22 316.07 724.62C318.78 724.47 322.94 725.58 325.73 725.35C326.76 726.5 327.3 736.58 327 736.87C326.81 737.06 322.92 736.74 321.67 736.94C310.41 738.79 312.64 749.88 298.74 747.29C297.21 747 286.02 742.32 285.64 741.72C284.77 740.32 285.98 732.59 285.5 730.23H285.51Z" fill="#F7B8A1"/>
<path d="M371.8 764.28C373.35 762.99 370.62 762.49 370.17 762.22C367.11 760.41 363.62 759.02 360.21 758.05C361.46 759.5 371.06 764.9 371.81 764.28H371.8Z" fill="#B6C8E9"/>
<path d="M358.94 756.81C358.4 757.09 358.4 757.36 358.94 757.64V756.81Z" fill="#B6C8E9"/>
<path d="M279.7 771.75C280.15 774.56 278.42 780.01 281.07 781.59C311.03 788.25 339.33 796.17 370.32 790.61C378.13 789.21 388.97 788.03 386.74 777.57C351.36 790.85 314.95 778.45 279.7 771.75Z" fill="white"/>
<path d="M180.95 790.85C182.12 792.06 204.83 797.74 208.48 798.59C227.76 803.06 248.56 805.9 268.24 801.4C274.67 799.93 278.94 797.48 276.78 790.01C244.18 800.68 211.78 791.03 180.54 780.87C179.83 780.86 179.71 789.57 180.94 790.85H180.95Z" fill="white"/>
<path d="M235.2 74.35L236.38 75.15C238.65 76.69 240.52 78.76 241.83 81.17L244 85.17C243.54 81.12 241.57 76.09 237.73 74.19C237.07 73.86 235.21 73.06 235.21 74.34L235.2 74.35Z" fill="#EE786F"/>
<path d="M245.35 368.57C243.82 368.48 242.21 368.52 240.68 368.64C239.94 370.6 240.13 372.65 239.93 374.65C239.8 375.94 240.09 381.79 238.84 382.14C232.42 380.93 225.27 381.49 218.96 380.74C217.59 392.2 213.46 404.82 207.07 414.5C206.62 415.18 203.72 420.31 202.73 419.29C202.06 418.6 211.84 404.93 211.85 402.37C215.24 396.1 215.44 388.81 217.42 382.2C217.77 381.02 217.17 380.44 218.97 380.73C213.79 380.12 203.48 378.65 198.68 377.35C193.11 377.27 195.51 379.63 195.35 382.41C195 388.58 193.39 395.87 192.79 402.12C192.66 403.43 193.37 405.49 193.27 407.43C193.22 408.4 193.04 411.72 191.24 411.16C191.22 411.84 191.25 412.51 191.24 413.19C193.47 412.36 193.23 418.61 191.24 419.28C191.24 419.51 191.24 419.73 191.24 419.96C191.41 426.04 190.66 430 190.54 435.21C190.36 443.13 191.49 452.03 189.21 459.19C188.94 460.03 189.31 462.09 189.21 463.25C191.71 467.07 188.54 472.51 188.52 475.75C188.45 489.53 188.21 503.22 187.88 517.05C187.82 519.38 187.16 523.19 186.5 525.48C186.72 534.38 186.31 543.32 186.53 552.22L185.15 566.73V567.41H256.17C260.08 545.58 264.45 523.8 268.13 501.93C269.32 494.84 270.13 488.19 271.13 481.93C272.86 470.97 274.79 460.03 276.09 449C276.37 447.11 278.44 447.46 279.77 446.62C282.07 445.17 282.98 444.72 285.25 443.64C286.18 441.29 287.7 440.44 288.63 438.24C285.96 437.62 282.01 436.41 281.19 433.5C280.96 433.37 280.23 433.68 279.8 433.07C278.5 431.23 279.8 418.05 279.84 414.57V384.13V383.45C275.6 383.49 277.53 383.86 276.43 384.77C275.13 385.84 275.08 383.71 274.96 383.64C273.92 382.97 259.98 383.59 257.15 383.48C253.18 383.32 248.87 382.17 244.66 382.78L245.34 368.57H245.35Z" fill="#304975"/>
<path d="M325.16 367.89C325.16 372.22 325.49 376.66 324.09 380.82C315.85 382.54 307.41 382.29 299.09 382.74C297.56 382.82 296.18 383.37 294.72 383.44L294.75 402.74C291.87 414.15 297.77 437.69 285.25 443.63C285 444.27 284.38 444.78 284.58 445.65C285.72 446.65 304.98 441.62 308.05 441.05C309.38 440.8 309.29 441.9 308.92 442.27C306.63 444.55 278.64 447.23 277.43 449C276.56 456.92 275.6 464.84 274.43 472.71C275.17 474.1 275.73 476.95 275.81 478.49C276.62 494.85 277.73 512.05 279.36 528.42C279.45 529.36 282.51 534.38 279.17 534.25C279.21 534.92 279.11 535.61 279.17 536.28C280.72 536.75 280.47 538.03 280.57 539.28C280.75 541.85 280.45 544.9 280.53 547.1C280.6 549.12 280.47 551.17 280.53 553.19C284.47 553.54 281.81 558.98 282.09 560.86C282.34 562.51 284.6 564.77 282.56 567.4H350.87L349.52 499.09C349.34 495.48 348.88 491.86 348.84 488.27C347.75 487.4 348.06 485.11 348.13 483.84C349.07 467.93 346.77 451.4 345.42 435.85C345.24 433.79 346.13 432.17 346.08 430.5C345.97 426.67 344.6 420.27 344.1 416.23C343.98 415.22 343.36 411.92 345.46 412.51C345.43 412.06 345.49 411.6 345.46 411.16C341.91 410.93 344.04 405.73 344 404.03C343.97 402.5 342.77 401.05 342.71 399.3C342.54 393.79 341.56 386.06 342.07 381.4C342.54 377.12 340.93 378.33 340.72 378.02L329.22 380.05V366.52C327.24 366.83 325.38 367.85 325.16 367.87V367.89Z" fill="#304975"/>
<path d="M274.43 472.73C275.6 464.86 276.56 456.94 277.43 449.02C278.64 447.25 306.63 444.56 308.92 442.29C309.29 441.92 309.37 440.83 308.05 441.07C304.98 441.64 285.72 446.67 284.58 445.67C284.38 444.8 285 444.28 285.25 443.65C282.99 444.72 282.07 445.18 279.77 446.63C278.44 447.47 276.37 447.12 276.09 449.01C274.78 460.05 272.86 470.98 271.13 481.94C270.14 488.2 269.33 494.86 268.13 501.94C264.44 523.81 260.08 545.6 256.17 567.42H258.2C262.86 537.35 269.13 507.54 273.76 477.46C273.99 475.94 274.2 474.29 274.44 472.73H274.43Z" fill="#192B48"/>
<path d="M279.84 383.45V384.13C279.76 394.26 279.95 404.43 279.84 414.57C279.8 418.05 278.5 431.24 279.8 433.07C280.23 433.68 280.96 433.38 281.19 433.5C280.69 431.73 280.51 428.65 280.51 426.74C280.51 417.57 281.19 408.26 281.19 399.01C281.19 397.43 281.19 395.85 281.19 394.28V390.9C281.19 388.88 281.19 386.84 281.19 384.81V383.46C280.74 383.47 280.29 383.46 279.84 383.46V383.45Z" fill="#192B48"/>
<path d="M281.189 433.5C282.009 436.42 285.959 437.62 288.629 438.24C287.699 440.44 286.179 441.3 285.249 443.64C297.769 437.7 291.869 414.16 294.749 402.75L294.719 383.45C294.499 383.46 294.269 383.44 294.039 383.45C293.349 400.64 292.979 417.91 291.149 435C290.639 439.77 283.829 434.95 281.189 433.5Z" fill="#192B48"/>
<path d="M280.52 553.22C280.66 557.71 281.8 562.69 281.2 567.42H282.55C284.59 564.79 282.33 562.53 282.08 560.88C281.8 559 284.46 553.57 280.52 553.21V553.22Z" fill="#293156"/>
<path d="M267.67 368.57C251.48 368.18 234.76 367.72 218.6 366.51C211.16 365.95 203.74 365.08 196.38 363.78C195.28 364.07 194.84 372.4 194.62 373.97C194.59 374.88 194.34 375.71 195.3 376L196.65 365.17L238.83 369.2L239.94 374.64C240.14 372.63 239.94 370.59 240.69 368.63C242.22 368.5 243.82 368.47 245.36 368.56C246.25 368.61 247.3 369.19 248.39 369.23C262.47 369.75 276.55 370 290.67 369.91L286.62 368.56C281.92 368.35 277.13 368.66 272.42 368.56C271.57 369.68 268.54 369.68 267.69 368.56L267.67 368.57Z" fill="#192B48"/>
<path d="M188.53 468.67C186.54 486.23 186.11 505.04 185.82 522.78C186.84 523.25 186.47 524.59 186.5 525.49C187.16 523.21 187.82 519.4 187.88 517.06C188.21 503.23 188.45 489.54 188.52 475.76C188.54 472.52 191.71 467.08 189.21 463.26C189.05 465.17 188.73 466.97 188.53 468.67Z" fill="#242A4D"/>
<path d="M191.24 411.18C193.04 411.73 193.22 408.42 193.27 407.45C193.37 405.5 192.66 403.45 192.79 402.14C193.39 395.89 195.01 388.6 195.35 382.43C195.51 379.64 193.1 377.28 198.68 377.37C198.6 377.35 198.35 376.46 197.52 376.15C196.69 375.84 195.79 376.16 195.29 376.01C194.34 375.73 194.58 374.89 194.61 373.98C192.9 386.14 191.58 398.78 191.23 411.18H191.24Z" fill="#293156"/>
<path d="M188.53 459.2H189.21C191.49 452.04 190.36 443.14 190.54 435.22C190.66 430.01 191.41 426.05 191.24 419.97C189.18 424.56 190.17 429.7 189.92 434.54C189.49 442.79 188.77 451.1 188.54 459.2H188.53Z" fill="#293156"/>
<path d="M185.83 534.28C185.83 539.3 186.4 545.05 185.15 549.84C185.15 555.47 185.15 561.12 185.15 566.75L186.53 552.24C186.32 543.33 186.72 534.39 186.5 525.5C186.48 524.61 186.84 523.26 185.82 522.79C185.76 526.61 185.82 530.47 185.82 534.29L185.83 534.28Z" fill="#1E2445"/>
<path d="M185.15 549.83C186.4 545.04 185.82 539.29 185.83 534.27C184.58 539.06 185.16 544.81 185.15 549.83Z" fill="#355386"/>
<path d="M191.24 413.21C191.2 415.16 191.18 417.07 191.24 419.3C193.23 418.63 193.47 412.38 191.24 413.21Z" fill="#293156"/>
<path d="M188.53 468.67C188.72 466.97 189.04 465.17 189.21 463.26C189.31 462.1 188.94 460.04 189.21 459.2H188.53C188.44 462.34 188.59 465.52 188.53 468.67Z" fill="#1E2445"/>
<path d="M267.67 368.57C268.52 369.69 271.55 369.69 272.4 368.57C270.82 368.54 269.24 368.61 267.67 368.57Z" fill="#1C2C44"/>
<path d="M298.1 369.24C297.31 372.94 298.18 379.01 296.07 379.16C295.74 377.06 295.24 376.69 295.4 374.65V373.97C295.44 373.53 295.37 373.06 295.4 372.62C293.94 370.72 294.37 370.18 292.02 369.24C291.6 369.07 290.74 368.58 290.67 368.56C289.48 368.37 287.91 368.62 286.61 368.56L290.66 369.91C276.54 370 262.46 369.75 248.38 369.23C247.29 369.19 246.24 368.61 245.35 368.56L244.67 382.77C248.88 382.17 253.19 383.32 257.16 383.47C259.99 383.58 273.93 382.96 274.97 383.63C275.08 383.7 275.13 385.83 276.44 384.76C277.54 383.85 275.61 383.48 279.85 383.44C280.3 383.44 280.75 383.45 281.2 383.44C282.21 383.41 283.4 383.47 284.58 383.44C287.72 383.36 290.92 383.59 294.05 383.44C294.27 383.43 294.5 383.45 294.73 383.44C296.19 383.37 297.57 382.82 299.1 382.74C307.42 382.28 315.85 382.54 324.1 380.82C325.5 376.66 325.16 372.22 325.17 367.89C317.01 368.91 306.68 369.09 298.12 369.24H298.1Z" fill="#1C2C44"/>
<path d="M340.709 362.48C347.259 358.89 345.159 347.03 344.079 340.49C343.919 339.53 344.039 338.23 342.559 338.33L292.669 340.43L291.779 368.99C307.449 369.04 334.739 366.61 340.029 362.48C340.229 362.4 340.539 362.57 340.709 362.48Z" fill="#F9E8DC"/>
<path d="M292.01 368.57V369.25C294.36 370.19 293.93 370.73 295.39 372.63C295.47 371.51 295.32 370.36 295.39 369.24C296.29 369.22 297.2 369.26 298.1 369.24C306.66 369.08 316.99 368.9 325.15 367.89C325.37 367.86 327.24 366.84 329.21 366.54C332.84 365.98 336.42 365.22 340.01 364.52C340.91 366.24 339.92 367.81 340.14 369.41C340.26 370.28 341.26 371.19 341.38 372.35C341.53 373.8 340.14 377.22 340.7 378.04C340.91 378.35 342.53 377.14 342.05 381.42H342.73C342.14 375.3 342.96 368.5 340.7 362.48C340.53 362.57 340.22 362.4 340.02 362.48C335.17 364.56 330.51 365.46 325.15 366.2C314.27 367.71 302.97 367.46 292 368.56L292.01 368.57Z" fill="#192B48"/>
<path d="M345.449 412.53C346.809 430.49 348.589 448.59 349.509 466.64C349.579 467.99 349.449 469.35 349.509 470.7C349.709 474.98 350.009 479.3 350.189 483.55C350.259 485.25 350.849 487.57 350.869 488.28C350.879 488.96 350.839 489.63 350.869 490.31C351.029 494.43 350.739 499.8 350.869 504.51C351.219 516.89 351.419 529.33 351.549 541.71C351.549 542.61 351.549 543.51 351.549 544.42C351.569 552.08 351.539 559.76 351.549 567.42H350.869L349.609 504.04C349.109 502.97 349.589 500.57 349.509 499.11C349.329 495.5 348.869 491.88 348.829 488.29C347.739 487.42 348.049 485.13 348.119 483.86C348.389 479.33 348.379 474.75 348.219 470.15C347.859 469.43 347.809 468.26 348.109 467.46C347.589 456.81 346.299 446.12 345.409 435.87C345.229 433.81 346.119 432.19 346.069 430.52C345.959 426.69 344.589 420.29 344.089 416.25C343.969 415.24 343.349 411.94 345.449 412.53Z" fill="#192B48"/>
<path d="M342.069 381.42H342.749C343.689 391.19 344.689 401.19 345.459 411.18C341.909 410.95 344.039 405.75 343.999 404.05C343.969 402.52 342.769 401.07 342.709 399.32C342.539 393.81 341.559 386.08 342.069 381.42Z" fill="#192B48"/>
<path d="M239.93 374.66L238.82 369.22L196.64 365.19L195.29 376.02C195.78 376.17 196.71 375.86 197.52 376.16C198.33 376.46 198.6 377.35 198.68 377.38C203.48 378.69 213.79 380.15 218.97 380.76C225.28 381.51 232.43 380.95 238.85 382.16C240.1 381.82 239.81 375.96 239.94 374.67L239.93 374.66Z" fill="#1C2C44"/>
<path d="M218.97 380.74C217.18 380.45 217.78 381.03 217.42 382.21C215.44 388.82 215.24 396.11 211.85 402.38C211.84 404.94 202.06 418.6 202.73 419.3C203.71 420.32 206.62 415.19 207.07 414.51C213.46 404.83 217.59 392.21 218.96 380.75L218.97 380.74Z" fill="#192B48"/>
<path d="M279.84 414.56C279.95 404.43 279.76 394.26 279.84 384.12V414.56Z" fill="#355386"/>
<path d="M329.21 366.54V380.07L340.71 378.04C340.15 377.22 341.54 373.79 341.39 372.35C341.27 371.2 340.26 370.28 340.15 369.41C339.94 367.8 340.92 366.24 340.02 364.52C336.43 365.23 332.84 365.98 329.22 366.54H329.21Z" fill="#1C2C44"/>
<path d="M273.75 477.46L279.16 534.27C282.5 534.4 279.45 529.38 279.35 528.44C277.72 512.07 276.61 494.86 275.8 478.51C275.72 476.97 275.16 474.12 274.42 472.73C274.19 474.29 273.98 475.94 273.74 477.46H273.75Z" fill="#242A4D"/>
<path d="M280.52 547.13C280.44 544.93 280.75 541.88 280.56 539.31C280.47 538.05 280.72 536.78 279.16 536.31C279.48 539.86 279.76 543.64 280.51 547.13H280.52Z" fill="#1E2445"/>
<path d="M323.13 288.08C330.94 286.91 347.59 283.44 354.58 283.98C358.57 284.29 360.98 286.84 358.98 290.78C359.37 290.85 359.47 291.29 359.66 291.46C360.16 291.9 360.18 292.64 360.34 292.81C361.02 293.56 362.9 292.36 362.34 296.47C361.86 300 359.16 300.79 358.31 302.27C358.21 302.44 358.3 303.74 357.63 304.98C357.48 305.25 357.62 306.21 357.25 306.94C355.12 311.29 350.89 315.28 346.13 316.47C346.26 317.38 345.58 317.52 345.45 317.82C345.37 318.02 345.54 318.33 345.45 318.5C343.02 322.96 323.3 329.54 317.87 330.49C308.35 332.17 300.64 330.22 291.34 330C289.71 332.74 286.75 335.04 284.91 337.44C284.39 338.12 283.6 338.3 283.9 339.47C312.85 338.65 341.61 337.31 370.46 335.74C393.49 309.31 415.46 281.96 437.77 254.93L438.11 252.91C410.51 252.84 382.95 251.47 355.4 251.69L323.13 288.07V288.08Z" fill="#FEFEFE"/>
<path d="M381.25 248.47C381.64 247.69 386.07 241.46 386.71 240.74C389.01 238.13 392.64 234.86 396.18 234.65C399.14 234.48 400.35 235.04 402.94 236C403.66 236.27 405.25 236.4 405.65 236.68C405.75 236.75 406.97 238.59 407 238.71C407.11 239.16 407.03 240.17 407 240.74C406.96 241.34 406.25 242.67 406.32 242.76C407.01 243.62 416.33 244.53 412.41 250.21V250.89C406.29 250.8 398.98 251.48 393.09 250.92C392.46 250.86 391.52 251.06 391.44 250.21C392.65 249.54 395.21 248.78 396.17 248.18C396.98 247.68 401.39 244.57 400.56 243.44C397.8 245.04 395.86 246.95 392.79 248.18C392.34 248.62 391.95 249.17 391.44 249.53C387.8 252.12 384.64 250.26 380.63 250.88C380.41 249.87 380.84 249.29 381.26 248.47H381.25Z" fill="#F9C3A6"/>
<path d="M392.789 248.18C392.339 248.62 391.949 249.17 391.439 249.53V250.21C392.649 249.54 395.209 248.78 396.169 248.18C396.979 247.68 401.389 244.57 400.559 243.44C397.799 245.04 395.859 246.95 392.789 248.18Z" fill="#EE786F"/>
<path d="M344.09 197.45C344.06 196.1 344.11 194.74 344.09 193.39C343.51 192.64 342.71 196.91 344.09 197.45Z" fill="#C4CFE8"/>
<path d="M331.24 275.91L333.27 273.88C332.7 274.49 332.62 273.9 331.24 275.91Z" fill="#F1EFED"/>
<path d="M329.21 277.26C329.13 277.64 329.34 278.47 329.21 278.61C329.79 277.85 330.34 276.85 330.56 276.58C330.13 276.71 329.58 277.21 329.21 277.26Z" fill="#F1EFED"/>
<path d="M329.209 278.61C329.079 278.75 326.579 280.03 326.029 280.85C325.699 281.34 325.879 281.92 325.829 281.99C327.339 281.22 328.219 279.9 329.209 278.61Z" fill="#F9E8DC"/>
<path d="M336.649 269.82L337.999 268.47C337.769 268.76 337.089 269.33 336.649 269.82Z" fill="#F1EFED"/>
<path d="M333.95 273.2L335.98 271.17C335.47 271.75 334.68 272.35 333.95 273.2Z" fill="#F1EFED"/>
<path d="M338.68 267.79L340.03 266.44C339.92 266.6 339.14 267.2 338.68 267.79Z" fill="#F1EFED"/>
<path d="M298.1 161.6C299.93 163.9 302.27 165.83 304.86 167.01C304.74 166.86 304.83 166.05 304.17 165.36C303.07 164.21 299.7 162.06 298.1 161.6Z" fill="#EDCDAF"/>
<path d="M269.69 164.98C268.99 164.35 264.61 160.73 264.26 160.56C260.72 158.93 258.61 164.62 257.3 166.1C255.99 167.58 252.32 168.74 252.8 171.74C255.46 170.51 260.89 161.57 263.28 161.57C264.43 161.57 275.19 172.64 277.82 173.77L279.17 175.12C279.65 175.59 280.06 175.98 280.52 176.47C281.58 177.6 283.46 178.89 283.9 180.53C284 180.89 283.84 181.45 283.9 181.88C286.91 192.89 287.86 204.65 288.63 216.04C289.62 230.7 290.12 245.95 290.69 260.65C291.08 270.69 291.17 280.73 291.34 290.78C291.8 290.56 292.24 290.33 292.69 290.1C291.08 256.89 291.09 223.46 287.17 190.45C287.45 187.19 284.79 182.43 284.58 179.85C284.56 179.66 284.55 179.19 284.58 179.17C281.32 174.4 276.15 171.72 271.97 168.11C271.17 167.42 270.52 165.72 269.7 164.97L269.69 164.98Z" fill="#EDCDAF"/>
<path d="M278.84 191.68C280.97 191.68 282.7 193.41 282.7 195.54C282.7 197.67 280.97 199.4 278.84 199.4C276.71 199.4 274.98 197.67 274.98 195.54C274.98 193.41 276.71 191.68 278.84 191.68Z" fill="#EDCDAF"/>
<path d="M280.99 234.24C282.94 234.24 284.52 235.82 284.52 237.77C284.52 239.72 282.94 241.3 280.99 241.3C279.04 241.3 277.46 239.72 277.46 237.77C277.46 235.82 279.04 234.24 280.99 234.24Z" fill="#EDCDAF"/>
<path d="M283.28 278.02C285.13 278.02 286.64 279.52 286.64 281.38C286.64 283.24 285.14 284.74 283.28 284.74C281.42 284.74 279.92 283.24 279.92 281.38C279.92 279.52 281.42 278.02 283.28 278.02Z" fill="#EDCDAF"/>
<path d="M185.15 173.78C188.12 175.65 189.15 176 191.91 178.51L196.99 181.88L196.64 180.54C196.41 180.32 196.19 180.08 195.96 179.86L194.61 178.51C194.4 178.28 194.15 178.07 193.93 177.83L192.58 176.48C192.36 176.41 192.07 176.56 191.9 176.48C190.67 175.86 186.5 172.44 186.15 172.44C185.87 172.44 185.27 173.36 185.14 173.78H185.15Z" fill="#EDCDAF"/>
<path d="M235.88 148.75C235.9 148.8 235.16 149.31 235.69 149.84L239.94 157.54C238.65 154.64 237.98 151.25 235.88 148.75Z" fill="#FEF8F6"/>
<path d="M239.93 152.81C239.12 150.67 239.19 150.32 237.9 148.08C237.9 149.84 238.6 151.63 239.93 152.81Z" fill="#FEF8F6"/>
<path d="M185.15 294.84C183.89 295.26 182.1 294.91 181.09 296.54C180.71 298.21 184.5 299.38 183.79 296.87C183.39 296.92 182.25 298.32 181.76 297.21L185.14 294.84H185.15Z" fill="#F1EFED"/>
<path d="M244.67 163.63C243.42 160.33 242.79 155.87 239.94 153.48C241.24 156.87 242.8 160.52 244.67 163.63Z" fill="#FEF8F6"/>
<path d="M235.2 141.99C235.28 140.51 235.2 138.81 233.85 137.93C233.6 139.66 234.65 140.71 235.2 141.99Z" fill="#FEF8F6"/>
<path d="M193.27 287.4L195.3 288.75C194.65 288.18 196.82 287.89 193.27 287.4Z" fill="#F1EFED"/>
<path d="M244.67 129.81L248.04 122.73L244.54 122.94C242.99 123.03 241.48 123.57 240.29 124.56C237.24 127.08 235.08 131.25 233.88 135.13C233.28 137.09 232.33 138.93 231.01 140.49L230.87 140.66C228.52 140.6 213.98 146.28 210.69 147.57C206.96 149.03 203.65 150.44 200.04 152.14C199.13 152.57 198.24 153.05 197.33 153.49C164.32 169.77 161.43 183.52 154.93 218.3C150.14 243.92 146.6 271.2 145.95 297.25C145.25 325.3 156.03 343.41 186.5 342.88C185.97 344.58 187.78 344.13 187.85 344.23C187.68 343.3 187.88 342.95 188.27 342.83C188.56 342.83 188.84 342.82 189.13 342.81C189.47 342.84 189.83 342.89 190.19 342.87C198.32 342.55 206.43 342.76 214.56 342.19C227.99 341.24 241.47 339.16 254.81 337.46C250.1 324.94 250.53 310.89 253.5 297.98C254.14 296.39 272.74 296.87 272.74 296.87C273.88 296.88 275.75 296.44 276.45 297.56C276.67 297.33 276.92 297.12 277.13 296.88C281.99 297.04 287.18 292.81 291.33 290.79C291.16 280.74 291.07 270.7 290.68 260.66C290.1 245.96 289.6 230.71 288.62 216.05C287.85 204.66 286.9 192.9 283.89 181.89C283.83 181.46 283.99 180.9 283.89 180.54C283.32 178.06 281.95 177.72 280.51 176.48C280.04 175.98 279.63 175.6 279.16 175.13C278.77 174.74 277.97 174.58 277.81 173.78C275.18 172.66 264.42 161.58 263.27 161.58C260.88 161.58 255.45 170.51 252.79 171.75C252.32 168.75 255.94 167.65 257.29 166.11C258.6 164.62 260.71 158.93 264.25 160.57C264.61 160.73 268.99 164.36 269.68 164.99C270.51 165.74 271.15 167.44 271.95 168.13C276.13 171.74 281.3 174.43 284.56 179.19C284.82 179.04 285.75 179.36 285.91 179.19C286.08 179 283.52 176.07 284.56 174.46C284.32 174.55 282.55 174.69 282.53 174.12C284.02 173.27 284.81 172.21 285.91 171.07C283.57 171.8 285.35 168.68 285.91 167.01L281.52 174.44C280.37 174.18 273.92 166.01 272.38 164.3C267.38 158.75 245.54 135.34 244.65 129.81M279.92 281.37C279.92 279.52 281.42 278.01 283.28 278.01C285.14 278.01 286.64 279.51 286.64 281.37C286.64 283.23 285.14 284.73 283.28 284.73C281.42 284.73 279.92 283.23 279.92 281.37ZM277.46 237.78C277.46 235.83 279.04 234.25 280.99 234.25C282.94 234.25 284.52 235.83 284.52 237.78C284.52 239.73 282.94 241.31 280.99 241.31C279.04 241.31 277.46 239.73 277.46 237.78ZM274.98 195.55C274.98 193.42 276.71 191.69 278.84 191.69C280.97 191.69 282.7 193.42 282.7 195.55C282.7 197.68 280.97 199.41 278.84 199.41C276.71 199.41 274.98 197.68 274.98 195.55ZM185.15 173.78C185.28 173.36 185.89 172.44 186.16 172.44C186.51 172.44 190.68 175.86 191.91 176.48C192.07 176.56 192.37 176.41 192.59 176.48L193.94 177.83C194.16 178.07 194.41 178.28 194.62 178.51C194.96 178.88 195.59 179.5 195.97 179.86C196.2 180.08 196.41 180.32 196.65 180.54L197 181.88L191.92 178.51C189.16 175.99 188.13 175.65 185.16 173.78H185.15Z" fill="#F9E8DC"/>
<path d="M200.71 184.6L200.75 184.67C200.75 184.67 200.77 184.71 200.77 184.73L200.7 184.6H200.71Z" fill="#F1EFED"/>
<path d="M200.77 184.73L201.38 185.95C201.02 185.6 200.87 185 200.77 184.73Z" fill="#F1EFED"/>
<path d="M236.55 145.37C236.31 144.74 236.41 144.39 235.87 143.34L236.55 145.37Z" fill="#FEF8F6"/>
<path d="M279.16 175.13L277.81 173.78C277.97 174.58 278.77 174.75 279.16 175.13Z" fill="#F1EFED"/>
<path d="M196.65 289.43C196.65 289.43 196.19 288.95 195.97 288.75L196.65 289.43Z" fill="#F1EFED"/>
<path d="M195.97 179.86C195.59 179.5 194.95 178.88 194.62 178.51L195.97 179.86Z" fill="#F1EFED"/>
<path d="M239.26 95.99C239.63 98.87 241.87 104.17 245.35 104.11C245.67 97.11 244.97 98.2 239.26 95.99Z" fill="#1F2A3F"/>
<path d="M342.059 263.39C343.849 263.17 345.049 260.86 346.129 259.68C347.769 257.88 353.069 250.84 354.719 250.35L378.819 250.24L379.949 247.51C379.609 247.9 378.249 249.51 378.119 249.55L373.749 243.35C371.839 240.65 370.539 237.57 369.919 234.32C368.549 227.13 365.139 212.87 362.369 204.9C362.139 204.23 361.929 203.54 361.689 202.87C360.329 199.02 359.039 194.29 357.629 190.7C357.069 189.26 356.699 187.65 356.279 186.64C354.869 183.25 350.949 176.23 348.839 173.11C348.709 172.92 346.619 170.32 346.129 169.73C339.139 161.19 318.639 150.51 307.899 148.1C307.169 147.94 305.619 147.97 304.079 148.12C303.689 147.22 303.269 146.31 302.839 145.39C301.919 143.44 301.579 141.82 300.149 139.62C299.639 138.83 289.789 127.74 289.449 130.48C289.079 132.06 287.699 139.41 286.179 140.29C286.019 140.38 292.219 140.56 292.019 140.64C293.139 150.31 288.849 158.36 285.929 167.02C285.439 168.49 284.009 171.07 285.249 171.18C285.219 171.54 285.179 171.93 284.749 172.33C284.529 172.57 284.659 174.42 284.569 174.46C283.539 176.07 286.099 179 285.919 179.19C285.759 179.37 284.819 179.05 284.569 179.19C284.539 179.21 284.549 179.68 284.569 179.87C284.789 182.45 287.449 187.21 287.159 190.47C291.079 223.48 291.079 256.91 292.679 290.12C293.609 289.66 294.909 289.34 296.059 288.77C310.149 281.81 312.759 279.32 329.199 277.27C329.569 277.22 330.119 276.73 330.549 276.59C330.749 276.35 331.059 276.16 331.229 275.91C332.609 273.9 332.689 274.49 333.259 273.88C333.479 273.65 333.719 273.45 333.939 273.2C334.669 272.35 335.459 271.76 335.969 271.17C336.259 270.84 336.359 270.13 336.649 269.82C337.099 269.32 337.769 268.76 337.999 268.47C338.189 268.23 338.479 268.05 338.679 267.79C339.139 267.19 339.929 266.6 340.029 266.44C340.379 265.91 340.479 265.65 340.709 265.09M304.869 167.01C305.119 167.13 305.459 167.18 305.839 167.24C306.089 167.94 306.249 168.4 306.229 168.36C305.999 168.06 305.339 167.56 304.879 167.01H304.869ZM298.299 161.67C299.969 162.24 303.109 164.26 304.169 165.37C304.829 166.06 304.739 166.87 304.859 167.02C302.989 166.17 300.329 163.8 298.299 161.68V161.67ZM295.409 159.23C295.659 158.7 296.039 158.56 297.129 159.55C297.799 160.16 297.869 160.91 297.989 161.34C297.339 160.64 296.759 159.98 296.319 159.42C295.979 159.32 295.679 159.26 295.409 159.22V159.23ZM291.149 166.49C291.209 166.44 291.279 166.38 291.329 166.33C291.389 166.12 291.439 165.91 291.499 165.7C291.499 165.99 291.449 166.22 291.329 166.33C291.299 166.42 291.239 166.47 291.149 166.49ZM287.279 169.72C287.279 169.72 287.369 169.63 287.419 169.58C287.379 169.64 287.339 169.69 287.279 169.72Z" fill="#F9E8DC"/>
<path d="M291.34 166.34C291.86 165.86 292.32 165.32 292.69 164.99L292.01 164.31C291.63 164.99 291.54 165.63 291.33 166.34H291.34Z" fill="#EDCDAF"/>
<path d="M287.96 169.04L287.28 169.72C286.85 170.14 286.35 170.64 285.93 171.07C284.83 172.21 284.04 173.26 282.55 174.12C282.57 174.69 284.34 174.55 284.58 174.46C284.67 174.43 285.71 173.34 285.93 173.11C288.33 170.53 287.18 171.79 289.31 170.4C289.41 170.33 289.53 168.46 290.66 168.37C290.69 167.53 291.15 166.99 291.34 166.34C290.56 167.05 289.3 167.77 287.96 169.05V169.04Z" fill="#EDCDAF"/>
<path d="M383.999 240.74C388.339 233.27 391.939 224.88 396.849 217.74C399.559 213.8 403.779 217.35 403.619 220.04C403.449 222.98 397.549 230.78 396.169 233.97C396.129 234.21 396.239 234.5 396.169 234.65C392.629 234.86 388.999 238.12 386.699 240.74C385.429 241.68 383.709 243.36 383.989 240.74H383.999Z" fill="#161827"/>
<path d="M298.099 369.24C297.199 369.26 296.289 369.22 295.389 369.24C295.329 370.36 295.479 371.51 295.389 372.63C295.359 373.08 295.429 373.54 295.389 373.98C295.369 374.2 295.409 374.43 295.389 374.66C295.239 376.69 295.049 381.12 295.389 383.22C301.209 384.18 297.309 372.94 298.099 369.25V369.24Z" fill="#304975"/>
<path d="M295.399 374.66C295.419 374.44 295.379 374.21 295.399 373.98V374.66Z" fill="#161827"/>
<path d="M281.19 399V394.27V390.89V384.8V383.45C282.2 383.42 283.39 383.48 284.57 383.45C287.71 383.37 290.9 383.6 294.04 383.45C293.35 400.64 292.98 417.91 291.15 435C290.64 439.77 283.83 434.95 281.19 433.5C280.69 431.73 280.51 428.65 280.51 426.74C280.51 417.57 281.19 408.26 281.19 399.01V399Z" fill="#304975"/>
<path d="M189.21 345.57C194.45 343.37 200.27 344.55 205.77 344.21C224.49 343.07 243.91 341.04 262.39 337.93C264.43 337.59 276.38 335.71 277 335.31C277.78 334.8 278.08 331.6 277.13 330.69H279.16C282.3 330.69 285.5 330.82 288.63 330.69C288.48 331.45 287.58 331.68 287.28 332.04C286.53 332.92 283.27 339.06 283.18 339.48C282.99 340.33 283.49 339.56 283.83 340.21C283.88 340.31 284.46 339.93 286.81 340.28C288.81 340.58 290.17 341.03 292.01 340.21C293.24 342.91 292.04 346.18 292.01 348.45C291.93 354.92 291.98 362.81 291.2 369.23C282.53 369.01 272.58 368.16 263.91 367.91C245.74 367.41 224.46 366.67 206.53 364.42C198.88 363.46 194.91 363.92 191.23 356.39C191.09 356.11 190.81 355.03 190.55 354.36C189.26 351.05 189.31 348.37 188.52 345.57H189.2H189.21Z" fill="#F9E8DC"/>
<path d="M254.81 333.4C254.74 332.97 254.88 332.48 254.81 332.05C251.38 328.17 252.74 299.03 254.9 297.64L275.78 298.23C274.47 299.17 272.71 299.5 273.07 300.94C271.73 309.64 270.69 316.21 272.88 325.14C273.33 326.97 274.86 329.39 275.1 330.7H275.78L276.46 334.08L256.55 337.48C256.04 337.43 254.94 334.15 254.81 333.41V333.4Z" fill="#F9E8DC"/>
<path d="M325.829 298.9C325.739 299.01 325.889 299.34 325.829 299.58C326.489 300.85 328.199 300.13 329.229 299.95C339.709 298.18 349.819 294.49 360.319 292.81C360.159 292.64 360.139 291.9 359.639 291.46L325.819 298.9H325.829Z" fill="#EE786F"/>
<path d="M322.449 322.58C322.389 322.69 322.389 323.81 322.449 323.93L345.449 317.84C345.579 317.53 346.249 317.4 346.129 316.49L322.459 322.58H322.449Z" fill="#EE786F"/>
<path d="M272.89 325.13C273.34 326.96 274.87 329.38 275.11 330.69H275.79H277.14H279.17C282.31 330.69 285.51 330.82 288.64 330.69C289.1 330.67 289.14 329.96 291.35 330.01C300.65 330.23 308.36 332.18 317.88 330.5C323.3 329.54 343.02 322.97 345.46 318.51C345.55 318.34 345.38 318.03 345.46 317.83L322.46 323.92C322.4 323.79 322.4 322.67 322.46 322.57L346.13 316.48C350.89 315.29 355.12 311.3 357.25 306.95C357.61 306.21 357.48 305.26 357.63 304.99C358.29 303.75 358.21 302.45 358.31 302.28C359.16 300.79 361.86 300.01 362.34 296.48C362.9 292.36 361.02 293.56 360.34 292.82C349.84 294.5 339.73 298.18 329.25 299.96C328.21 300.14 326.5 300.86 325.85 299.59C325.91 299.35 325.76 299.02 325.85 298.91L359.67 291.47C359.49 291.31 359.38 290.87 358.99 290.79C360.99 286.85 358.58 284.3 354.59 283.99C347.6 283.45 330.96 286.92 323.14 288.09C320.23 288.53 313.85 290.43 311.64 290.12C313.38 287.63 317.94 288.39 320.43 287.41C323.07 286.37 324.37 283.87 325.84 282C325.9 281.93 325.71 281.35 326.04 280.86C326.59 280.04 329.09 278.76 329.22 278.62C329.35 278.48 329.14 277.65 329.22 277.27C312.78 279.32 310.17 281.81 296.08 288.77C294.93 289.34 293.63 289.66 292.7 290.12C292.25 290.35 291.81 290.57 291.35 290.8C287.19 292.82 282.01 297.05 277.15 296.89C276.94 297.13 276.7 297.34 276.47 297.57C276.25 297.79 276.04 298.07 275.79 298.25C274.48 299.19 272.72 299.52 273.08 300.96C271.74 309.66 270.7 316.23 272.89 325.16V325.13ZM357.62 302.97C356.54 304.72 353.01 305.59 351 306.15C343.19 308.31 334.54 309.09 326.76 311.68C325.02 312.07 326.02 310.52 326.51 309.73L357.62 302.97Z" fill="#F7B8A1"/>
<path d="M223.03 37.15C224.87 31.4 229.03 25.37 234.52 22.6C236.31 21.69 241.38 20.41 241.8 20.07C242.31 19.65 242.71 17.7 243.32 16.86C243.68 16.36 243.81 15.75 244 15.51C251.55 5.37996 260.24 6.66996 271.22 5.18996C275.25 4.64996 280.11 2.29996 284.29 1.35996C298.21 -1.78004 310.31 0.149964 319.75 11.46C324.76 9.53996 328.19 11.04 331.92 14.17C332.16 14.37 332.38 14.62 332.6 14.85C338.31 20.88 336.57 29.06 331.81 35.36C330.77 36.74 327.26 39.37 327.18 39.67C326.43 42.44 327.15 47.71 326.07 51.93C325.33 54.83 322.77 58.52 322.46 60.16H321.78C321.89 59.55 321.62 58.62 321.78 58.13C316.85 57.3 311.93 56.45 306.9 56.78C306.85 54.87 307.09 54.19 308.25 52.72C312.08 50.11 313.77 46.38 316.06 50.38C318.14 50.55 318.73 51.33 318.73 51.05L321.1 44.27C321.1 44.02 320.21 43.25 320.42 42.57C315.83 44.11 310.02 44.36 305.18 43.95C302.02 43.69 300.63 42.62 298.1 41.9C296.57 41.46 293.89 41.43 292.01 40.55C291.58 40.35 291.09 40.09 290.66 39.87C287.6 35.22 283.11 38.19 278.81 38.51C273.66 38.89 266.3 38.44 262.25 35.14C260.88 35.28 262.82 40.94 262.91 42.25C263.47 49.76 261.9 54.5 257.2 60.21C256.54 61.01 254.94 61.36 254.79 61.99C253.91 65.67 255.94 75.35 249.39 75.04C249.15 75.03 248.86 75.1 248.71 75.04C248.73 72.08 243.65 65.97 241.27 64.89C236.73 62.84 232.73 65.15 229.1 67.6C228.87 66.87 226.14 63.75 225.39 62.18C221.69 54.34 220.35 45.47 223.01 37.17L223.03 37.15Z" fill="#192B48"/>
<path d="M284.09 69.73C278.45 68.07 278.65 76.67 282.91 77.09C286.76 77.46 287.03 70.6 284.09 69.73Z" fill="#1F2A3F"/>
<path d="M310.44 69.7899C308.54 71.7099 309.78 76.9699 313.04 76.7599C318.54 74.8399 314.03 66.1499 310.44 69.7899Z" fill="#1F2A3F"/>
<path d="M285.25 105.46C284.33 105.6 284.79 106.47 285.25 106.81C289.22 109.79 302.65 111.53 304.86 105.46C301.65 106.79 299.63 108.84 295.8 108.76C292.51 108.69 286.63 105.25 285.25 105.45V105.46Z" fill="#EE786F"/>
<path d="M292.01 132.52C292.23 132.52 292.46 132.52 292.69 132.52C318.24 132.44 321.55 101.43 322.48 82.16C322.78 75.85 321.4 65.7 322.45 60.15H321.77C322.36 57.87 321.09 54.4 321.09 54.4V44.25C321.09 44 320.2 43.23 320.41 42.55C315.82 44.09 310.01 44.34 305.17 43.93C302.01 43.67 300.62 42.6 298.09 41.88C296.56 41.44 293.88 41.41 292 40.53C291.57 40.33 291.08 40.07 290.65 39.85C287.59 35.2 283.1 38.17 278.8 38.49C273.65 38.87 266.29 38.42 262.24 35.12C260.87 35.26 262.81 40.92 262.9 42.23C263.46 49.74 261.89 54.48 257.19 60.19C256.53 60.99 254.93 61.34 254.78 61.97C253.9 65.65 255.93 75.33 249.38 75.02C249.14 75.01 248.85 75.08 248.7 75.02C248.72 72.06 243.64 65.95 241.26 64.87C236.72 62.82 232.72 65.13 229.09 67.58C229.14 67.74 229.11 68.05 229.09 68.26C228.95 70.09 226.19 73.08 225.77 76.1C224.28 86.86 230.23 92.51 239.24 95.99C244.95 98.2 245.64 97.1 245.33 104.11C245.05 110.4 244.49 116.64 244.65 123.05C244.7 125.14 244.35 127.92 244.65 129.81C245.54 135.34 267.38 158.75 272.38 164.3C273.92 166.01 280.37 174.18 281.52 174.44L285.91 167.01C288.82 158.35 293.12 150.31 292 140.63C291.84 140.7 291.56 140.59 291.32 140.63C290.8 140.72 290.27 140.75 289.73 140.73C290.27 140.74 290.8 140.71 291.32 140.63C286.84 139.72 283.32 137.56 279.15 135.9C278.3 135.2 277.19 134.05 276.44 133.19C273.84 131.73 271.39 130.21 269 128.46C267.58 125.88 264.66 125.2 263.59 122.37C263.68 122.27 263.5 121.72 263.59 121.69C264.51 121.45 265.49 121.95 266.3 122.37C266.52 122.48 266.72 122.89 266.98 123.05M266.99 123.05C270.13 124.93 272.94 127.38 276.46 129.14C281.46 130.35 286.82 132.36 292.02 132.52M284.09 69.73C287.03 70.6 286.77 77.46 282.91 77.09C278.64 76.68 278.44 68.08 284.09 69.73ZM310.44 69.79C314.03 66.15 318.54 74.84 313.04 76.76C309.78 76.97 308.54 71.71 310.44 69.79ZM235.2 74.35C235.2 73.06 237.06 73.87 237.72 74.2C241.56 76.1 243.53 81.13 243.99 85.18L239.83 77.51L235.2 74.36V74.35Z" fill="#F7B8A1"/>
<path d="M287.279 169.72L287.959 169.04C287.729 169.26 287.509 169.5 287.279 169.72Z" fill="#FDF7F5"/>
<path d="M326.509 309.72C326.019 310.51 325.029 312.07 326.759 311.67C334.529 309.08 343.189 308.3 350.999 306.14C353.019 305.58 356.539 304.71 357.619 302.96L326.509 309.72Z" fill="#EE786F"/>
<path d="M263.61 122.37C263.7 122.27 263.52 121.72 263.61 121.69C264.53 121.45 265.51 121.95 266.32 122.37C266.54 122.48 266.74 122.89 267 123.05C269.69 124.66 272.15 126.7 275.01 128.35C275.89 128.86 276.85 129.22 277.83 129.48C282.44 130.69 287.3 132.37 292.03 132.52C292.25 132.52 292.48 132.52 292.71 132.52C292.71 132.52 294.58 137.79 292.11 140.56C291.98 140.71 291.77 140.79 291.57 140.79C281.4 140.54 264.88 128.19 263.62 122.38" fill="#EE786F"/>
<path d="M198.68 184.6C198.71 184.69 198.7 184.79 198.68 184.89C198.65 185.11 198.72 185.32 198.87 185.48L199.82 186.43C199.98 186.59 200.05 186.81 200.01 187.02C199.99 187.12 199.98 187.22 200.01 187.31C201.57 188.37 202.86 191.53 203.39 193.4C203.45 193.61 203.33 193.87 203.39 194.08C204.51 194.75 204.52 195.95 204.83 197.03C209.35 212.91 207.1 232.11 205.33 248.44C204.05 260.28 201.91 272.07 200.22 283.85C200.09 284.73 201.42 284.97 201.59 284.1C201.72 283.43 201.73 282.66 201.83 282.14C205.98 260.56 211.31 222.37 207.25 201.38C206.24 196.18 204.26 193.11 202.71 188.67C202.67 188.55 202.7 188.41 202.71 188.26C202.72 188.11 202.68 187.95 202.59 187.83L201.35 185.97C200.9 185.53 200.78 184.71 200.67 184.62C200.31 184.31 198.08 182.46 197.97 182.59C197.66 183.6 198.41 183.98 198.64 184.62L198.68 184.6Z" fill="#EDCDAF"/>
<path d="M191.91 287.4C184.95 286.43 180.76 287.34 174.33 290.11C175.45 291.96 178.77 289.43 180.4 289.07C187.39 287.52 193.31 287.38 198.68 292.8C193.78 292.14 190.27 293.44 185.83 294.84C185.62 294.9 185.36 294.77 185.15 294.84L181.77 297.21C182.26 298.32 183.39 296.92 183.8 296.87C184.02 296.84 184.26 296.91 184.48 296.87C187.58 294.49 192.4 293.87 196.2 293.74C209.94 293.3 226.87 296 240.96 296.86C242.96 296.98 253.25 296.27 253.51 297.96C250.54 310.87 250.11 324.92 254.82 337.44C241.48 339.14 228 341.23 214.57 342.17C206.44 342.74 198.32 342.53 190.2 342.85C188.9 342.9 187.49 342.15 187.86 344.2C187.9 344.26 188.52 345.48 188.54 345.55H189.22C194.46 343.35 200.28 344.53 205.78 344.19C224.5 343.05 243.92 341.02 262.4 337.91C264.44 337.57 276.39 335.69 277.01 335.28C277.79 334.77 278.09 331.57 277.14 330.66H275.79L276.47 334.04L256.56 337.44C256.05 337.39 254.95 334.11 254.82 333.37C254.75 332.94 254.89 332.45 254.82 332.02C251.39 328.14 252.75 299 254.91 297.61L275.79 298.2C276.03 298.02 276.25 297.74 276.47 297.52C275.77 296.4 273.9 296.85 272.76 296.83C252.28 296.57 229.62 295.26 209.18 293.45C206.44 293.21 200.72 293.12 199.37 291.43C199.18 291.2 198.87 291.02 198.69 290.75L197.34 289.4C197.16 289.31 196.85 289.49 196.66 289.4L195.98 288.72C195.86 288.61 195.43 288.83 195.3 288.72L193.27 287.37C192.83 287.31 192.35 287.43 191.92 287.37L191.91 287.4Z" fill="#EDCDAF"/>
<path d="M235.88 147.4C236 147.75 235.76 148.4 235.88 148.75C237.98 151.25 238.65 154.64 239.94 157.54C240.98 159.87 246.99 173.79 247.71 174.45C250.07 176.61 252.88 173.17 252.11 172.42C251.25 171.58 249.18 174.77 248.74 174.44C247.37 170.85 246.04 167.22 244.67 163.62C242.8 160.51 241.24 156.86 239.94 153.47C239.86 153.27 240.01 152.99 239.94 152.79C238.61 151.61 237.92 149.81 237.91 148.06C237.73 147.74 237.18 147.85 237.23 146.71L236.55 146.03C236.45 145.97 236.63 145.56 236.55 145.35L235.87 143.32C235.63 142.85 235.41 142.47 235.19 141.97C234.64 140.69 233.58 139.64 233.84 137.91H233.16C233.07 138.35 232.37 138.48 232.59 140.06C232.93 142.51 235.08 145.09 235.87 147.38L235.88 147.4Z" fill="#EDCDAF"/>
<path d="M302.84 145.37C306.39 152.91 308.62 159.73 308.24 168.37C307.23 167.14 305.65 167.38 304.86 167.02C305.32 167.57 305.98 168.08 306.21 168.37L309.59 169.72C309.64 163.54 309.01 155.73 306.73 149.93C306.02 148.11 305.14 145.54 302.83 145.38L302.84 145.37Z" fill="#EDCDAF"/>
<path d="M298.1 161.6C297.87 161.31 297.97 160.31 297.13 159.55C295.04 157.66 295.55 159.87 294.64 161.16C293.83 162.3 292.71 163.07 292.02 164.31L292.7 164.99C294.83 163.11 294.74 160.64 298.11 161.61L298.1 161.6Z" fill="#EDCDAF"/>
<path d="M282.149 338.77C282.239 338.36 286.539 332.93 287.279 332.04C287.579 331.68 288.479 331.45 288.629 330.69C289.089 330.67 289.129 329.96 291.339 330.01C289.709 332.75 286.749 335.05 284.909 337.45C284.389 338.13 283.599 338.31 283.899 339.48C312.849 338.66 341.609 337.32 370.459 335.75C393.489 309.32 415.459 281.97 437.769 254.94L438.109 252.92C410.509 252.85 382.949 251.48 355.399 251.7L323.129 288.08C320.219 288.52 313.839 290.42 311.629 290.11C313.369 287.62 317.929 288.38 320.419 287.4C323.059 286.36 324.359 283.86 325.829 281.99C327.339 281.22 328.219 279.9 329.209 278.61C329.789 277.85 330.339 276.85 330.559 276.58C330.759 276.34 331.069 276.15 331.239 275.9L333.269 273.87C333.489 273.64 333.729 273.44 333.949 273.19L335.979 271.16C336.269 270.83 336.369 270.12 336.659 269.81L338.009 268.46C338.199 268.22 338.489 268.04 338.689 267.78L340.039 266.43L342.199 263.35C343.909 263.03 345.079 260.82 346.129 259.67C347.769 257.87 353.069 250.83 354.719 250.34L378.819 250.23L379.949 247.5C380.149 247.27 380.449 247.09 380.629 246.82C381.739 245.17 382.899 242.65 384.009 240.73C383.719 243.35 385.439 241.67 386.719 240.73C386.079 241.46 381.659 247.69 381.259 248.46C380.849 249.28 380.409 249.86 380.629 250.87C384.639 250.25 387.809 252.11 391.439 249.52V250.2C391.509 251.05 392.449 250.85 393.089 250.91C398.979 251.47 406.299 250.78 412.409 250.88C420.869 251.01 429.299 251.19 437.749 251.57L439.839 252.91L439.879 254.28C418.179 282.28 394.839 308.95 372.459 336.4C364.239 339.14 354.989 337.22 346.479 338.83L293.349 340.83H291.999H283.199C282.849 340.18 281.939 339.61 282.129 338.76L282.149 338.77Z" fill="#9FAFDB"/>
<path d="M299.16 72.2699C298.96 76.5599 299.05 80.1699 300.32 84.2899C301.11 86.8399 306.16 93.9499 305.9 94.8599C305.46 96.3899 294.5 98.3199 296.46 99.9899C300.89 99.7299 305.28 97.7199 308.62 94.8999C304.46 89.4999 301.65 85.5499 300.59 78.6099C300.49 77.9499 300.94 69.9299 299.16 72.2699Z" fill="#EE786F"/>
<path d="M284.96 106.09C284.18 106.83 286.22 108.29 286.76 108.68C290 111.02 294.74 111.84 298.64 111.32C300.46 111.08 306.89 109.86 304.89 107.43C301.08 109.38 297.07 110 292.79 109.41C290.75 109.13 285.27 105.8 284.96 106.09Z" fill="#EE786F"/>
<path d="M314.68 58.4399C314.68 58.4399 315.2 58.5699 315.79 58.7099C316.71 58.9299 317.59 58.2199 317.56 57.2799C317.56 57.2699 317.56 57.2599 317.56 57.2499C317.54 56.5599 317.03 55.9799 316.35 55.8699L315.26 55.6999C315.26 55.6999 315.19 55.6899 315.15 55.6799C313.57 55.3199 313.48 55.2099 311.58 55.3299C309.56 55.4499 304.08 55.7199 304.08 58.0899C304.08 61.2199 308.63 58.6699 310.55 58.4199C312.58 58.1499 313.48 58.5799 314.68 58.4399Z" fill="#29345C"/>
<path d="M273.69 63.17C274.07 63.57 279.48 60.71 280.83 60.51C282.34 60.29 290.82 61.33 288.56 57.77C287.21 55.65 272.69 57.23 273.7 63.17H273.69Z" fill="#29345C"/>
<path d="M293.349 340.84C293.209 350.09 293.989 359.47 291.999 368.57V369.25C291.579 369.08 290.719 368.59 290.649 368.57L292.009 340.84H293.359H293.349Z" fill="#EDCDAF"/>
<path d="M341.949 263.5L340.189 266.12C340.349 265.83 340.449 265.59 340.599 265.2C342.829 259.63 342.279 244.03 342.639 237.14C343.319 224.04 344.289 210.77 343.989 197.57C343.959 196.22 344.009 194.86 343.989 193.51C345.109 194.21 344.669 196.08 344.679 197.22C344.909 219.38 344.449 241.53 341.949 263.51V263.5Z" fill="#EDCDAF"/>
<path d="M374.979 239.97C373.169 239.69 371.319 240.14 369.839 241.22C369.119 241.75 368.429 242.29 368.009 242.83C367.289 243.74 364.709 249.6 365.859 250.26C366.569 250.67 377.819 250.57 378.909 250.28C379.039 250.25 379.629 248.51 379.959 248.13C380.159 247.9 381.109 246.33 381.279 246.08C381.089 242.24 378.379 240.48 374.989 239.96L374.979 239.97Z" fill="#F9C3A6"/>
<path d="M351.53 567.42L335.31 720.99H276.46L282.55 567.42H351.53Z" fill="#304975"/>
<path d="M256.17 567.42L238.93 720.99H180.08L186.16 567.42H256.17Z" fill="#304975"/>
<path d="M338.64 710.97C332.38 712.37 303.45 718.21 275.77 713.56C275 713.43 274.32 714.09 274.44 714.86C275.34 720.58 276.78 726.87 277.28 728.98C277.39 729.43 277.75 729.77 278.21 729.84C282.09 730.44 300.93 732.8 336.66 728.64C337.09 728.59 337.46 728.3 337.61 727.9C340.29 720.7 340.21 714.58 340.01 711.99C339.96 711.3 339.3 710.81 338.62 710.97H338.64Z" fill="#264173" stroke="#192B48" stroke-width="2" stroke-miterlimit="10"/>
<path d="M240.08 712.9C233.82 714.3 204.89 720.14 177.21 715.49C176.44 715.36 175.76 716.02 175.88 716.79C176.78 722.51 178.22 728.8 178.72 730.91C178.83 731.36 179.19 731.7 179.65 731.77C183.53 732.37 202.37 734.73 238.1 730.57C238.53 730.52 238.9 730.23 239.05 729.83C241.73 722.63 241.65 716.51 241.45 713.92C241.4 713.23 240.74 712.74 240.06 712.9H240.08Z" fill="#264173" stroke="#192B48" stroke-width="2" stroke-miterlimit="10"/>
<path d="M351.64 567.4L337.37 711.04L335.38 710.84L350.73 567.3L351.64 567.4Z" fill="#192B48"/>
<path d="M282.85 567.4L277.26 713.4L276.26 713.36L281.09 567.34L282.85 567.4Z" fill="#293156"/>
<path d="M257.11 567.42L240.08 712.9" stroke="#192B48" stroke-width="2" stroke-miterlimit="10"/>
<path d="M185.15 566.74L180.28 715.96" stroke="#192B48" stroke-width="2" stroke-miterlimit="10"/>
</g>
<defs>
<clipPath id="clip0_219_720">
<rect width="533.98" height="839.08" fill="white"/>
</clipPath>
</defs>
</svg>
