<svg width="848" height="653" viewBox="0 0 848 653" fill="none" xmlns="http://www.w3.org/2000/svg">
<g clip-path="url(#clip0_219_844)">
<path d="M278.37 652.95C432.109 652.95 556.74 633.882 556.74 610.36C556.74 586.838 432.109 567.77 278.37 567.77C124.63 567.77 0 586.838 0 610.36C0 633.882 124.63 652.95 278.37 652.95Z" fill="#F0F2FA"/>
<path d="M749.23 258.63C763.82 258.41 777.98 254.32 791.5 249.25C799.95 246.08 825.21 237.77 804.32 230.42C779.54 221.71 750.04 228.22 749.23 258.62V258.63Z" fill="#FFFCFB"/>
<path d="M330.98 165.59L335.25 170.71C338.84 175.74 341 179.59 343.79 185.22C350.12 198.02 355.52 211.54 361.72 224.48C360.07 226.83 363.68 231.11 364.88 233.7C365.08 234.13 365.95 237.53 366.84 235.58C367.7 237.26 370.65 239.86 370.16 241.8C369.75 243.44 366.04 245.35 364.62 246.63C363.69 247.47 363.55 249.11 363.42 249.23C361.39 251.05 353.9 255.28 350.62 257.77C342.6 260.54 331.52 270.51 323.31 271.43C321.9 271.59 320.41 271.58 319.08 270.98C316.44 269.79 305.32 250.56 303.24 246.69C298.83 238.5 294.56 224.89 289.9 218.2C289.5 217.62 289.14 216.76 288.33 216.79C287.28 223.13 293.42 230.93 294.24 236.05C295.17 241.83 292.76 250.41 292.55 256.45C291.65 282.28 292.69 297.88 306.74 320L325.87 344.83C326.26 346.55 327.49 349.85 327.58 350.81C327.75 352.61 326.92 353.77 325.87 355.08C318.99 359.7 315.63 364.01 307.09 367.88C299.16 371.48 290.21 374.45 281.48 374.71C274.43 341.54 269.1 259.73 243.48 238.16C228.07 225.19 194.33 223.51 174.79 224.48C176.07 211.48 178.23 198.65 181.62 186.07C187.54 164.12 195.65 155.82 214.91 144.24C214.91 144.24 225.14 136.93 237.96 133.14C242.09 132.14 246.49 130.72 250.76 130.58C263.41 130.17 286.93 137.08 298.56 142.53C298.79 142.64 299.18 142.42 299.41 142.53C305.51 145.47 315.94 152.71 321.6 157.04L330.99 165.58M287.87 215.1V215.95C288.42 215.67 288.42 215.38 287.87 215.1Z" fill="#EB5F5D"/>
<path d="M363.41 249.24L377.18 272.21C384.17 270.35 391.26 268.62 398.2 266.53C407.77 263.65 413.6 259.15 424.34 260.42C434.85 261.66 444.69 269.26 451.8 276.59C465.32 269.44 478.77 268.78 491.72 277.54C495.04 279.79 503.97 288.6 505.95 291.91C507.19 293.98 509.41 299.18 507.66 301.3C505.81 301.23 503.34 302.37 500.42 302.16C493.44 301.65 487.84 297.31 480.05 298.91C478.74 299.18 478.23 300.27 477.78 300.45C475.1 301.52 474.07 301.71 471.8 303.86C471.51 304.14 471.22 304.41 470.95 304.71C468.86 304.98 465.12 306.42 462.54 307.01C461.03 307.36 459.35 306.57 459.85 308.98C453.77 308.92 448.63 308.74 442.78 309.83C427.52 312.68 412.18 319.78 396.03 322.4C380.11 324.99 365.35 327.82 353.11 315.41C350.04 312.3 348.43 306.97 343.76 306.41L345.46 305.14C344.95 303.9 342.69 302.23 342.05 301.29C339.92 298.15 326.21 276.28 326.73 274.52C332.24 270.21 338.78 267.17 344.42 263.1C346.31 261.74 348.66 259.21 350.58 257.76C353.87 255.27 361.35 251.04 363.38 249.22L363.41 249.24ZM442.8 280.82C444.8 278.74 432.47 272.99 430.9 272.67C428.57 272.19 425.01 271.95 422.7 272.26C422.07 272.34 417.41 273.82 417.19 274.02C414.37 276.6 421.44 274.91 421.79 274.94C426.49 275.34 433.23 276.61 437.17 279.24C439.4 280.73 437.43 282.64 442.8 280.83V280.82ZM431.7 285.08C431.46 283.64 430.04 283.55 428.95 283.14C418.78 279.28 407.71 281.36 397.09 280.85C392.8 280.65 388.18 279.41 383.63 279.8L377.93 273.14C378.05 276.45 379.24 281.57 382.8 282.34C399.09 282.89 415.38 287.71 431.69 285.08H431.7ZM493.15 285.09C492.86 277.21 477.28 273.39 472.67 279.55C476.06 280.43 479.48 279.63 482.96 280.35C486.67 281.12 489.61 284 493.15 285.09ZM500.84 295.32C495.59 288.47 485.96 287.16 477.8 287.65C476.73 288.52 477.83 289.16 478.85 289.58C481.53 290.68 486.43 290.56 489.76 291.47C493.5 292.49 496.9 294.98 500.84 295.32Z" fill="#FAC8A4"/>
<path d="M663.02 300.45H722.77C727.44 303.8 732.15 302.61 737.28 303.01C747.28 303.78 754.76 303.31 764.59 303.01C778.4 302.59 792.16 301.69 806.03 302.16C807.67 302.21 809.459 301.29 808.979 303.87C757.819 306.65 705.489 312.17 654.479 313.26C590.329 314.63 524.239 309.66 459.859 308.99C459.359 306.59 461.039 307.37 462.549 307.02C465.129 306.43 468.869 304.99 470.959 304.72C480.689 303.47 496.419 304.61 506.809 304.72C513.399 304.79 519.839 305.54 526.439 305.57C545.879 305.66 565.129 305.22 584.479 304.72C593.499 304.48 602.549 303.96 611.389 304.72C614.189 304.96 613.529 304.53 613.499 302.16C614.089 301.96 615.479 300.93 616.059 300.45" fill="#F9C37F"/>
<path d="M738.99 261.19C740.69 261.17 742.41 261.17 744.11 261.19C750.78 261.26 756.14 261.6 762.89 262.04C761.97 273.04 758.42 293.82 747.84 299.49C744.65 301.2 740.38 301 737.28 303.01C732.15 302.61 727.44 303.8 722.77 300.45C715.54 288.78 716.27 275.26 715.08 262.04C721.06 261.88 727.03 261.47 733.01 261.19C733.86 261.15 734.72 261.22 735.57 261.19C736.95 261.14 737.88 261.21 738.98 261.19H738.99Z" fill="#EDEBF0"/>
<path d="M755.21 222.78C755.32 222.55 755.09 222.15 755.21 221.93C761.15 210.58 769.97 201.2 778.23 191.61C778.97 190.76 783.97 184.97 783.37 184.38C781.76 184.01 781.35 185.29 780.39 186.08C777.4 188.56 773.27 193.64 770.6 196.77C764.51 203.9 759.22 211.64 753.93 219.36L752.65 208.27C754.71 193.46 766.47 180.49 779.66 174.25C799.24 164.98 804.01 169.17 795.21 188.94C787.54 206.17 774.49 219.71 755.21 222.78ZM789.34 178.4C788.14 177.79 787.06 178.94 787.64 179.24C788.84 179.85 789.92 178.7 789.34 178.4ZM784.65 181.81V182.66C785.2 182.38 785.2 182.09 784.65 181.81Z" fill="#7BB790"/>
<path d="M749.23 258.63C750.04 228.22 779.54 221.71 804.32 230.43C825.21 237.78 799.95 246.09 791.5 249.26C777.98 254.33 763.82 258.42 749.23 258.64V258.63Z" fill="#7BB790"/>
<path d="M736.429 242.41C733.569 242.28 729.309 238.53 727.539 236.36C719.839 226.9 717.669 202.28 722.609 191.46C728.089 179.47 736.099 185.92 739.989 194.89C745.729 208.11 745.52 225.82 739.84 239C739.57 237.95 737.919 236.67 737.489 234.94C735.269 225.99 733.759 216.47 731.409 207.73C731.119 206.67 730.969 204.01 729.599 204C730.219 211.51 731.63 219.01 733.27 226.35C734.41 231.44 737.549 237.5 736.419 242.41H736.429Z" fill="#7BB790"/>
<path d="M611.8 273.14C612.01 273.69 611.941 273.87 612.651 273.99C613.441 278.79 615.271 283.96 614.331 288.91C613.171 295 598.17 295.86 593.01 296.19C592.94 294.77 593.07 293.33 593.01 291.92C590.48 292.07 587.85 291.72 585.32 291.92C585.48 291.39 584.85 290.98 584.47 291.07C577.66 291.22 570.79 290.86 563.98 291.07C569.54 289.35 567.36 277.25 566.54 272.29L611.781 273.14H611.8Z" fill="#BABFD6"/>
<path d="M575.949 252.65C575.469 255.23 577.249 254.3 578.899 254.36C586.539 254.62 594.349 254.47 601.999 254.37C603.439 254.35 605.799 254.92 606.679 253.5C606.959 253.5 607.249 253.5 607.529 253.5C610.349 259.02 609.869 268 611.799 273.13L566.559 272.28C565.549 266.17 562.639 258.92 561.439 252.65C566.259 252.73 571.129 252.58 575.949 252.65Z" fill="#7C8DA7"/>
<path d="M789.89 324.5C790.99 324.42 791.93 325.24 792.01 326.34C792.42 332.31 793.86 339.48 794.47 344.84C792.68 342.87 792.68 340.18 792.73 337.61C792.76 336.45 791.78 335.51 790.62 335.58C790.18 335.61 789.76 335.79 789.43 336.08C785.74 339.33 781.49 341.57 778.73 345.76C776.98 348.42 778.05 351.26 774.12 350.91C772.8 350.79 771.71 351.93 771.95 353.23C776.15 376.42 780.08 399.67 784.3 422.86C788.19 444.28 792.94 466.48 796.83 488.01C799.08 500.45 800.09 513.97 803.81 524.72C805.21 528.76 803.6 530.35 803 532.63H802.151C802.021 531.55 802.34 530.22 802.151 529.22C802.021 528.54 801.31 528.43 801.3 528.37C801.26 528.09 801.35 527.79 801.3 527.52C801.07 526.16 800.54 523.99 800.45 523.25C800.41 522.97 800.49 522.68 800.45 522.4C800.26 521.01 800.981 518.8 800.031 517.66C799.711 517.27 799.59 516.74 799.61 516.23C799.61 516.01 799.611 515.79 799.591 515.57C799.331 513.39 798.16 510.58 797.88 508.74C788.93 448.33 776.07 388.45 765.81 328.25C765.61 327.09 766.46 326.01 767.64 325.93C775.04 325.43 782.49 325.05 789.89 324.52V324.5Z" fill="#C06D26"/>
<path d="M768.86 300.45C768.02 300.61 765.63 302.47 764.59 303.01C754.75 303.31 747.27 303.78 737.28 303.01C740.38 300.99 744.65 301.2 747.84 299.49C758.42 293.82 761.97 273.05 762.89 262.04C765.77 262.23 777.63 261.28 778.74 262.84C778.25 271.05 776.9 281.34 774.42 289.37C773.18 293.38 771.4 297.13 768.86 300.46V300.45Z" fill="#BABFD6"/>
<path d="M531.57 291.92L517.06 296.18C524.33 296.56 531.89 295.05 538.82 297.78L541.8 296.19H537.54C538.96 295.93 540.31 295.27 541.8 295.33C542.08 295.34 542.37 295.31 542.65 295.33C545.75 295.59 547.02 297.5 552.04 297.89C551.55 300.4 553.37 299.62 555 299.61C560.07 299.57 564.94 298.36 569.96 297.9L566.55 299.61L569.96 300.46C566.68 303.74 559.36 303.09 554.6 303.01C539.67 302.76 524.36 302.59 509.36 302.16C508.6 302.14 507.81 301.31 507.65 301.31C509.4 299.19 507.19 293.99 505.94 291.92H531.55H531.57ZM516.2 296.2C515 295.59 513.92 296.74 514.5 297.04C515.7 297.65 516.78 296.5 516.2 296.2ZM545.22 297.05C544.02 296.44 542.94 297.59 543.52 297.89C544.72 298.5 545.8 297.35 545.22 297.05Z" fill="#374B69"/>
<path d="M657.04 297.04C657.04 297.04 644.95 285.27 627.98 294.01C627.98 294.01 621.56 298.64 619.49 304.72" fill="#E2E1E8"/>
<path d="M619.49 304.72C624.86 302.76 630.31 305.04 636.17 304.75C643.42 304.39 651.46 301.73 657.05 297.04" fill="#E2E1E8"/>
<path d="M727.89 249.24C724.66 252.29 731.27 254.02 728.74 256.92C718.24 251.92 710.38 250.16 702.26 240.3C698.9 236.21 695.86 232.18 703.56 232.1C715.97 231.97 721.62 240.57 727.89 249.25V249.24Z" fill="#7BB790"/>
<path d="M618.63 274.85C620.44 281.89 624.83 288.15 620.2 295.62C619.65 296.51 616.81 299.84 616.07 300.46C615.49 300.94 614.1 301.97 613.51 302.17C608.04 303.99 599.03 302.66 593.02 303.02C592.94 300.75 593.13 298.45 593.02 296.19C598.17 295.87 613.18 295 614.34 288.91C615.28 283.96 613.45 278.79 612.66 273.99C614.48 274.3 616.82 273.47 618.64 274.84L618.63 274.85Z" fill="#7C8DA7"/>
<path d="M663.02 300.45C663.77 305.96 661.82 307.56 656.62 308.13C649.93 308.87 631.55 309.6 625.05 308.97C622.33 308.71 619.07 308.21 619.49 304.71C624.86 302.75 630.31 305.03 636.17 304.74C643.42 304.38 651.46 301.72 657.05 297.03C657.54 297.47 662.02 298.66 663.03 300.44L663.02 300.45Z" fill="#BABFD6"/>
<path d="M755.209 221.93C755.089 222.15 755.319 222.56 755.209 222.78C752.219 228.74 749.829 234.86 747.959 241.56C746.259 247.63 744.699 253.85 744.189 260.16C744.139 260.74 743.669 261.19 743.079 261.18C742.059 261.18 741.029 261.18 740.009 261.18C739.429 261.18 738.949 260.75 738.899 260.18L737.329 242.94C737.309 242.67 737.379 242.39 737.549 242.18C737.699 241.99 737.859 241.71 738.049 241.45C738.629 240.64 739.909 240.99 740.039 241.98C740.589 246.11 740.589 251.19 740.699 255.22C740.729 256.16 740.449 257.37 741.549 257.78C741.619 258.04 741.459 258.39 741.549 258.63C741.649 258.89 741.409 259.32 741.979 259.47C742.479 259.47 742.349 258.93 742.409 258.63C742.529 258.04 742.559 257.35 742.139 257.06C741.819 256.84 741.569 256.54 741.539 256.15C741.519 255.81 741.489 255.48 741.559 255.22C743.489 246.91 746.559 238.17 749.219 230.02C749.839 228.12 751.889 224.95 752.509 223.29C752.629 222.97 752.879 222.71 753.209 222.6L755.219 221.93H755.209Z" fill="#479169"/>
<path d="M808.98 303.87C809.46 301.29 807.67 302.22 806.03 302.16C792.16 301.7 778.4 302.59 764.59 303.01C765.62 302.47 768.02 300.61 768.86 300.45C778.93 298.48 807.78 300.15 819.68 300.41C825.42 300.54 831.27 301.23 837.14 301.3V302.15L808.97 303.86L808.98 303.87Z" fill="#ECA857"/>
<path d="M612.66 253.51C615.4 260.43 616.8 267.72 618.64 274.85C616.82 273.47 614.49 274.31 612.66 274C611.95 273.88 612.01 273.7 611.81 273.15C609.88 268.01 610.37 259.04 607.54 253.52C609.25 253.55 610.96 253.5 612.66 253.52V253.51Z" fill="#414E6D"/>
<path d="M752.64 208.27L753.92 219.36C759.21 211.64 764.5 203.9 770.59 196.77C773.27 193.64 777.39 188.55 780.38 186.08C781.34 185.28 781.76 184.01 783.36 184.38C783.96 184.97 778.96 190.75 778.22 191.61C769.96 201.21 761.13 210.58 755.2 221.93L752.64 222.78C753.4 218.86 751.94 213.31 752.64 208.27Z" fill="#5BA17B"/>
<path d="M837.15 301.31C840.55 301.35 843.99 301.28 847.39 301.31V320.09C828.91 321.48 810.39 322.98 791.91 324.36C791.89 323.79 791.9 323.22 791.91 322.66L846.54 319.24V302.17C843.42 302.16 840.27 302.19 837.15 302.17V301.32V301.31Z" fill="#C88035"/>
<path d="M820.08 506.17C820.65 510 821.41 514.47 822.64 518.12C822.69 518.68 822.59 519.27 822.64 519.83C823.12 525.25 823.87 530.59 824.35 536.05C821.85 533.46 822.87 529.65 822.44 527.31C818.56 506.06 815.03 483.22 812.4 460.93C813.67 461.95 813.69 463.46 813.98 464.9C816.71 478.5 818.05 492.46 820.08 506.17Z" fill="#C06D26"/>
<path d="M564 291.07C570.8 290.86 577.68 291.22 584.49 291.07C578.07 292.6 572.6 291.35 566.23 292.01C562.34 292.42 558.12 294.66 555.03 295.34C554.51 295.46 555.11 293.79 553.41 293.55C550.55 293.15 546.51 294.08 543.53 294.48C543.61 294.05 543.59 292.85 543.53 292.77C542.76 291.86 531.89 294.95 529.88 294.47L533.29 291.92C543.61 291.92 553.83 291.38 564.02 291.07H564Z" fill="#23314B"/>
<path d="M543.52 294.48C543.41 295.1 543.36 295.21 542.67 295.33C542.39 295.31 542.1 295.34 541.82 295.33C542.04 294.47 542.82 294.57 543.53 294.48H543.52Z" fill="#23314B"/>
<path d="M739.84 239C739.96 239.47 739.75 240.17 739.84 240.71C738.3 240.12 737.8 242.22 737.28 242.42C737.11 242.49 736.7 242.43 736.43 242.42C737.56 237.51 734.42 231.45 733.28 226.36C731.64 219.02 730.23 211.52 729.61 204.01C730.98 204.01 731.13 206.68 731.42 207.74C733.77 216.48 735.28 226 737.5 234.95C737.93 236.68 739.57 237.96 739.85 239.01L739.84 239Z" fill="#5BA17B"/>
<path d="M812.39 460.07C809.61 448.5 807.89 436.56 806.33 424.74C805.84 421.05 805.68 420.53 805.56 416.54C806.79 417.56 806.9 419.05 807.16 420.49C809.45 433.61 810.72 447.22 812.39 460.07Z" fill="#C06D26"/>
<path d="M533.28 291.92L529.87 294.47C531.87 294.94 542.75 291.86 543.52 292.77C543.58 292.85 543.6 294.05 543.52 294.48C542.81 294.57 542.03 294.48 541.81 295.33C540.32 295.27 538.97 295.93 537.55 296.19H541.81L538.83 297.77C531.9 295.03 524.34 296.54 517.07 296.17L531.58 291.91C532.15 291.91 532.72 291.91 533.29 291.91L533.28 291.92Z" fill="#414E6D"/>
<path d="M585.34 291.92C574.24 292.82 562.02 298.67 552.05 297.9C547.04 297.51 545.76 295.6 542.66 295.34C543.35 295.21 543.4 295.11 543.51 294.49C546.5 294.09 550.53 293.16 553.39 293.56C555.09 293.8 554.49 295.46 555.01 295.35C558.1 294.67 562.33 292.43 566.21 292.02C572.58 291.35 578.06 292.61 584.47 291.08C584.85 290.99 585.48 291.41 585.32 291.93L585.34 291.92Z" fill="#414E6D"/>
<path d="M805.57 415.69C802.08 413.77 803.94 409.41 803.62 406.97C802.42 397.64 799.58 388.07 799.59 378.99C801.74 382.99 802.13 388.63 802.86 393.22C804.05 400.68 805.29 408.53 805.56 415.7L805.57 415.69Z" fill="#C06D26"/>
<path d="M799.59 378.13C796.5 367.63 795.74 356.53 794.47 345.69C796.34 348.11 796.4 351.83 796.89 354.79C798.15 362.51 799.53 370.56 799.59 378.12V378.13Z" fill="#C06D26"/>
<path d="M735.57 261.19C734.72 261.22 733.86 261.15 733.01 261.19C732.96 258.68 730.66 257.83 728.74 256.92C731.27 254.02 724.65 252.29 727.89 249.24C730.6 252.99 733.8 256.9 735.57 261.19Z" fill="#5BA17B"/>
<path d="M366.83 235.58C365.94 237.53 365.07 234.13 364.87 233.7C363.67 231.11 360.06 226.83 361.71 224.48C363.46 228.15 364.97 231.95 366.83 235.58Z" fill="#E04642"/>
<path d="M638.27 361.91C641.41 361.66 644.54 361.97 647.65 361.06C648.51 361.99 645.4 382.88 645.1 386.24C638.11 463.9 631 541.53 624.6 619.25C624.27 623.29 623.79 627.68 622.9 631.63C618.04 633.2 612.65 634.67 607.54 632.48C607.62 632.22 607.46 631.88 607.54 631.63C607.73 631.02 607.43 629.86 607.54 629.07C610.26 609.69 611.14 589.07 612.66 569.32C613.77 554.84 615.56 540.32 616.07 525.79C616.08 525.51 616.06 525.22 616.07 524.94C616.09 524.46 616.07 524.36 616.07 524.09C616.07 523.82 616.07 523.52 616.07 523.24C617.01 520.71 616.97 518.21 616.92 515.56C616.92 515.28 616.92 514.99 616.92 514.71V513.86C616.92 513.58 616.92 513.29 616.92 513.01C618.17 510.2 617.51 507.28 617.77 504.47C618.93 492.18 620.2 479.43 621.18 466.91C623.76 467.39 622.83 465.61 622.89 463.96C623.69 442.26 626.79 420.71 628.04 399.08C628.19 396.49 628.58 392.3 627.15 390.08C627.86 381 629.04 371.6 629.71 362.77C632.56 362.33 635.37 362.14 638.25 361.92L638.27 361.91Z" fill="#ECA857"/>
<path d="M56.9799 594.94C56.7799 596.12 56.9299 597.32 56.1299 598.35C60.2299 598.76 63.3199 600.04 68.0799 600.06L113.33 350.37V349.12C108.27 349.15 102.78 345.99 97.9599 348.27C91.5899 387.53 84.7399 426.8 78.3299 466.06L56.9899 594.95L56.9799 594.94Z" fill="#ECA857"/>
<path d="M104.55 446.61C108.74 424.06 111.83 401.17 117.58 378.98C117.63 378.7 117.53 378.4 117.58 378.13C117.79 376.84 117.51 375.11 117.68 373.57C119.04 361.33 126.15 341.67 126.08 330.63C126.07 328.94 124.99 327.96 124.45 326.4C124.18 325.61 124.55 323.51 124.4 323.51H107.33C107.16 323.51 107.66 326.03 106.96 326.96C106.2 327.98 104.15 327.57 103.09 328.23C101.26 329.36 100.31 339.16 99.7703 342.03C99.4703 343.62 100.49 345.35 97.9403 344.85C97.7703 345.91 98.1103 347.21 97.9403 348.26C102.76 345.99 108.25 349.15 113.31 349.11V350.36L68.0703 600.05C69.4603 600.05 70.9803 600.18 72.3403 600.05C72.4403 600.05 72.6003 599.43 74.0503 599.2C75.1003 599.03 76.3703 599.31 77.4603 599.2C77.4903 598.92 77.4103 598.62 77.4603 598.35L104.55 446.61Z" fill="#C88035"/>
<path d="M298.54 459.22C297.92 461.02 297.87 473.16 297.69 476.29C297.52 479.11 297.84 482 297.69 484.83C297.66 485.4 297.72 485.97 297.69 486.54C296.66 506.74 295.93 526.92 295.13 547.14C295.06 548.84 295.2 550.56 295.13 552.26C294.78 561.12 293.74 570.26 293.39 579.11C292.73 595.48 292.69 611.88 291.72 628.23C288.11 630 286.43 630.94 282.28 628.56L281.48 597.5C281.5 596.08 281.46 594.65 281.48 593.23C284.06 593.71 283.13 591.93 283.19 590.28C284.44 552.8 283.29 514.84 283.96 477.57C284.01 474.77 286.21 469.16 283.19 466.9C283.18 466.33 283.21 465.76 283.19 465.19C285.94 465.63 285.33 463.53 283.19 462.63C283.15 461.5 283.3 460.33 283.19 459.22C283.16 458.94 283.24 458.64 283.19 458.37C288.22 459.62 293.41 459.18 298.55 459.22H298.54ZM284.46 460.07V460.92C285.01 460.64 285.01 460.35 284.46 460.07Z" fill="#ECA857"/>
<path d="M180.75 452.39C180.29 454.68 181.86 454.12 183.13 454.66C186.44 456.07 190.36 457.25 191.68 461.19L151.72 616.28C151.2 616.45 150.64 617.65 148.72 617.95C139.26 619.42 143.02 613.94 143.19 607.75C143.58 607.79 143.9 607.75 144.03 607.32C144.77 600.23 146.67 593.31 148.31 586.41C152.64 568.23 156.76 549.95 161.11 531.78C163.29 522.67 165.76 513.6 167.94 504.47C172.08 487.11 176.71 469.77 180.74 452.4L180.75 452.39Z" fill="#ECA857"/>
<path d="M299.4 443.86V444.71L297.69 443.86C298.26 443.84 298.83 443.89 299.4 443.86Z" fill="#C88035"/>
<path d="M298.54 459.22C293.39 459.18 288.21 459.61 283.18 458.37C283.09 457.83 282.44 455.54 281.48 455.81C279.2 493.94 275.31 532.04 273.79 570.18C273.77 570.46 273.81 570.75 273.79 571.03L271.11 599.93L262.69 600.9C262.92 596.21 263.21 591.51 263.38 586.81C263.96 571.17 264.61 554.97 264.42 539C264.4 537.56 264.97 535.21 263.55 534.32C263.56 533.75 263.55 533.18 263.55 532.61C266.14 533.09 265.19 531.31 265.26 529.66C265.51 523.41 264.47 517.02 264.41 511.27C264.41 510.7 264.41 510.13 264.41 509.56C267 510.04 266.05 508.25 266.12 506.61C266.52 496.51 267.02 486.35 266.98 476.27L268.67 480.53C268.75 477.19 271.98 475.05 273.15 472.63C276.51 465.72 278.24 456.01 281.49 449.56C281.75 449.05 282.84 449.17 283.16 448.29C283.45 447.51 282.95 445.81 283.19 445.54C283.63 445.04 294.25 445.64 296.42 445.54C297.47 445.49 299.25 446.07 299.4 444.68C300.11 447.47 300.55 455.7 299.81 458.3C299.67 458.8 298.6 459.05 298.55 459.19L298.54 459.22Z" fill="#C88035"/>
<path d="M638.27 361.91L630.59 361.05L632.54 337.38C634.16 336.81 634.3 334.92 636.11 334.58C641 333.65 648.42 335.29 653.64 334.59C652.71 337.06 654.45 340.84 654.49 342.28C654.58 345.63 653.85 349.05 653.64 352.52C650.99 352.05 652.06 353.85 651.94 355.48C649.52 388.09 645.63 420.63 643.39 453.24C643.37 453.52 643.41 453.81 643.39 454.09L639.98 480.13C639.85 483.11 640.07 486.11 639.98 489.09C639.98 489.37 639.98 489.66 639.98 489.94C638.13 495.41 638.34 501.34 638.27 507.01C638.27 507.58 638.27 508.15 638.27 508.72C636.8 510.1 637.36 513.46 637.42 515.55C637.43 516.12 637.42 516.69 637.42 517.26C635.87 518.95 636.59 522.53 636.57 524.94C636.57 525.51 636.58 526.08 636.57 526.65C635.6 529.1 635.13 532.94 634.87 535.62C634.01 544.27 633.72 552.99 633.16 561.65C633.14 561.93 633.18 562.22 633.16 562.5C631.72 564.09 631.72 568.59 633.16 570.18C633.11 571.03 633.21 571.89 633.16 572.74L632.3 571.04H631.47C631.83 573.71 630.5 577.54 632.31 579.57C632.29 579.85 632.33 580.14 632.31 580.42C629.54 579.56 630.18 584.54 631.46 586.4C630.96 592.04 630.52 597.79 630.61 603.47C630.2 603.43 629.93 603.49 629.76 603.91C629.79 604.33 629.7 604.77 629.76 605.18L627.89 629.34C627.04 632.26 624.46 631.15 622.93 631.64C623.82 627.68 624.3 623.29 624.63 619.26C631.03 541.54 638.14 463.91 645.13 386.25C645.43 382.89 648.54 362 647.68 361.07C644.56 361.98 641.44 361.67 638.3 361.92L638.27 361.91Z" fill="#C88035"/>
<path d="M202.939 436.17L186.719 500.19C186.219 501.96 186.249 503.98 185.869 505.31C185.049 508.21 183.43 512.12 182.46 515.55C180.17 515.06 180.779 516.7 180.359 518.1C177.289 528.19 174.349 538.47 171.609 548.66C170.979 550.99 169.129 555.32 170.509 557.38C167.509 567.83 164.139 578.28 161.969 588.96C158.449 597.07 156.369 606.8 154.289 615.42C154.159 615.4 152.259 616.1 151.729 616.27L191.689 461.18C190.379 457.25 186.449 456.06 183.139 454.65C181.859 454.11 180.289 454.67 180.759 452.38C182.389 445.37 183.569 438.1 185.029 431.04C190.909 433.35 196.86 434.61 202.96 436.16L202.939 436.17Z" fill="#C88035"/>
<path d="M283.18 466.9C286.2 469.16 284 474.77 283.95 477.57C283.28 514.84 284.43 552.8 283.18 590.28C283.12 591.92 284.05 593.71 281.47 593.23C282.15 551.41 283.98 508.69 283.18 466.9Z" fill="#DA9953"/>
<path d="M263.55 534.33C264.97 535.22 264.4 537.57 264.42 539.01C264.62 554.98 263.96 571.18 263.38 586.82C263.21 591.52 262.92 596.21 262.69 600.91L271.11 599.94L273.79 571.04C273.08 580.77 273.93 591.21 272.08 600.92C269.33 602.74 263.17 603.81 260.98 600.92C260.63 592.64 261.48 584.41 261.83 576.17C261.98 572.63 262.68 567.47 262.68 564.65V546.72C262.68 543.47 263.46 538.37 263.53 534.34L263.55 534.33Z" fill="#C06D26"/>
<path d="M283.18 458.37C283.23 458.64 283.15 458.94 283.18 459.22L280.63 480.14C280.28 510.23 275.96 540.34 273.79 570.18C275.31 532.04 279.2 493.93 281.48 455.81C282.44 455.53 283.09 457.83 283.18 458.37Z" fill="#C06D26"/>
<path d="M281.47 597.5L282.27 628.56C286.42 630.94 288.1 630 291.71 628.23C292.04 628.07 292.91 628.34 293.42 628.23V629.08C291.54 630.86 287.78 631.11 285.28 630.83C277.31 629.94 281.37 622.09 281.5 616.73C281.66 610.31 281.38 603.88 281.46 597.49L281.47 597.5Z" fill="#DA9953"/>
<path d="M295.13 617.13C294.97 620.34 295.53 625.3 294.28 628.23C294.11 628.62 293.71 628.81 293.43 629.08V628.23C293.79 626.33 292.92 617.81 293.43 617.13C293.53 616.99 294.66 617.21 295.14 617.13H295.13Z" fill="#C06D26"/>
<path d="M283.18 462.63C285.32 463.53 285.93 465.63 283.18 465.19C283.16 464.34 283.21 463.48 283.18 462.63Z" fill="#DA9953"/>
<path d="M74.0499 599.21L72.3398 600.06C72.4398 600.06 72.5999 599.44 74.0499 599.21Z" fill="#ECA857"/>
<path d="M88.5602 300.45C98.1702 300.39 107.87 300.66 117.58 300.45C126.66 300.26 135.81 300.59 144.89 300.45C146.04 307.85 147.37 315.2 148.3 322.64C141.78 322.5 135.19 322.84 128.67 322.64C119.57 322.36 110.51 321.97 101.36 321.79C96.2502 321.69 91.1002 321.89 86.0002 321.79C86.4802 319.2 84.7002 320.15 83.0502 320.08C76.5502 319.82 69.8802 320 63.3702 320.07C61.9302 320.09 59.5702 319.52 58.6902 320.94C51.8802 320.81 45.0202 321.04 38.2002 320.94V300.45C54.9302 302.45 71.8502 300.56 88.5602 300.45Z" fill="#F9C37F"/>
<path d="M72.3497 145.1C74.6697 147.08 80.9697 153.84 82.5897 156.2C92.7997 171.09 90.3497 181.91 91.9797 198.03C91.6897 197.76 91.3597 197.5 91.1297 197.18C80.8797 183.31 73.9597 167.28 60.4397 154.89C59.7697 154.28 56.8697 152.12 56.1397 152.8L76.4597 178.13C80.5397 184.55 85.5297 190.59 87.7097 198.03C87.2797 197.89 86.8597 197.42 86.4297 197.2L86.0097 198.03C80.9797 195.27 74.2797 193.62 68.9197 190.79C51.8697 181.8 39.3997 165.91 37.4597 146.28C35.8297 129.82 42.2597 131.72 55.2797 135.71C55.2797 135.71 65.3897 139.16 72.3497 145.1Z" fill="#7BB790"/>
<path d="M86 212.54L88.5 220.71L87.29 223.63C84.91 219.34 58.36 200.34 56.13 202.3C55.01 203.29 57.52 204.58 58.11 205.01C68.24 212.3 80.58 217.4 87.72 228.32C83.55 230.66 79.1 229.1 74.73 228.5L56.12 221.92C51.08 218.67 46.17 214.21 42.61 209.4C38.35 203.64 32.05 195.23 43.3 193.24C45.39 192.87 55.12 192.77 57.32 193C69.48 194.29 80.22 202.09 86 212.54Z" fill="#5BA17B"/>
<path d="M117.58 300.45C107.87 300.66 98.1695 300.39 88.5595 300.45C84.9095 299.09 83.1395 298.54 80.0195 296.18C116.98 307.04 117.97 265.7 120.99 240.7C125.86 240.55 132.4 236.52 132.14 244.55C131.8 255.14 128.2 288.34 122.22 296.13C120.77 298.01 118.81 298.57 117.57 300.44L117.58 300.45Z" fill="#BABFD6"/>
<path d="M128.68 322.65L117.58 378.13C117.79 376.84 117.51 375.11 117.68 373.57C119.04 361.33 126.15 341.67 126.08 330.63C126.07 328.94 124.99 327.96 124.45 326.4C124.18 325.61 124.55 323.51 124.4 323.51H107.33C107.16 323.51 107.66 326.03 106.96 326.96C106.2 327.98 104.15 327.57 103.09 328.23C101.26 329.36 100.31 339.16 99.7704 342.03C99.4704 343.62 100.49 345.35 97.9404 344.85C99.1704 337.2 100.87 329.57 101.35 321.8C110.5 321.98 119.57 322.38 128.66 322.65H128.68Z" fill="#C06D26"/>
<path d="M56.1298 221.93L74.7398 228.51C79.1098 229.11 83.5498 230.66 87.7298 228.33C80.5898 217.4 68.2498 212.3 58.1198 205.02C57.5298 204.6 55.0198 203.3 56.1398 202.31C58.3798 200.34 84.9198 219.35 87.2998 223.64L88.5098 220.72L86.0098 212.55C89.6698 219.16 88.8298 221.01 90.4798 227.29C91.2698 230.29 96.9998 235.7 97.1098 239.87C96.9798 239.87 96.0498 240.75 94.5498 240.72C93.9698 236.66 91.3898 233.45 89.4298 229.99C77.1998 232.1 66.2498 228.47 56.1298 221.94V221.93Z" fill="#479169"/>
<path d="M87.7102 198.03C89.6402 198.67 89.7702 199.87 91.1202 197.18C91.3602 197.5 91.6802 197.76 91.9702 198.03C92.5502 203.82 96.2302 212.02 97.6802 218.35C99.4202 225.96 100.6 233.79 101.36 241.56C100.2 241.3 99.2402 240.8 98.8002 240.71C97.8202 231.56 96.4902 222.29 94.1002 213.4C92.5202 207.52 91.5002 201.05 85.9902 198.03L86.4102 197.2C86.8402 197.42 87.2602 197.89 87.6902 198.03H87.7102Z" fill="#479169"/>
<path d="M58.6904 320.94C59.5804 319.53 61.9304 320.09 63.3704 320.07C69.8804 320 76.5504 319.83 83.0504 320.08C84.6904 320.14 86.4704 319.2 86.0004 321.79C76.8804 321.61 67.8104 321.11 58.6904 320.94Z" fill="#ECA857"/>
<path d="M94.5398 158.76C95.4898 164.44 96.8798 169.99 98.7898 175.42C100.16 179.31 104 185.12 104.78 187.78C109.58 165.18 114.3 142.4 125.7 122.06C125.47 129.51 120.56 137.07 118.05 144.29C114.08 155.75 110.21 170.49 108.42 182.47C108.22 183.83 107.52 186.07 109.05 186.92C116.77 179.78 127.16 174.57 133.8 165.58C134.15 165.1 134.32 164.38 134.65 163.87C135.13 163.15 136.05 161.87 136.36 161.31C139.34 155.83 141.02 149.63 141.48 143.38C140.05 138.49 140.05 131.27 141.48 126.31C141.21 121.99 140.52 117.55 139.5 113.35C135.95 98.7 132.36 97.62 120.21 106.33C109.3 114.15 98.4898 127.57 95.3798 140.83C95.3798 140.83 93.2898 149.42 94.5298 158.76H94.5398Z" fill="#7BB790"/>
<path d="M167.09 184.37C152.62 201.89 153.16 207.62 128.68 215.1C126.78 212.68 117.1 217.3 116.74 216.81C116.58 215.84 116.76 215.15 117.19 214.28C121.23 206.03 132.74 193.48 139.77 187.35C143.04 184.5 147.46 182.91 150.02 179.26C138.11 183.14 126.57 196.13 119.45 206.29C116.69 210.23 114 219.78 114.14 207.81L115.88 195.47C119.32 186.87 128.63 177.38 136.37 172.42C145.09 166.83 164.84 159.15 174.78 163.46C184.86 167.83 170.74 179.97 167.1 184.37H167.09Z" fill="#5BA17B"/>
<path d="M141.48 142.54C140.05 137.65 140.05 130.43 141.48 125.47C141.8 130.5 141.85 137.54 141.48 142.54Z" fill="#5BA17B"/>
<path d="M257.57 107.55C255.8 84.41 228.62 52 246.98 29.1C248.39 27.34 252.57 24.6 252.87 23.96C253.72 22.12 250.03 17.18 255.09 14.16C258.43 12.16 261.75 13.54 264.4 12.37C267.57 10.96 271.329 5.12004 277.829 2.76004C297.859 -4.51996 305.31 4.61004 322.13 7.58004C330.66 9.09004 348.799 4.58004 354.329 12.17C356.09 14.59 357.09 21.03 357.45 21.35C357.93 21.78 362.93 18.59 366.37 23.94C368.31 26.94 368.36 34.7 366.72 37.88C365.3 40.64 359.21 45.12 356.22 46.15C355.16 46.52 349.6 47.82 348.91 47.8C344.81 47.67 339.59 43.36 337.18 42.84C335.54 42.49 331.84 44.48 328.85 44.45C325.19 44.41 321.61 42.82 318.18 41.83C319.45 52.12 311.55 60.2901 308.38 69.16C306.81 73.55 308.66 77.41 303.27 77.69C300.34 70.28 296.53 61.29 287 62.28C276.86 63.34 276.279 76.9501 279.609 84.22C279.969 85 283.69 91.08 284.03 91.33C283.16 93.48 281.87 95.38 280.62 97.31C274.57 106.63 268.73 108.51 257.57 107.55Z" fill="#232B33"/>
<path d="M335.25 112.68C335.5 112.94 333.14 117.88 336.1 119.5C335 122.14 335.01 124.85 332.7 127.62C326.41 135.18 312.71 132.97 305.37 128.03L301.62 131.42L299 142.04L298.54 142.54C286.91 137.09 263.39 130.18 250.74 130.59C254 124.15 258.13 114.9 257.57 107.54C268.73 108.5 274.56 106.62 280.62 97.3001L291.11 95.4201C293.17 94.8101 297.07 89.4701 293.86 90.4901C292.87 90.8001 292.07 91.9701 290.36 92.1801C289.43 92.2901 284.42 91.6201 284.03 91.3301C283.69 91.0801 279.97 85.0001 279.61 84.2201C276.28 76.9501 276.85 63.3401 287 62.2801C296.53 61.2901 300.34 70.2801 303.27 77.6901C308.66 77.4101 306.81 73.5501 308.38 69.1601C311.54 60.2801 319.45 52.1101 318.18 41.8301C321.61 42.8201 325.18 44.4201 328.85 44.4501C331.84 44.4801 335.54 42.4801 337.18 42.8401C339.59 43.3601 344.81 47.6801 348.91 47.8001C346.83 51.5301 349.14 55.8201 348.91 60.1501C348.72 63.7201 346.82 67.3101 346.43 70.4801C345.13 80.9301 353.99 88.6101 355.47 98.4801C355.94 100.64 352.88 102.1 351.72 102.39C349.59 102.91 345.45 101.82 343.98 102.62C342.74 103.29 340 108.91 339.53 110.11M345.48 62.3001C345.84 54.0101 330.04 55.2401 330.97 61.8601C331.33 64.4501 334.32 61.2401 335.2 60.9801C339.64 59.6401 341.31 62.4101 345.48 62.3001ZM336.94 70.8501C334.3 68.9601 331.73 78.6001 335.68 80.2301C339.28 80.4901 337.58 71.3001 336.94 70.8501Z" fill="#FAC8A4"/>
<path d="M305.32 128.03C302.62 132.52 299.88 137.16 299.34 142.54C299.11 142.43 298.72 142.65 298.49 142.54L295.46 122.03C295.33 121.14 296.36 120.56 297.05 121.14L305.32 128.03Z" fill="#F6AC7D"/>
<path d="M336.1 119.5C333.14 117.88 335.51 112.94 335.25 112.68C334.64 112.05 326.93 110.63 327.44 106.44C327.48 106.09 327.79 105.82 328.14 105.85C329.92 106 329.36 107.79 331.81 108.85C333.98 109.79 337.11 110.15 339.51 110.12C338.29 113.26 337.57 115.99 336.1 119.51V119.5Z" fill="#F6AC7D"/>
<path d="M811.54 581.28C814.1 580.78 813.06 582.52 813.37 584.1C815.61 595.65 813.41 598.54 827.36 597.53C829.22 597.4 830.99 596.94 832.78 596.55C833.04 594.89 832.86 593.19 832.87 591.52L834.58 597.5C834.38 597.72 833.3 598.18 832.87 598.35H829.46C824.64 598.48 819.77 598.87 814.89 597.98C814.03 597.36 811.99 583.75 811.53 581.28H811.54Z" fill="#C06D26"/>
<path d="M832.88 590.67C829.51 576.95 827.33 562.12 826.05 547.99C827.28 549.01 827.4 550.5 827.65 551.94C829.68 563.67 832.4 578.96 832.88 590.67Z" fill="#C06D26"/>
<path d="M826.05 547.14C824.47 544.31 824.6 540.17 824.34 536.9C826.46 539.53 825.78 543.86 826.05 547.14Z" fill="#C06D26"/>
<path d="M174.77 224.49C194.31 223.52 228.05 225.19 243.46 238.17C269.09 259.74 274.41 341.55 281.46 374.72C283.8 385.71 285.85 393.4 293.41 402.03C298.54 407.89 301.8 409.34 308.77 412.27C310.82 413.13 313.51 414.25 315.6 414.83C316.95 415.2 317.23 415.43 319.01 415.68C319.29 415.72 319.58 415.66 319.86 415.68C321.02 417.16 323.96 416.51 325.84 416.53C326.12 416.53 326.41 416.53 326.69 416.53L342.45 418.27C355.73 418.08 369.22 418.78 382.18 417.38C382.67 417.41 383.8 417.28 383.89 417.38C384.09 417.6 383.7 418.89 383.89 419.08C384.45 419.63 385.5 418.24 385.59 418.23C386.43 418.16 387.3 418.26 388.15 418.23C390.04 419.69 394.96 419.65 396.69 418.23C399.39 418.51 402.34 419.59 405.23 419.94C406.29 420.07 407.56 420.63 409.5 420.79V421.64C408.4 421.72 407.09 421.47 406.09 421.64C385.89 425.17 365.04 428.51 344.2 429.31C326.05 430.01 299.02 429.02 285.28 415.69C263.84 394.89 260.07 334.48 254.87 305.26C251.28 285.08 247.91 261.19 234.94 244.96C260.07 293.2 252.17 351.54 273.18 401.33L284.03 419.07C273.49 419.74 263.29 423.48 252.78 424.95C224.75 428.85 193.7 429.44 167.1 419.08C150.44 400.57 153.28 368.2 150.88 344.4C150.15 337.16 149.23 329.84 148.33 322.63C147.43 315.42 146.07 307.83 144.92 300.44C142.75 286.47 133.77 249.7 136.79 238.1C139.65 227.1 165.39 224.94 174.8 224.47L174.77 224.49ZM230.68 240.7V241.55C231.23 241.27 231.23 240.98 230.68 240.7ZM232.38 241.58L231.98 241.98L234.11 244.11L234.51 243.71L232.38 241.58Z" fill="#A2B3D4"/>
<path d="M331.83 353.38C330.36 357.42 329.82 362.58 329.51 366.86C329.42 368.09 328.33 369.93 330.54 369.61C332.51 364.44 332.96 358.89 332.68 353.39C347.21 352.91 362.06 352.64 377.07 353.39C397.39 354.4 415.23 355.7 434.72 358.47C449.75 360.6 462.07 360.34 472.55 373.57C480.95 384.17 480.22 399.17 483.77 411.44C484.51 413.99 484.49 414.85 484.62 417.42C485.78 440.16 489.89 463.19 490.59 487.03C490.64 488.67 489.73 490.46 492.3 489.98C492.39 491.11 492.2 492.27 492.3 493.39C489.6 492.51 490.39 498.84 490.55 499.84C491.86 508.29 491.66 515.36 492.23 523.69C492.43 526.65 495 537.88 493 539.36C492.44 539.77 491.32 539.42 490.6 539.48C477.41 540.61 461.34 542.36 448.34 542.1C443.15 542 442.04 541.35 442.79 536.07L441.95 537.77H441.1C441.08 536.92 441.1 536.06 441.1 535.21C441.09 533.38 440.26 532.08 440.25 531.8C440.23 531.23 440.27 530.66 440.25 530.09C440.19 528.39 440.33 526.67 440.25 524.97C439.44 507.27 436.01 486.51 432.64 468.99C432.36 467.54 432.89 465.8 430.86 465.22C430.72 464.11 430.99 462.92 430.86 461.81C430.39 457.85 430.51 453.13 430.01 449.01C431.96 441.49 431.32 433.57 432.09 425.91C438.6 424.37 448.17 419.91 452.98 415.22C453.52 414.7 455.7 413.24 454.77 412.32C453.79 411.35 438.48 423.56 434.29 420.84C439.08 416.33 446.4 411.07 445.82 403.78C439.85 410.98 433.1 418.94 423.2 419.99C418.85 420.45 413.23 419.99 408.69 419.99L417.22 418.29C410.17 416.98 403.47 414.7 396.3 414.02C375.93 412.09 351.25 412.65 330.55 413.13C328.93 413.17 327.23 412.73 325.89 414.01L308.82 412.3C301.85 409.36 298.59 407.92 293.46 402.06L289.96 395.08C287.36 394.24 284.28 382.22 284.92 381.57L296.63 378.34L301.98 373.04C301.96 375.73 302.06 378.44 301.98 381.14C301.93 382.97 299.48 387.34 302.83 386.7C304.12 380.4 303.58 373.38 307.1 367.92C315.63 364.05 319 359.74 325.88 355.12C326.14 354.95 327.26 355.4 327.82 355.1C330.17 353.81 327.57 353.97 331.85 353.42L331.83 353.38ZM446.64 402.03V402.88C447.19 402.6 447.19 402.31 446.64 402.03ZM457.53 411.4C457.53 410.82 457.06 410.35 456.48 410.35C455.9 410.35 455.43 410.82 455.43 411.4C455.43 411.98 455.9 412.45 456.48 412.45C457.06 412.45 457.53 411.98 457.53 411.4Z" fill="#374B69"/>
<path d="M323.3 271.43C321.93 281.3 322.53 291.34 322.45 301.31C322.44 303.02 322.45 304.73 322.45 306.43C322.47 313.26 321.97 319.16 322.45 326.06C322.95 333.35 324.3 337.99 325.86 344.84L306.73 320.01C292.68 297.88 291.64 282.28 292.54 256.46C292.75 250.42 295.16 241.84 294.23 236.06C293.41 230.95 287.27 223.15 288.32 216.8C289.14 216.77 289.49 217.63 289.89 218.21C294.54 224.9 298.82 238.51 303.23 246.7C305.31 250.57 316.44 269.8 319.07 270.99C320.4 271.59 321.89 271.59 323.3 271.44V271.43Z" fill="#E04642"/>
<path d="M350.61 257.78C348.69 259.23 346.34 261.76 344.45 263.12C338.8 267.19 332.27 270.22 326.76 274.54C326.24 276.31 339.95 298.17 342.08 301.31H322.45C322.54 291.34 321.93 281.31 323.3 271.43C331.51 270.51 342.59 260.55 350.61 257.77V257.78Z" fill="#F6AC7D"/>
<path d="M307.08 367.89C303.55 373.35 304.09 380.37 302.81 386.67C299.45 387.31 301.91 382.95 301.96 381.11C302.03 378.41 301.94 375.7 301.96 373.01L296.61 378.31L284.9 381.54C284.26 382.19 287.34 394.21 289.94 395.05L293.44 402.03C285.88 393.39 283.83 385.71 281.49 374.72C290.22 374.47 299.17 371.49 307.1 367.89H307.08Z" fill="#2D405E"/>
<path d="M377.07 352.52V353.37C362.06 352.62 347.21 352.89 332.68 353.37C332.4 353.37 332.1 353.33 331.83 353.37C327.55 353.93 330.15 353.76 327.8 355.05C327.24 355.36 326.12 354.9 325.86 355.07C326.9 353.76 327.74 352.61 327.57 350.8C344.16 349.79 360.6 351.8 377.08 352.51L377.07 352.52Z" fill="#394155"/>
<path d="M287.87 215.1C288.42 215.38 288.42 215.67 287.87 215.95V215.1Z" fill="#E04642"/>
<path d="M459.87 308.99C524.25 309.66 590.34 314.63 654.49 313.26V332.89C647.1 333.01 639.17 332.97 631.44 332.89C627.18 332.84 622.89 332.95 618.64 332.89C619.12 330.31 617.34 331.24 615.69 331.18C608.61 330.94 601.39 331.08 594.3 331.17C592.86 331.19 590.5 330.62 589.62 332.04C571.14 331.71 552.62 331.56 534.14 331.19C534.62 328.61 532.84 329.54 531.19 329.48C526.09 329.31 520.88 329.4 515.77 329.47C514.33 329.49 511.98 328.92 511.09 330.34C508.25 330.28 505.39 330.4 502.55 330.34C503.03 327.76 501.25 328.69 499.6 328.63C491.39 328.36 483.01 328.51 474.8 328.62C473.36 328.64 471 328.07 470.12 329.49C467.85 329.44 465.56 329.54 463.29 329.49C463.77 326.91 461.99 327.84 460.34 327.78C453.54 327.55 446.61 327.68 439.8 327.77C438.36 327.79 436 327.22 435.12 328.64C434.27 328.62 433.41 328.66 432.56 328.64L429.55 326.06C433.4 323.12 437.41 320.25 441.1 317.13C443.82 314.84 445.81 310.77 449.62 310.71L442.8 309.87C448.65 308.78 453.79 308.95 459.87 309.02V308.99Z" fill="#ECA857"/>
<path d="M343.78 306.43C348.45 306.99 350.06 312.32 353.13 315.43C365.37 327.84 380.13 325.01 396.05 322.42C412.2 319.79 427.54 312.7 442.8 309.85L449.62 310.69C445.81 310.75 443.82 314.82 441.1 317.11C437.4 320.23 433.4 323.1 429.55 326.04L432.56 328.62C430.57 328.57 428.57 328.66 426.58 328.62C427.06 326.04 425.28 326.97 423.63 326.91C402.83 326.21 381.21 325.78 360.41 326.04C358.97 326.06 356.61 325.49 355.73 326.91C355.16 326.89 354.59 326.93 354.02 326.91L353.34 326.32L352.31 326.91C351.74 326.89 351.17 326.92 350.6 326.91C351.08 324.33 349.3 325.26 347.65 325.2C341.14 324.98 334.49 325.1 327.97 325.19C326.53 325.21 324.17 324.64 323.29 326.06H322.44C321.96 319.15 322.46 313.26 322.44 306.43C329.22 307.01 337.17 305.64 343.78 306.43Z" fill="#DA9953"/>
<path d="M431.7 285.08C415.39 287.71 399.1 282.89 382.81 282.34C379.25 281.56 378.06 276.45 377.94 273.14L383.64 279.8C388.19 279.41 392.81 280.65 397.1 280.85C407.72 281.35 418.79 279.28 428.96 283.14C430.04 283.55 431.47 283.64 431.71 285.08H431.7Z" fill="#F6AC7D"/>
<path d="M342.07 301.31C342.71 302.25 344.97 303.91 345.48 305.16L343.78 306.43C337.17 305.64 329.22 307.01 322.44 306.43C322.44 304.72 322.43 303.01 322.44 301.31H342.07Z" fill="#F9C37F"/>
<path d="M507.67 301.31C507.83 301.31 508.62 302.14 509.38 302.16V303.01C509.32 303.79 509.98 303.78 510.62 303.87C515.46 304.61 522.56 303.63 527.8 303.83C528.9 303.87 529.75 304.72 529.87 304.72L526.46 305.57C519.86 305.54 513.42 304.79 506.83 304.72L471.83 303.87C474.09 301.71 475.12 301.53 477.81 300.46C477.64 300.52 475.32 302.42 475.25 303.01H496.58L485.82 299.65C484.19 299.48 479.24 299.95 477.8 300.46C478.24 300.28 478.75 299.19 480.07 298.92C487.85 297.32 493.46 301.66 500.44 302.17C503.36 302.38 505.83 301.24 507.68 301.31H507.67Z" fill="#2D405E"/>
<path d="M442.8 280.82C437.43 282.63 439.39 280.72 437.17 279.23C433.23 276.6 426.49 275.33 421.79 274.93C421.45 274.9 414.37 276.59 417.19 274.01C417.4 273.81 422.07 272.34 422.7 272.25C425.01 271.94 428.57 272.19 430.9 272.66C432.47 272.98 444.8 278.73 442.8 280.81V280.82Z" fill="#F6AC7D"/>
<path d="M493.15 285.09C489.61 284 486.67 281.12 482.96 280.35C479.48 279.63 476.06 280.43 472.67 279.55C477.28 273.39 492.85 277.21 493.15 285.09Z" fill="#F6AC7D"/>
<path d="M500.84 295.32C496.9 294.98 493.5 292.49 489.76 291.47C486.43 290.56 481.53 290.68 478.85 289.58C477.83 289.16 476.72 288.52 477.8 287.65C485.96 287.15 495.59 288.47 500.84 295.32Z" fill="#F6AC7D"/>
<path d="M506.82 304.72C496.43 304.61 480.7 303.47 470.97 304.72C471.24 304.42 471.53 304.14 471.82 303.87L506.82 304.72Z" fill="#394155"/>
<path d="M837.15 302.16C840.27 302.18 843.42 302.15 846.54 302.16V319.23L791.91 322.65C791.91 323.22 791.91 323.79 791.91 324.35C783.11 325.01 774.25 325.43 765.45 326.06C735.89 328.17 706.28 330.49 676.68 332.04C675.69 330.81 666.03 330.85 665.58 331.19C665.44 331.29 665.66 332.42 665.58 332.9C662.18 333.03 658.74 332.84 655.34 332.9C655.06 332.9 654.77 332.9 654.49 332.9V313.27C705.49 312.18 757.83 306.66 808.99 303.88C811.14 303.76 812.99 303.13 814.97 303.03C817.23 302.92 819.53 303.13 821.8 303.03C827.05 302.8 831.75 302.15 837.16 302.18L837.15 302.16Z" fill="#DA9953"/>
<path d="M585.34 291.92C587.86 291.72 590.49 292.06 593.03 291.92C593.08 293.34 592.96 294.77 593.03 296.19C593.14 298.45 592.95 300.75 593.03 303.02C590.7 303.16 587.75 304.39 585.06 304.04L584.49 304.73C565.13 305.24 545.89 305.67 526.45 305.58L529.86 304.73C536.57 304.92 545.9 305.43 552.05 303.88C552.87 303.67 554.02 304.15 554.61 303.03C559.38 303.11 566.69 303.75 569.97 300.48L566.56 299.63L569.97 297.92C564.95 298.38 560.08 299.59 555.01 299.63C553.38 299.64 551.56 300.42 552.05 297.91C562.02 298.69 574.24 292.84 585.34 291.93V291.92Z" fill="#23314B"/>
<path d="M613.51 302.16C613.54 304.53 614.2 304.95 611.4 304.72C602.55 303.97 593.5 304.49 584.49 304.72L585.06 304.03C587.75 304.38 590.7 303.15 593.03 303.01C599.04 302.65 608.05 303.98 613.52 302.16H613.51Z" fill="#DA9953"/>
<path d="M789.34 178.4C789.92 178.7 788.84 179.85 787.64 179.24C787.06 178.94 788.14 177.79 789.34 178.4Z" fill="#5BA17B"/>
<path d="M784.65 181.81C785.2 182.09 785.2 182.38 784.65 182.66V181.81Z" fill="#5BA17B"/>
<path d="M586.2 253.51C588.47 253.54 590.76 253.48 593.03 253.51C597.57 253.57 602.15 253.44 606.69 253.51C605.8 254.93 603.45 254.36 602.01 254.38C594.36 254.47 586.56 254.62 578.91 254.37C577.27 254.32 575.48 255.24 575.96 252.66C579.62 252.71 582.9 253.47 586.2 253.51Z" fill="#849DC4"/>
<path d="M803.01 532.63C803.61 530.35 805.22 528.76 803.82 524.72C800.1 513.97 799.09 500.45 796.84 488.01C792.95 466.48 788.21 444.28 784.31 422.86C779.92 398.72 775.84 374.52 771.45 350.38C778.56 352.3 776.68 348.9 778.75 345.76C781.64 341.38 786.15 339.12 789.95 335.62L791.23 335.54C792.07 335.49 792.77 336.16 792.75 337C792.69 339.75 792.53 342.72 794.47 344.84C794.5 345.12 794.44 345.41 794.47 345.69C795.75 356.52 796.51 367.63 799.59 378.13V378.19C799.41 387.5 802.39 397.36 803.62 406.96C803.93 409.4 802.07 413.76 805.57 415.68C805.58 415.96 805.57 416.25 805.57 416.53C805.68 420.52 805.85 421.05 806.34 424.73C807.91 436.55 809.62 448.49 812.4 460.06C812.44 460.34 812.37 460.63 812.4 460.91C815.03 483.2 818.56 506.04 822.44 527.29C822.87 529.62 821.85 533.44 824.35 536.03C824.37 536.31 824.33 536.6 824.35 536.88C824.61 540.15 824.47 544.3 826.06 547.12C826.08 547.4 826.03 547.69 826.06 547.97C827.33 562.09 829.52 576.93 832.89 590.65C832.9 590.93 832.89 591.22 832.89 591.5C832.89 593.17 833.06 594.87 832.8 596.53C831 596.92 829.24 597.37 827.38 597.51C813.43 598.51 815.62 595.63 813.39 584.08C813.08 582.5 814.12 580.76 811.56 581.26C811.34 580.06 810.78 579.12 810.71 578.7C809.64 572.83 802.44 534.87 803.03 532.61L803.01 532.63Z" fill="#C88035"/>
<path d="M554.62 303.02C554.03 304.15 552.88 303.67 552.06 303.87L509.38 303.02V302.17C524.38 302.61 539.69 302.78 554.62 303.02Z" fill="#232B33"/>
<path d="M516.2 296.2C516.78 296.5 515.7 297.65 514.5 297.04C513.92 296.74 515 295.59 516.2 296.2Z" fill="#414E6D"/>
<path d="M545.22 297.05C545.8 297.35 544.72 298.5 543.52 297.89C542.94 297.59 544.02 296.44 545.22 297.05Z" fill="#414E6D"/>
<path d="M502.55 576.16C500.21 574.86 499.16 574.05 497.43 571.89C497.38 571.83 497.33 571.77 497.27 571.72C496.77 571.25 496.11 570.97 495.43 570.87L490.6 570.18C490.48 575.44 486.72 584.09 480.7 584.68C473.62 585.37 468.01 574.5 457.31 577.01C455.08 577.53 454.16 580.62 453.04 582.13C451.33 591.21 450.61 600.5 450.43 609.78L459.02 612.01C459.59 611.99 460.16 612.03 460.73 612.01C463 611.94 465.29 612.05 467.56 612.01C467.84 612.01 468.13 612.01 468.41 612.01C469.26 612 470.12 612.01 470.97 612.01C472.39 611.99 473.82 612.02 475.24 612.01C475.81 612.01 476.38 612.01 476.95 612.01C480.07 611.99 483.22 612.05 486.34 612.01C487.76 611.99 489.19 612.03 490.61 612.01C492.03 611.99 493.46 612.03 494.88 612.01C499.42 611.95 504 612.08 508.54 612.01C509.68 611.99 510.82 612.03 511.95 612.01C517.11 611.92 521.9 611.1 527.31 611.16C529 611.18 530.75 611.04 532.43 611.16C533.44 610.11 534.56 610.32 535.84 610.31C536.68 610.31 537.56 610.24 538.4 610.31C538.83 609.13 540.06 609.58 540.96 609.46C541.51 609.39 542.18 609.57 542.67 609.46C544.13 609.12 545.74 608.06 547.79 607.75C548.33 607.67 548.94 607.81 549.5 607.75C550.57 606.55 552.27 606.3 553.77 606.04C554.04 605.99 554.34 606.06 554.62 606.04C556.5 603.76 554.32 602.33 553.77 600.06C548.36 594.99 540.81 592.37 533.72 590.65C533.72 590.65 516.73 584.04 502.55 576.16Z" fill="#232B33"/>
<path d="M351.48 567.18C347.81 569.52 346.45 591.58 346.45 596.55C365.22 600.28 384.61 597.77 403.54 596.64C404.21 599.79 404.63 603.27 405.25 606.03C395.37 606.33 352.44 610.77 346.34 605.62C343.39 603.12 347.03 575.57 348.05 570.19C348.05 570.19 348.23 566.82 352.63 566.78" fill="#FFFCFB"/>
<path d="M556.32 606.03C556.28 611.64 557.25 614.8 551.2 617.56C535.39 624.76 476.25 624.37 457.83 622.14C448.88 621.06 450.01 620.67 449.61 612.86C452.16 611.34 454.53 613.04 456.9 612.94C458.06 612.89 458.88 612.01 458.99 612.01C459.56 611.99 460.13 612.03 460.7 612.01C460.22 614.6 462 613.65 463.65 613.72C477.11 614.26 492.07 614.17 505.55 613.72C507.19 613.67 508.98 614.59 508.5 612.01C509.64 611.99 510.78 612.03 511.91 612.01C515.41 613.49 520.53 612.99 524.33 612.86C525.97 612.81 527.76 613.73 527.28 611.15C528.97 611.17 530.72 611.03 532.4 611.15C533.2 611.21 536.33 613.93 535.81 610.3C536.65 610.3 537.53 610.23 538.37 610.3C539.11 610.36 541.36 612.92 540.93 609.45C541.48 609.38 542.15 609.56 542.64 609.45C541.34 612.86 548.31 609.66 547.76 607.74C548.3 607.66 548.91 607.8 549.47 607.74C550.3 607.65 554.36 609.3 553.74 606.03C554.01 605.98 554.31 606.05 554.59 606.03C555.16 606 555.73 606.05 556.3 606.03H556.32Z" fill="#FFFCFB"/>
<path d="M489.74 565.06C489.82 566.81 490.63 568.54 490.59 570.18C490.47 575.44 486.71 584.09 480.69 584.68C473.61 585.37 468 574.5 457.3 577.01C457.5 573.09 455.77 569.85 455.59 565.91C455.57 565.34 455.61 564.77 455.59 564.2C468.28 563.98 477.11 563.95 489.73 561.64C490.01 561.59 490.31 561.7 490.58 561.64C489.94 562.68 489.67 563.84 489.73 565.05L489.74 565.06Z" fill="#F6AC7D"/>
<path d="M429.99 582.13C432.26 584.5 435.65 588.51 436.82 591.52C436.92 594.5 437.35 593.88 434.73 594.08C428.63 594.56 422.34 593.27 416.34 594.93C415.21 588.41 413.39 581.79 412.07 575.3H412.92C418.93 576.75 424.59 579.19 429.99 582.13Z" fill="#232B33"/>
<path d="M436.82 591.52C442.27 605.58 429.75 603.09 420.93 605.09C419.46 605.43 419.36 605.33 417.89 605.7C417.44 602.02 416.95 599.44 416.33 595.79C416.28 595.51 416.38 595.21 416.33 594.94C422.33 593.28 428.62 594.57 434.72 594.09C437.34 593.88 436.92 594.51 436.81 591.53L436.82 591.52Z" fill="#FFFCFB"/>
<path d="M403.53 594.94C405.68 596.63 406.73 600.88 407.44 603.44C407.82 604.84 408.58 607.17 408.65 607.46C409.78 612.08 407 614.69 415.49 614.57L414.62 612.88C415.28 612.73 416.96 613.09 417.2 612.88C417.79 612.33 415.09 598.87 414.85 596.87C414.57 594.56 414.22 594.52 416.34 595.81C416.96 599.47 417.6 603.22 418.05 606.91C418.42 609.96 420.71 614.48 415.89 615.42C407.58 617.03 406.76 612.83 405.24 606.06C404.62 603.3 404.2 599.82 403.53 596.67C403.42 596.15 403.64 595.48 403.53 594.96V594.94Z" fill="#C06D26"/>
<path d="M489.74 560.8V561.65C477.12 563.96 468.29 563.99 455.6 564.21C454.75 564.22 453.89 564.2 453.04 564.21C452.47 564.21 451.9 564.2 451.33 564.21C448.37 563.29 446.67 564.09 444.5 561.65H445.35C459.84 564.13 475.6 563.33 489.74 560.8Z" fill="#2D405E"/>
<path d="M451.33 582.72C450.91 584.05 449.62 593.18 449.62 594.51V607.31C449.62 609.09 449.52 610.82 449.62 612.86C452.17 611.34 454.54 613.04 456.91 612.94C458.07 612.89 458.89 612.01 459 612.01L450.41 609.78C450.41 609.78 450.15 581.6 455.84 577.82C452.81 577.82 451.32 582.72 451.32 582.72H451.33Z" fill="#FFFCFB"/>
<path d="M556.32 606.03C555.75 606.05 555.18 606 554.61 606.03C556.49 603.75 554.31 602.32 553.76 600.05C554.88 601.1 556.7 602.62 557.05 604.15C557.33 605.42 556.32 605.92 556.32 606.02V606.03Z" fill="#FFFCFB"/>
<path d="M627.17 390.08C628.6 392.3 628.21 396.49 628.06 399.08C626.81 420.71 623.71 442.26 622.91 463.96C622.85 465.6 623.78 467.38 621.2 466.91C623.22 441.32 625.18 415.68 627.18 390.09L627.17 390.08Z" fill="#DA9953"/>
<path d="M654.48 332.89C654.76 332.89 655.05 332.89 655.33 332.89L654.48 342.28C654.44 340.85 652.7 337.06 653.63 334.59C648.42 335.29 640.99 333.65 636.1 334.58C634.29 334.92 634.15 336.81 632.53 337.38L630.58 361.05L638.26 361.91C635.39 362.14 632.57 362.33 629.72 362.76C630.47 352.88 630.24 342.76 631.43 332.88C639.16 332.96 647.09 333 654.48 332.88V332.89Z" fill="#C06D26"/>
<path d="M299.4 507.87C299.47 509.45 299.55 511.46 299.4 512.99C299 513.11 298.63 513.44 298.55 513.84C298.45 514.32 298.57 514.99 298.55 515.55C298.28 522.88 297.7 531.07 297.7 538.17V562.07C297.7 564.92 296.99 570.01 296.85 573.59C296.75 576.19 296 580.06 296 581.7V604.75C296 607.2 295.33 612.27 295.15 615.42V552.26C295.22 550.56 295.08 548.84 295.15 547.14C297.74 547.62 296.79 545.84 296.86 544.19C297.3 533.09 297.34 521.93 297.71 510.82C297.77 509.18 296.84 507.39 299.42 507.87H299.4Z" fill="#C06D26"/>
<path d="M295.13 615.42C295.1 615.99 295.16 616.56 295.13 617.13C294.65 617.21 293.53 616.98 293.42 617.13C292.91 617.81 293.78 626.34 293.42 628.23C292.91 628.34 292.05 628.07 291.71 628.23C292.69 611.89 292.72 595.48 293.38 579.11C293.74 570.25 294.77 561.12 295.12 552.26V615.42H295.13Z" fill="#C88035"/>
<path d="M299.4 503.61C299.47 505.03 299.33 506.46 299.4 507.88C296.82 507.4 297.75 509.18 297.69 510.83C297.32 521.94 297.28 533.1 296.84 544.2C296.77 545.84 297.72 547.62 295.13 547.15C295.93 526.93 296.66 506.74 297.69 486.55C299.47 491.05 298.29 496.7 298.51 501.55C298.56 502.65 299.39 503.49 299.4 503.62V503.61Z" fill="#C88035"/>
<path d="M301.96 443.86C302.86 446.4 301.11 450.36 301.11 451.97V471.6C301.11 473.49 299.36 477.77 300.26 480.56C300.16 479.23 299.2 475.16 297.7 476.29C297.89 473.16 297.94 461.02 298.55 459.22C298.6 459.08 299.67 458.83 299.81 458.33C300.55 455.72 300.11 447.49 299.4 444.71V443.86C300.25 443.82 301.11 443.92 301.96 443.86Z" fill="#C06D26"/>
<path d="M294.27 444.71C294.67 444.65 295.03 444.27 295.12 443.86C295.86 443.73 296.85 443.89 297.68 443.86L299.39 444.71C299.24 446.1 297.45 445.52 296.41 445.57C294.24 445.67 283.62 445.08 283.18 445.57C282.94 445.84 283.44 447.54 283.15 448.32C282.83 449.2 281.73 449.08 281.48 449.59C278.22 456.04 276.5 465.75 273.14 472.66C271.96 475.07 268.74 477.22 268.66 480.56L266.97 476.3C267.01 486.37 266.51 496.53 266.11 506.64C266.05 508.28 266.99 510.06 264.4 509.59C264.4 508.45 264.42 507.31 264.4 506.18L265.24 505.75L264.4 505.32L266.96 443.86C275.18 444.21 286.23 445.88 294.27 444.71Z" fill="#C06D26"/>
<path d="M299.4 503.61C299.4 503.49 298.56 502.65 298.51 501.54C298.29 496.69 299.47 491.03 297.69 486.54C297.72 485.97 297.66 485.4 297.69 484.83L300.25 483.12C300.25 483.57 299.4 484.8 299.39 486.06C299.35 491.91 299.43 497.77 299.39 503.6L299.4 503.61Z" fill="#C06D26"/>
<path d="M297.69 476.29C299.19 475.16 300.15 479.23 300.25 480.56C300.31 481.4 300.26 482.28 300.25 483.12L297.69 484.83C297.84 482.01 297.52 479.11 297.69 476.29Z" fill="#C88035"/>
<path d="M284.46 460.07C285.01 460.35 285.01 460.64 284.46 460.92V460.07Z" fill="#DA9953"/>
<path d="M264.4 511.29C264.46 517.04 265.5 523.43 265.25 529.68C265.19 531.32 266.13 533.1 263.54 532.63C263.64 525.83 263.66 518.94 263.54 512.14C263.54 511.86 263.54 511.57 263.54 511.29H264.39H264.4Z" fill="#C06D26"/>
<path d="M653.63 352.52C652.29 373.93 649.02 395.81 647.07 417.22C645.98 429.14 646.29 441.65 643.39 453.24C645.62 420.63 649.52 388.09 651.94 355.48C652.06 353.85 650.98 352.05 653.64 352.52H653.63Z" fill="#C06D26"/>
<path d="M639.97 489.09C640.07 486.12 639.85 483.12 639.97 480.13L643.381 454.09C642.761 463.38 642.64 473.23 641.66 482.67C641.46 484.61 641.101 487.49 639.961 489.08L639.97 489.09Z" fill="#C06D26"/>
<path d="M633.14 561.65C633.7 552.99 633.99 544.27 634.85 535.62C635.12 532.94 635.58 529.1 636.55 526.65C636.3 538.1 635.82 550.62 633.14 561.65Z" fill="#C06D26"/>
<path d="M639.97 502.75L638.26 507.02C638.33 501.34 638.11 495.42 639.97 489.95C639.87 494.19 639.65 498.53 639.97 502.75Z" fill="#C06D26"/>
<path d="M633.14 572.75C633 574.97 632.46 577.14 632.29 579.58C630.47 577.55 631.8 573.73 631.45 571.05H632.28L633.14 572.75Z" fill="#C06D26"/>
<path d="M632.29 580.43C632.13 582.56 631.62 584.39 631.44 586.41C630.17 584.56 629.52 579.57 632.29 580.43Z" fill="#C06D26"/>
<path d="M636.56 524.94C636.58 522.53 635.86 518.94 637.41 517.26C637.41 519.44 638.74 522.68 636.56 524.94Z" fill="#C06D26"/>
<path d="M637.41 515.56C637.36 513.47 636.8 510.11 638.26 508.73C638.27 510.51 639.49 513.58 637.41 515.56Z" fill="#C06D26"/>
<path d="M633.14 570.18C631.7 568.59 631.7 564.09 633.14 562.5C632.97 565.04 633.3 567.65 633.14 570.18Z" fill="#C06D26"/>
<path d="M406.09 421.66C411.32 432.99 398.15 435.05 389.87 436.17C389.05 436.28 388.13 436.07 387.31 436.17C381.33 436.92 375.37 437.28 369.38 437.88C369.1 437.91 368.81 437.85 368.53 437.88C357.19 439 345.77 440.35 334.39 441.29C323.61 442.18 312.74 443.08 301.95 443.85C301.1 443.91 300.24 443.81 299.39 443.85C298.82 443.88 298.25 443.83 297.68 443.85C296.85 443.88 295.86 443.72 295.12 443.85C294.72 443.92 294.37 444.3 294.27 444.7C286.22 445.87 275.17 444.19 266.96 443.85C245.47 442.94 225.73 442.07 204.65 437.02C204.4 436.96 203.77 436.38 202.94 436.17C196.85 434.62 190.89 433.36 185.01 431.05C176.39 427.65 173 425.67 167.08 419.1C193.68 429.46 224.73 428.87 252.76 424.97C263.28 423.51 273.47 419.77 284.01 419.09L273.16 401.35C252.15 351.57 260.05 293.22 234.92 244.98C247.89 261.21 251.25 285.1 254.85 305.28C260.05 334.5 263.82 394.91 285.26 415.71C299 429.03 326.03 430.02 344.18 429.33C365.03 428.53 385.87 425.18 406.07 421.66H406.09Z" fill="#849DC4"/>
<path d="M204.65 437.03C199.05 458.18 192.71 479.16 186.72 500.19L202.94 436.17C203.76 436.38 204.4 436.96 204.65 437.02V437.03Z" fill="#C06D26"/>
<path d="M182.46 515.56C181.65 518.42 180.71 521.26 179.9 524.1C179.26 526.34 178.83 528.69 178.19 530.93C178.05 531.41 178.33 532.16 178.19 532.64C175.84 540.88 172.89 549.11 170.51 557.39C169.13 555.32 170.98 551 171.61 548.67C174.35 538.48 177.29 528.21 180.36 518.11C180.79 516.71 180.18 515.08 182.46 515.56Z" fill="#C06D26"/>
<path d="M115.88 195.46L114.14 207.8C114 219.77 116.69 210.22 119.45 206.28C126.57 196.12 138.12 183.13 150.02 179.25C147.47 182.9 143.04 184.49 139.77 187.34C132.74 193.47 121.23 206.02 117.19 214.27C116.76 215.14 116.58 215.83 116.74 216.8C117.1 217.29 126.78 212.67 128.68 215.09C125.87 215.95 116.76 217.13 115.22 218.7C112.83 221.14 109.27 236.55 109.05 240.7C108.65 240.7 108.32 241.52 108.2 241.55C105.49 240.62 107.16 235.77 107.58 233.68C108.67 228.29 113.12 221.13 113.7 217.76C114.11 215.41 112.55 212.13 112.56 209.64C112.58 205.64 114.37 199.25 115.88 195.46Z" fill="#479169"/>
<path d="M91.1197 197.17C89.7697 199.87 89.6396 198.66 87.7096 198.02C85.5196 190.58 80.5296 184.54 76.4596 178.12L56.1396 152.79C56.8696 152.11 59.7696 154.27 60.4396 154.88C73.9596 167.27 80.8796 183.3 91.1296 197.17H91.1197Z" fill="#5BA17B"/>
<path d="M109.05 186.93C108.58 187.37 108.32 188.43 107.34 188.64L106.93 187.97L104.78 188.64C104.74 188.34 104.85 188.02 104.78 187.79C109.58 165.19 114.3 142.41 125.7 122.07C125.47 129.52 120.56 137.08 118.05 144.3C114.08 155.76 110.21 170.5 108.42 182.48C108.22 183.84 107.52 186.08 109.05 186.93Z" fill="#5BA17B"/>
<path d="M107.34 188.64C104.53 205.73 104.36 223.05 105.64 240.31L103.5 241.57C103.15 229 102.49 216.13 103.03 203.55C103.22 199.08 105.29 192.91 104.77 188.65L106.92 187.98L107.33 188.65L107.34 188.64Z" fill="#479169"/>
<path d="M284.03 91.3301C284.42 91.6201 289.43 92.2901 290.36 92.1801C292.07 91.9701 292.87 90.8001 293.86 90.4901C297.07 89.4701 293.17 94.8101 291.11 95.4201L280.62 97.3001C281.87 95.3701 283.17 93.4801 284.03 91.3201V91.3301Z" fill="#F6AC7D"/>
<path d="M345.48 62.3C341.31 62.41 339.64 59.64 335.2 60.98C334.32 61.25 331.34 64.45 330.97 61.86C330.04 55.24 345.83 54.01 345.48 62.3Z" fill="#232B33"/>
<path d="M292.65 83.66C292.6 84.17 291.92 84.3 291.67 83.85C291.16 82.91 291.03 81.2 290.95 80.57C290.19 74.47 292.63 73.88 286.81 70.22C283.63 68.22 286.71 65.95 289.64 68.22C292.97 70.79 293.06 79.3 292.64 83.67L292.65 83.66Z" fill="#F6AC7D"/>
<path d="M336.94 70.85C337.57 71.3 339.28 80.49 335.68 80.23C331.73 78.6 334.3 68.96 336.94 70.85Z" fill="#414E6D"/>
<path d="M377.07 352.52C394.47 353.27 411.07 353.11 428.61 355.19C456.07 358.45 475.31 362.28 481.79 392.49C483.04 398.31 484.42 405.59 483.77 411.42C480.22 399.15 480.95 384.15 472.55 373.55C462.07 360.32 449.75 360.58 434.72 358.45C415.23 355.69 397.39 354.39 377.07 353.37V352.52Z" fill="#23314B"/>
<path d="M492.3 493.36C492.31 493.5 493.08 494.33 493.19 495.43C493.62 500 492.74 504.87 494.01 509.58C493.78 511.92 493.97 514.84 494.01 517.26C494.06 520.16 494.71 522.89 494.86 525.8C494.96 527.78 494.78 529.79 494.86 531.78C494.92 533.32 495.7 534.85 495.71 536.05C495.71 536.11 494.98 536.15 494.86 536.9C494.56 538.7 494.85 538.81 496.57 538.61C496.82 540.25 497.9 542.24 498.19 544.25C498.48 546.26 500.11 557.83 499.9 558.52C499.04 561.34 492.67 561.23 490.59 561.66C490.32 561.72 490.01 561.61 489.74 561.66V560.81C491.18 560.55 498.09 559.42 498.33 558.58L495.71 540.32C493.91 539.73 492.8 541.58 491.68 541.85C491.01 542.01 490.66 541.16 490.6 541.17V539.46C491.33 539.4 492.44 539.75 493 539.34C495 537.87 492.43 526.63 492.23 523.67C491.66 515.34 491.87 508.27 490.55 499.82C490.4 498.82 489.61 492.49 492.3 493.37V493.36Z" fill="#23314B"/>
<path d="M355.73 326.92C356.62 325.5 358.97 326.07 360.41 326.05C381.21 325.79 402.83 326.22 423.63 326.92C425.28 326.98 427.06 326.05 426.58 328.63C422.85 328.55 417.98 327.78 415.06 327.78H376.65C370.13 327.78 362.55 327.12 355.74 326.93L355.73 326.92Z" fill="#C88035"/>
<path d="M492.3 489.95C489.73 490.43 490.64 488.64 490.59 487C489.89 463.16 485.77 440.13 484.62 417.39C486.82 422.59 487.39 429.94 488.01 435.76C489.93 453.77 490.83 471.74 492.3 489.94V489.95Z" fill="#23314B"/>
<path d="M470.11 329.48C471 328.06 473.35 328.63 474.79 328.61C483.01 328.51 491.39 328.35 499.59 328.62C501.23 328.67 503.02 327.75 502.54 330.33C491.74 330.1 480.92 329.72 470.1 329.48H470.11Z" fill="#DA9953"/>
<path d="M589.61 332.04C590.5 330.62 592.85 331.19 594.29 331.17C601.38 331.08 608.6 330.95 615.68 331.18C617.32 331.23 619.11 330.31 618.63 332.89C608.97 332.76 599.3 332.21 589.61 332.04Z" fill="#DA9953"/>
<path d="M435.11 328.62C436 327.2 438.35 327.77 439.79 327.75C446.59 327.67 453.53 327.54 460.33 327.76C461.97 327.81 463.76 326.89 463.28 329.47C453.91 329.26 444.51 328.83 435.11 328.62Z" fill="#DA9953"/>
<path d="M323.3 326.06C324.19 324.64 326.54 325.21 327.98 325.19C334.5 325.11 341.15 324.99 347.66 325.2C349.3 325.25 351.09 324.33 350.61 326.91C341.51 326.68 332.43 325.54 323.3 326.06Z" fill="#C88035"/>
<path d="M511.08 330.33C511.97 328.91 514.32 329.48 515.76 329.46C520.87 329.4 526.07 329.3 531.18 329.47C532.82 329.52 534.61 328.6 534.13 331.18C526.58 331.03 518.76 330.48 511.08 330.33Z" fill="#DA9953"/>
<path d="M354.03 326.92C353.46 326.9 352.89 326.94 352.32 326.92L353.35 326.33L354.03 326.92Z" fill="#C88035"/>
<path d="M325.86 413.98C327.2 412.7 328.9 413.14 330.52 413.1C351.22 412.62 375.9 412.06 396.27 413.99C403.44 414.67 410.13 416.94 417.19 418.26L408.66 419.96H405.25C402.36 419.61 399.41 418.54 396.71 418.25C394.86 418.05 392.66 418.27 390.73 418.25L394.99 416.55C391.58 416.87 387.54 416.09 384.23 416.49C382.94 416.65 382.3 417.38 382.19 417.39C380.22 417.27 378.19 417.43 376.21 417.39C376.69 414.8 374.91 415.75 373.26 415.68C362.61 415.26 351.85 416.12 341.21 415.68C336.5 415.48 330.19 414.79 325.85 413.97L325.86 413.98Z" fill="#2D405E"/>
<path d="M341.22 416.54C342.64 416.54 344.07 416.54 345.49 416.54C346.38 417.95 348.73 417.39 350.17 417.41C357.14 417.48 364.13 417.33 371.09 417.4C372.23 417.41 373.37 417.38 374.5 417.4C375.07 417.4 375.64 417.39 376.21 417.4C378.19 417.44 380.21 417.28 382.19 417.4C369.23 418.8 355.74 418.1 342.46 418.29L326.7 416.55C331.53 416.58 336.38 416.55 341.21 416.55L341.22 416.54Z" fill="#BABFD6"/>
<path d="M325.86 413.98C330.21 414.8 336.51 415.49 341.22 415.69V416.54C336.39 416.54 331.53 416.57 326.71 416.54C326.43 416.54 326.14 416.54 325.86 416.54C324.66 414.95 321.77 415.85 319.88 415.69C319.6 415.67 319.3 415.73 319.03 415.69L315.62 414.84C313.53 414.26 310.84 413.14 308.79 412.28L325.86 413.99V413.98Z" fill="#23314B"/>
<path d="M408.65 419.96C413.19 419.96 418.81 420.42 423.16 419.96L422.31 421.67C421.53 421.55 420.58 421.7 419.75 421.67C417.14 419.9 412.79 421.1 409.51 420.82C407.57 420.65 406.3 420.09 405.24 419.97H408.65V419.96Z" fill="#232B33"/>
<path d="M382.19 417.39C382.3 417.38 382.94 416.64 384.23 416.49C387.53 416.09 391.57 416.87 394.99 416.55L390.73 418.25C389.88 418.25 389.02 418.22 388.17 418.25C387.32 418.28 386.45 418.18 385.61 418.25L383.9 417.4C383.81 417.3 382.68 417.43 382.19 417.4V417.39Z" fill="#232B33"/>
<path d="M419.75 421.66C416.53 421.54 412.69 421.44 409.51 421.66V420.81C412.8 421.09 417.14 419.89 419.75 421.66Z" fill="#2D405E"/>
<path d="M390.73 418.25C392.66 418.27 394.85 418.05 396.71 418.25C394.98 419.67 390.06 419.71 388.17 418.25C389.02 418.22 389.88 418.25 390.73 418.25Z" fill="#BABFD6"/>
<path d="M325.86 416.54C323.99 416.52 321.05 417.17 319.88 415.69C321.76 415.85 324.65 414.95 325.86 416.54Z" fill="#BABFD6"/>
<path d="M385.61 418.25C385.52 418.25 384.47 419.65 383.91 419.1C383.72 418.91 384.1 417.62 383.91 417.4L385.62 418.25H385.61Z" fill="#BABFD6"/>
<path d="M319.03 415.69C317.24 415.44 316.97 415.21 315.62 414.84L319.03 415.69Z" fill="#BABFD6"/>
<path d="M232.384 241.573L231.98 241.976L234.109 244.104L234.512 243.701L232.384 241.573Z" fill="#849DC4"/>
<path d="M230.68 240.7C231.23 240.98 231.23 241.27 230.68 241.55V240.7Z" fill="#849DC4"/>
<path d="M423.16 419.96C433.06 418.91 439.82 410.95 445.78 403.75C446.36 411.04 439.04 416.3 434.25 420.81C438.44 423.53 453.75 411.32 454.73 412.29C455.66 413.21 453.48 414.67 452.94 415.19C448.13 419.88 438.56 424.35 432.05 425.88C431.29 433.54 431.92 441.46 429.97 448.98C429.38 444.13 427.03 438.42 427.41 433.19L425.7 434.47C424.99 430.29 424.82 425.89 423.92 421.72C423.39 421.48 422.78 421.75 422.28 421.67L423.13 419.96H423.16Z" fill="#2D405E"/>
<path d="M441.94 537.75L442.78 536.05C442.03 541.33 443.14 541.98 448.33 542.08C461.33 542.34 477.4 540.59 490.59 539.46V541.17C490.31 541.2 490.02 541.13 489.74 541.17C489.46 541.21 489.17 541.13 488.89 541.17C469.69 543.66 461.01 543.41 441.94 542.02V537.75Z" fill="#232B33"/>
<path d="M440.24 524.94L438.53 521.53C438.53 520.4 438.59 519.24 438.53 518.12C438.48 517.19 438.8 515.97 437.68 515.56C437.75 514.72 437.68 513.84 437.68 513C437.67 511.72 437.88 510.6 436.83 509.59C436.95 508.56 436.86 507.26 436.83 506.18C436.5 494.32 432.38 477.76 430.85 465.21C432.87 465.79 432.35 467.53 432.63 468.98C436 486.49 439.43 507.25 440.24 524.96V524.94Z" fill="#23314B"/>
<path d="M429.99 448.98C430.49 453.11 430.37 457.82 430.84 461.78C428.44 452.88 427.27 443.55 425.72 434.47L427.43 433.19C427.05 438.42 429.4 444.12 429.99 448.98Z" fill="#23314B"/>
<path d="M332.69 353.38C332.96 358.88 332.52 364.43 330.55 369.6C328.34 369.92 329.43 368.08 329.52 366.85C329.83 362.57 330.37 357.41 331.84 353.37C332.12 353.33 332.41 353.37 332.69 353.37V353.38Z" fill="#2D405E"/>
<path d="M456.47 412.45C457.05 412.45 457.52 411.98 457.52 411.4C457.52 410.82 457.05 410.35 456.47 410.35C455.89 410.35 455.42 410.82 455.42 411.4C455.42 411.98 455.89 412.45 456.47 412.45Z" fill="#2D405E"/>
<path d="M446.64 402.03C447.19 402.31 447.19 402.6 446.64 402.88V402.03Z" fill="#2D405E"/>
<path d="M552.05 303.87C545.9 305.42 536.56 304.92 529.86 304.72C529.75 304.72 528.9 303.87 527.79 303.83C522.55 303.63 515.45 304.61 510.61 303.87C509.97 303.77 509.31 303.78 509.37 303.01L552.05 303.86V303.87Z" fill="#394155"/>
<path d="M477.79 300.45C479.23 299.94 484.18 299.48 485.81 299.64L496.57 303H475.24C475.31 302.41 477.63 300.51 477.8 300.45H477.79Z" fill="#414E6D"/>
<path d="M676.68 332.04C672.94 332.24 669.31 332.75 665.58 332.89C665.66 332.41 665.43 331.29 665.58 331.18C666.03 330.84 675.7 330.8 676.68 332.03V332.04Z" fill="#C88035"/>
<path d="M467.55 612.01L467.98 612.85L468.41 612.01C469.26 612 470.12 612.01 470.97 612.01C471.53 613.36 474.68 613.36 475.24 612.01C475.81 612.01 476.38 612.01 476.95 612.01C478.95 613.43 484.17 613.47 486.34 612.01C487.76 611.99 489.19 612.03 490.61 612.01C491.17 613.36 494.32 613.36 494.88 612.01C499.42 611.95 504 612.08 508.54 612.01C509.02 614.59 507.24 613.66 505.59 613.72C492.1 614.17 477.15 614.26 463.69 613.72C462.05 613.65 460.27 614.6 460.74 612.01C463.01 611.94 465.3 612.05 467.57 612.01H467.55Z" fill="#FFFCFB"/>
<path d="M527.3 611.16C527.78 613.74 525.99 612.81 524.35 612.87C520.55 613 515.43 613.5 511.93 612.02C517.09 611.93 521.88 611.11 527.29 611.17L527.3 611.16Z" fill="#FFFCFB"/>
<path d="M547.79 607.74C548.34 609.66 541.37 612.86 542.67 609.45C544.13 609.11 545.74 608.05 547.79 607.74Z" fill="#FFFCFB"/>
<path d="M486.33 612.01C484.16 613.47 478.94 613.43 476.94 612.01C480.06 611.99 483.21 612.05 486.33 612.01Z" fill="#FFFCFB"/>
<path d="M553.76 606.03C554.39 609.3 550.32 607.65 549.49 607.74C550.56 606.54 552.26 606.29 553.76 606.03Z" fill="#FFFCFB"/>
<path d="M535.84 610.3C536.35 613.94 533.23 611.21 532.43 611.15C533.44 610.1 534.56 610.31 535.84 610.3Z" fill="#FFFCFB"/>
<path d="M540.96 609.45C541.38 612.92 539.14 610.36 538.4 610.3C538.83 609.12 540.06 609.57 540.96 609.45Z" fill="#FFFCFB"/>
<path d="M494.86 612.01C494.3 613.36 491.15 613.36 490.59 612.01C492.01 611.99 493.44 612.03 494.86 612.01Z" fill="#FFFCFB"/>
<path d="M475.23 612.01C474.67 613.36 471.52 613.36 470.96 612.01C472.38 611.99 473.81 612.02 475.23 612.01Z" fill="#FFFCFB"/>
<path d="M467.55 612.01C467.83 612.01 468.12 612.01 468.4 612.01L467.97 612.85L467.54 612.01H467.55Z" fill="#FFFCFB"/>
<path d="M373.66 456.66C379.76 483.49 388.21 514.36 392.44 541.16L391.59 547.99C389.08 547.41 387.29 548.82 385.2 549.28C379.01 550.65 368.9 551.52 362.1 551.44C357.36 551.38 347.41 550.69 342.93 549.7C342.64 549.64 342.3 549.79 342.08 549.7C342.02 549.15 342.16 548.53 342.08 547.99C343.46 546.7 342.45 534.11 342.01 533.53C341.48 533.3 340.92 533.52 340.38 533.48C340.54 531.66 341.9 530.33 342.09 529.21C343.29 530.3 344.27 530.71 345.9 530.95C359.4 532.93 374.99 532.12 388.19 528.79L342.94 529.22C343.21 523.5 342.54 517.82 342.09 512.14C341.19 500.92 339.77 487.61 338.74 475.8C337.77 464.6 337.31 453.32 336.11 442.15C345.89 441.21 355.88 441.06 365.57 439.56C367.16 439.31 369.03 440.64 368.55 437.88C368.83 437.85 369.12 437.91 369.4 437.88L373.67 456.66H373.66Z" fill="#2D405E"/>
<path d="M397.56 566.77C399.5 576.15 401.55 585.56 403.54 594.94C403.65 595.46 403.43 596.13 403.54 596.65C384.61 597.78 365.21 600.29 346.45 596.56C346.45 591.59 347.81 569.53 351.48 567.19C352.56 566.5 353.73 566.87 354.88 566.78C357.13 566.61 360.5 566.51 362.61 567.16C367.18 568.57 367.53 575.27 375.61 573.43C382.23 571.93 382.22 562.71 386.46 559.1C387.21 560.49 395.15 567 397.56 566.78V566.77Z" fill="#232B33"/>
<path d="M386.46 559.09C382.21 562.71 382.23 571.92 375.61 573.42C367.53 575.26 367.19 568.56 362.61 567.15C360.5 566.5 357.13 566.6 354.88 566.77L352.32 552.26C363.36 552.98 374.74 552.26 385.61 550.55C385.64 552.62 385.58 557.44 386.46 559.09Z" fill="#F6AC7D"/>
<path d="M392.44 543.72C392.5 544.65 392.16 545.86 393.29 546.28C393.51 547.24 393.99 548.11 394.14 548.84C391.35 549.79 388.5 550.09 385.6 550.55C374.73 552.26 363.35 552.98 352.31 552.26C349.37 552.07 344.95 551.78 342.92 549.7C347.4 550.68 357.35 551.38 362.09 551.44C368.89 551.52 378.99 550.65 385.19 549.28C387.28 548.82 389.07 547.41 391.58 547.99L392.43 541.16C392.55 541.93 392.38 542.88 392.43 543.72H392.44Z" fill="#23314B"/>
<path d="M340.37 533.48C340.91 533.52 341.47 533.3 342 533.53C342.45 534.11 343.45 546.7 342.07 547.99C341.96 547.28 342.09 546.53 341.22 546.28C341.22 544.87 341.31 543.42 341.22 542.01C341.19 541.45 341.23 540.87 341.22 540.3C341.17 538.02 340.14 536.02 340.37 533.47V533.48Z" fill="#23314B"/>
<path d="M373.66 456.66C375.17 454.53 375.3 461.78 375.37 461.78L388.88 457.63C391.13 459.71 389.7 462.15 390.09 463.67C393.75 477.83 395.71 492.03 398.54 506.46C398.82 507.9 398.86 509.41 400.12 510.43C400.11 510.71 400.13 511 400.12 511.28C400.07 512.38 399.76 514.13 400.97 514.69C400.96 514.97 401 515.27 400.97 515.54C400.42 520.12 401.28 518.94 401.75 522.01C404.52 540.01 408.52 557.85 412.06 575.29C413.38 581.78 415.2 588.4 416.33 594.92C416.38 595.2 416.28 595.5 416.33 595.77C414.21 594.47 414.56 594.52 414.84 596.83C415.08 598.83 417.79 612.29 417.19 612.84C416.95 613.06 415.27 612.7 414.61 612.84L415.48 614.53C406.99 614.65 409.77 612.05 408.64 607.42C408.57 607.14 407.81 604.8 407.43 603.4C406.72 600.83 405.68 596.59 403.52 594.9C401.53 585.52 399.48 576.11 397.54 566.73C396.32 560.8 395.41 554.73 394.13 548.8C393.97 548.07 393.49 547.2 393.28 546.24C393.09 545.39 393.64 544.16 392.43 543.68C392.38 542.84 392.55 541.89 392.43 541.12C388.2 514.32 379.75 483.44 373.65 456.62L373.66 456.66Z" fill="#C88035"/>
<path d="M490.6 541.16C490.66 541.16 491.01 542 491.68 541.84C492.8 541.57 493.91 539.72 495.71 540.31L498.33 558.57C498.09 559.41 491.19 560.54 489.74 560.8C475.6 563.34 459.85 564.13 445.35 561.65C443.82 558.55 443.41 555.13 442.81 551.77C442.53 550.18 443.78 548.36 441.08 548.85C440.78 546.77 440.22 544.41 440.23 542.02C440.8 542.05 441.37 541.98 441.94 542.02C461 543.41 469.69 543.66 488.89 541.17L489.32 542.01L489.75 541.17C490.03 541.13 490.32 541.2 490.6 541.17V541.16Z" fill="#374B69"/>
<path d="M412.92 575.31H412.07C408.53 557.87 404.53 540.02 401.76 522.03C401.29 518.96 400.43 520.14 400.98 515.56L412.93 575.31H412.92Z" fill="#C06D26"/>
<path d="M441.09 548.85C443.79 548.36 442.53 550.19 442.82 551.77C443.42 555.13 443.83 558.55 445.36 561.65H444.51C441.97 558.8 441.65 552.68 441.1 548.85H441.09Z" fill="#23314B"/>
<path d="M400.97 512.99C400.95 513.56 400.99 514.13 400.97 514.7C399.76 514.14 400.059 512.39 400.119 511.29C401.099 511.45 400.81 512.85 400.97 513V512.99Z" fill="#C06D26"/>
<path d="M298.54 513.85C298.62 513.45 298.99 513.11 299.39 513C299.35 513.39 298.94 513.77 298.54 513.85Z" fill="#C88035"/>
<path d="M264.4 506.17C264.4 505.89 264.4 505.6 264.4 505.32L265.24 505.75L264.4 506.18V506.17Z" fill="#C88035"/>
<path d="M294.27 444.71C294.37 444.3 294.72 443.93 295.12 443.86C295.03 444.27 294.67 444.66 294.27 444.71Z" fill="#C88035"/>
<path d="M387.31 436.17C388.43 442.42 389.58 448.71 390.72 454.95C393.94 472.56 397.38 490.17 400.11 507.87C400.08 508.01 400.14 509.65 400.11 510.43C398.85 509.41 398.81 507.9 398.53 506.46C395.7 492.03 393.74 477.83 390.08 463.67C389.69 462.15 391.12 459.71 388.87 457.63L375.36 461.78C375.29 461.78 375.16 454.53 373.65 456.66L369.38 437.88C375.36 437.28 381.33 436.93 387.31 436.17Z" fill="#C06D26"/>
<path d="M368.54 437.88C369.02 440.64 367.15 439.31 365.56 439.56C355.86 441.05 345.88 441.2 336.1 442.15C337.31 453.33 337.76 464.6 338.73 475.8C339.76 487.61 341.18 500.92 342.08 512.14L340.37 511.29C340.4 510.15 340.35 509.01 340.37 507.88L334.39 441.3C345.78 440.36 357.19 439.01 368.53 437.89L368.54 437.88Z" fill="#23314B"/>
<path d="M389.88 436.17C391.04 442.37 390.74 448.66 390.73 454.95C389.59 448.71 388.44 442.42 387.32 436.17C388.14 436.07 389.06 436.28 389.88 436.17Z" fill="#23314B"/>
<path d="M494.86 536.89C494.99 536.14 495.71 536.1 495.71 536.04L494.86 536.89Z" fill="#F5F2F5"/>
<path d="M341.22 415.69C351.86 416.13 362.62 415.27 373.27 415.69C374.91 415.75 376.69 414.81 376.22 417.4C375.65 417.39 375.08 417.4 374.51 417.4C373.92 416.12 372.22 416.57 371.1 416.55C362.6 416.34 354 416.55 345.49 416.55C344.07 416.55 342.64 416.55 341.22 416.55V415.7V415.69Z" fill="#232B33"/>
<path d="M371.1 416.54V417.39C364.14 417.32 357.15 417.48 350.18 417.4C348.74 417.38 346.38 417.95 345.5 416.53C354.01 416.53 362.6 416.32 371.11 416.53L371.1 416.54Z" fill="#7C8DA7"/>
<path d="M374.51 417.39C373.37 417.37 372.23 417.4 371.1 417.39V416.54C372.22 416.57 373.92 416.11 374.51 417.39Z" fill="#2D405E"/>
<path d="M488.89 541.16C489.17 541.12 489.46 541.2 489.74 541.16L489.31 542L488.88 541.16H488.89Z" fill="#23314B"/>
<path d="M342.07 512.14C342.52 517.81 343.19 523.5 342.92 529.22L388.17 528.79C374.96 532.12 359.38 532.93 345.88 530.95C344.26 530.71 343.27 530.31 342.07 529.21C342.46 526.88 341.26 525.34 341.22 524.09C341.16 522.39 341.26 520.67 341.22 518.97C341.19 517.6 341.73 515.42 340.37 514.7C340.45 513.57 340.34 512.42 340.37 511.29L342.08 512.14H342.07Z" fill="#232B33"/>
<path d="M393.29 546.28C392.16 545.86 392.5 544.65 392.44 543.72C393.65 544.2 393.1 545.43 393.29 546.28Z" fill="#2D405E"/>
<path d="M121 240.7C117.98 265.71 116.99 307.04 80.0302 296.18C75.8902 293.05 74.3002 290.02 72.7602 285.1C71.1802 280.09 64.7902 242.28 66.3702 240.69" fill="#EDEBF0"/>
<path d="M121 240.7C121 240.7 110.67 239.42 66.3701 240.7H121Z" fill="#EDEBF0"/>
<path d="M488.17 45.6201L720.79 42.6101C723.47 42.6101 725.57 44.9401 725.3 47.6101L704.87 252.71C704.64 255.06 702.64 256.84 700.28 256.81L468.75 253.39C466.1 253.35 464.04 251.06 464.29 248.42L483.63 49.7401C483.85 47.4001 485.82 45.6101 488.17 45.6201Z" fill="#23314B"/>
<path d="M476.87 41.8301L709.81 42.6201C712.49 42.6201 714.59 44.9501 714.32 47.6201L693.89 252.72C693.66 255.07 691.66 256.85 689.3 256.82L457.77 253.4C455.12 253.36 453.06 251.07 453.31 248.43L472.33 45.9601C472.55 43.6201 474.52 41.8301 476.87 41.8401V41.8301Z" fill="#D8DAEF"/>
<path d="M469.899 71.0101H711.999L696.609 224.66H455.619L469.899 71.0101Z" fill="#414E6D"/>
<path d="M530.17 210.99L542.01 83.53" stroke="#8BA4D5" stroke-miterlimit="10"/>
<path d="M519.449 121.59H487.249C485.859 121.59 484.779 120.38 484.919 119L488.359 86.7701C488.489 85.58 489.489 84.6801 490.689 84.6801H522.889C524.279 84.6801 525.359 85.8901 525.219 87.2701L521.779 119.5C521.649 120.69 520.649 121.59 519.449 121.59Z" stroke="#8BA4D5" stroke-miterlimit="10"/>
<path d="M514.53 166.29H482.33C480.94 166.29 479.86 165.08 480 163.7L483.44 131.47C483.57 130.28 484.57 129.38 485.77 129.38H517.97C519.36 129.38 520.44 130.59 520.3 131.97L516.86 164.2C516.73 165.39 515.73 166.29 514.53 166.29Z" stroke="#8BA4D5" stroke-miterlimit="10"/>
<path d="M509.69 210.99H477.49C476.1 210.99 475.02 209.78 475.16 208.4L478.6 176.17C478.73 174.98 479.73 174.08 480.93 174.08H513.13C514.52 174.08 515.6 175.29 515.46 176.67L512.02 208.9C511.89 210.09 510.89 210.99 509.69 210.99Z" stroke="#8BA4D5" stroke-miterlimit="10"/>
<path d="M554.909 91.6801H606.619" stroke="#8BA4D5" stroke-width="5" stroke-miterlimit="10"/>
<path d="M567.869 104.64H657.649" stroke="#8BA4D5" stroke-width="5" stroke-miterlimit="10"/>
<path d="M578.18 117.6H605" stroke="#8BA4D5" stroke-width="5" stroke-miterlimit="10"/>
<path d="M576.68 130.55H603.5" stroke="#8BA4D5" stroke-width="5" stroke-miterlimit="10"/>
<path d="M563.26 143.51H630.11" stroke="#8BA4D5" stroke-width="5" stroke-miterlimit="10"/>
</g>
<defs>
<clipPath id="clip0_219_844">
<rect width="847.39" height="652.95" fill="white"/>
</clipPath>
</defs>
</svg>
