<svg width="339" height="236" viewBox="0 0 339 236" fill="none" xmlns="http://www.w3.org/2000/svg">
<path d="M259.118 236.366C303.051 236.366 338.665 230.919 338.665 224.199C338.665 217.479 303.051 212.032 259.118 212.032C215.186 212.032 179.571 217.479 179.571 224.199C179.571 230.919 215.186 236.366 259.118 236.366Z" fill="#F0F2FA"/>
<path d="M276.896 179.37L283.99 229.12C284.071 229.683 284.392 230.201 284.896 230.463C285.23 230.636 285.673 230.734 286.257 230.618C287.258 230.418 287.842 229.76 288.146 229.266C288.343 228.95 288.423 228.575 288.4 228.202L285.259 179.075C285.173 177.726 283.722 176.915 282.53 177.55L278.201 179.849C277.51 180.216 276.78 178.595 276.893 179.37H276.896Z" fill="#192B48"/>
<path d="M271.894 162.556L264.8 212.306C264.719 212.869 264.398 213.387 263.894 213.649C263.56 213.822 263.116 213.92 262.533 213.804C261.531 213.605 260.947 212.946 260.644 212.452C260.447 212.136 260.366 211.761 260.39 211.389L263.531 162.261C263.617 160.912 265.068 160.102 266.26 160.736L270.589 163.035C271.28 163.402 272.01 161.782 271.897 162.556H271.894Z" fill="#192B48"/>
<path d="M225.749 171.006L218.655 220.756C218.574 221.319 218.253 221.837 217.749 222.099C217.415 222.272 216.972 222.37 216.388 222.254C215.387 222.055 214.803 221.396 214.499 220.902C214.302 220.586 214.222 220.211 214.245 219.839L217.386 170.711C217.472 169.362 218.923 168.552 220.115 169.186L224.444 171.485C225.135 171.852 225.865 170.231 225.752 171.006H225.749Z" fill="#192B48"/>
<path d="M311.35 175.045L326.879 222.841C327.054 223.383 327.46 223.836 328.002 224.012C328.359 224.125 328.815 224.146 329.369 223.931C330.323 223.562 330.782 222.814 330.999 222.275C331.136 221.93 331.154 221.545 331.068 221.185L319.543 173.323C319.227 172.01 317.66 171.462 316.594 172.29L312.723 175.295C312.104 175.775 311.109 174.303 311.353 175.048L311.35 175.045Z" fill="#192B48"/>
<path d="M271.629 181.651C271.629 181.651 281.511 183.015 286.669 181.946C291.826 180.877 319.865 175.098 319.865 175.098C319.865 175.098 331.932 172.084 333.651 153.355C338.486 100.633 334.872 84.6468 334.872 84.6468C334.872 84.6468 334.223 76.0747 318.676 75.9138C303.13 75.753 246.873 102.357 246.873 102.357L232.64 125.858C232.64 125.858 215.065 120.571 198.318 123.487C190.973 125.271 189.406 135.764 189.463 144.738C189.507 151.714 190.774 158.63 193.121 165.198L195.138 170.845C195.857 172.853 197.54 174.36 199.617 174.848C203.311 175.718 210.756 176.969 225.388 178.074C251.026 180.013 271.632 181.648 271.632 181.648L271.629 181.651Z" fill="#83C8B8"/>
<path d="M79.5469 236.366C123.479 236.366 159.094 230.919 159.094 224.199C159.094 217.479 123.479 212.032 79.5469 212.032C35.6144 212.032 0 217.479 0 224.199C0 230.919 35.6144 236.366 79.5469 236.366Z" fill="#F0F2FA"/>
<path d="M38.4163 170.246L22.4944 217.911C22.3157 218.451 21.9045 218.903 21.3623 219.07C21.0048 219.18 20.5489 219.195 19.9947 218.978C19.0443 218.603 18.5914 217.849 18.3799 217.307C18.2428 216.958 18.2309 216.577 18.3203 216.217L30.2409 168.453C30.5686 167.143 32.1388 166.607 33.1994 167.444L37.0428 170.482C37.6566 170.967 38.6636 169.502 38.4163 170.246Z" fill="#192B48"/>
<path d="M106.162 168.489L122.084 216.154C122.262 216.693 122.674 217.146 123.216 217.313C123.573 217.423 124.029 217.438 124.583 217.22C125.534 216.845 125.987 216.092 126.198 215.55C126.335 215.201 126.347 214.82 126.258 214.459L114.337 166.696C114.009 165.385 112.439 164.849 111.379 165.686L107.535 168.724C106.922 169.21 105.914 167.744 106.162 168.489Z" fill="#192B48"/>
<path d="M75.8077 179.349L68.7138 229.099C68.6333 229.662 68.3115 230.18 67.808 230.442C67.4743 230.615 67.0304 230.713 66.4464 230.597C65.4454 230.397 64.8614 229.739 64.5575 229.245C64.3609 228.929 64.2804 228.554 64.3042 228.181L67.4445 179.054C67.5309 177.705 68.9819 176.894 70.1737 177.529L74.5027 179.828C75.194 180.195 75.9239 178.574 75.8107 179.349H75.8077Z" fill="#192B48"/>
<path d="M63.1037 159.717L70.1976 209.467C70.278 210.03 70.5998 210.549 71.1033 210.811C71.437 210.984 71.8809 211.082 72.4649 210.966C73.466 210.766 74.05 210.108 74.3539 209.613C74.5505 209.298 74.6309 208.922 74.6071 208.55L71.4668 159.422C71.3804 158.073 69.9294 157.263 68.7377 157.897L64.4086 160.197C63.7174 160.563 62.9875 158.943 63.1007 159.717H63.1037Z" fill="#192B48"/>
<path d="M25.4172 75.0202C25.4172 75.0202 2.00213 71.5949 4.63293 94.6784C5.86044 105.443 10.1448 144.009 11.7239 158.392C12.5492 165.913 17.6589 172.355 24.875 174.634C25.0537 174.69 25.2354 174.744 25.4202 174.798C35.714 177.755 55.1873 180.57 62.8652 181.556C70.5431 182.542 75.0599 182.387 83.5661 181.508C92.0723 180.629 137.064 175.691 137.064 175.691C137.064 175.691 143.809 159.688 143.103 139.347C142.272 123.814 136.343 122.322 131.368 121.348C126.392 120.374 113.274 117.637 85.893 117.014C56.0693 107.501 57.2908 75.9614 57.2908 75.9614C57.2908 75.9614 36.4529 74.6151 25.4202 75.0172L25.4172 75.0202Z" fill="#556BA2"/>
<path d="M46.3117 74.9309L26.3051 74.9905C26.3051 74.9905 13.7618 76.1134 16.5505 90.5056C19.3392 104.898 21.392 115.504 21.392 115.504C21.392 115.504 23.9365 120.529 28.3787 121.938C30.2051 122.516 32.4009 123.674 34.9364 124.374C38.5713 125.378 42.3849 125.858 42.3849 125.858L57.69 95.1074L46.3088 74.9309H46.3117Z" fill="#556BA2"/>
<path d="M237.967 212.5C237.967 212.5 226.681 220.199 222.603 224.187C218.524 228.176 219.129 228.334 219.129 228.334C219.129 228.334 218.262 229.674 229.509 230.573C240.756 231.473 254.136 225.12 254.136 225.12L252.939 214.909C252.939 214.909 249.912 212.714 247.689 212.973C245.466 213.232 237.964 212.503 237.964 212.503L237.967 212.5Z" fill="white"/>
<path d="M276.694 181.055C278.395 178.342 279.619 175.366 280.71 172.367C282.825 166.339 284.157 160.06 284.941 153.727C285.811 146.248 286.609 136.628 292.088 130.942C295.619 127.323 300.895 126.584 305.692 126.176C312.041 125.712 318.39 124.678 324.349 122.438C328.508 120.788 333.314 118.352 334.595 113.735C334.959 112.222 335.173 110.637 335.346 109.059C335.963 102.726 335.972 96.2898 335.397 89.9545C335.129 87.6402 334.914 85.2067 333.99 83.0771C331.92 79.3182 328.905 77.5758 324.748 76.7626C321.626 76.1431 318.441 76.0776 315.253 75.9048C318.438 75.3329 321.727 75.2853 324.918 75.9078C328.127 76.5154 331.395 77.9183 333.415 80.6079C333.907 81.284 334.399 81.9542 334.798 82.678C335.179 83.4643 335.388 84.2625 335.575 85.0578C336.574 89.8145 336.711 94.6784 336.752 99.5096C336.749 102.726 336.63 105.946 336.305 109.16C336.133 110.768 335.924 112.365 335.543 113.973C335.134 115.635 334.196 117.113 333.046 118.31C326.709 124.63 314.398 126.48 305.77 127.117C301.157 127.499 296.104 128.124 292.705 131.564C287.393 137.039 286.585 146.546 285.7 153.823C284.494 163.003 282.027 173.38 276.694 181.058V181.055Z" fill="#5B8C81"/>
<path d="M289.493 53.8728C289.502 56.336 287.658 61.2774 286.463 63.5023C286.207 63.9818 284.395 66.7102 284.139 66.8502C283.71 67.0855 283.689 66.9097 283.379 66.6953C282.685 66.2187 278.556 61.2654 277.882 61.9148C277.563 62.2215 278.305 62.7487 278.505 62.9275C280.257 64.509 281.654 66.3081 283.454 67.8271C284.693 68.1786 286.105 65.5694 286.669 64.5984C288.587 61.2952 289.478 57.8342 290.384 54.1676C293.545 55.1416 297.21 56.5534 300.287 57.8104C310.808 62.1113 315.444 64.3035 318.667 75.9108C321.504 86.1241 323.837 101.136 324.325 111.653C324.4 113.255 324.432 115.272 324.322 116.862C324.239 118.057 323.586 119.924 323.729 120.886C323.759 121.074 323.711 121.288 323.729 121.482C322.815 121.974 323.247 121.982 323.133 122.078C321.384 123.573 320.243 124.231 318.071 125.056C311.806 126.37 304.855 125.923 298.72 127.737C296.289 128.455 294.129 129.733 292.171 131.311H283.835C282.766 132.056 280.808 132.431 279.971 132.431C279.771 132.431 258.239 130.912 258.039 130.912C258.439 130.054 254.756 126.441 254.36 125.646C256.711 125.753 283.251 128.672 283.537 126.102C284.02 121.783 282.22 117.86 277.879 116.719L285.813 115.242C288.972 116.291 290.029 121.306 290.101 124.306C290.137 125.831 289.585 127.287 289.788 128.788C289.842 129.193 290.005 129.733 290.381 129.229C291.036 124.336 290.935 118.715 287.404 114.935C291.701 114.203 295.884 112.904 300.15 112.046C303.27 111.421 307.983 110.274 311.037 110.503C311.779 110.56 314.937 111.492 315.092 111.355C315.893 110.658 312.524 109.931 312.235 109.899C309.258 109.559 306.1 110.205 303.189 110.762C303.159 110.476 303.055 110.208 302.981 109.931C301.679 104.99 299.992 93.4662 299.617 88.2687C299.119 81.3794 300.555 74.6003 304.971 69.2091C304.113 68.6194 303.055 70.5495 302.584 71.2881C294.731 83.5775 301.652 97.5646 302.167 110.78C296.885 112.046 291.605 113.443 286.287 114.554C283.811 115.072 280.638 115.772 278.171 115.969C277.376 116.031 277.516 115.48 277.584 116.719C273.967 115.826 264.713 113.661 261.362 113.717C258.912 113.759 254.279 116.669 251.979 117.911L251.681 108.085C250.993 107.912 251.19 108.219 251.002 108.46C250.433 109.187 249.846 110.155 249.599 111.06C248.735 111.239 249.057 110.634 248.92 110.116C247.364 104.245 245.577 98.4165 243.762 92.6233C242.687 90.6366 241.227 90.7468 239.18 90.8034C238.784 90.8153 238.384 90.8034 237.988 90.8034C239.397 85.2753 241.021 79.6518 243.125 74.3471C245.758 67.705 247.46 64.792 253.865 61.2654C256.657 59.7285 259.952 58.3852 262.997 57.444C262.452 59.0226 261.907 66.4213 263.334 67.2344C264.106 67.6752 268.077 63.8478 268.506 63.1032C268.712 62.7487 268.935 62.0875 268.214 62.2126C266.924 63.273 265.777 64.938 264.49 65.9358C264.192 66.1651 264.109 66.5106 263.596 66.3796C262.809 63.1657 263.578 59.797 263.593 56.5505C264.177 55.6867 265.279 54.4387 266.272 54.1676C266.477 55.0016 266.927 55.8237 267.165 56.5505C268.405 60.363 269.546 64.2023 271.185 67.8688C272.329 66.2515 273.434 64.5805 274.754 63.1002C277.587 59.9192 284.791 55.3442 285.209 51.1951C285.289 50.4028 285.06 49.6433 285.03 48.8093C287.673 48.6455 289.487 51.4721 289.496 53.8728H289.493ZM270.44 69.364C269.6 68.402 268.744 73.385 268.694 73.7216C267.171 83.9409 267.21 99.593 267.749 110.033C267.818 111.361 267.979 113.497 268.506 114.634C268.703 106.274 268.101 97.8625 268.342 89.4541C268.473 84.9327 268.643 79.0234 269.251 74.5794C269.373 73.6799 270.613 69.5666 270.437 69.364H270.44ZM271.539 74.1773C270.535 74.4871 270.204 75.878 271.024 76.6673C272.901 78.4753 274.456 73.2778 271.539 74.1773ZM249.301 76.5125C248.934 76.0299 248.762 76.5184 248.705 76.9533C248.61 77.6979 248.663 78.8536 248.708 79.6369C248.943 83.786 249.798 88.2627 250.192 92.4505C250.585 96.6383 250.439 103.334 251.378 107.063C251.503 107.563 251.08 107.933 251.979 107.787L249.301 76.5154V76.5125ZM271.25 91.4467C269.671 91.8786 269.793 94.6695 271.763 94.3865C273.482 94.1393 273.13 90.9315 271.25 91.4467ZM272.481 109.318C272.224 109.157 271.286 109.234 270.946 109.336C269.674 109.72 270.014 112.225 270.934 112.52C272.707 113.086 273.276 109.818 272.481 109.318Z" fill="#FCE5D4"/>
<path d="M116.22 163.482C117.206 169.698 118.601 177.183 118.601 177.183C120.275 184.96 121.58 192.832 123.335 200.594C123.654 201.765 125.09 201.199 126.043 201.309C130.524 201.825 135.715 201.61 140.038 200.118C140.401 199.993 141.816 199.531 141.846 199.341C140.392 190.033 139.784 180.603 138.849 171.226C138.849 171.226 137.52 151.866 134.979 145.313C132.619 139.234 129.508 137.769 123.666 136.08C116.095 133.891 108.897 134.111 101.633 132.506C104.234 134.909 107.267 136.664 108.939 139.94C109.246 140.542 109.976 142.347 109.97 142.93C116.396 146.773 115.788 156.024 115.922 162.586C115.556 163.068 115.383 162.58 115.326 162.145C115.043 159.923 115.3 157.052 115.026 154.696C114.585 150.913 113.613 145.367 109.672 143.821C109.043 145.489 107.252 146.013 106.397 144.417H106.099C105.185 146.791 103.471 146.085 101.931 144.715H101.633C100.227 148.202 95.013 143.916 92.6056 142.877C89.7603 141.647 86.6885 140.979 83.8671 139.705C82.7647 139.204 80.5689 137.605 79.9164 137.402C78.4148 136.935 75.0749 136.908 73.2485 136.625C70.6951 136.232 68.109 135.827 65.6063 135.186C68.1895 140.303 70.1082 153.001 70.9663 159.014C74.8037 158.562 78.7276 158.681 82.577 159.014C85.33 159.253 88.2021 159.676 90.9133 160.206C91.1666 160.256 91.4854 160.516 91.8072 160.504C92.2779 159.032 92.3315 157.355 92.695 155.881C92.8112 155.413 92.7099 154.842 93.4428 154.842C93.3505 156.307 93.133 158.973 92.695 160.292C92.5788 160.638 92.123 160.477 92.1081 160.504C91.5658 161.347 93.9106 177.964 94.1907 180.46C95.1351 188.8 96.2345 197.139 97.1671 205.482C97.8434 205.539 98.5853 205.405 99.2527 205.482C103.436 205.965 109.123 206.117 113.247 205.184C113.914 205.032 114.841 204.907 115.329 204.44V184.484C115.329 182.309 115.565 179.763 115.627 177.484C115.639 177.088 115.615 176.689 115.627 176.293V162.892C116.42 162.803 116.17 162.913 116.223 163.485" fill="#FCE5D4"/>
<path d="M62.037 61.6169C62.475 66.5553 70.0724 72.423 74.6875 72.9383C81.1051 73.6531 84.2603 69.8942 83.1728 63.7019C86.9001 64.8844 90.7077 66.0817 93.8897 68.4675C93.991 68.542 94.0744 68.676 94.1877 68.7654C98.2128 71.9703 100.516 77.826 102.524 82.4666C103.671 85.1145 104.636 87.8458 105.798 90.5085C106.236 91.5123 106.57 92.5965 107.032 93.5943C107.407 94.4044 109.618 98.1782 109.642 98.4523C109.666 98.7263 108.697 99.6079 108.48 99.7419C106.957 100.686 104.386 101.985 102.727 102.774C99.9558 104.091 96.9853 105.05 94.0894 106.059C93.8212 106.155 93.6752 106.324 93.5948 106.593C92.6801 109.562 92.2153 113.872 91.8071 117.017C91.7326 117.601 91.2113 119.096 91.2113 119.549V126.698C91.2113 127.284 91.8876 128.741 91.8071 129.527V129.825C88.9141 129.462 86.3846 129.7 83.4082 128.848C72.9654 125.849 62.1204 120.172 51.3827 117.104C50.033 116.719 48.5612 116.407 47.149 116.422C47.0298 115.626 47.289 115.829 47.8998 115.814C49.2643 115.784 50.5276 116.442 51.8832 116.398L53.6977 103.915C50.7153 103.251 47.6942 102.58 44.6284 102.411C43.4962 102.348 37.2484 102.259 36.8611 102.715C36.7151 102.887 36.7866 103.164 36.727 103.319C36.3993 103.137 35.3148 103.173 35.2194 102.84C35.0377 102.196 35.4608 99.0748 35.574 98.1455C36.3665 91.6314 38.4521 81.6504 40.8952 75.6189C40.9548 75.473 40.8326 75.1573 40.8952 75.0232C44.9561 66.04 53.9271 64.5448 62.034 61.6199L62.037 61.6169Z" fill="#E84142"/>
<path d="M140.335 82.7645C139.752 84.918 140.335 84.4414 140.633 85.743C140.931 87.0447 139.96 89.4483 139.391 90.604C139.138 91.1163 138.378 91.8252 138.256 92.1498C138.029 92.7455 138.867 92.7098 139.105 92.549C139.731 92.132 141.742 86.5621 141.229 85.4422C143.926 84.2627 145.52 83.667 148.374 82.7615C148.8 82.6275 149.375 82.6484 149.864 82.4637C151.735 81.7578 155.375 79.2171 156.934 78.9401C158.838 78.6006 158.54 80.1404 158.832 80.34C159.585 80.8523 162.988 79.8664 159.985 83.0564C163.616 83.813 159.418 86.8481 157.899 87.828C157.774 87.9084 157.154 87.8161 156.797 88.0514C154.44 89.6151 152.286 91.5839 149.563 92.5906C149.762 91.9562 148.979 89.9874 149.286 89.633C149.345 89.5645 150.602 89.3768 151.052 89.1654C152.503 88.4803 155.45 86.583 156.621 85.5048C156.943 85.2099 157.449 85.195 157.3 84.5487C154.78 85.6447 151.991 88.5428 149.363 89.2696C148.806 89.4245 149.044 89.2368 148.901 88.936C148.758 88.6352 148.07 86.9225 148.094 86.8123C148.222 86.2583 157.038 82.4041 157.598 80.6796C156.019 81.0459 154.649 82.4577 153.224 83.3007C152.03 84.0036 148.219 86.303 147.072 86.0528C146.768 85.9873 146.98 85.058 146.58 85.5971C148.04 87.9799 148.86 90.4134 149.268 93.1893C149.965 93.7969 156.8 88.8526 157.899 88.1259C159.106 88.3403 159.818 89.4543 159.091 90.5087C158.304 90.5176 150.296 96.427 148.484 97.3235C145.246 98.926 141.646 99.5991 138.262 100.796C132.339 106.926 126.988 113.682 120.385 119.102C120.013 119.409 119.584 119.692 119.194 119.996C119.083 120.082 119.003 120.213 118.896 120.294C117.886 120.547 117.105 121.315 116.217 121.783C108.563 125.81 104.21 123.677 99.5446 117.017C97.2653 113.765 95.8978 109.798 93.5887 106.593C93.6722 106.325 93.8152 106.155 94.0833 106.06C96.9793 105.05 99.9498 104.091 102.721 102.774C104.38 101.985 106.951 100.686 108.474 99.7421C109.186 101.365 109.937 102.992 110.571 104.651C110.741 105.091 110.753 105.782 110.854 105.997C110.074 107.176 108.206 107.763 107.878 109.27C108.083 109.482 110.247 107.602 110.565 107.34C110.932 107.033 111.236 106.456 111.45 106.295C116.867 102.181 125.879 98.3868 130.602 93.7344C131.811 92.543 131.633 91.9771 131.993 90.5087C132.911 86.7617 133.104 86.2553 135.268 83.0624C135.625 82.5352 136.444 81.9812 136.996 81.0668C137.609 80.0511 139.862 73.4418 141.497 75.7888C142.734 77.564 140.818 80.9685 140.33 82.7645H140.335ZM158.051 80.3817V80.6796C158.245 80.5813 158.245 80.48 158.051 80.3817ZM159.687 83.0654C159.27 82.9552 157.115 84.0632 157.607 84.5516L159.687 83.0654Z" fill="#F7B8A1"/>
<path d="M94.7835 30.0448C93.5411 29.2942 90.7107 28.082 91.0682 30.3457C91.9888 30.2265 93.7228 30.7507 94.4856 31.2362C94.5243 31.2601 94.7656 31.5043 94.7835 31.5341C94.8818 31.7039 95.6356 34.4977 95.6773 34.8105C95.865 36.1925 95.9693 38.9953 95.9753 40.4696C95.9842 42.358 95.6445 44.2672 95.3794 46.1288C95.3645 46.2271 95.3943 46.3284 95.3794 46.4267C94.4379 48.327 94.277 50.6294 93.3504 52.5862C90.8715 57.8165 87.1265 60.2083 81.3881 59.2343C77.6937 58.6088 74.9794 55.9132 71.866 54.0189C73.7311 57.2029 76.633 60.1755 80.104 61.5963C80.682 61.8316 81.6175 60.3483 81.6444 60.39C81.7159 60.5002 81.981 62.3081 82.136 62.5136C82.6723 63.2315 82.1687 63.3804 83.1758 63.7021C84.2633 69.8944 81.108 73.6503 74.6904 72.9384C70.0724 72.4261 62.4779 66.5585 62.0399 61.6171C62.5822 61.4205 63.6458 61.1286 63.9646 60.7116C64.2 60.4048 65.0968 57.5365 65.3173 56.8515C66.0115 54.6921 66.6372 52.348 67.0155 50.0634C67.2271 48.7857 67.5935 47.9159 67.1019 46.7245C67.0632 46.6322 67.1466 46.4743 67.1019 46.4267C66.5984 45.8995 65.1445 45.7118 64.3221 45.1876C61.8522 43.6179 60.9405 39.9186 61.5722 37.1724C62.1383 34.7122 65.0789 33.759 67.2121 34.8492C68.2788 35.3942 68.7167 37.232 69.7804 37.1933C70.3584 37.1724 70.5759 37.2409 71.1301 36.9103C72.1669 36.2967 73.9754 33.5208 75.2953 32.4336C79.955 28.5854 86.1343 26.3038 88.3867 19.9238C92.0335 21.8956 94.3813 25.9464 94.7895 30.0448H94.7835ZM78.4117 32.7225C78.7126 33.0382 81.543 31.0426 82.3356 30.8431C83.0596 30.6614 85.4759 30.8312 85.2554 29.8989C84.9902 28.7611 81.9959 29.3419 81.1796 29.6874C80.5211 29.9674 77.6341 31.9094 78.4117 32.7225ZM89.1256 33.622C88.7562 33.1216 88.5834 33.6578 88.5297 34.0658C88.1514 36.9192 90.0612 40.3654 91.2112 42.8524C90.9818 43.1652 87.8206 43.6269 87.335 43.8949C86.8494 44.163 87.2933 44.6187 87.4929 44.6455C88.3182 44.7527 91.7356 43.7728 91.822 42.6946C91.8547 42.2776 89.945 38.8761 89.6381 37.7294C89.2805 36.392 89.0213 35.0189 89.1256 33.628V33.622ZM93.5202 35.1828C92.0812 33.6846 90.5945 37.506 92.3017 38.0541C93.9195 38.5723 94.3753 36.0763 93.5202 35.1828ZM84.0279 38.9387C84.8264 38.4442 84.2841 35.284 82.7676 35.7219C81.2511 36.1597 82.136 40.1122 84.0279 38.9387ZM67.6948 41.661C68.2609 41.5151 68.2192 41.2411 68.1715 40.7645C67.9838 38.8642 66.2409 36.5112 64.1195 36.8984C64.3638 37.5924 65.1951 37.4107 65.7671 37.78C66.9947 38.5753 67.5309 40.2611 67.6978 41.661H67.6948Z" fill="#F7B8A1"/>
<path d="M128.129 64.2976H116.667C115.928 64.2976 114.674 77.6801 114.436 78.8923H126.046L128.129 64.2976Z" fill="#F0F2FA"/>
<path d="M150.46 216.798C150.165 217.453 149.685 217.691 149.038 217.909C144.596 219.407 134.481 216.762 130.215 214.713C128.993 214.063 128.391 213.054 127.536 212.032C128.034 208.717 126.636 204.574 126.046 201.309C130.527 201.825 135.718 201.61 140.041 200.118C140.157 202.447 140.198 205.22 140.92 207.43C142.04 210.867 147.465 214.781 150.463 216.798H150.46Z" fill="#F7B8A1"/>
<path d="M251.735 208.08C251.401 211.35 253.076 215.711 249.17 216.813C244.439 218.144 243.7 213.64 239.853 212.699C239.293 212.562 238.361 212.762 237.967 212.5C237.613 212.264 237.485 207.52 237.443 206.888C241.656 208.005 247.397 208.452 251.732 208.08H251.735Z" fill="#F7B8A1"/>
<path d="M217.722 213.191L218.262 222.305C218.262 222.305 198.976 226.546 192.04 226.326C185.104 226.106 184.186 225.924 178.856 224.056C180.394 221.927 187.434 217.977 188.372 217.685C189.311 217.393 201.649 214.308 201.649 214.308L209.496 214.415L214.663 213.194H217.719L217.722 213.191Z" fill="white"/>
<path d="M197.498 230.499C193.732 230.785 183.263 230.293 180.125 228.369C178.156 227.163 178.29 223.979 179.771 222.442C180.379 221.81 183.179 220.023 183.984 219.8C184.544 219.645 184.544 220.214 184.398 220.366C184.329 220.434 183.096 220.845 182.637 221.14C181.958 221.575 179.899 222.871 179.64 223.502C179.437 224 179.827 223.901 180.012 224.011C181.031 224.61 182.857 225.102 184.04 225.346C195.544 227.702 206.547 223.946 217.728 221.846C217.761 218.462 217.544 215.031 216.849 211.734C217.639 211.555 217.451 212.082 217.588 212.616C217.958 214.063 218.25 216.559 218.336 217.986C218.449 219.88 218.551 223.171 218.342 224.991C218.279 225.533 218.205 226.108 217.728 226.46C211.186 227.878 204.661 229.635 197.972 230.222C197.731 230.242 197.552 230.493 197.498 230.496V230.499ZM217.743 222.457C205.099 224.86 192.031 229.307 179.339 224.545C178.537 228.298 182.428 228.72 185.229 229.221C196.348 231.213 206.499 228.375 217.249 225.983C218.199 225.417 217.576 223.463 217.74 222.457H217.743Z" fill="#B6C8E9"/>
<path d="M253.469 217.691C253.713 219.535 254.625 227.925 253.922 229.027C253.743 229.307 253.225 229.251 253.174 229.307C253.618 228.849 253.576 225.724 253.32 225.727C242.115 229.37 230.489 232.831 218.792 229.004C218.017 231.681 219.549 232.56 221.855 233.087C228.916 234.705 236.379 233.683 243.298 232.08C244.608 231.777 252.757 229.739 253.177 229.304C253.037 229.456 253.213 229.903 252.513 230.27C251.628 230.731 245.913 232.244 244.546 232.581C237.744 234.246 228.144 235.342 221.31 233.638C220.532 233.445 218.7 232.664 218.345 231.985C216.59 228.628 220.472 225.766 222.811 224.241C222.072 226.109 219.832 226.01 219.287 228.018C219.132 228.587 220.508 228.786 220.961 228.923C231.866 232.229 243.05 228.268 253.436 225.093C253.588 221.772 253.103 218.436 252.575 215.16C252.587 214.272 252.963 214.829 253.103 215.231C253.413 216.125 253.365 216.825 253.478 217.685L253.469 217.691Z" fill="#B6C8E9"/>
<path d="M267.165 56.5534C266.93 55.8267 266.477 55.0046 266.272 54.1706C266.161 53.7179 266.009 53.4885 266.272 52.9792C270.3 53.1311 274.951 51.347 278.153 48.9314C278.508 48.6663 278.591 47.8681 279.068 48.0617C276.628 52.6337 271.933 55.0582 267.165 56.5534Z" fill="#EE786F"/>
<path d="M290.387 54.1706C289.481 57.8372 288.587 61.2982 286.671 64.6014C286.108 65.5724 284.696 68.1815 283.457 67.8301C281.657 66.311 280.26 64.512 278.508 62.9304C278.311 62.7517 277.566 62.2245 277.885 61.9177C278.559 61.2684 282.688 66.2217 283.382 66.6982C283.692 66.9097 283.713 67.0854 284.142 66.8531C284.398 66.7131 286.21 63.9818 286.466 63.5053C287.658 61.2803 289.505 56.3419 289.496 53.8757C289.824 53.8787 290.098 54.0842 290.39 54.1736L290.387 54.1706Z" fill="#EDCDAF"/>
<path d="M263.593 56.5535C263.578 59.7971 262.81 63.1658 263.596 66.3826C264.109 66.5136 264.192 66.1711 264.49 65.9388C265.774 64.941 266.924 63.276 268.214 62.2156C268.938 62.0905 268.712 62.7518 268.506 63.1062C268.077 63.8508 264.109 67.6782 263.334 67.2374C261.907 66.4243 262.452 59.0256 262.997 57.447C263.081 57.2087 263.42 56.8066 263.593 56.5535Z" fill="#EDCDAF"/>
<path d="M284.732 45.533C284.631 44.145 284.568 42.748 284.431 41.363C285.834 41.5805 286.594 41.089 287.708 40.4695C287.261 42.3608 285.983 44.0735 284.732 45.533Z" fill="#192B48"/>
<path d="M257.042 23.7897C257.021 23.7897 256.848 23.5842 256.744 23.4919C256.714 23.0987 256.788 22.6877 256.744 22.3005H257.042C257.313 22.6877 257.935 21.958 258.513 21.8239C259.38 21.6244 261.815 21.9967 261.815 23.0421C261.815 24.4182 259.815 23.1732 258.966 23.1851C258.201 23.197 257.572 23.8493 257.042 23.7897Z" fill="#29345C"/>
<path d="M240.667 217.986L237.523 216.518L232.634 215.755C232.676 214.87 236.746 215.415 237.523 215.624C238.575 215.904 240.506 216.741 240.667 217.989V217.986Z" fill="#1A1E30"/>
<path d="M227.867 220.074C230.194 219.323 234.183 220.25 235.611 222.305L230.62 220.747L227.867 220.67C227.918 220.518 227.822 220.25 227.867 220.074Z" fill="#1A1E30"/>
<path d="M38.8125 71.446C36.7627 66.3468 37.6208 61.3876 40.6002 56.8513L38.6636 61.9148C37.9783 64.795 38.0319 67.2761 38.8155 70.1057C38.9258 70.4989 39.3995 71.175 38.8125 71.446Z" fill="#192B48"/>
<path d="M238.286 220.071C237.961 220.363 236.472 219.404 235.974 219.261C234.583 218.859 232.941 218.725 231.535 218.326C231.034 218.183 230.703 218.549 230.846 217.691C232.566 217.629 234.502 217.95 236.138 218.501C236.403 218.591 238.921 219.502 238.286 220.071Z" fill="#1A1E30"/>
<path d="M196.539 217.748C197.689 219.529 194.498 217.489 194.081 217.387L189.761 216.354C190.711 214.963 196.023 216.95 196.539 217.748Z" fill="#1A1E30"/>
<path d="M201.961 214.415C200.904 214.144 200.338 213.191 199.232 212.83C198.13 212.47 196.813 212.568 195.714 212.184C196.357 211.052 198.386 211.663 199.45 212.017C200.496 212.366 202.095 213.092 201.961 214.415Z" fill="#1A1E30"/>
<path d="M199.283 216.199C199.08 216.387 194.915 214.251 194.033 214.457L193.032 213.822C193.881 212.869 200.233 215.329 199.283 216.199Z" fill="#1A1E30"/>
<path d="M215.661 207.564V206.307C211.951 206.653 208.439 205.768 204.696 205.557C203.722 205.5 202.232 205.902 201.231 205.819C200.862 206.233 200.668 209.846 200.776 209.953C200.844 210.022 202.241 209.905 202.688 209.977C206.728 210.638 205.927 214.617 210.914 213.688C211.466 213.587 215.479 211.907 215.616 211.69C215.929 211.189 215.494 208.413 215.664 207.567L215.661 207.564Z" fill="#F7B8A1"/>
<path d="M184.699 219.776C184.142 219.314 185.122 219.133 185.286 219.037C186.382 218.388 187.636 217.888 188.861 217.542C188.414 218.063 184.967 220 184.702 219.779L184.699 219.776Z" fill="#B6C8E9"/>
<path d="M41.494 55.6599C41.7205 55.3978 41.8843 55.2727 42.0899 55.0642C42.1197 55.4604 41.9528 55.7254 41.643 55.9518L41.497 55.6599H41.494Z" fill="#192B48"/>
<path d="M42.3849 54.7664C42.8914 53.8817 43.7405 53.3426 44.4675 52.6814C44.7595 52.6665 44.8697 52.7648 44.6284 52.9822C43.9759 53.566 43.0493 54.126 42.3849 54.7664Z" fill="#192B48"/>
<path d="M189.311 217.095C189.504 217.194 189.504 217.295 189.311 217.393V217.095Z" fill="#B6C8E9"/>
<path d="M143.312 142.93V142.633C143.312 142.728 143.315 142.82 143.312 142.93Z" fill="#B6C8E9"/>
<path d="M36.73 103.316C36.7896 103.161 36.7181 102.884 36.8641 102.712C37.2514 102.256 43.4992 102.345 44.6314 102.408C47.6972 102.578 50.7213 103.245 53.7007 103.912L51.8862 116.395C50.5306 116.44 49.2644 115.781 47.9028 115.811C47.292 115.823 47.0298 115.623 47.152 116.419C48.5642 116.404 50.036 116.714 51.3857 117.101C62.1234 120.169 72.9684 125.849 83.4112 128.845C86.3876 129.7 88.9201 129.462 91.8102 129.822C95.9992 130.349 98.2159 131.746 101.636 132.503C104.237 134.906 107.27 136.661 108.942 139.937C109.249 140.539 109.979 142.344 109.973 142.927C109.973 142.975 109.725 143.687 109.675 143.821C109.046 145.489 107.255 146.013 106.4 144.417C106.32 144.268 106.421 143.839 106.12 143.368C105.721 142.743 104.291 141.531 103.576 141.137C103.081 141.435 103.671 141.799 103.868 142.037C104.559 142.868 105.533 143.473 106.102 144.417C105.188 146.791 103.474 146.085 101.934 144.715C101.243 144.098 100.888 143.196 100.001 142.924C99.6013 143.753 101.07 144.449 101.636 144.715C100.23 148.202 95.016 143.916 92.6086 142.877C89.7633 141.647 86.6915 140.98 83.8701 139.705C82.7677 139.204 80.5719 137.605 79.9194 137.402C78.4178 136.935 75.0778 136.908 73.2515 136.625C70.6981 136.232 68.112 135.827 65.6093 135.186C61.173 126.4 47.8223 127.085 39.4085 125.357C38.3866 125.149 37.5553 124.675 36.73 124.464C35.2433 120.91 35.3595 116.529 35.5264 112.684C35.6247 110.39 35.9703 105.309 36.73 103.316ZM98.6568 134.588L99.8396 134.743C99.5268 134.278 99.202 134.221 98.6568 134.296V134.588ZM102.098 135.916C101.988 135.839 99.6757 134.096 100.433 135.344C101.139 135.365 103.361 137.924 103.716 137.566C104.124 137.155 102.459 136.172 102.098 135.916ZM103.12 141.14C103.552 140.705 101.3 139.234 100.957 138.99C99.6162 138.028 97.8136 136.923 96.2763 136.381L97.2476 137.361C98.0282 137.513 102.876 141.391 103.12 141.143V141.14ZM104.16 137.575C104.255 138.308 105.235 138.793 105.655 139.35C105.563 138.621 104.58 138.132 104.16 137.575ZM99.2497 142.63C99.7115 142.186 97.0956 140.685 96.7709 140.494C95.3288 139.645 93.4578 138.704 91.8072 138.463L99.2497 142.627V142.63ZM106.695 140.551C106.317 140.911 108.101 142.329 108.334 142.627C108.477 142.12 107.175 140.092 106.695 140.551Z" fill="#F7B8A1"/>
<path d="M82.5769 159.014L71.5621 159.312C72.7449 165.278 72.1788 173.281 75.3757 178.58C75.5902 178.938 77.7741 180.996 76.4721 180.761C73.7281 180.263 72.2443 171.578 71.8987 169.249C71.4071 165.919 71.434 162.276 70.9662 159.011C74.8036 158.559 78.7275 158.678 82.5769 159.011V159.014Z" fill="#4967AF"/>
<path d="M284.732 157.823C284.544 157.766 284.294 157.54 284.136 157.525C278.958 157.016 272.114 157.656 266.867 158.121C267.177 157.617 267.675 157.567 268.199 157.516C273.5 157.001 279.104 156.76 284.404 157.195L286.219 146.505C285.739 150.124 285.289 154.061 284.729 157.823H284.732Z" fill="#29345C"/>
<path d="M283.838 131.314H292.174C291.778 131.633 291.078 132.392 290.685 132.803C290.759 132.583 291.063 131.687 290.983 131.615L281.16 131.609L283.838 131.314Z" fill="#192B48"/>
<path d="M195.395 171.464C192.764 166.166 191.152 160.393 190.05 154.597C189.397 151.121 189.061 147.514 189.04 143.979C189.016 143.481 189.069 142.701 189.087 142.198C189.317 137.045 190.032 131.112 193.11 126.814C195.255 123.728 199.14 122.331 202.632 123.82C197.808 122.328 194.167 125.068 192.278 129.396C190.431 133.685 189.957 138.472 189.799 143.106C189.63 152.819 191.84 162.463 195.395 171.467V171.464Z" fill="#5B8C81"/>
<path d="M277.584 116.72C277.677 116.743 277.79 116.696 277.882 116.72C282.223 117.863 284.023 121.783 283.54 126.102C283.251 128.675 282.614 128.741 280.263 128.634C278.416 128.55 276.536 128.318 274.605 128.336L267.01 127.147C264.484 126.989 261.799 127.403 259.72 128.931C258.662 128.97 255.471 129.402 254.849 129.188C254.133 128.943 253.99 126.933 253.767 126.251C255.873 125.661 256.809 123.415 258.671 122.373L263.292 119.999C259.791 120.189 256.806 122.894 254.39 125.235C254.071 125.545 253.636 125.661 253.767 126.251C253.442 125.259 252.68 123.645 252.575 122.677C253.859 121.941 254.765 120.571 256.046 119.746C257.75 118.65 259.934 118.268 261.504 117.02C259.541 117.011 253.037 120.362 252.572 122.081C251.699 121.029 251.726 119.344 251.38 118.209C251.655 118.233 251.804 118.003 251.976 117.911C254.273 116.669 258.909 113.756 261.358 113.717C264.71 113.661 273.964 115.826 277.581 116.72H277.584ZM265.974 123.275C263.161 123.135 260.444 124.112 258.23 125.801C257.998 125.98 255.876 127.779 256.151 128.038C257.879 127.412 258.817 125.944 260.503 125.098C261.385 124.654 262.61 124.231 263.575 124.002C263.879 123.93 266.888 123.966 265.971 123.275H265.974Z" fill="#F7B8A1"/>
<path d="M277.584 116.72C277.516 115.481 277.376 116.035 278.171 115.969C280.638 115.772 283.811 115.069 286.287 114.554C291.605 113.443 296.885 112.046 302.167 110.78C301.652 97.5648 294.731 83.5776 302.584 71.2883C303.055 70.5496 304.116 68.6195 304.971 69.2093C300.559 74.6034 299.119 81.3795 299.617 88.2688C299.992 93.4663 301.682 104.99 302.981 109.932C303.052 110.209 303.16 110.477 303.189 110.763C306.097 110.206 309.258 109.559 312.235 109.899C312.524 109.932 315.893 110.658 315.092 111.355C314.937 111.492 311.779 110.56 311.037 110.503C307.983 110.274 303.27 111.421 300.15 112.046C295.884 112.904 291.701 114.203 287.404 114.935C290.935 118.718 291.036 124.339 290.381 129.229C290.005 129.733 289.842 129.194 289.788 128.789C289.585 127.284 290.137 125.831 290.101 124.306C290.029 121.307 288.972 116.288 285.814 115.242L277.879 116.72C277.787 116.696 277.674 116.743 277.581 116.72H277.584Z" fill="#EDCDAF"/>
<path d="M270.44 69.3641C270.616 69.5666 269.379 73.6799 269.254 74.5794C268.646 79.0234 268.473 84.9328 268.345 89.4541C268.104 97.8625 268.703 106.271 268.509 114.635C267.982 113.494 267.821 111.361 267.752 110.033C267.213 99.593 267.174 83.9439 268.697 73.7216C268.747 73.3851 269.603 68.402 270.443 69.3641H270.44Z" fill="#EDCDAF"/>
<path d="M249.301 76.5126L251.979 107.784C251.08 107.93 251.506 107.561 251.378 107.06C250.439 103.331 250.582 96.6087 250.192 92.4477C249.802 88.2867 248.943 83.7832 248.708 79.6341C248.663 78.8508 248.61 77.6981 248.705 76.9505C248.762 76.5156 248.932 76.0271 249.301 76.5096V76.5126Z" fill="#EDCDAF"/>
<path d="M272.481 109.318C273.276 109.818 272.707 113.086 270.934 112.52C270.014 112.225 269.674 109.72 270.946 109.336C271.286 109.234 272.225 109.157 272.481 109.318Z" fill="#EDCDAF"/>
<path d="M271.25 91.4468C273.13 90.9315 273.482 94.1394 271.763 94.3866C269.796 94.6696 269.674 91.8787 271.25 91.4468Z" fill="#EDCDAF"/>
<path d="M271.539 74.1774C274.456 73.2809 272.901 78.4754 271.024 76.6675C270.204 75.8782 270.535 74.4872 271.539 74.1774Z" fill="#EDCDAF"/>
<path d="M113.244 205.181C112.755 211.305 114.337 213.664 118.306 217.691C119.352 218.754 122.492 221.703 123.579 222.552C123.427 223.017 121.947 222.287 121.503 222.552C118.059 224.622 110.5 222.317 106.916 220.896C105.003 220.137 100.695 218.063 100.444 215.904C100.307 214.733 100.561 213.381 100.441 212.184C100.218 209.929 99.5923 207.71 99.2556 205.479C103.439 205.962 109.126 206.114 113.25 205.181H113.244Z" fill="#F7B8A1"/>
<path d="M109.969 142.93C116.396 146.773 115.788 156.024 115.922 162.586C115.556 163.068 115.383 162.58 115.326 162.145C115.043 159.923 115.3 157.052 115.025 154.696C114.585 150.913 113.613 145.367 109.672 143.821C109.722 143.687 109.969 142.975 109.969 142.927V142.93Z" fill="#EDCDAF"/>
<path d="M91.8071 160.504C92.2779 159.032 92.3315 157.355 92.695 155.881C92.8112 155.413 92.7099 154.842 93.4428 154.842C93.3505 156.307 93.133 158.973 92.695 160.292C92.5788 160.638 92.1229 160.477 92.1081 160.504H91.8101H91.8071Z" fill="#EDCDAF"/>
<path d="M115.624 176.29V162.889C116.417 162.8 116.167 162.91 116.22 163.482C115.729 163.792 115.922 164.611 115.916 165.117C115.878 168.861 115.729 172.659 115.624 176.29Z" fill="#6B87C4"/>
<path d="M106.397 144.42H106.099C105.53 143.476 104.556 142.871 103.865 142.04C103.665 141.802 103.078 141.441 103.573 141.14C104.288 141.534 105.721 142.746 106.117 143.371C106.418 143.842 106.317 144.271 106.397 144.42Z" fill="#EE786F"/>
<path d="M101.633 144.718C101.067 144.452 99.5982 143.756 99.9974 142.927C100.885 143.199 101.237 144.101 101.931 144.718H101.633Z" fill="#EE786F"/>
<path d="M131.999 90.5085C131.639 91.977 131.817 92.5429 130.608 93.7343C125.885 98.3867 116.873 102.181 111.456 106.295C111.319 106.187 110.899 106.08 110.86 105.997C110.759 105.782 110.747 105.094 110.577 104.651C109.943 102.992 109.192 101.365 108.48 99.7419C108.697 99.6079 109.666 98.7382 109.642 98.4523C109.618 98.1663 107.407 94.4044 107.032 93.5943C106.57 92.5965 106.236 91.5123 105.798 90.5085H131.999Z" fill="white"/>
<path d="M242.454 133.101C244.433 133.06 246.429 133.107 248.41 133.101C247.457 133.721 246.182 133.265 245.058 133.471C243.908 133.682 240.753 135.615 239.883 136.482C235.551 140.807 237.065 151.202 236.502 156.929C236.305 156.944 236.105 156.917 235.906 156.929C235.921 151.937 235.575 145.998 236.639 141.134C237.392 137.691 239.633 134.808 243.047 133.694C243.062 133.152 241.945 133.417 241.561 133.399C241.176 133.381 240.765 133.414 240.372 133.396V133.104C241.063 133.086 241.763 133.116 242.454 133.101Z" fill="#192B48"/>
<path d="M262.103 158.717C262.199 157.29 262.214 155.544 262.1 154.106C262.041 153.334 261.061 149.665 261.213 149.486C261.805 148.789 262.574 151.544 262.628 151.789C263.045 153.745 263.122 156.164 262.699 158.118C263.233 158.163 263.772 158.103 264.308 158.091C264.785 158.079 265.336 157.469 264.782 158.419C263.921 158.523 262.988 158.449 262.103 158.717Z" fill="#192B48"/>
<path d="M280.266 131.612C278.743 132.559 278.788 132.041 277.129 132.196C276.75 132.232 276.342 132.506 276.247 132.506H270.589C270.255 132.506 269.123 133.325 268.652 132.506C268.837 132.494 269.242 132.238 269.677 132.205C273.199 131.949 276.744 131.907 280.263 131.612H280.266Z" fill="#29345C"/>
<path d="M260.319 132.804C261.21 132.806 262.109 132.827 262.997 132.804C263.688 132.786 264.392 132.836 265.08 132.804C265.178 132.798 265.279 132.809 265.378 132.804C263.778 133.301 261.344 133.304 259.72 132.804C259.919 132.804 260.116 132.804 260.316 132.804H260.319Z" fill="#192B48"/>
<path d="M260.319 132.803C260.119 132.803 259.923 132.803 259.723 132.803C259.029 132.801 258.332 132.818 257.64 132.803C257.134 132.795 255.731 133.072 255.558 132.509C257.059 132.675 258.933 132.127 260.319 132.803Z" fill="#E5E6F5"/>
<path d="M257.637 133.102C258.016 133.11 259.142 132.857 259.124 133.396C257.721 133.233 255.939 133.775 254.661 133.102C255.65 133.107 256.651 133.075 257.637 133.102Z" fill="#192B48"/>
<path d="M254.363 133.101C253.767 133.101 253.171 133.101 252.575 133.101V132.804C253.135 132.845 254.026 132.574 254.363 133.101Z" fill="#E5E6F5"/>
<path d="M252.873 131.314C252.078 131.564 252.006 130.635 252.575 130.123C252.638 130.462 252.841 130.623 252.873 131.314Z" fill="#F0F2FA"/>
<path d="M242.454 133.101C241.763 133.116 241.063 133.086 240.372 133.104V133.396C240.765 133.414 241.167 133.381 241.56 133.399C241.251 133.956 240.491 133.664 240.014 133.614C231.579 132.714 222.171 132.803 213.575 132.506V132.208C222.641 132.348 231.734 132.702 240.822 132.798C241.325 132.803 242.144 132.607 242.454 133.101Z" fill="#29345C"/>
<path d="M234.714 202.203H235.012C241.361 204.204 248.076 204.252 254.661 203.692C255.045 203.659 255.459 203.454 255.853 203.394L261.808 161.099C261.886 160.337 262.065 159.351 262.106 158.717C262.202 157.29 262.217 155.544 262.103 154.106C262.044 153.334 261.064 149.665 261.216 149.486C261.808 148.789 262.577 151.544 262.631 151.789C263.048 153.745 263.125 156.164 262.702 158.118C263.236 158.163 263.775 158.103 264.311 158.091C264.788 158.079 265.339 157.469 264.785 158.419C265.482 158.335 266.096 158.189 266.867 158.121C267.177 157.618 267.675 157.567 268.199 157.516C273.5 157.001 279.104 156.76 284.404 157.195L286.219 146.505C286.231 146.406 286.207 146.305 286.219 146.207C286.68 142.648 288.257 135.788 290.595 133.051C290.735 132.887 291.15 132.095 291.182 132.059C291.257 131.838 291.063 131.687 290.98 131.615L281.157 131.609L279.56 131.678L250.293 132.815L248.404 133.101C247.451 133.721 246.176 133.265 245.052 133.471C243.902 133.682 240.747 135.615 239.877 136.482C235.545 140.807 237.059 151.202 236.496 156.929C236.299 156.944 236.099 156.918 235.9 156.929C235.9 157.326 235.9 157.725 235.9 158.121L234.708 202.203H234.714Z" fill="#264173"/>
<path d="M222.507 156.929C222.477 157.111 222.412 157.323 222.346 157.552C222.263 157.841 222.129 158.112 222.007 158.386C221.923 158.574 221.923 158.779 221.911 159.014C221.87 159.804 221.965 160.611 221.911 161.397C221.131 158.821 222.183 156.25 221.882 153.537C221.688 151.806 220.77 150.272 220.425 148.593C221.524 147.386 222.802 154.15 222.823 154.693C222.859 155.595 222.635 156.134 222.507 156.929Z" fill="#192B48"/>
<path d="M209.109 132.208C210.56 132.133 212.115 132.184 213.575 132.208V132.506C211.302 132.428 209.002 132.562 206.728 132.506C207.703 132.303 208.069 132.261 209.109 132.208Z" fill="#192B48"/>
<path d="M221.911 161.397C221.131 158.821 222.183 156.25 221.882 153.537C221.688 151.807 220.77 150.273 220.425 148.593C221.524 147.386 222.802 154.151 222.823 154.693C222.859 155.595 222.635 156.134 222.507 156.93C226.953 156.769 231.463 157.147 235.906 156.93C235.921 151.938 235.575 145.998 236.639 141.134C237.392 137.691 239.633 134.808 243.047 133.694C243.062 133.152 241.945 133.417 241.561 133.399C241.251 133.956 240.491 133.664 240.014 133.614C231.58 132.714 222.171 132.804 213.575 132.506C211.302 132.428 209.002 132.562 206.728 132.506C202.233 133.438 199.116 136.446 197.796 140.846C197.671 141.263 197.579 141.677 197.507 142.082C197.06 144.655 196.914 147.27 196.959 149.879L197.796 199.519C197.778 199.627 197.778 200.565 197.743 200.604C204.446 202.242 211.454 202.447 218.286 201.497L221.911 161.394V161.397Z" fill="#264173"/>
<path d="M88.8575 20.1978C92.1646 22.2113 94.3038 25.9732 94.7597 29.8065C94.7775 29.9614 94.8699 30.0954 95.0099 30.161C95.0159 30.161 95.0188 30.1639 95.0248 30.1669C95.2184 30.2563 95.3198 30.4707 95.2721 30.6792C95.2036 30.9771 95.0814 31.3255 94.4885 31.2332C94.4915 31.2332 94.5004 31.2422 94.5094 31.2481C94.6822 31.397 94.9384 31.409 95.1082 31.257C98.9308 27.8377 98.9755 21.5292 95.9782 17.532C93.258 13.9042 91.6194 14.2378 88.2378 12.7664C86.7153 12.1022 85.2166 11.2265 83.4796 10.8274C77.6311 9.48112 70.6891 10.8066 65.6122 13.9578C64.7303 14.5059 64.0212 15.0807 63.2317 15.7449C58.8817 19.3906 56.671 23.355 55.3899 28.8981C54.6033 32.2965 54.6152 35.9363 53.4265 39.2275C53.4145 39.2603 53.4056 39.2931 53.4026 39.3288C53.3877 39.5016 53.4384 39.7041 53.4086 39.8739C53.0481 42.081 51.6448 44.3566 50.748 46.3819C50.7331 46.4117 50.7182 46.4415 50.6974 46.4683C48.9872 48.7826 46.9791 50.4357 44.8875 52.3122C44.7564 52.4283 44.7535 52.6041 44.7684 52.7798C44.7743 52.8304 44.7326 52.896 44.6343 52.9853C43.9818 53.5691 43.0552 54.1291 42.3908 54.7694C42.2895 54.8677 42.1912 54.966 42.0929 55.0673C42.1227 55.4634 41.9558 55.7285 41.646 55.9549L41.5 55.663C41.1603 56.0532 40.916 56.3868 40.6359 56.8097C40.6181 56.8365 40.6002 56.8693 40.5883 56.9021L38.6814 61.8881C38.6725 61.9089 38.6666 61.9298 38.6606 61.9506C37.9843 64.819 38.0409 67.2881 38.8215 70.1088C38.9139 70.4394 39.2624 70.9666 39.0241 71.2913C38.9228 71.4313 38.8781 71.604 38.9466 71.7619C39.3429 72.6793 39.8583 73.5966 40.4452 74.4217C40.6419 74.6987 41.065 74.6629 41.2169 74.3591C45.4149 65.9627 54.1356 64.4734 62.0399 61.62C62.5822 61.4235 63.6458 61.1316 63.9646 60.7146C64.197 60.4108 65.0729 57.611 65.3083 56.8812C65.3143 56.8604 65.3202 56.8455 65.3232 56.8246L67.1049 46.7275C67.0661 46.6351 67.1496 46.4773 67.1049 46.4296C62.0935 45.9918 58.9503 39.3258 62.3528 35.2602C64.772 32.371 67.9749 34.5036 69.6493 36.9907C69.7357 37.1188 69.8787 37.1932 70.0307 37.1932C70.4388 37.1902 70.6653 37.1932 71.133 36.9162C72.1699 36.3027 73.9783 33.5267 75.2982 32.4395C79.8388 28.6896 85.8185 26.4289 88.208 20.4152C88.3122 20.1561 88.628 20.0578 88.8664 20.2038L88.8575 20.1978Z" fill="#192B48"/>
<path d="M83.1967 63.833C87.3142 65.0839 90.7107 66.0817 93.8927 68.4675C93.994 68.542 94.0774 68.676 94.1906 68.7654C94.8014 67.8867 95.6297 67.2404 96.2732 66.3826C96.9198 65.5188 97.7451 64.4406 98.0609 63.4041C100.406 57.8313 99.1007 50.793 95.3824 46.1287C95.3675 46.227 95.3973 46.3282 95.3824 46.4265C95.2781 47.0967 95.2454 47.5047 95.0845 48.2136C93.5501 54.9659 89.2478 61.2655 81.3882 59.2341C81.3882 59.2341 81.0336 63.1777 83.1967 63.833Z" fill="#192B48"/>
<path d="M94.7835 30.0448C94.9712 30.158 95.1857 30.2354 95.3794 30.3427C95.2066 30.5512 95.3615 31.3732 94.4855 31.2362C93.7258 30.7477 91.9888 30.2265 91.0682 30.3456C90.7077 28.082 93.5411 29.2942 94.7835 30.0448Z" fill="#29345C"/>
<path d="M65.3113 56.8513L67.0989 46.7244C67.5905 47.9158 67.2241 48.7825 67.0125 50.0633C66.6342 52.3478 66.0085 54.6919 65.3143 56.8513H65.3113Z" fill="#F7B8A1"/>
<path d="M67.096 46.4265C62.0847 45.9886 58.9414 39.3227 62.3439 35.257C64.8317 32.2874 68.1418 34.6226 69.7745 37.1931C68.7108 37.2318 68.2729 35.394 67.2062 34.849C65.073 33.7588 62.1353 34.7119 61.5663 37.1722C60.9317 39.9184 61.8463 43.6177 64.3162 45.1874C65.1386 45.7116 66.5925 45.8993 67.096 46.4265Z" fill="#F7B8A1"/>
<path d="M157.902 88.1257C156.803 88.8525 149.968 93.7998 149.271 93.1892C148.863 90.4162 148.046 87.9798 146.583 85.597C146.983 85.0579 146.771 85.9872 147.075 86.0527C148.225 86.3029 152.036 84.0035 153.227 83.3005C154.655 82.4606 156.022 81.0488 157.601 80.6794C157.041 82.404 148.225 86.2582 148.097 86.8122C148.07 86.9224 148.761 88.6321 148.904 88.9359C149.047 89.2397 148.806 89.4244 149.366 89.2695C151.997 88.5457 154.786 85.6476 157.303 84.5485C157.452 85.1949 156.946 85.2098 156.624 85.5046C155.453 86.5829 152.506 88.4802 151.055 89.1652C150.606 89.3767 149.348 89.5644 149.289 89.6329C148.982 89.9873 149.765 91.9561 149.566 92.5905C152.286 91.5838 154.44 89.615 156.8 88.0513C157.157 87.816 157.777 87.9083 157.902 87.8279V88.1257Z" fill="#EE786F"/>
<path d="M143.017 133.399C144.227 133.25 143.333 134.037 143.315 134.293C142.922 134.15 143.038 133.724 143.017 133.399Z" fill="white"/>
<path d="M263.59 26.4735C263.68 28.3649 263.641 29.9554 263.081 31.7664C262.735 32.8893 260.507 36.0197 260.623 36.4218C260.816 37.0949 265.643 37.9468 264.782 38.6795C262.828 38.5663 260.9 37.6817 259.425 36.4367C261.26 34.0598 262.497 32.3204 262.962 29.2614C263.006 28.9725 262.81 25.44 263.593 26.4706L263.59 26.4735Z" fill="#EE786F"/>
<path d="M275.201 25.2791C275.034 25.4549 272.65 24.1949 272.058 24.1086C271.39 24.0103 267.657 24.469 268.655 22.9023C269.248 21.967 275.645 22.664 275.201 25.2791Z" fill="#29345C"/>
<path d="M269.844 41.3661C270.186 41.6938 269.287 42.3371 269.051 42.5069C267.621 43.5375 265.536 43.8979 263.82 43.6685C263.018 43.5613 260.185 43.0252 261.067 41.9559C262.747 42.8137 264.511 43.0877 266.397 42.8256C267.294 42.7005 269.71 41.2351 269.844 41.3631V41.3661Z" fill="#EE786F"/>
<path d="M271.557 31.7573C270.005 33.3746 268.566 29.1541 270.338 28.5882C272.111 28.0222 272.385 30.8935 271.557 31.7573Z" fill="#29345C"/>
<path d="M258.868 27.4057C260.646 26.3006 261.871 30.1102 260.107 30.5986C258.063 31.1675 258.349 27.7274 258.868 27.4057Z" fill="#29345C"/>
<path d="M289.195 31.537L286.514 33.47C285.951 34.0746 285.897 34.8729 285.656 35.6026C285.501 36.0673 285.915 36.4545 285.03 36.2996C284.964 34.0806 286.675 31.1974 289.195 31.537Z" fill="#EE786F"/>
<path d="M292.175 31.5341C292.127 31.3613 292.231 31.0783 292.175 30.9384C292.142 30.8579 291.251 29.598 291.191 29.5355C289.982 28.2845 287.491 28.1773 286.07 29.1483C283.064 31.2094 282.372 35.4717 280.954 28.907C280.603 27.2807 280.358 25.4489 280.266 23.7869C280.162 21.9164 280.34 20.0042 280.266 18.1278C279.768 16.293 278.618 15.1641 276.694 14.8514C276.598 14.8365 276.494 14.8603 276.396 14.8514C276.205 14.8335 275.993 14.8424 275.8 14.8514L275.651 15.1433L275.502 14.8514C270.598 15.456 266.281 20.4987 261.213 17.532C260.775 17.0555 260.182 15.736 259.58 15.7271C258.722 15.7151 258.099 17.4784 257.855 18.1933C257.468 19.3281 256.976 21.0884 257.044 22.2977C257.316 22.6849 257.938 21.9551 258.516 21.8211C259.383 21.6215 261.817 21.9939 261.817 23.0393C261.817 24.4154 259.818 23.1704 258.969 23.1823C258.203 23.1942 257.575 23.8465 257.044 23.7869C255.31 30.2116 254.688 38.1315 256.669 44.5651C258.153 49.3873 260.953 52.7768 266.275 52.9764C270.303 53.1283 274.954 51.3442 278.156 48.9286C278.511 48.6635 278.594 47.8653 279.071 48.0589C276.631 52.6309 271.936 55.0554 267.168 56.5506C268.408 60.3631 269.549 64.2024 271.188 67.869C272.332 66.2516 273.437 64.5807 274.757 63.1004C277.59 59.9193 284.795 55.3443 285.212 51.1952C285.292 50.403 285.063 49.6434 285.033 48.8094C284.991 47.6151 284.818 46.6441 284.735 45.5331C284.634 44.1451 284.571 42.7482 284.434 41.3632C285.837 41.5806 286.597 41.0891 287.711 40.4696C290.545 38.8999 293.068 34.864 292.178 31.5341H292.175ZM258.868 27.4058C260.647 26.3008 261.871 30.1103 260.107 30.5988C258.063 31.1677 258.349 27.7275 258.868 27.4058ZM259.425 36.4397C261.26 34.0628 262.497 32.3234 262.962 29.2644C263.006 28.9755 262.81 25.443 263.593 26.4736C263.683 28.3649 263.644 29.9554 263.084 31.7664C262.738 32.8893 260.51 36.0197 260.626 36.4218C260.819 37.0949 265.646 37.9468 264.785 38.6795C262.83 38.5663 260.903 37.6817 259.428 36.4367L259.425 36.4397ZM269.051 42.5039C267.621 43.5345 265.536 43.8949 263.82 43.6656C263.018 43.5583 260.185 43.0222 261.067 41.9529C262.747 42.8107 264.511 43.0847 266.397 42.8226C267.294 42.6975 269.71 41.2321 269.844 41.3602C270.187 41.6878 269.287 42.3312 269.051 42.501V42.5039ZM271.557 31.7574C270.005 33.3748 268.566 29.1542 270.339 28.5883C272.073 28.0373 272.385 30.8937 271.557 31.7574ZM275.201 25.2792C275.034 25.4549 272.651 24.195 272.058 24.1086C271.39 24.0103 267.657 24.469 268.655 22.9023C269.248 21.9671 275.645 22.664 275.201 25.2792ZM286.514 33.4671C285.951 34.0717 285.897 34.87 285.656 35.5997C285.501 36.0644 285.915 36.4516 285.03 36.2967C284.964 34.0777 286.675 31.1945 289.195 31.5341L286.514 33.4671Z" fill="#F7B8A1"/>
<path d="M141.229 85.4451C141.745 86.565 139.731 92.1348 139.105 92.5518C138.867 92.7126 138.029 92.7484 138.256 92.1527C138.378 91.825 139.138 91.1191 139.391 90.6068C139.963 89.4512 140.919 86.9909 140.633 85.7459C140.759 85.4719 141.042 85.5285 141.229 85.448V85.4451Z" fill="#EE786F"/>
<path d="M111.456 106.295C111.242 106.458 110.938 107.036 110.571 107.34C110.256 107.605 108.089 109.482 107.884 109.27C108.212 107.763 110.08 107.173 110.86 105.997C110.899 106.08 111.319 106.187 111.456 106.295Z" fill="#EE786F"/>
<path d="M159.687 83.0653L157.607 84.5516C157.115 84.0631 159.273 82.9551 159.687 83.0653Z" fill="#EE786F"/>
<path d="M158.051 80.3816C158.245 80.4799 158.245 80.5812 158.051 80.6794V80.3816Z" fill="#EE786F"/>
<path d="M82.577 48.8093C84.889 49.3038 87.2605 48.9225 89.5875 49.1072C90.5021 49.1787 90.3532 48.9612 90.3174 50.0007C89.5636 50.8705 86.8852 53.0388 85.7262 52.9763C84.4659 52.9078 82.7289 50.7722 82.3922 49.6969C82.1867 49.0327 82.4727 49.1042 82.577 48.8123V48.8093Z" fill="#EB5D54"/>
<path d="M81.6444 61.9893C81.4716 61.4413 81.3405 60.2082 81.3881 59.2342C77.6937 58.6087 74.9794 55.9131 71.866 54.0188C73.7311 57.2028 76.633 60.1754 80.104 61.5961L81.6444 61.9893Z" fill="#EE786F"/>
<path d="M78.4117 32.7223C77.6371 31.9092 80.5211 29.9672 81.1795 29.6872C81.9959 29.3417 84.9902 28.7609 85.2554 29.8987C85.4729 30.831 83.0595 30.6612 82.3356 30.8429C81.543 31.0424 78.7126 33.038 78.4117 32.7223Z" fill="#29345C"/>
<path d="M89.1257 33.6219C89.0214 35.0158 89.2836 36.386 89.6382 37.7233C89.945 38.87 91.8548 42.2715 91.822 42.6885C91.7356 43.7667 88.3213 44.7466 87.493 44.6394C87.2934 44.6126 86.8643 44.148 87.3351 43.8888C87.8058 43.6297 90.9819 43.1591 91.2113 42.8464C90.0612 40.3593 88.1515 36.9132 88.5298 34.0597C88.5835 33.6547 88.7563 33.1185 89.1257 33.6159V33.6219Z" fill="#EE786F"/>
<path d="M84.0279 38.9385C82.133 40.112 81.2273 36.1655 82.7676 35.7217C84.308 35.2779 84.8264 38.4441 84.0279 38.9385Z" fill="#29345C"/>
<path d="M93.5202 35.1827C94.3783 36.0763 93.9225 38.5723 92.3017 38.054C90.5945 37.506 92.0812 33.6846 93.5202 35.1827Z" fill="#29345C"/>
<path d="M67.6948 41.6609C67.528 40.261 66.9947 38.5751 65.7642 37.7799C65.1921 37.4105 64.3609 37.5922 64.1166 36.8982C66.2379 36.511 67.9809 38.8611 68.1686 40.7643C68.2163 41.2409 68.2579 41.5149 67.6919 41.6609H67.6948Z" fill="#EE786F"/>
<path d="M95.0814 48.2136C93.547 54.9659 89.2448 61.2655 81.3851 59.2341V58.9363C87.1234 59.9103 90.8715 57.8164 93.3474 52.5861C94.274 50.6292 94.4349 48.3268 95.3764 46.4265C95.2721 47.0967 95.2393 47.5047 95.0784 48.2136H95.0814Z" fill="#F7B8A1"/>
<path d="M295.747 21.7049C296.11 17.3622 295.195 13.502 291.257 11.155C290.521 10.7171 287.875 9.88313 287.768 9.72825C287.5 9.347 287.285 7.89349 286.517 6.81228C285.903 5.94851 285.259 5.37068 284.434 4.72732C279.423 0.822489 276.416 3.11892 271.217 2.6096C266.647 2.16282 264.162 -2.21262 259.127 1.45096C257.694 2.49344 256.311 5.14432 256.103 5.27239C255.897 5.39749 254.595 5.3677 253.901 5.60598C251.074 6.57698 250.624 9.95462 251.386 12.4715C251.967 14.3896 254.798 15.8848 254.914 16.2393C255.206 17.1477 255.164 19.3221 255.519 20.6981C255.751 21.5976 256.034 22.8665 256.746 23.489C256.717 23.0958 256.791 22.6848 256.746 22.2976H257.044C256.976 21.0883 257.467 19.328 257.855 18.1932C258.099 17.4754 258.722 15.7121 259.58 15.727C260.182 15.7359 260.775 17.0554 261.213 17.532C266.283 20.4986 270.601 15.4559 275.502 14.8513C275.6 14.8394 275.701 14.8573 275.8 14.8513C275.99 14.8424 276.205 14.8334 276.395 14.8513C276.494 14.8602 276.598 14.8364 276.693 14.8513C278.618 15.164 279.768 16.2929 280.266 18.1277C280.34 20.0041 280.161 21.9163 280.266 23.7868C280.358 25.4459 280.602 27.2806 280.954 28.9069C282.372 35.4716 283.063 31.2093 286.07 29.1482C287.491 28.1742 289.982 28.2814 291.191 29.5354C291.251 29.5979 292.142 30.8578 292.174 30.9383C292.869 29.9911 293.506 28.7431 293.962 27.6619C294.54 26.2888 295.571 23.6945 295.75 22.3006C295.774 22.107 295.732 21.9014 295.75 21.7049H295.747Z" fill="#192B48"/>
<path d="M275.502 14.8543C275.597 14.8424 275.701 14.8602 275.8 14.8543L275.651 15.1462L275.502 14.8543Z" fill="#F7B8A1"/>
<path d="M128.129 64.2976L126.046 78.8923H114.436C114.674 77.6801 115.931 64.2976 116.667 64.2976H128.129Z" fill="white"/>
<path d="M115.029 231.69C112.38 231.237 109.076 229.602 106.394 228.712C104.416 228.053 102.19 227.782 100.438 226.627C99.9796 226.323 99.7949 226.085 99.5774 225.811C99.3718 225.554 99.2408 225.248 99.1812 224.926C99.1007 224.5 98.9815 224.083 98.9517 223.648C98.9517 223.648 98.7074 218.096 100.441 215.904C100.692 218.063 105 220.14 106.913 220.896C110.5 222.317 118.056 224.622 121.5 222.552C121.503 222.552 121.509 222.546 121.512 222.543C122.152 222.153 122.173 222.09 122.48 221.614C124.029 222.624 126.964 224.586 128.424 225.73C130.215 227.13 133.444 229.152 129.914 231.092C129.914 231.092 125.725 233.516 115.029 231.687V231.69Z" fill="#192B48"/>
<path d="M158.76 222.159C159.064 222.427 159.311 222.761 159.448 223.145C160.312 225.546 156.475 226.677 154.44 226.889C149.557 227.398 144.513 226.296 139.74 225.435C138.667 225.242 137.529 225.063 136.465 224.84C134.719 224.473 127.977 223.231 127.095 222.153C126.961 221.989 126.374 220.559 126.344 220.372C125.85 217.185 127.128 214.745 127.536 212.032C128.394 213.054 128.993 214.063 130.214 214.713C134.481 216.762 144.596 219.407 149.038 217.909C149.685 217.691 150.165 217.45 150.459 216.798C150.459 216.798 155.104 218.939 158.76 222.159Z" fill="#192B48"/>
<path d="M217.743 222.457C217.579 223.464 218.202 225.42 217.252 225.983C206.502 228.372 196.348 231.214 185.232 229.221C182.431 228.718 178.54 228.295 179.342 224.545C192.034 229.307 205.102 224.86 217.746 222.457H217.743Z" fill="white"/>
<path d="M253.171 229.307C252.751 229.742 244.602 231.78 243.292 232.083C236.373 233.686 228.91 234.707 221.849 233.09C219.543 232.563 218.011 231.684 218.786 229.007C230.483 232.831 242.109 229.373 253.314 225.73C253.57 225.727 253.612 228.849 253.168 229.31L253.171 229.307Z" fill="white"/>
<path d="M103.12 141.14C102.873 141.388 98.0252 137.51 97.2475 137.358L96.2762 136.378C97.8136 136.923 99.6161 138.025 100.957 138.987C101.299 139.234 103.552 140.702 103.12 141.137V141.14Z" fill="#EE786F"/>
<path d="M99.2497 142.63L91.8071 138.466C93.4577 138.704 95.3288 139.648 96.7708 140.497C97.0956 140.688 99.7115 142.186 99.2497 142.633V142.63Z" fill="#EE786F"/>
<path d="M106.695 140.551C107.175 140.092 108.477 142.12 108.334 142.627C108.101 142.326 106.317 140.911 106.695 140.551Z" fill="#EE786F"/>
<path d="M102.098 135.916C102.459 136.175 104.124 137.155 103.716 137.566C103.361 137.923 101.139 135.365 100.432 135.344C99.6757 134.093 101.988 135.836 102.098 135.916Z" fill="#EE786F"/>
<path d="M98.6567 134.588V134.296C99.202 134.221 99.5267 134.278 99.8396 134.743L98.6567 134.588Z" fill="#EE786F"/>
<path d="M104.16 137.575C104.58 138.132 105.56 138.621 105.655 139.35C105.235 138.793 104.258 138.308 104.16 137.575Z" fill="#EE786F"/>
<path d="M253.767 126.251C253.639 125.664 254.071 125.545 254.39 125.235C256.806 122.894 259.791 120.189 263.292 119.999L258.671 122.373C256.806 123.418 255.874 125.661 253.767 126.251Z" fill="#EE786F"/>
<path d="M265.974 123.275C266.891 123.966 263.882 123.93 263.578 124.002C262.613 124.231 261.385 124.654 260.506 125.098C258.82 125.947 257.882 127.412 256.154 128.038C255.879 127.779 257.998 125.98 258.233 125.801C260.447 124.112 263.164 123.135 265.977 123.275H265.974Z" fill="#EE786F"/>
<path d="M252.578 122.081C253.043 120.362 259.547 117.011 261.511 117.02C259.937 118.268 257.757 118.652 256.052 119.746C254.768 120.571 253.862 121.941 252.581 122.676C252.563 122.516 252.546 122.209 252.581 122.081H252.578Z" fill="#EE786F"/>
<path d="M265.08 132.803C264.389 132.836 263.689 132.786 262.997 132.803C263.373 132.312 264.705 132.312 265.08 132.803Z" fill="#264173"/>
<path d="M30.2111 74.9459C29.943 74.9459 29.6748 74.9459 29.4126 74.9459C29.94 74.9757 30.2498 75.0204 30.2498 75.0204L30.2111 74.9459ZM71.8988 169.252C71.4936 158.276 68.3265 143.887 66.0919 136.25C63.8574 128.613 51.3946 127.103 51.3946 127.103C51.3946 127.103 39.0778 125.917 30.2498 122.778C21.4219 119.639 20.9899 113.86 20.9899 113.86C20.9899 113.86 19.0801 103.227 16.196 87.8668C16.1096 77.3496 23.141 75.2795 27.2883 74.9728C26.6388 74.9847 26.0131 75.0025 25.4143 75.0234C25.4143 75.0234 1.9992 71.5981 4.63 94.6816C5.85751 105.446 10.1419 144.012 11.721 158.395C12.5463 165.916 17.6559 172.358 24.872 174.637C25.0508 174.694 25.2325 174.747 25.4173 174.801C35.7111 177.758 55.1844 180.573 62.8623 181.559C68.7972 182.321 72.8433 182.402 78.3015 181.994C78.2956 181.994 72.304 180.222 71.8988 169.255V169.252Z" fill="#6B87C4"/>
<path d="M40.8951 75.1692L30.6162 75.1572C29.1146 75.2138 26.9814 75.0381 25.5274 75.3389C22.2233 75.9287 19.2409 78.1 17.7095 81.0875C15.2544 85.7608 17.0033 91.134 18.0491 95.9592C18.7672 99.319 19.3094 102.711 19.8129 106.098C20.3552 109.434 20.7038 112.904 22.0832 116.005C22.7744 117.527 23.8351 118.858 25.2146 119.808C26.6089 120.746 28.1224 121.545 29.6687 122.245C32.7733 123.633 36.0536 124.66 39.4084 125.345V125.363C35.9881 124.958 32.6392 124.041 29.4632 122.712C27.8722 122.039 26.3408 121.238 24.8868 120.273C23.4329 119.275 22.2858 117.842 21.5618 116.243C20.1406 113.053 19.795 109.577 19.2379 106.181C18.7314 102.795 18.1892 99.4172 17.4741 96.0754C16.3807 91.137 14.6913 85.6118 17.2387 80.8343C19.2885 76.8758 23.6057 74.4781 28.045 74.7075C29.7432 74.7254 39.0032 74.8415 40.8951 74.8624V75.1602V75.1692Z" fill="#4967AF"/>
<path d="M278.192 128.914H248.416C247.273 128.914 246.345 129.84 246.345 130.982C246.345 132.125 247.273 133.051 248.416 133.051H278.192C279.336 133.051 280.263 132.125 280.263 130.982C280.263 129.84 279.336 128.914 278.192 128.914Z" fill="#B6C8E9"/>
<path d="M252.48 133.039H204.413C203.287 133.039 202.295 132.297 201.976 131.216L191.075 94.065C190.598 92.4388 191.817 90.8125 193.512 90.8125H241.578C242.705 90.8125 243.697 91.5542 244.016 92.6354L254.917 129.786C255.394 131.413 254.175 133.039 252.48 133.039Z" fill="#B6C8E9"/>
<path d="M249.742 133.039H201.675C200.549 133.039 199.557 132.297 199.238 131.216L188.337 94.065C187.86 92.4388 189.079 90.8125 190.774 90.8125H238.84C239.967 90.8125 240.959 91.5542 241.278 92.6354L252.179 129.786C252.656 131.413 251.437 133.039 249.742 133.039Z" fill="#E5E6F5"/>
<path d="M220.088 115.576C221.966 115.576 223.488 114.054 223.488 112.177C223.488 110.3 221.966 108.779 220.088 108.779C218.211 108.779 216.689 110.3 216.689 112.177C216.689 114.054 218.211 115.576 220.088 115.576Z" fill="white"/>
<path d="M197.397 200.094C199.518 200.568 209.303 202.545 218.673 200.973C218.935 200.928 219.164 201.151 219.123 201.414C218.819 203.35 218.33 205.476 218.16 206.188C218.125 206.343 218 206.456 217.845 206.48C216.534 206.683 210.155 207.481 198.064 206.072C197.918 206.054 197.793 205.959 197.743 205.822C196.837 203.388 196.861 201.315 196.929 200.44C196.947 200.204 197.168 200.043 197.397 200.094Z" fill="#264173" stroke="#192B48" stroke-width="2" stroke-miterlimit="10"/>
<path d="M234.127 201.807C236.284 202.379 246.259 204.806 255.948 203.57C256.219 203.534 256.446 203.773 256.392 204.041C256.002 206.015 255.415 208.181 255.212 208.907C255.167 209.062 255.036 209.176 254.875 209.193C253.52 209.348 246.935 209.911 234.574 207.975C234.425 207.951 234.3 207.847 234.252 207.704C233.421 205.166 233.531 203.04 233.635 202.143C233.662 201.902 233.897 201.744 234.13 201.807H234.127Z" fill="#264173" stroke="#192B48" stroke-width="2" stroke-miterlimit="10"/>
</svg>
