<?xml version="1.0" encoding="UTF-8"?>
<svg id="Capa_1" xmlns="http://www.w3.org/2000/svg" version="1.1" viewBox="0 0 64 64">
  <!-- Generator: Adobe Illustrator 29.6.1, SVG Export Plug-In . SVG Version: 2.1.1 Build 9)  -->
  <g id="Ebene_1">
    <g>
      <path d="M19,47.6c5.5,0,10-4.5,10-10s-4.5-10-10-10-2.7.3-4,.8c1.7-3.8,4.3-7,7.4-8.6,1-.5,1.3-1.7.8-2.7-.4-.7-1-1-1.8-1s-.7,0-1,.2c-6.7,3.6-11.5,12.6-11.5,21.3s4.5,10,10,10Z"/>
      <path d="M44,47.6c5.5,0,10-4.5,10-10s-4.5-10-10-10-2.7.3-4,.8c1.7-3.8,4.3-7,7.4-8.6,1-.5,1.3-1.7.8-2.7-.4-.7-1-1-1.8-1s-.6,0-1,.2c-6.7,3.6-11.5,12.6-11.5,21.3s4.5,10,10,10Z"/>
    </g>
  </g>
</svg>