<?xml version="1.0" encoding="UTF-8"?>
<svg id="Layer_1" data-name="Layer 1" xmlns="http://www.w3.org/2000/svg" viewBox="0 0 483.43 27.93">
  <defs>
    <style>
      .cls-1 {
        fill: #ffe1e1;
      }
    </style>
  </defs>
  <polygon class="cls-1" points="0 0 48.75 0 23.92 27.93 0 0"/>
  <polygon class="cls-1" points="48.75 0 97.49 0 72.67 27.93 48.75 0"/>
  <polygon class="cls-1" points="97.49 0 146.24 0 121.41 27.93 97.49 0"/>
  <polygon class="cls-1" points="146.24 0 194.98 0 170.16 27.93 146.24 0"/>
  <polygon class="cls-1" points="193.19 0 241.94 0 217.11 27.93 193.19 0"/>
  <polygon class="cls-1" points="241.94 0 290.68 0 265.86 27.93 241.94 0"/>
  <polygon class="cls-1" points="290.68 0 339.43 0 314.6 27.93 290.68 0"/>
  <polygon class="cls-1" points="339.43 0 388.17 0 363.35 27.93 339.43 0"/>
  <polygon class="cls-1" points="385.94 0 434.68 0 409.86 27.93 385.94 0"/>
  <polygon class="cls-1" points="434.68 0 483.43 0 458.6 27.93 434.68 0"/>
</svg>